G04 #@! TF.GenerationSoftware,KiCad,Pcbnew,(5.99.0-9218-g05b559c9dc)*
G04 #@! TF.CreationDate,2021-05-16T23:39:12+02:00*
G04 #@! TF.ProjectId,Self_Watering_Plant,53656c66-5f57-4617-9465-72696e675f50,rev?*
G04 #@! TF.SameCoordinates,Original*
G04 #@! TF.FileFunction,Paste,Top*
G04 #@! TF.FilePolarity,Positive*
%FSLAX46Y46*%
G04 Gerber Fmt 4.6, Leading zero omitted, Abs format (unit mm)*
G04 Created by KiCad (PCBNEW (5.99.0-9218-g05b559c9dc)) date 2021-05-16 23:39:12*
%MOMM*%
%LPD*%
G01*
G04 APERTURE LIST*
G04 Aperture macros list*
%AMRoundRect*
0 Rectangle with rounded corners*
0 $1 Rounding radius*
0 $2 $3 $4 $5 $6 $7 $8 $9 X,Y pos of 4 corners*
0 Add a 4 corners polygon primitive as box body*
4,1,4,$2,$3,$4,$5,$6,$7,$8,$9,$2,$3,0*
0 Add four circle primitives for the rounded corners*
1,1,$1+$1,$2,$3*
1,1,$1+$1,$4,$5*
1,1,$1+$1,$6,$7*
1,1,$1+$1,$8,$9*
0 Add four rect primitives between the rounded corners*
20,1,$1+$1,$2,$3,$4,$5,0*
20,1,$1+$1,$4,$5,$6,$7,0*
20,1,$1+$1,$6,$7,$8,$9,0*
20,1,$1+$1,$8,$9,$2,$3,0*%
G04 Aperture macros list end*
%ADD10RoundRect,0.150000X-0.587500X-0.150000X0.587500X-0.150000X0.587500X0.150000X-0.587500X0.150000X0*%
%ADD11RoundRect,0.150000X0.587500X0.150000X-0.587500X0.150000X-0.587500X-0.150000X0.587500X-0.150000X0*%
%ADD12RoundRect,0.200000X-0.275000X0.200000X-0.275000X-0.200000X0.275000X-0.200000X0.275000X0.200000X0*%
%ADD13RoundRect,0.150000X-0.150000X0.825000X-0.150000X-0.825000X0.150000X-0.825000X0.150000X0.825000X0*%
%ADD14RoundRect,0.225000X-0.225000X-0.250000X0.225000X-0.250000X0.225000X0.250000X-0.225000X0.250000X0*%
%ADD15RoundRect,0.225000X-0.250000X0.225000X-0.250000X-0.225000X0.250000X-0.225000X0.250000X0.225000X0*%
%ADD16RoundRect,0.225000X0.225000X0.250000X-0.225000X0.250000X-0.225000X-0.250000X0.225000X-0.250000X0*%
%ADD17RoundRect,0.218750X0.256250X-0.218750X0.256250X0.218750X-0.256250X0.218750X-0.256250X-0.218750X0*%
%ADD18RoundRect,0.200000X-0.200000X-0.275000X0.200000X-0.275000X0.200000X0.275000X-0.200000X0.275000X0*%
%ADD19RoundRect,0.200000X0.200000X0.275000X-0.200000X0.275000X-0.200000X-0.275000X0.200000X-0.275000X0*%
%ADD20R,0.300000X1.150000*%
%ADD21RoundRect,0.200000X0.275000X-0.200000X0.275000X0.200000X-0.275000X0.200000X-0.275000X-0.200000X0*%
%ADD22RoundRect,0.150000X-0.150000X0.512500X-0.150000X-0.512500X0.150000X-0.512500X0.150000X0.512500X0*%
%ADD23R,0.900000X2.000000*%
%ADD24R,2.000000X0.900000*%
%ADD25R,5.000000X5.000000*%
%ADD26RoundRect,0.150000X0.150000X-0.725000X0.150000X0.725000X-0.150000X0.725000X-0.150000X-0.725000X0*%
%ADD27RoundRect,0.250000X0.312500X1.450000X-0.312500X1.450000X-0.312500X-1.450000X0.312500X-1.450000X0*%
%ADD28R,0.400000X0.775000*%
%ADD29R,2.300000X2.500000*%
%ADD30R,0.650000X0.400000*%
%ADD31RoundRect,0.225000X0.250000X-0.225000X0.250000X0.225000X-0.250000X0.225000X-0.250000X-0.225000X0*%
G04 APERTURE END LIST*
D10*
X132287500Y-90525000D03*
X130412500Y-91475000D03*
X130412500Y-89575000D03*
D11*
X126812500Y-90525000D03*
X128687500Y-89575000D03*
X128687500Y-91475000D03*
D12*
X131500000Y-132825000D03*
X131500000Y-131175000D03*
X131500000Y-124325000D03*
X131500000Y-122675000D03*
D13*
X132695000Y-85475000D03*
X131425000Y-85475000D03*
X130155000Y-85475000D03*
X128885000Y-85475000D03*
X127615000Y-85475000D03*
X126345000Y-85475000D03*
X125075000Y-85475000D03*
X123805000Y-85475000D03*
X123805000Y-80525000D03*
X125075000Y-80525000D03*
X126345000Y-80525000D03*
X127615000Y-80525000D03*
X128885000Y-80525000D03*
X130155000Y-80525000D03*
X131425000Y-80525000D03*
X132695000Y-80525000D03*
D14*
X134525000Y-87750000D03*
X132975000Y-87750000D03*
D15*
X134500000Y-86025000D03*
X134500000Y-84475000D03*
D14*
X164775000Y-108650000D03*
X163225000Y-108650000D03*
D16*
X160125000Y-108650000D03*
X161675000Y-108650000D03*
D14*
X134587500Y-93150000D03*
X133037500Y-93150000D03*
D17*
X131500000Y-127175000D03*
X131500000Y-128750000D03*
X131500000Y-118462500D03*
X131500000Y-120037500D03*
D18*
X129825000Y-87925000D03*
X128175000Y-87925000D03*
D19*
X128675000Y-93275000D03*
X130325000Y-93275000D03*
X156975000Y-108650000D03*
X158625000Y-108650000D03*
D12*
X141700000Y-104662500D03*
X141700000Y-103012500D03*
D20*
X124750000Y-77170000D03*
X125550000Y-77170000D03*
X130350000Y-77170000D03*
X131150000Y-77170000D03*
X131450000Y-77170000D03*
X130650000Y-77170000D03*
X129850000Y-77170000D03*
X129350000Y-77170000D03*
X128850000Y-77170000D03*
X128350000Y-77170000D03*
X127850000Y-77170000D03*
X127350000Y-77170000D03*
X126850000Y-77170000D03*
X126350000Y-77170000D03*
X125850000Y-77170000D03*
X125050000Y-77170000D03*
D15*
X129250000Y-132800000D03*
X129250000Y-131250000D03*
D21*
X153000000Y-134025000D03*
X153000000Y-135675000D03*
D22*
X120450000Y-88387500D03*
X118550000Y-88387500D03*
X118550000Y-86112500D03*
X119500000Y-86112500D03*
X120450000Y-86112500D03*
D12*
X131500000Y-115075000D03*
X131500000Y-113425000D03*
D23*
X164405000Y-127750000D03*
X163135000Y-127750000D03*
X161865000Y-127750000D03*
X160595000Y-127750000D03*
X159325000Y-127750000D03*
X158055000Y-127750000D03*
X156785000Y-127750000D03*
X155515000Y-127750000D03*
X154245000Y-127750000D03*
X152975000Y-127750000D03*
X151705000Y-127750000D03*
X150435000Y-127750000D03*
X149165000Y-127750000D03*
X147895000Y-127750000D03*
D24*
X146895000Y-124965000D03*
X146895000Y-123695000D03*
X146895000Y-122425000D03*
X146895000Y-121155000D03*
X146895000Y-119885000D03*
X146895000Y-118615000D03*
X146895000Y-117345000D03*
X146895000Y-116075000D03*
X146895000Y-114805000D03*
X146895000Y-113535000D03*
D23*
X147895000Y-110750000D03*
X149165000Y-110750000D03*
X150435000Y-110750000D03*
X151705000Y-110750000D03*
X152975000Y-110750000D03*
X154245000Y-110750000D03*
X155515000Y-110750000D03*
X156785000Y-110750000D03*
X158055000Y-110750000D03*
X159325000Y-110750000D03*
X160595000Y-110750000D03*
X161865000Y-110750000D03*
X163135000Y-110750000D03*
X164405000Y-110750000D03*
D25*
X156905000Y-118250000D03*
D17*
X155800000Y-134062500D03*
X155800000Y-135637500D03*
D15*
X116250000Y-87525000D03*
X116250000Y-85975000D03*
D16*
X141025000Y-117250000D03*
X142575000Y-117250000D03*
X136525000Y-119750000D03*
X138075000Y-119750000D03*
D12*
X118250000Y-78075000D03*
X118250000Y-76425000D03*
D26*
X146345000Y-88925000D03*
X147615000Y-88925000D03*
X148885000Y-88925000D03*
X150155000Y-88925000D03*
X150155000Y-94075000D03*
X148885000Y-94075000D03*
X147615000Y-94075000D03*
X146345000Y-94075000D03*
D21*
X125300000Y-92525000D03*
X125300000Y-94175000D03*
D17*
X147200000Y-134062500D03*
X147200000Y-135637500D03*
D15*
X116250000Y-90775000D03*
X116250000Y-89225000D03*
D27*
X116362500Y-82500000D03*
X120637500Y-82500000D03*
D28*
X138100000Y-101250000D03*
X139100000Y-101250000D03*
X140100000Y-101250000D03*
X140100000Y-103250000D03*
X139100000Y-103250000D03*
X138100000Y-103250000D03*
D29*
X160000000Y-100100000D03*
X160000000Y-104400000D03*
D12*
X129250000Y-128850000D03*
X129250000Y-127200000D03*
D19*
X119925000Y-76500000D03*
X121575000Y-76500000D03*
D15*
X129250000Y-124275000D03*
X129250000Y-122725000D03*
D30*
X142750000Y-118850000D03*
X142750000Y-120150000D03*
X140850000Y-119500000D03*
X142750000Y-119500000D03*
X140850000Y-120150000D03*
X140850000Y-118850000D03*
D29*
X160000000Y-90350000D03*
X160000000Y-94650000D03*
D12*
X129250000Y-109325000D03*
X129250000Y-107675000D03*
D16*
X136525000Y-115000000D03*
X138075000Y-115000000D03*
D12*
X129250000Y-120075000D03*
X129250000Y-118425000D03*
D26*
X152595000Y-99675000D03*
X153865000Y-99675000D03*
X155135000Y-99675000D03*
X156405000Y-99675000D03*
X156405000Y-104825000D03*
X155135000Y-104825000D03*
X153865000Y-104825000D03*
X152595000Y-104825000D03*
D15*
X122250000Y-90275000D03*
X122250000Y-88725000D03*
D21*
X145550000Y-133975000D03*
X145550000Y-135625000D03*
D15*
X129250000Y-115025000D03*
X129250000Y-113475000D03*
D21*
X141700000Y-99912500D03*
X141700000Y-101562500D03*
D30*
X138250000Y-116600000D03*
X138250000Y-117900000D03*
X136350000Y-117250000D03*
X138250000Y-117250000D03*
X136350000Y-117900000D03*
X136350000Y-116600000D03*
D26*
X140095000Y-88925000D03*
X141365000Y-88925000D03*
X142635000Y-88925000D03*
X143905000Y-88925000D03*
X143905000Y-94075000D03*
X142635000Y-94075000D03*
X141365000Y-94075000D03*
X140095000Y-94075000D03*
D31*
X136700000Y-101375000D03*
X136700000Y-102925000D03*
D17*
X131500000Y-107712500D03*
X131500000Y-109287500D03*
D30*
X138250000Y-121350000D03*
X138250000Y-122650000D03*
X136350000Y-122000000D03*
X138250000Y-122000000D03*
X136350000Y-122650000D03*
X136350000Y-121350000D03*
D21*
X123700000Y-92525000D03*
X123700000Y-94175000D03*
D17*
X116250000Y-76462500D03*
X116250000Y-78037500D03*
D26*
X152595000Y-88925000D03*
X153865000Y-88925000D03*
X155135000Y-88925000D03*
X156405000Y-88925000D03*
X156405000Y-94075000D03*
X155135000Y-94075000D03*
X153865000Y-94075000D03*
X152595000Y-94075000D03*
M02*
