M48
; DRILL file {KiCad (5.99.0-9218-g05b559c9dc)} date 05/17/21 00:15:46
; FORMAT={-:-/ absolute / metric / decimal}
; #@! TF.CreationDate,2021-05-17T00:15:46+02:00
; #@! TF.GenerationSoftware,Kicad,Pcbnew,(5.99.0-9218-g05b559c9dc)
; #@! TF.FileFunction,Plated,1,4,PTH
FMAT,2
METRIC
T1C0.300
T2C0.600
T3C0.900
T4C0.950
T5C1.000
T6C1.100
T7C2.300
%
G90
G05
T1
X117.75Y-81.5
X117.75Y-82.75
X117.75Y-84.0
X117.75Y-85.25
X118.0Y-91.0
X119.0Y-81.5
X119.0Y-82.75
X119.0Y-84.0
X119.25Y-77.5
X119.25Y-91.0
X120.5Y-91.0
X120.75Y-78.75
X121.75Y-87.5
X122.1Y-94.175
X122.25Y-78.75
X123.0Y-87.5
X123.7Y-91.45
X124.25Y-87.5
X125.3Y-91.45
X125.5Y-87.5
X125.9Y-75.05
X126.35Y-78.8
X129.2Y-106.65
X129.2Y-117.45
X129.3Y-125.25
X129.3Y-126.35
X129.35Y-78.8
X129.95Y-82.65
X130.3Y-75.05
X130.4Y-115.85
X130.4Y-132.65
X130.5Y-78.75
X130.5Y-82.05
X131.5Y-125.25
X132.15Y-89.65
X132.75Y-82.0
X133.3Y-100.75
X134.6Y-91.75
X135.0Y-115.85
X135.0Y-117.15
X135.0Y-118.55
X135.0Y-119.75
X135.0Y-121.35
X135.0Y-122.45
X135.0Y-123.65
X135.713Y-86.037
X136.6Y-114.05
X136.75Y-100.15
X137.3Y-121.35
X138.0Y-105.25
X139.1Y-99.95
X139.3Y-115.0
X139.3Y-120.15
X139.5Y-86.75
X139.5Y-90.75
X139.5Y-92.25
X139.5Y-96.75
X139.6Y-116.45
X139.6Y-117.25
X139.6Y-121.65
X139.8Y-119.35
X141.0Y-86.75
X141.0Y-90.75
X141.0Y-92.25
X141.0Y-96.75
X141.8Y-119.45
X142.5Y-86.75
X142.5Y-90.75
X142.5Y-92.25
X142.5Y-96.75
X142.9Y-104.65
X143.8Y-118.85
X143.8Y-120.15
X143.9Y-105.15
X144.8Y-114.65
X145.5Y-92.25
X145.5Y-96.75
X147.0Y-86.25
X147.0Y-90.75
X147.0Y-92.25
X147.0Y-96.75
X148.5Y-86.25
X148.5Y-90.75
X148.5Y-92.25
X148.5Y-96.75
X148.6Y-113.55
X148.6Y-125.05
X148.6Y-132.85
X148.6Y-134.05
X149.0Y-119.45
X149.2Y-109.15
X150.0Y-86.25
X150.0Y-90.75
X150.4Y-129.45
X151.1Y-118.45
X151.1Y-119.45
X151.5Y-83.75
X152.0Y-92.25
X152.0Y-96.55
X152.0Y-106.75
X152.5Y-87.25
X152.5Y-90.75
X152.8Y-108.45
X153.0Y-83.75
X153.5Y-92.25
X153.5Y-98.25
X153.5Y-101.25
X153.5Y-106.75
X154.0Y-87.25
X154.0Y-90.75
X154.2Y-112.85
X154.4Y-134.05
X154.5Y-83.75
X155.0Y-92.25
X155.0Y-96.55
X155.0Y-98.25
X155.0Y-101.25
X155.0Y-106.75
X155.0Y-116.25
X155.0Y-118.25
X155.4Y-112.85
X155.5Y-87.25
X155.5Y-90.75
X155.8Y-133.05
X156.405Y-95.5
X156.405Y-106.945
X156.5Y-98.25
X156.5Y-101.25
X157.0Y-87.25
X157.0Y-90.75
X157.0Y-107.55
X158.5Y-118.25
X158.5Y-120.25
X160.1Y-107.65
X160.5Y-114.95
X161.7Y-112.15
X163.0Y-112.25
X163.4Y-87.55
X163.4Y-89.05
X163.4Y-90.55
X163.4Y-93.55
X163.4Y-95.05
X163.4Y-96.55
X163.4Y-98.55
X163.4Y-100.05
X163.4Y-101.55
X163.5Y-103.75
X163.5Y-105.25
X163.5Y-106.75
X164.2Y-129.65
X164.25Y-112.25
X164.9Y-87.55
X164.9Y-89.05
X164.9Y-90.55
X164.9Y-93.55
X164.9Y-95.05
X164.9Y-96.55
X164.9Y-98.55
X164.9Y-100.05
X164.9Y-101.55
X165.0Y-103.75
X165.0Y-105.25
X165.0Y-106.75
X166.4Y-87.55
X166.4Y-93.55
X166.4Y-98.55
X166.5Y-103.75
X166.5Y-106.75
X168.9Y-87.55
X168.9Y-93.55
X168.9Y-98.55
X169.0Y-103.75
X169.0Y-106.75
X170.4Y-87.55
X170.4Y-89.05
X170.4Y-90.55
X170.4Y-93.55
X170.4Y-95.05
X170.4Y-96.55
X170.4Y-98.55
X170.4Y-100.05
X170.4Y-101.55
X170.5Y-103.75
X170.5Y-105.25
X170.5Y-106.75
T3
X118.475Y-73.0
X121.015Y-73.0
T4
X123.45Y-109.0
X123.45Y-111.5
X123.45Y-114.0
X139.5Y-82.86
X142.0Y-82.86
X144.0Y-82.86
X146.5Y-82.86
X156.75Y-82.86
X159.25Y-82.86
X161.25Y-82.86
X163.75Y-82.86
T5
X123.45Y-120.0
X123.45Y-122.5
X123.45Y-128.5
X123.45Y-131.0
T6
X159.5Y-131.75
X159.5Y-136.25
X166.0Y-131.75
X166.0Y-136.25
X167.75Y-90.25
X167.75Y-95.25
X167.75Y-100.25
X167.75Y-105.25
T7
X136.43Y-80.15
X149.57Y-80.15
X153.68Y-80.15
X166.82Y-80.15
T2
G00X123.78Y-72.75
M15
G01X123.78Y-72.15
M16
G05
G00X123.78Y-77.18
M15
G01X123.78Y-76.08
M16
G05
G00X132.42Y-72.75
M15
G01X132.42Y-72.15
M16
G05
G00X132.42Y-77.18
M15
G01X132.42Y-76.08
M16
G05
T0
M30
