G04 #@! TF.GenerationSoftware,KiCad,Pcbnew,(5.99.0-9218-g05b559c9dc)*
G04 #@! TF.CreationDate,2021-05-16T23:39:12+02:00*
G04 #@! TF.ProjectId,Self_Watering_Plant,53656c66-5f57-4617-9465-72696e675f50,rev?*
G04 #@! TF.SameCoordinates,Original*
G04 #@! TF.FileFunction,Copper,L1,Top*
G04 #@! TF.FilePolarity,Positive*
%FSLAX46Y46*%
G04 Gerber Fmt 4.6, Leading zero omitted, Abs format (unit mm)*
G04 Created by KiCad (PCBNEW (5.99.0-9218-g05b559c9dc)) date 2021-05-16 23:39:12*
%MOMM*%
%LPD*%
G01*
G04 APERTURE LIST*
G04 Aperture macros list*
%AMRoundRect*
0 Rectangle with rounded corners*
0 $1 Rounding radius*
0 $2 $3 $4 $5 $6 $7 $8 $9 X,Y pos of 4 corners*
0 Add a 4 corners polygon primitive as box body*
4,1,4,$2,$3,$4,$5,$6,$7,$8,$9,$2,$3,0*
0 Add four circle primitives for the rounded corners*
1,1,$1+$1,$2,$3*
1,1,$1+$1,$4,$5*
1,1,$1+$1,$6,$7*
1,1,$1+$1,$8,$9*
0 Add four rect primitives between the rounded corners*
20,1,$1+$1,$2,$3,$4,$5,0*
20,1,$1+$1,$4,$5,$6,$7,0*
20,1,$1+$1,$6,$7,$8,$9,0*
20,1,$1+$1,$8,$9,$2,$3,0*%
G04 Aperture macros list end*
G04 #@! TA.AperFunction,SMDPad,CuDef*
%ADD10RoundRect,0.150000X-0.587500X-0.150000X0.587500X-0.150000X0.587500X0.150000X-0.587500X0.150000X0*%
G04 #@! TD*
G04 #@! TA.AperFunction,SMDPad,CuDef*
%ADD11RoundRect,0.150000X0.587500X0.150000X-0.587500X0.150000X-0.587500X-0.150000X0.587500X-0.150000X0*%
G04 #@! TD*
G04 #@! TA.AperFunction,SMDPad,CuDef*
%ADD12RoundRect,0.200000X-0.275000X0.200000X-0.275000X-0.200000X0.275000X-0.200000X0.275000X0.200000X0*%
G04 #@! TD*
G04 #@! TA.AperFunction,SMDPad,CuDef*
%ADD13RoundRect,0.150000X-0.150000X0.825000X-0.150000X-0.825000X0.150000X-0.825000X0.150000X0.825000X0*%
G04 #@! TD*
G04 #@! TA.AperFunction,SMDPad,CuDef*
%ADD14RoundRect,0.225000X-0.225000X-0.250000X0.225000X-0.250000X0.225000X0.250000X-0.225000X0.250000X0*%
G04 #@! TD*
G04 #@! TA.AperFunction,SMDPad,CuDef*
%ADD15RoundRect,0.225000X-0.250000X0.225000X-0.250000X-0.225000X0.250000X-0.225000X0.250000X0.225000X0*%
G04 #@! TD*
G04 #@! TA.AperFunction,SMDPad,CuDef*
%ADD16RoundRect,0.225000X0.225000X0.250000X-0.225000X0.250000X-0.225000X-0.250000X0.225000X-0.250000X0*%
G04 #@! TD*
G04 #@! TA.AperFunction,SMDPad,CuDef*
%ADD17RoundRect,0.218750X0.256250X-0.218750X0.256250X0.218750X-0.256250X0.218750X-0.256250X-0.218750X0*%
G04 #@! TD*
G04 #@! TA.AperFunction,ComponentPad*
%ADD18C,1.600000*%
G04 #@! TD*
G04 #@! TA.AperFunction,ComponentPad*
%ADD19R,1.600000X1.500000*%
G04 #@! TD*
G04 #@! TA.AperFunction,ComponentPad*
%ADD20C,3.000000*%
G04 #@! TD*
G04 #@! TA.AperFunction,SMDPad,CuDef*
%ADD21RoundRect,0.200000X-0.200000X-0.275000X0.200000X-0.275000X0.200000X0.275000X-0.200000X0.275000X0*%
G04 #@! TD*
G04 #@! TA.AperFunction,SMDPad,CuDef*
%ADD22RoundRect,0.200000X0.200000X0.275000X-0.200000X0.275000X-0.200000X-0.275000X0.200000X-0.275000X0*%
G04 #@! TD*
G04 #@! TA.AperFunction,ComponentPad*
%ADD23C,2.000000*%
G04 #@! TD*
G04 #@! TA.AperFunction,ComponentPad*
%ADD24O,2.000000X1.700000*%
G04 #@! TD*
G04 #@! TA.AperFunction,ComponentPad*
%ADD25RoundRect,0.250000X-0.750000X0.600000X-0.750000X-0.600000X0.750000X-0.600000X0.750000X0.600000X0*%
G04 #@! TD*
G04 #@! TA.AperFunction,SMDPad,CuDef*
%ADD26R,0.300000X1.150000*%
G04 #@! TD*
G04 #@! TA.AperFunction,ComponentPad*
%ADD27O,1.000000X1.600000*%
G04 #@! TD*
G04 #@! TA.AperFunction,ComponentPad*
%ADD28O,1.000000X2.100000*%
G04 #@! TD*
G04 #@! TA.AperFunction,ComponentPad*
%ADD29O,1.950000X1.700000*%
G04 #@! TD*
G04 #@! TA.AperFunction,ComponentPad*
%ADD30RoundRect,0.250000X-0.725000X0.600000X-0.725000X-0.600000X0.725000X-0.600000X0.725000X0.600000X0*%
G04 #@! TD*
G04 #@! TA.AperFunction,SMDPad,CuDef*
%ADD31RoundRect,0.200000X0.275000X-0.200000X0.275000X0.200000X-0.275000X0.200000X-0.275000X-0.200000X0*%
G04 #@! TD*
G04 #@! TA.AperFunction,SMDPad,CuDef*
%ADD32RoundRect,0.150000X-0.150000X0.512500X-0.150000X-0.512500X0.150000X-0.512500X0.150000X0.512500X0*%
G04 #@! TD*
G04 #@! TA.AperFunction,SMDPad,CuDef*
%ADD33R,0.900000X2.000000*%
G04 #@! TD*
G04 #@! TA.AperFunction,SMDPad,CuDef*
%ADD34R,2.000000X0.900000*%
G04 #@! TD*
G04 #@! TA.AperFunction,SMDPad,CuDef*
%ADD35R,5.000000X5.000000*%
G04 #@! TD*
G04 #@! TA.AperFunction,SMDPad,CuDef*
%ADD36RoundRect,0.150000X0.150000X-0.725000X0.150000X0.725000X-0.150000X0.725000X-0.150000X-0.725000X0*%
G04 #@! TD*
G04 #@! TA.AperFunction,SMDPad,CuDef*
%ADD37RoundRect,0.250000X0.312500X1.450000X-0.312500X1.450000X-0.312500X-1.450000X0.312500X-1.450000X0*%
G04 #@! TD*
G04 #@! TA.AperFunction,SMDPad,CuDef*
%ADD38R,0.400000X0.775000*%
G04 #@! TD*
G04 #@! TA.AperFunction,SMDPad,CuDef*
%ADD39R,2.300000X2.500000*%
G04 #@! TD*
G04 #@! TA.AperFunction,SMDPad,CuDef*
%ADD40R,0.650000X0.400000*%
G04 #@! TD*
G04 #@! TA.AperFunction,ComponentPad*
%ADD41C,1.800000*%
G04 #@! TD*
G04 #@! TA.AperFunction,ComponentPad*
%ADD42R,1.800000X1.800000*%
G04 #@! TD*
G04 #@! TA.AperFunction,SMDPad,CuDef*
%ADD43RoundRect,0.225000X0.250000X-0.225000X0.250000X0.225000X-0.250000X0.225000X-0.250000X-0.225000X0*%
G04 #@! TD*
G04 #@! TA.AperFunction,ViaPad*
%ADD44C,0.600000*%
G04 #@! TD*
G04 #@! TA.AperFunction,ViaPad*
%ADD45C,0.800000*%
G04 #@! TD*
G04 #@! TA.AperFunction,Conductor*
%ADD46C,0.250000*%
G04 #@! TD*
G04 #@! TA.AperFunction,Conductor*
%ADD47C,1.000000*%
G04 #@! TD*
G04 #@! TA.AperFunction,Conductor*
%ADD48C,0.200000*%
G04 #@! TD*
G04 APERTURE END LIST*
D10*
X132287500Y-90525000D03*
X130412500Y-91475000D03*
X130412500Y-89575000D03*
D11*
X126812500Y-90525000D03*
X128687500Y-89575000D03*
X128687500Y-91475000D03*
D12*
X131500000Y-132825000D03*
X131500000Y-131175000D03*
X131500000Y-124325000D03*
X131500000Y-122675000D03*
D13*
X132695000Y-85475000D03*
X131425000Y-85475000D03*
X130155000Y-85475000D03*
X128885000Y-85475000D03*
X127615000Y-85475000D03*
X126345000Y-85475000D03*
X125075000Y-85475000D03*
X123805000Y-85475000D03*
X123805000Y-80525000D03*
X125075000Y-80525000D03*
X126345000Y-80525000D03*
X127615000Y-80525000D03*
X128885000Y-80525000D03*
X130155000Y-80525000D03*
X131425000Y-80525000D03*
X132695000Y-80525000D03*
D14*
X134525000Y-87750000D03*
X132975000Y-87750000D03*
D15*
X134500000Y-86025000D03*
X134500000Y-84475000D03*
D14*
X164775000Y-108650000D03*
X163225000Y-108650000D03*
D16*
X160125000Y-108650000D03*
X161675000Y-108650000D03*
D14*
X134587500Y-93150000D03*
X133037500Y-93150000D03*
D17*
X131500000Y-127175000D03*
X131500000Y-128750000D03*
X131500000Y-118462500D03*
X131500000Y-120037500D03*
D18*
X139500000Y-82860000D03*
X142000000Y-82860000D03*
X144000000Y-82860000D03*
D19*
X146500000Y-82860000D03*
D20*
X136430000Y-80150000D03*
X149570000Y-80150000D03*
D21*
X129825000Y-87925000D03*
X128175000Y-87925000D03*
D22*
X128675000Y-93275000D03*
X130325000Y-93275000D03*
X156975000Y-108650000D03*
X158625000Y-108650000D03*
D12*
X141700000Y-104662500D03*
X141700000Y-103012500D03*
D23*
X167750000Y-90250000D03*
X167750000Y-95250000D03*
X167750000Y-100250000D03*
X167750000Y-105250000D03*
D18*
X156750000Y-82860000D03*
X159250000Y-82860000D03*
X161250000Y-82860000D03*
D19*
X163750000Y-82860000D03*
D20*
X153680000Y-80150000D03*
X166820000Y-80150000D03*
D24*
X123450000Y-122500000D03*
D25*
X123450000Y-120000000D03*
D24*
X123450000Y-131000000D03*
D25*
X123450000Y-128500000D03*
D26*
X124750000Y-77170000D03*
X125550000Y-77170000D03*
X130350000Y-77170000D03*
X131150000Y-77170000D03*
X131450000Y-77170000D03*
X130650000Y-77170000D03*
X129850000Y-77170000D03*
X129350000Y-77170000D03*
X128850000Y-77170000D03*
X128350000Y-77170000D03*
X127850000Y-77170000D03*
X127350000Y-77170000D03*
X126850000Y-77170000D03*
X126350000Y-77170000D03*
X125850000Y-77170000D03*
X125050000Y-77170000D03*
D27*
X123780000Y-72425000D03*
X132420000Y-72425000D03*
D28*
X123780000Y-76605000D03*
X132420000Y-76605000D03*
D29*
X123450000Y-114000000D03*
X123450000Y-111500000D03*
D30*
X123450000Y-109000000D03*
D15*
X129250000Y-132800000D03*
X129250000Y-131250000D03*
D31*
X153000000Y-134025000D03*
X153000000Y-135675000D03*
D32*
X120450000Y-88387500D03*
X118550000Y-88387500D03*
X118550000Y-86112500D03*
X119500000Y-86112500D03*
X120450000Y-86112500D03*
D23*
X159500000Y-136250000D03*
X159500000Y-131750000D03*
X166000000Y-136250000D03*
X166000000Y-131750000D03*
D12*
X131500000Y-115075000D03*
X131500000Y-113425000D03*
D33*
X164405000Y-127750000D03*
X163135000Y-127750000D03*
X161865000Y-127750000D03*
X160595000Y-127750000D03*
X159325000Y-127750000D03*
X158055000Y-127750000D03*
X156785000Y-127750000D03*
X155515000Y-127750000D03*
X154245000Y-127750000D03*
X152975000Y-127750000D03*
X151705000Y-127750000D03*
X150435000Y-127750000D03*
X149165000Y-127750000D03*
X147895000Y-127750000D03*
D34*
X146895000Y-124965000D03*
X146895000Y-123695000D03*
X146895000Y-122425000D03*
X146895000Y-121155000D03*
X146895000Y-119885000D03*
X146895000Y-118615000D03*
X146895000Y-117345000D03*
X146895000Y-116075000D03*
X146895000Y-114805000D03*
X146895000Y-113535000D03*
D33*
X147895000Y-110750000D03*
X149165000Y-110750000D03*
X150435000Y-110750000D03*
X151705000Y-110750000D03*
X152975000Y-110750000D03*
X154245000Y-110750000D03*
X155515000Y-110750000D03*
X156785000Y-110750000D03*
X158055000Y-110750000D03*
X159325000Y-110750000D03*
X160595000Y-110750000D03*
X161865000Y-110750000D03*
X163135000Y-110750000D03*
X164405000Y-110750000D03*
D35*
X156905000Y-118250000D03*
D17*
X155800000Y-134062500D03*
X155800000Y-135637500D03*
D15*
X116250000Y-87525000D03*
X116250000Y-85975000D03*
D16*
X141025000Y-117250000D03*
X142575000Y-117250000D03*
X136525000Y-119750000D03*
X138075000Y-119750000D03*
D12*
X118250000Y-78075000D03*
X118250000Y-76425000D03*
D36*
X146345000Y-88925000D03*
X147615000Y-88925000D03*
X148885000Y-88925000D03*
X150155000Y-88925000D03*
X150155000Y-94075000D03*
X148885000Y-94075000D03*
X147615000Y-94075000D03*
X146345000Y-94075000D03*
D31*
X125300000Y-92525000D03*
X125300000Y-94175000D03*
D17*
X147200000Y-134062500D03*
X147200000Y-135637500D03*
D15*
X116250000Y-90775000D03*
X116250000Y-89225000D03*
D37*
X116362500Y-82500000D03*
X120637500Y-82500000D03*
D38*
X138100000Y-101250000D03*
X139100000Y-101250000D03*
X140100000Y-101250000D03*
X140100000Y-103250000D03*
X139100000Y-103250000D03*
X138100000Y-103250000D03*
D39*
X160000000Y-100100000D03*
X160000000Y-104400000D03*
D12*
X129250000Y-128850000D03*
X129250000Y-127200000D03*
D22*
X119925000Y-76500000D03*
X121575000Y-76500000D03*
D15*
X129250000Y-124275000D03*
X129250000Y-122725000D03*
D40*
X142750000Y-118850000D03*
X142750000Y-120150000D03*
X140850000Y-119500000D03*
X142750000Y-119500000D03*
X140850000Y-120150000D03*
X140850000Y-118850000D03*
D41*
X121015000Y-73000000D03*
D42*
X118475000Y-73000000D03*
D39*
X160000000Y-90350000D03*
X160000000Y-94650000D03*
D12*
X129250000Y-109325000D03*
X129250000Y-107675000D03*
D16*
X136525000Y-115000000D03*
X138075000Y-115000000D03*
D12*
X129250000Y-120075000D03*
X129250000Y-118425000D03*
D36*
X152595000Y-99675000D03*
X153865000Y-99675000D03*
X155135000Y-99675000D03*
X156405000Y-99675000D03*
X156405000Y-104825000D03*
X155135000Y-104825000D03*
X153865000Y-104825000D03*
X152595000Y-104825000D03*
D15*
X122250000Y-90275000D03*
X122250000Y-88725000D03*
D31*
X145550000Y-133975000D03*
X145550000Y-135625000D03*
D15*
X129250000Y-115025000D03*
X129250000Y-113475000D03*
D31*
X141700000Y-99912500D03*
X141700000Y-101562500D03*
D40*
X138250000Y-116600000D03*
X138250000Y-117900000D03*
X136350000Y-117250000D03*
X138250000Y-117250000D03*
X136350000Y-117900000D03*
X136350000Y-116600000D03*
D36*
X140095000Y-88925000D03*
X141365000Y-88925000D03*
X142635000Y-88925000D03*
X143905000Y-88925000D03*
X143905000Y-94075000D03*
X142635000Y-94075000D03*
X141365000Y-94075000D03*
X140095000Y-94075000D03*
D43*
X136700000Y-101375000D03*
X136700000Y-102925000D03*
D17*
X131500000Y-107712500D03*
X131500000Y-109287500D03*
D40*
X138250000Y-121350000D03*
X138250000Y-122650000D03*
X136350000Y-122000000D03*
X138250000Y-122000000D03*
X136350000Y-122650000D03*
X136350000Y-121350000D03*
D31*
X123700000Y-92525000D03*
X123700000Y-94175000D03*
D17*
X116250000Y-76462500D03*
X116250000Y-78037500D03*
D36*
X152595000Y-88925000D03*
X153865000Y-88925000D03*
X155135000Y-88925000D03*
X156405000Y-88925000D03*
X156405000Y-94075000D03*
X155135000Y-94075000D03*
X153865000Y-94075000D03*
X152595000Y-94075000D03*
D44*
X161700000Y-112150000D03*
D45*
X132250000Y-91775000D03*
X144800000Y-114650000D03*
X133300000Y-100750000D03*
D44*
X121750000Y-87500000D03*
X129200000Y-117450000D03*
X129300000Y-126350000D03*
X139300000Y-120150000D03*
X148600000Y-134050000D03*
X123000000Y-87500000D03*
X138000000Y-105250000D03*
X129200000Y-106650000D03*
X125500000Y-87500000D03*
X163000000Y-112250000D03*
X124250000Y-87500000D03*
X141800000Y-119450000D03*
X139600000Y-121650000D03*
X139300000Y-115000000D03*
X141000000Y-92250000D03*
X164250000Y-112250000D03*
X142500000Y-96750000D03*
X135000000Y-119750000D03*
X139800000Y-119350000D03*
X154400000Y-134050000D03*
D45*
X155000000Y-116250000D03*
D44*
X141000000Y-96750000D03*
X129300000Y-125250000D03*
X120500000Y-91000000D03*
X145500000Y-92250000D03*
X134600000Y-91750000D03*
X119250000Y-77500000D03*
D45*
X148600000Y-113550000D03*
D44*
X155000000Y-96550000D03*
X152000000Y-106750000D03*
X152000000Y-96550000D03*
X155000000Y-106750000D03*
X135000000Y-117150000D03*
X153500000Y-92250000D03*
X147000000Y-96750000D03*
X135000000Y-122450000D03*
X130400000Y-132650000D03*
X139500000Y-96750000D03*
X142500000Y-92250000D03*
X139600000Y-117250000D03*
X132750000Y-82000000D03*
X164200000Y-129650000D03*
D45*
X158500000Y-120250000D03*
D44*
X160100000Y-107650000D03*
X148500000Y-96750000D03*
X155000000Y-92250000D03*
D45*
X155000000Y-118250000D03*
D44*
X157000000Y-107550000D03*
X148500000Y-92250000D03*
X136750000Y-100150000D03*
X147000000Y-92250000D03*
X122275000Y-94175000D03*
X119250000Y-91000000D03*
X136600000Y-114050000D03*
D45*
X158500000Y-118250000D03*
D44*
X153500000Y-106750000D03*
X139500000Y-92250000D03*
X145500000Y-96750000D03*
X118000000Y-91000000D03*
X139100000Y-99950000D03*
X131500000Y-125250000D03*
X148600000Y-132850000D03*
X130400000Y-115850000D03*
X152000000Y-92250000D03*
X135712500Y-86037500D03*
X129950000Y-82650000D03*
X151100000Y-119450000D03*
X151100000Y-118450000D03*
X130500000Y-82050000D03*
X155400000Y-112850000D03*
X142900000Y-104650000D03*
X135000000Y-123650000D03*
X170400000Y-87550000D03*
X155500000Y-87250000D03*
X164900000Y-90550000D03*
X168900000Y-87550000D03*
X152500000Y-87250000D03*
X154000000Y-87250000D03*
X155500000Y-90750000D03*
X157000000Y-87250000D03*
X154000000Y-90750000D03*
X170400000Y-90550000D03*
X152500000Y-90750000D03*
X163400000Y-89050000D03*
X163400000Y-90550000D03*
X157000000Y-90750000D03*
X163400000Y-87550000D03*
X166400000Y-87550000D03*
X164900000Y-89050000D03*
X164900000Y-87550000D03*
X170400000Y-89050000D03*
X155800000Y-133050000D03*
X150400000Y-129450000D03*
X163500000Y-106750000D03*
X166500000Y-106750000D03*
X164900000Y-93550000D03*
X117750000Y-82750000D03*
X169000000Y-103750000D03*
X166400000Y-93550000D03*
X164900000Y-95050000D03*
X165000000Y-103750000D03*
X163500000Y-103750000D03*
X170400000Y-96550000D03*
X163500000Y-105250000D03*
X163400000Y-95050000D03*
X119000000Y-81500000D03*
X170400000Y-93550000D03*
X168900000Y-93550000D03*
X117750000Y-84000000D03*
X166500000Y-103750000D03*
X117750000Y-85250000D03*
X164900000Y-96550000D03*
X170500000Y-106750000D03*
X163400000Y-96550000D03*
X165000000Y-106750000D03*
X165000000Y-105250000D03*
X170500000Y-105250000D03*
X169000000Y-106750000D03*
X119000000Y-82750000D03*
X119000000Y-84000000D03*
X163400000Y-93550000D03*
X117750000Y-81500000D03*
X170400000Y-95050000D03*
X170500000Y-103750000D03*
X129400000Y-78450000D03*
X125300000Y-91450000D03*
X156405000Y-95500000D03*
X152800000Y-108450000D03*
X149200000Y-109150000D03*
X156405000Y-106945000D03*
X117550000Y-75400000D03*
X125900000Y-75050000D03*
X130500000Y-78750000D03*
X130300000Y-75050000D03*
X122250000Y-78750000D03*
X120750000Y-78750000D03*
X148600000Y-125050000D03*
X139600000Y-116450000D03*
X137300000Y-121350000D03*
X154200000Y-112850000D03*
X143900000Y-105150000D03*
X160500000Y-114950000D03*
X143800000Y-120150000D03*
X149000000Y-119450000D03*
X143800000Y-118850000D03*
X135000000Y-121350000D03*
X135000000Y-115850000D03*
X135000000Y-118550000D03*
X155000000Y-101250000D03*
X166400000Y-98550000D03*
X164900000Y-100050000D03*
X164900000Y-101550000D03*
X156500000Y-98250000D03*
X153500000Y-98250000D03*
X155000000Y-98250000D03*
X170400000Y-100050000D03*
X156500000Y-101250000D03*
X163400000Y-101550000D03*
X168900000Y-98550000D03*
X163400000Y-100050000D03*
X170400000Y-101550000D03*
X170400000Y-98550000D03*
X153500000Y-101250000D03*
X163400000Y-98550000D03*
X164900000Y-98550000D03*
X150000000Y-86250000D03*
X153000000Y-83750000D03*
X148500000Y-90750000D03*
X147000000Y-86250000D03*
X154500000Y-83750000D03*
X148500000Y-86250000D03*
X147000000Y-90750000D03*
X150000000Y-90750000D03*
X151500000Y-83750000D03*
X142500000Y-86750000D03*
X139500000Y-90750000D03*
X141000000Y-86750000D03*
X141000000Y-90750000D03*
X142500000Y-90750000D03*
X139500000Y-86750000D03*
X123700000Y-91450000D03*
X126500000Y-78550000D03*
D46*
X132350000Y-91675000D02*
X132350000Y-90525000D01*
X166000000Y-118000000D02*
X165125000Y-117125000D01*
X132250000Y-91775000D02*
X132350000Y-91675000D01*
X161715000Y-110750000D02*
X161715000Y-113715000D01*
X133025000Y-93150000D02*
X133025000Y-92550000D01*
X159500000Y-131750000D02*
X166000000Y-131750000D01*
X166000000Y-131750000D02*
X166000000Y-118000000D01*
X161715000Y-113715000D02*
X165125000Y-117125000D01*
X133025000Y-92550000D02*
X132250000Y-91775000D01*
X130350000Y-91475000D02*
X131500000Y-90325000D01*
X131500000Y-90325000D02*
X131500000Y-87750000D01*
X130350000Y-91475000D02*
X130350000Y-93212500D01*
X131500000Y-87750000D02*
X130155000Y-86405000D01*
X130155000Y-86405000D02*
X130155000Y-85475000D01*
X130350000Y-93212500D02*
X130287500Y-93275000D01*
X131500000Y-88025000D02*
X131500000Y-87750000D01*
X129787500Y-87925000D02*
X129787500Y-88312500D01*
X130350000Y-88875000D02*
X130350000Y-89575000D01*
X129787500Y-88312500D02*
X130350000Y-88875000D01*
X126750000Y-90525000D02*
X126750000Y-91775000D01*
X126750000Y-93600000D02*
X126750000Y-91775000D01*
X144800000Y-127350000D02*
X145200000Y-127750000D01*
X133300000Y-100150000D02*
X126750000Y-93600000D01*
X133300000Y-100750000D02*
X133300000Y-100150000D01*
X144800000Y-114650000D02*
X144800000Y-127350000D01*
X145200000Y-127750000D02*
X147745000Y-127750000D01*
X128750000Y-85610000D02*
X128885000Y-85475000D01*
X128212500Y-87925000D02*
X128750000Y-87925000D01*
X128750000Y-87925000D02*
X128750000Y-85610000D01*
X128575000Y-87925000D02*
X128750000Y-87750000D01*
X128750000Y-87925000D02*
X128750000Y-87750000D01*
X128750000Y-87750000D02*
X128750000Y-87650000D01*
X128750000Y-89575000D02*
X128750000Y-87925000D01*
X128212500Y-87925000D02*
X128575000Y-87925000D01*
X128750000Y-93237500D02*
X128712500Y-93275000D01*
X128750000Y-91475000D02*
X128750000Y-93237500D01*
X136700000Y-103950000D02*
X136700000Y-102925000D01*
D47*
X141700000Y-102150000D02*
X141700000Y-103050000D01*
D46*
X148587500Y-134062500D02*
X148600000Y-134050000D01*
X137800000Y-117250000D02*
X137400000Y-116850000D01*
X138900000Y-119750000D02*
X139300000Y-120150000D01*
X139100000Y-104150000D02*
X139100000Y-103250000D01*
X139700000Y-102150000D02*
X141700000Y-102150000D01*
X139100000Y-102750000D02*
X139700000Y-102150000D01*
X147200000Y-134062500D02*
X148587500Y-134062500D01*
X162985000Y-112235000D02*
X162985000Y-110750000D01*
X129250000Y-117500000D02*
X129250000Y-118425000D01*
X141800000Y-119450000D02*
X141800000Y-118250000D01*
X142575000Y-117475000D02*
X142575000Y-117250000D01*
X138250000Y-122000000D02*
X139250000Y-122000000D01*
X129300000Y-126350000D02*
X129250000Y-126400000D01*
X138075000Y-119750000D02*
X138900000Y-119750000D01*
X138000000Y-105250000D02*
X139100000Y-104150000D01*
X138000000Y-105250000D02*
X136700000Y-103950000D01*
X138250000Y-117250000D02*
X137800000Y-117250000D01*
X129250000Y-126400000D02*
X129250000Y-127200000D01*
X139250000Y-122000000D02*
X139600000Y-121650000D01*
X141850000Y-119500000D02*
X142750000Y-119500000D01*
X137400000Y-116850000D02*
X137400000Y-115675000D01*
X141800000Y-118250000D02*
X142575000Y-117475000D01*
X138075000Y-115000000D02*
X139300000Y-115000000D01*
X129200000Y-117450000D02*
X129250000Y-117500000D01*
X129250000Y-106700000D02*
X129250000Y-107675000D01*
X137400000Y-115675000D02*
X138075000Y-115000000D01*
X139100000Y-103787500D02*
X139100000Y-103250000D01*
X163000000Y-112250000D02*
X162985000Y-112235000D01*
D47*
X141700000Y-101562500D02*
X141700000Y-102150000D01*
D46*
X161687500Y-108650000D02*
X163212500Y-108650000D01*
X141800000Y-119450000D02*
X141850000Y-119500000D01*
X139100000Y-103250000D02*
X139100000Y-102750000D01*
X129200000Y-106650000D02*
X129250000Y-106700000D01*
X161000000Y-129750000D02*
X161715000Y-129035000D01*
X155900000Y-131850000D02*
X156900000Y-131850000D01*
X155900000Y-131850000D02*
X137500000Y-131850000D01*
X156900000Y-131850000D02*
X159000000Y-129750000D01*
X161715000Y-129035000D02*
X161715000Y-127750000D01*
X137500000Y-131850000D02*
X132825000Y-127175000D01*
X161715000Y-127750000D02*
X161700000Y-127765000D01*
X156000000Y-131850000D02*
X155900000Y-131850000D01*
X132825000Y-127175000D02*
X131500000Y-127175000D01*
X159000000Y-129750000D02*
X161000000Y-129750000D01*
X131500000Y-131212500D02*
X131500000Y-128750000D01*
X129575000Y-115025000D02*
X130400000Y-115850000D01*
X136750000Y-100150000D02*
X136650000Y-100050000D01*
X131150000Y-77170000D02*
X131855000Y-77170000D01*
X119500000Y-86112500D02*
X119500000Y-86750000D01*
X136750000Y-100150000D02*
X136700000Y-100200000D01*
X119925000Y-76825000D02*
X119925000Y-76500000D01*
X131855000Y-77170000D02*
X132420000Y-76605000D01*
X157000000Y-107550000D02*
X157012500Y-107562500D01*
X157000000Y-107550000D02*
X157100000Y-107550000D01*
X118675000Y-78075000D02*
X118250000Y-78075000D01*
X129250000Y-115025000D02*
X129575000Y-115025000D01*
X129300000Y-125250000D02*
X129250000Y-125200000D01*
X134500000Y-86037500D02*
X135712500Y-86037500D01*
X136350000Y-117250000D02*
X135100000Y-117250000D01*
X145550000Y-133975000D02*
X145550000Y-133300000D01*
X130250000Y-132800000D02*
X130400000Y-132650000D01*
X130537500Y-132787500D02*
X130400000Y-132650000D01*
X132695000Y-81945000D02*
X132695000Y-80525000D01*
X153000000Y-134025000D02*
X154375000Y-134025000D01*
X132750000Y-82000000D02*
X132695000Y-81945000D01*
X146000000Y-132850000D02*
X148600000Y-132850000D01*
X131175000Y-115075000D02*
X130400000Y-115850000D01*
X125050000Y-77170000D02*
X124345000Y-77170000D01*
X159500000Y-136250000D02*
X166000000Y-136250000D01*
X136350000Y-122000000D02*
X135450000Y-122000000D01*
X116525000Y-87250000D02*
X116250000Y-87525000D01*
X157100000Y-107550000D02*
X157200000Y-107450000D01*
X136700000Y-100200000D02*
X136700000Y-101375000D01*
X164255000Y-112245000D02*
X164255000Y-110750000D01*
X129250000Y-132800000D02*
X130250000Y-132800000D01*
X164200000Y-129650000D02*
X164200000Y-127560000D01*
X160100000Y-107650000D02*
X160112500Y-107662500D01*
X134500000Y-87712500D02*
X134537500Y-87750000D01*
X131500000Y-115075000D02*
X131175000Y-115075000D01*
X129250000Y-125200000D02*
X129250000Y-124275000D01*
X139950000Y-119500000D02*
X139800000Y-119350000D01*
X131500000Y-124287500D02*
X131500000Y-125250000D01*
X131500000Y-132787500D02*
X130537500Y-132787500D01*
X119250000Y-77500000D02*
X119925000Y-76825000D01*
X119250000Y-77500000D02*
X118675000Y-78075000D01*
X157012500Y-107562500D02*
X157012500Y-108650000D01*
X139100000Y-100887500D02*
X139100000Y-99950000D01*
X148600000Y-113550000D02*
X148585000Y-113535000D01*
X135100000Y-117250000D02*
X135000000Y-117150000D01*
X122275000Y-94175000D02*
X122200000Y-94250000D01*
X145550000Y-133300000D02*
X146000000Y-132850000D01*
X154375000Y-134025000D02*
X154400000Y-134050000D01*
X134600000Y-93150000D02*
X134600000Y-91750000D01*
X124345000Y-77170000D02*
X123780000Y-76605000D01*
X125300000Y-94175000D02*
X122275000Y-94175000D01*
X164200000Y-127560000D02*
X164255000Y-127505000D01*
X141025000Y-117250000D02*
X139600000Y-117250000D01*
X164250000Y-112250000D02*
X164255000Y-112245000D01*
X136600000Y-114925000D02*
X136525000Y-115000000D01*
X148585000Y-113535000D02*
X146745000Y-113535000D01*
X134500000Y-86037500D02*
X134500000Y-87712500D01*
X140850000Y-119500000D02*
X139950000Y-119500000D01*
X135450000Y-122000000D02*
X135000000Y-122450000D01*
X135712500Y-86037500D02*
X135750000Y-86000000D01*
X160112500Y-107662500D02*
X160112500Y-108650000D01*
X136600000Y-114050000D02*
X136600000Y-114925000D01*
X136525000Y-119750000D02*
X135000000Y-119750000D01*
X131512500Y-124200000D02*
X131500000Y-124200000D01*
X157905000Y-129145000D02*
X157905000Y-127750000D01*
X132112500Y-118462500D02*
X132700000Y-119050000D01*
X132700000Y-119050000D02*
X132700000Y-126350000D01*
X137700000Y-131350000D02*
X155700000Y-131350000D01*
X155700000Y-131350000D02*
X157905000Y-129145000D01*
X132700000Y-126350000D02*
X137700000Y-131350000D01*
X131500000Y-118462500D02*
X132112500Y-118462500D01*
X131500000Y-122712500D02*
X131500000Y-120037500D01*
X133850000Y-83350000D02*
X129600000Y-83350000D01*
X134500000Y-84000000D02*
X133850000Y-83350000D01*
X128885000Y-82635000D02*
X128885000Y-80525000D01*
X134500000Y-84462500D02*
X134500000Y-84000000D01*
X129600000Y-83350000D02*
X128885000Y-82635000D01*
X157800000Y-126050000D02*
X158300000Y-126050000D01*
X131050000Y-82800000D02*
X131425000Y-82425000D01*
X158300000Y-126050000D02*
X159175000Y-126925000D01*
X151100000Y-119450000D02*
X151200000Y-119450000D01*
X131425000Y-82425000D02*
X131425000Y-80525000D01*
X130100000Y-82800000D02*
X131050000Y-82800000D01*
X159175000Y-126925000D02*
X159175000Y-127750000D01*
X129950000Y-82650000D02*
X130100000Y-82800000D01*
X151200000Y-119450000D02*
X157800000Y-126050000D01*
X130500000Y-80870000D02*
X130155000Y-80525000D01*
X159100000Y-125550000D02*
X160445000Y-126895000D01*
X151100000Y-118450000D02*
X158200000Y-125550000D01*
X158200000Y-125550000D02*
X159100000Y-125550000D01*
X130500000Y-82050000D02*
X130500000Y-80870000D01*
X160445000Y-126895000D02*
X160445000Y-127750000D01*
X159000000Y-110575000D02*
X159175000Y-110750000D01*
X159000000Y-108962500D02*
X159000000Y-110575000D01*
X158587500Y-108550000D02*
X159000000Y-108962500D01*
X131500000Y-109287500D02*
X131500000Y-113425000D01*
X140100000Y-103787500D02*
X140100000Y-103250000D01*
X155515000Y-112735000D02*
X155400000Y-112850000D01*
X140100000Y-103850000D02*
X140100000Y-103250000D01*
X155515000Y-110750000D02*
X155515000Y-112735000D01*
X140875000Y-104625000D02*
X140100000Y-103850000D01*
X141700000Y-104625000D02*
X140875000Y-104625000D01*
X142875000Y-104625000D02*
X141700000Y-104625000D01*
X142900000Y-104650000D02*
X142875000Y-104625000D01*
X135000000Y-123650000D02*
X136000000Y-122650000D01*
X123600000Y-128650000D02*
X129050000Y-128650000D01*
X136000000Y-122650000D02*
X136350000Y-122650000D01*
X129250000Y-131250000D02*
X129250000Y-128850000D01*
X129050000Y-128650000D02*
X129250000Y-128850000D01*
X123450000Y-128500000D02*
X123600000Y-128650000D01*
X155800000Y-133050000D02*
X155800000Y-134062500D01*
X150435000Y-127550000D02*
X150435000Y-129415000D01*
X150435000Y-129415000D02*
X150400000Y-129450000D01*
D48*
X126345000Y-79655000D02*
X126345000Y-80525000D01*
X127850000Y-77170000D02*
X127850000Y-78150000D01*
X127850000Y-78150000D02*
X126345000Y-79655000D01*
X127615000Y-80525000D02*
X127615000Y-79385000D01*
X128350000Y-78650000D02*
X128350000Y-77170000D01*
X127615000Y-79385000D02*
X128350000Y-78650000D01*
D46*
X116637500Y-78037500D02*
X118250000Y-76425000D01*
X116250000Y-78037500D02*
X116637500Y-78037500D01*
X132695000Y-85475000D02*
X132695000Y-84545000D01*
X131950000Y-83800000D02*
X123200000Y-83800000D01*
X132695000Y-84545000D02*
X131950000Y-83800000D01*
X122000000Y-86000000D02*
X121887500Y-86112500D01*
X132700000Y-85480000D02*
X132695000Y-85475000D01*
X132962500Y-87750000D02*
X132700000Y-87487500D01*
X122000000Y-85000000D02*
X122000000Y-86000000D01*
X121887500Y-86112500D02*
X120450000Y-86112500D01*
X132700000Y-87487500D02*
X132700000Y-85480000D01*
X123200000Y-83800000D02*
X122000000Y-85000000D01*
X147200000Y-135637500D02*
X145562500Y-135637500D01*
X145562500Y-135637500D02*
X145550000Y-135625000D01*
X125300000Y-92525000D02*
X125300000Y-91450000D01*
X129350000Y-78200000D02*
X129350000Y-77170000D01*
X129400000Y-78250000D02*
X129350000Y-78200000D01*
X129400000Y-78450000D02*
X129400000Y-78250000D01*
X155800000Y-135637500D02*
X153037500Y-135637500D01*
X153037500Y-135637500D02*
X153000000Y-135675000D01*
X150285000Y-110750000D02*
X150285000Y-109835000D01*
X143905000Y-96845000D02*
X143905000Y-101955000D01*
X150285000Y-108335000D02*
X150285000Y-110750000D01*
X143905000Y-97130000D02*
X143905000Y-96845000D01*
X143905000Y-101955000D02*
X150285000Y-108335000D01*
X143905000Y-96845000D02*
X143905000Y-94075000D01*
X151555000Y-110750000D02*
X151555000Y-108605000D01*
X150155000Y-107205000D02*
X150155000Y-94075000D01*
X151555000Y-108605000D02*
X150155000Y-107205000D01*
X156405000Y-95500000D02*
X156500000Y-95595000D01*
X152800000Y-108450000D02*
X152825000Y-108475000D01*
X152825000Y-108475000D02*
X152825000Y-110750000D01*
X156405000Y-94075000D02*
X156405000Y-95500000D01*
X156405000Y-106945000D02*
X156405000Y-104825000D01*
X156405000Y-107045000D02*
X156405000Y-106945000D01*
X149200000Y-109150000D02*
X149165000Y-109185000D01*
X149165000Y-109185000D02*
X149165000Y-110750000D01*
X137800000Y-130750000D02*
X153700000Y-130750000D01*
X155400000Y-129050000D02*
X155400000Y-127785000D01*
X155400000Y-127785000D02*
X155365000Y-127750000D01*
X153700000Y-130750000D02*
X155400000Y-129050000D01*
X132500000Y-107650000D02*
X133200000Y-108350000D01*
X133200000Y-126150000D02*
X137800000Y-130750000D01*
X133200000Y-108350000D02*
X133200000Y-126150000D01*
X131562500Y-107650000D02*
X132500000Y-107650000D01*
X131500000Y-107712500D02*
X131562500Y-107650000D01*
X153400000Y-130250000D02*
X154095000Y-129555000D01*
X133800000Y-125850000D02*
X138200000Y-130250000D01*
X154095000Y-127750000D02*
X154000000Y-127655000D01*
X117550000Y-75400000D02*
X117312500Y-75400000D01*
X115000000Y-91250000D02*
X122800000Y-99050000D01*
X117050000Y-75400000D02*
X115000000Y-77450000D01*
X117550000Y-75400000D02*
X117050000Y-75400000D01*
X138200000Y-130250000D02*
X153400000Y-130250000D01*
X122800000Y-99050000D02*
X124600000Y-99050000D01*
X154095000Y-129555000D02*
X154095000Y-127750000D01*
X133800000Y-108250000D02*
X133800000Y-125850000D01*
X115000000Y-77450000D02*
X115000000Y-91250000D01*
X124600000Y-99050000D02*
X133800000Y-108250000D01*
X139450000Y-116600000D02*
X138250000Y-116600000D01*
X148600000Y-125050000D02*
X146830000Y-125050000D01*
X138250000Y-121350000D02*
X137300000Y-121350000D01*
X146830000Y-125050000D02*
X146745000Y-124965000D01*
X139600000Y-116450000D02*
X139450000Y-116600000D01*
X152750000Y-127675000D02*
X152825000Y-127750000D01*
X151555000Y-127750000D02*
X151500000Y-127695000D01*
X143100000Y-100850000D02*
X143100000Y-103750000D01*
X142162500Y-99912500D02*
X143100000Y-100850000D01*
X154245000Y-112805000D02*
X154245000Y-110750000D01*
X141700000Y-99912500D02*
X142162500Y-99912500D01*
X154200000Y-112850000D02*
X154245000Y-112805000D01*
X143900000Y-104550000D02*
X143900000Y-105150000D01*
X140362500Y-101250000D02*
X141700000Y-99912500D01*
X140100000Y-101250000D02*
X140362500Y-101250000D01*
X143100000Y-103750000D02*
X143900000Y-104550000D01*
X160445000Y-114895000D02*
X160445000Y-110750000D01*
X142750000Y-120150000D02*
X143800000Y-120150000D01*
X160500000Y-114950000D02*
X160445000Y-114895000D01*
X140850000Y-120150000D02*
X140800000Y-120200000D01*
X140800000Y-121750000D02*
X139900000Y-122650000D01*
X140800000Y-120200000D02*
X140800000Y-121750000D01*
X139900000Y-122650000D02*
X138250000Y-122650000D01*
X142750000Y-118850000D02*
X143800000Y-118850000D01*
X149000000Y-122850000D02*
X148155000Y-123695000D01*
X148155000Y-123695000D02*
X146745000Y-123695000D01*
X149000000Y-119450000D02*
X149000000Y-122850000D01*
X129250000Y-122725000D02*
X129250000Y-120075000D01*
X123450000Y-120000000D02*
X123525000Y-120075000D01*
X136350000Y-121350000D02*
X135000000Y-121350000D01*
X123525000Y-120075000D02*
X129250000Y-120075000D01*
X135000000Y-115850000D02*
X135600000Y-115850000D01*
X123450000Y-111500000D02*
X123500000Y-111450000D01*
X129250000Y-113475000D02*
X129250000Y-109325000D01*
X129300000Y-109375000D02*
X129250000Y-109325000D01*
X123450000Y-111500000D02*
X123850000Y-111500000D01*
X123450000Y-111500000D02*
X127275000Y-111500000D01*
X127275000Y-111500000D02*
X129250000Y-113475000D01*
X122750000Y-111500000D02*
X123450000Y-111500000D01*
X135600000Y-115850000D02*
X136350000Y-116600000D01*
X121575000Y-76500000D02*
X121575000Y-73560000D01*
X135650000Y-117900000D02*
X136350000Y-117900000D01*
X121575000Y-73560000D02*
X121015000Y-73000000D01*
X135000000Y-118550000D02*
X135650000Y-117900000D01*
X121015000Y-73250000D02*
X121015000Y-72765000D01*
X140850000Y-118850000D02*
X139900000Y-117900000D01*
X139900000Y-117900000D02*
X138250000Y-117900000D01*
X123700000Y-92525000D02*
X123700000Y-91450000D01*
X126350000Y-77170000D02*
X126350000Y-78400000D01*
X126350000Y-78400000D02*
X126500000Y-78550000D01*
G04 #@! TA.AperFunction,Conductor*
G36*
X118306433Y-87750847D02*
G01*
X118319560Y-87752575D01*
X118416487Y-87765336D01*
X118441451Y-87772025D01*
X118537957Y-87811999D01*
X118560339Y-87824921D01*
X118643213Y-87888513D01*
X118661487Y-87906787D01*
X118725079Y-87989661D01*
X118738001Y-88012043D01*
X118777975Y-88108549D01*
X118784664Y-88133513D01*
X118799153Y-88243566D01*
X118800000Y-88256488D01*
X118800000Y-89243512D01*
X118799153Y-89256434D01*
X118784664Y-89366487D01*
X118777975Y-89391451D01*
X118738001Y-89487957D01*
X118725079Y-89510339D01*
X118661487Y-89593213D01*
X118643213Y-89611487D01*
X118560339Y-89675079D01*
X118537957Y-89688001D01*
X118441451Y-89727975D01*
X118416487Y-89734664D01*
X118306434Y-89749153D01*
X118293512Y-89750000D01*
X116006488Y-89750000D01*
X115993566Y-89749153D01*
X115883513Y-89734664D01*
X115858549Y-89727975D01*
X115762043Y-89688001D01*
X115739661Y-89675079D01*
X115656787Y-89611487D01*
X115638513Y-89593213D01*
X115574921Y-89510339D01*
X115561999Y-89487957D01*
X115522025Y-89391451D01*
X115515336Y-89366487D01*
X115500847Y-89256434D01*
X115500000Y-89243512D01*
X115500000Y-89006488D01*
X115500847Y-88993566D01*
X115515336Y-88883513D01*
X115522025Y-88858549D01*
X115561999Y-88762043D01*
X115574921Y-88739661D01*
X115638513Y-88656787D01*
X115656787Y-88638513D01*
X115739661Y-88574921D01*
X115762043Y-88561999D01*
X115858549Y-88522025D01*
X115883513Y-88515336D01*
X115993566Y-88500847D01*
X116006488Y-88500000D01*
X117250000Y-88500000D01*
X117250000Y-88125000D01*
X117265901Y-88024608D01*
X117275472Y-87995150D01*
X117314500Y-87918553D01*
X117332706Y-87893494D01*
X117393494Y-87832706D01*
X117418553Y-87814500D01*
X117495150Y-87775472D01*
X117524608Y-87765901D01*
X117617304Y-87751219D01*
X117632791Y-87750000D01*
X118293512Y-87750000D01*
X118306433Y-87750847D01*
G37*
G04 #@! TD.AperFunction*
G04 #@! TA.AperFunction,Conductor*
G36*
X155256434Y-103250847D02*
G01*
X155366487Y-103265336D01*
X155391451Y-103272025D01*
X155487957Y-103311999D01*
X155510339Y-103324921D01*
X155593213Y-103388513D01*
X155611487Y-103406787D01*
X155675079Y-103489661D01*
X155688001Y-103512043D01*
X155727975Y-103608549D01*
X155734664Y-103633513D01*
X155749153Y-103743566D01*
X155750000Y-103756488D01*
X155750000Y-108243512D01*
X155749153Y-108256434D01*
X155734664Y-108366487D01*
X155727975Y-108391451D01*
X155688001Y-108487957D01*
X155675079Y-108510339D01*
X155611487Y-108593213D01*
X155593213Y-108611487D01*
X155510339Y-108675079D01*
X155487957Y-108688001D01*
X155391451Y-108727975D01*
X155366487Y-108734664D01*
X155256434Y-108749153D01*
X155243512Y-108750000D01*
X153368656Y-108750000D01*
X153310465Y-108731093D01*
X153274501Y-108681593D01*
X153274501Y-108620407D01*
X153277803Y-108612204D01*
X153278495Y-108610036D01*
X153281570Y-108603689D01*
X153283333Y-108593213D01*
X153304715Y-108466120D01*
X153304715Y-108466117D01*
X153305349Y-108462350D01*
X153305400Y-108458228D01*
X153305453Y-108453826D01*
X153305500Y-108450000D01*
X153285182Y-108308123D01*
X153261681Y-108256434D01*
X153228780Y-108184073D01*
X153228780Y-108184072D01*
X153225860Y-108177651D01*
X153132303Y-108069074D01*
X153012033Y-107991118D01*
X153005275Y-107989097D01*
X153005273Y-107989096D01*
X152881479Y-107952074D01*
X152874718Y-107950052D01*
X152788694Y-107949527D01*
X152738448Y-107949220D01*
X152731396Y-107949177D01*
X152724620Y-107951114D01*
X152724617Y-107951114D01*
X152600369Y-107986624D01*
X152600367Y-107986625D01*
X152593589Y-107988562D01*
X152472375Y-108065042D01*
X152377499Y-108172469D01*
X152316588Y-108302206D01*
X152294538Y-108443824D01*
X152295453Y-108450822D01*
X152306939Y-108538658D01*
X152313121Y-108585939D01*
X152315961Y-108592394D01*
X152315963Y-108592400D01*
X152324204Y-108611129D01*
X152330334Y-108672007D01*
X152299509Y-108724861D01*
X152243505Y-108749502D01*
X152233588Y-108750000D01*
X151979500Y-108750000D01*
X151921309Y-108731093D01*
X151885345Y-108681593D01*
X151880500Y-108651000D01*
X151880500Y-108623285D01*
X151880877Y-108614656D01*
X151881186Y-108611129D01*
X151884242Y-108576195D01*
X151874184Y-108538658D01*
X151872315Y-108530226D01*
X151867072Y-108500491D01*
X151867072Y-108500490D01*
X151865568Y-108491962D01*
X151861237Y-108484461D01*
X151859243Y-108478983D01*
X151856777Y-108473694D01*
X151854535Y-108465325D01*
X151849566Y-108458228D01*
X151832242Y-108433486D01*
X151827603Y-108426204D01*
X151812508Y-108400059D01*
X151808178Y-108392559D01*
X151778601Y-108367741D01*
X151772234Y-108361907D01*
X150778996Y-107368669D01*
X150751219Y-107314152D01*
X150750000Y-107298665D01*
X150750000Y-103756488D01*
X150750847Y-103743566D01*
X150765336Y-103633513D01*
X150772025Y-103608549D01*
X150811999Y-103512043D01*
X150824921Y-103489661D01*
X150888513Y-103406787D01*
X150906787Y-103388513D01*
X150989661Y-103324921D01*
X151012043Y-103311999D01*
X151108549Y-103272025D01*
X151133513Y-103265336D01*
X151243566Y-103250847D01*
X151256488Y-103250000D01*
X155243512Y-103250000D01*
X155256434Y-103250847D01*
G37*
G04 #@! TD.AperFunction*
G04 #@! TA.AperFunction,Conductor*
G36*
X119006434Y-80750847D02*
G01*
X119116487Y-80765336D01*
X119141451Y-80772025D01*
X119237957Y-80811999D01*
X119260339Y-80824921D01*
X119343213Y-80888513D01*
X119361487Y-80906787D01*
X119425079Y-80989661D01*
X119438001Y-81012043D01*
X119477975Y-81108549D01*
X119484664Y-81133513D01*
X119499153Y-81243566D01*
X119500000Y-81256488D01*
X119500000Y-84750000D01*
X122493512Y-84750000D01*
X122506434Y-84750847D01*
X122616487Y-84765336D01*
X122641451Y-84772025D01*
X122737957Y-84811999D01*
X122760339Y-84824921D01*
X122843213Y-84888513D01*
X122861487Y-84906787D01*
X122925079Y-84989661D01*
X122938001Y-85012043D01*
X122977975Y-85108549D01*
X122984664Y-85133513D01*
X122999153Y-85243566D01*
X123000000Y-85256488D01*
X123000000Y-86243512D01*
X122999153Y-86256434D01*
X122984664Y-86366487D01*
X122977975Y-86391451D01*
X122938001Y-86487957D01*
X122925079Y-86510339D01*
X122861487Y-86593213D01*
X122843213Y-86611487D01*
X122760339Y-86675079D01*
X122737957Y-86688001D01*
X122641451Y-86727975D01*
X122616487Y-86734664D01*
X122506434Y-86749153D01*
X122493512Y-86750000D01*
X120706488Y-86750000D01*
X120693566Y-86749153D01*
X120583513Y-86734664D01*
X120558549Y-86727975D01*
X120462043Y-86688001D01*
X120439661Y-86675079D01*
X120356787Y-86611487D01*
X120338513Y-86593213D01*
X120274921Y-86510339D01*
X120261999Y-86487957D01*
X120222025Y-86391451D01*
X120215336Y-86366487D01*
X120200847Y-86256434D01*
X120200000Y-86243512D01*
X120200000Y-85250000D01*
X119696755Y-85250000D01*
X119696053Y-85249954D01*
X119692211Y-85249833D01*
X119689578Y-85249500D01*
X119319961Y-85249500D01*
X119317960Y-85249833D01*
X119313910Y-85250000D01*
X118800000Y-85250000D01*
X118800000Y-85943512D01*
X118799153Y-85956434D01*
X118784664Y-86066487D01*
X118777975Y-86091451D01*
X118738001Y-86187957D01*
X118725079Y-86210339D01*
X118661487Y-86293213D01*
X118643213Y-86311487D01*
X118560339Y-86375079D01*
X118537957Y-86388001D01*
X118441451Y-86427975D01*
X118416487Y-86434664D01*
X118306434Y-86449153D01*
X118293512Y-86450000D01*
X116006488Y-86450000D01*
X115993566Y-86449153D01*
X115883513Y-86434664D01*
X115858549Y-86427975D01*
X115762043Y-86388001D01*
X115739661Y-86375079D01*
X115656787Y-86311487D01*
X115638513Y-86293213D01*
X115574921Y-86210339D01*
X115561999Y-86187957D01*
X115522025Y-86091451D01*
X115515336Y-86066487D01*
X115500847Y-85956434D01*
X115500000Y-85943512D01*
X115500000Y-81256488D01*
X115500847Y-81243566D01*
X115515336Y-81133513D01*
X115522025Y-81108549D01*
X115561999Y-81012043D01*
X115574921Y-80989661D01*
X115638513Y-80906787D01*
X115656787Y-80888513D01*
X115739661Y-80824921D01*
X115762043Y-80811999D01*
X115858549Y-80772025D01*
X115883513Y-80765336D01*
X115993566Y-80750847D01*
X116006488Y-80750000D01*
X118993512Y-80750000D01*
X119006434Y-80750847D01*
G37*
G04 #@! TD.AperFunction*
G04 #@! TA.AperFunction,Conductor*
G36*
X168106434Y-71150847D02*
G01*
X168216487Y-71165336D01*
X168241450Y-71172025D01*
X168337959Y-71212000D01*
X168360340Y-71224921D01*
X168371970Y-71233845D01*
X168406625Y-71284270D01*
X168410077Y-71301294D01*
X168410660Y-71306466D01*
X168413777Y-71316244D01*
X168415963Y-71324255D01*
X168484232Y-71623364D01*
X168485742Y-71631553D01*
X168487174Y-71641694D01*
X168488780Y-71646284D01*
X168488781Y-71646288D01*
X168488911Y-71646659D01*
X168491981Y-71657316D01*
X168493153Y-71662449D01*
X168495138Y-71666886D01*
X168495139Y-71666888D01*
X168497343Y-71671815D01*
X168500419Y-71679548D01*
X168594444Y-71948256D01*
X168600000Y-71980954D01*
X168600000Y-79507028D01*
X168581093Y-79565219D01*
X168531593Y-79601183D01*
X168470407Y-79601183D01*
X168420907Y-79565219D01*
X168409048Y-79543713D01*
X168352979Y-79403176D01*
X168351586Y-79399684D01*
X168220470Y-79176648D01*
X168217824Y-79173397D01*
X168081750Y-79006257D01*
X168057126Y-78976011D01*
X168030184Y-78951624D01*
X167868101Y-78804914D01*
X167868097Y-78804911D01*
X167865313Y-78802391D01*
X167711093Y-78700508D01*
X167652583Y-78661854D01*
X167652582Y-78661854D01*
X167649445Y-78659781D01*
X167414490Y-78551466D01*
X167165854Y-78479935D01*
X167162136Y-78479455D01*
X167162134Y-78479455D01*
X167073355Y-78468004D01*
X166909259Y-78446837D01*
X166905515Y-78446925D01*
X166905511Y-78446925D01*
X166791917Y-78449603D01*
X166650610Y-78452933D01*
X166646917Y-78453588D01*
X166646912Y-78453588D01*
X166540377Y-78472469D01*
X166395859Y-78498081D01*
X166150869Y-78581244D01*
X166147538Y-78582974D01*
X166147534Y-78582976D01*
X165924618Y-78698772D01*
X165924613Y-78698775D01*
X165921277Y-78700508D01*
X165712366Y-78853128D01*
X165709704Y-78855776D01*
X165709703Y-78855777D01*
X165658958Y-78906257D01*
X165528945Y-79035591D01*
X165526715Y-79038610D01*
X165526710Y-79038616D01*
X165402890Y-79206257D01*
X165375234Y-79243700D01*
X165348669Y-79294191D01*
X165282951Y-79419100D01*
X165254769Y-79472664D01*
X165253542Y-79476219D01*
X165253541Y-79476220D01*
X165243665Y-79504822D01*
X165170325Y-79717216D01*
X165169650Y-79720913D01*
X165169648Y-79720920D01*
X165142651Y-79868746D01*
X165123843Y-79971727D01*
X165123735Y-79975479D01*
X165118633Y-80152598D01*
X165116393Y-80230340D01*
X165148148Y-80487105D01*
X165218375Y-80736112D01*
X165325459Y-80971631D01*
X165327516Y-80974781D01*
X165327518Y-80974784D01*
X165464874Y-81185087D01*
X165464879Y-81185093D01*
X165466936Y-81188243D01*
X165469234Y-81190808D01*
X165489630Y-81248409D01*
X165472252Y-81307075D01*
X165423710Y-81344322D01*
X165390664Y-81350000D01*
X155108681Y-81350000D01*
X155050490Y-81331093D01*
X155014526Y-81281593D01*
X155014526Y-81220407D01*
X155026365Y-81195999D01*
X155163767Y-80990361D01*
X155165855Y-80987236D01*
X155234111Y-80841195D01*
X155273811Y-80756251D01*
X155273811Y-80756250D01*
X155275400Y-80752851D01*
X155281761Y-80731171D01*
X155347171Y-80508207D01*
X155347172Y-80508204D01*
X155348231Y-80504593D01*
X155348732Y-80500864D01*
X155382328Y-80250738D01*
X155382328Y-80250733D01*
X155382672Y-80248175D01*
X155385500Y-80150000D01*
X155385303Y-80147409D01*
X155366162Y-79895779D01*
X155366161Y-79895773D01*
X155365876Y-79892025D01*
X155307457Y-79639986D01*
X155211586Y-79399684D01*
X155080470Y-79176648D01*
X155077824Y-79173397D01*
X154941750Y-79006257D01*
X154917126Y-78976011D01*
X154890184Y-78951624D01*
X154728101Y-78804914D01*
X154728097Y-78804911D01*
X154725313Y-78802391D01*
X154571093Y-78700508D01*
X154512583Y-78661854D01*
X154512582Y-78661854D01*
X154509445Y-78659781D01*
X154274490Y-78551466D01*
X154025854Y-78479935D01*
X154022136Y-78479455D01*
X154022134Y-78479455D01*
X153933355Y-78468004D01*
X153769259Y-78446837D01*
X153765515Y-78446925D01*
X153765511Y-78446925D01*
X153651917Y-78449603D01*
X153510610Y-78452933D01*
X153506917Y-78453588D01*
X153506912Y-78453588D01*
X153400377Y-78472469D01*
X153255859Y-78498081D01*
X153010869Y-78581244D01*
X153007538Y-78582974D01*
X153007534Y-78582976D01*
X152784618Y-78698772D01*
X152784613Y-78698775D01*
X152781277Y-78700508D01*
X152572366Y-78853128D01*
X152569704Y-78855776D01*
X152569703Y-78855777D01*
X152518958Y-78906257D01*
X152388945Y-79035591D01*
X152386715Y-79038610D01*
X152386710Y-79038616D01*
X152262890Y-79206257D01*
X152235234Y-79243700D01*
X152208669Y-79294191D01*
X152142951Y-79419100D01*
X152114769Y-79472664D01*
X152113542Y-79476219D01*
X152113541Y-79476220D01*
X152103665Y-79504822D01*
X152030325Y-79717216D01*
X152029650Y-79720913D01*
X152029648Y-79720920D01*
X152002651Y-79868746D01*
X151983843Y-79971727D01*
X151983735Y-79975479D01*
X151978633Y-80152598D01*
X151976393Y-80230340D01*
X152008148Y-80487105D01*
X152078375Y-80736112D01*
X152185459Y-80971631D01*
X152187516Y-80974781D01*
X152187518Y-80974784D01*
X152324874Y-81185087D01*
X152324879Y-81185093D01*
X152326936Y-81188243D01*
X152329234Y-81190808D01*
X152349630Y-81248409D01*
X152332252Y-81307075D01*
X152283710Y-81344322D01*
X152250664Y-81350000D01*
X150998681Y-81350000D01*
X150940490Y-81331093D01*
X150904526Y-81281593D01*
X150904526Y-81220407D01*
X150916365Y-81195999D01*
X151053767Y-80990361D01*
X151055855Y-80987236D01*
X151124111Y-80841195D01*
X151163811Y-80756251D01*
X151163811Y-80756250D01*
X151165400Y-80752851D01*
X151171761Y-80731171D01*
X151237171Y-80508207D01*
X151237172Y-80508204D01*
X151238231Y-80504593D01*
X151238732Y-80500864D01*
X151272328Y-80250738D01*
X151272328Y-80250733D01*
X151272672Y-80248175D01*
X151275500Y-80150000D01*
X151275303Y-80147409D01*
X151256162Y-79895779D01*
X151256161Y-79895773D01*
X151255876Y-79892025D01*
X151197457Y-79639986D01*
X151101586Y-79399684D01*
X150970470Y-79176648D01*
X150967824Y-79173397D01*
X150831750Y-79006257D01*
X150807126Y-78976011D01*
X150780184Y-78951624D01*
X150618101Y-78804914D01*
X150618097Y-78804911D01*
X150615313Y-78802391D01*
X150461093Y-78700508D01*
X150402583Y-78661854D01*
X150402582Y-78661854D01*
X150399445Y-78659781D01*
X150164490Y-78551466D01*
X149915854Y-78479935D01*
X149912136Y-78479455D01*
X149912134Y-78479455D01*
X149823355Y-78468004D01*
X149659259Y-78446837D01*
X149655515Y-78446925D01*
X149655511Y-78446925D01*
X149541917Y-78449603D01*
X149400610Y-78452933D01*
X149396917Y-78453588D01*
X149396912Y-78453588D01*
X149290377Y-78472469D01*
X149145859Y-78498081D01*
X148900869Y-78581244D01*
X148897538Y-78582974D01*
X148897534Y-78582976D01*
X148674618Y-78698772D01*
X148674613Y-78698775D01*
X148671277Y-78700508D01*
X148462366Y-78853128D01*
X148459704Y-78855776D01*
X148459703Y-78855777D01*
X148408958Y-78906257D01*
X148278945Y-79035591D01*
X148276715Y-79038610D01*
X148276710Y-79038616D01*
X148152890Y-79206257D01*
X148125234Y-79243700D01*
X148098669Y-79294191D01*
X148032951Y-79419100D01*
X148004769Y-79472664D01*
X148003542Y-79476219D01*
X148003541Y-79476220D01*
X147993665Y-79504822D01*
X147920325Y-79717216D01*
X147919650Y-79720913D01*
X147919648Y-79720920D01*
X147892651Y-79868746D01*
X147873843Y-79971727D01*
X147873735Y-79975479D01*
X147868633Y-80152598D01*
X147866393Y-80230340D01*
X147898148Y-80487105D01*
X147968375Y-80736112D01*
X148075459Y-80971631D01*
X148077516Y-80974781D01*
X148077518Y-80974784D01*
X148214874Y-81185087D01*
X148214879Y-81185093D01*
X148216936Y-81188243D01*
X148219234Y-81190808D01*
X148239630Y-81248409D01*
X148222252Y-81307075D01*
X148173710Y-81344322D01*
X148140664Y-81350000D01*
X137858681Y-81350000D01*
X137800490Y-81331093D01*
X137764526Y-81281593D01*
X137764526Y-81220407D01*
X137776365Y-81195999D01*
X137913767Y-80990361D01*
X137915855Y-80987236D01*
X137984111Y-80841195D01*
X138023811Y-80756251D01*
X138023811Y-80756250D01*
X138025400Y-80752851D01*
X138031761Y-80731171D01*
X138097171Y-80508207D01*
X138097172Y-80508204D01*
X138098231Y-80504593D01*
X138098732Y-80500864D01*
X138132328Y-80250738D01*
X138132328Y-80250733D01*
X138132672Y-80248175D01*
X138135500Y-80150000D01*
X138135303Y-80147409D01*
X138116162Y-79895779D01*
X138116161Y-79895773D01*
X138115876Y-79892025D01*
X138057457Y-79639986D01*
X137961586Y-79399684D01*
X137830470Y-79176648D01*
X137827824Y-79173397D01*
X137691750Y-79006257D01*
X137667126Y-78976011D01*
X137640184Y-78951624D01*
X137478101Y-78804914D01*
X137478097Y-78804911D01*
X137475313Y-78802391D01*
X137321093Y-78700508D01*
X137262583Y-78661854D01*
X137262582Y-78661854D01*
X137259445Y-78659781D01*
X137024490Y-78551466D01*
X136775854Y-78479935D01*
X136772136Y-78479455D01*
X136772134Y-78479455D01*
X136683355Y-78468004D01*
X136519259Y-78446837D01*
X136515515Y-78446925D01*
X136515511Y-78446925D01*
X136401917Y-78449603D01*
X136260610Y-78452933D01*
X136256917Y-78453588D01*
X136256912Y-78453588D01*
X136150377Y-78472469D01*
X136005859Y-78498081D01*
X135760869Y-78581244D01*
X135757538Y-78582974D01*
X135757534Y-78582976D01*
X135534618Y-78698772D01*
X135534613Y-78698775D01*
X135531277Y-78700508D01*
X135322366Y-78853128D01*
X135319704Y-78855776D01*
X135319703Y-78855777D01*
X135268958Y-78906257D01*
X135138945Y-79035591D01*
X135136715Y-79038610D01*
X135136710Y-79038616D01*
X135012890Y-79206257D01*
X134985234Y-79243700D01*
X134958669Y-79294191D01*
X134892951Y-79419100D01*
X134864769Y-79472664D01*
X134863542Y-79476219D01*
X134863541Y-79476220D01*
X134853665Y-79504822D01*
X134780325Y-79717216D01*
X134779650Y-79720913D01*
X134779648Y-79720920D01*
X134752651Y-79868746D01*
X134733843Y-79971727D01*
X134733735Y-79975479D01*
X134728633Y-80152598D01*
X134726393Y-80230340D01*
X134758148Y-80487105D01*
X134828375Y-80736112D01*
X134935459Y-80971631D01*
X134937516Y-80974781D01*
X134937518Y-80974784D01*
X135074874Y-81185087D01*
X135074879Y-81185093D01*
X135076936Y-81188243D01*
X135079234Y-81190808D01*
X135099630Y-81248409D01*
X135082252Y-81307075D01*
X135033710Y-81344322D01*
X135000664Y-81350000D01*
X134406488Y-81350000D01*
X134393566Y-81349153D01*
X134283513Y-81334664D01*
X134258549Y-81327975D01*
X134162043Y-81288001D01*
X134139661Y-81275079D01*
X134056787Y-81211487D01*
X134038513Y-81193213D01*
X133974921Y-81110339D01*
X133961999Y-81087957D01*
X133922025Y-80991451D01*
X133915336Y-80966487D01*
X133900847Y-80856434D01*
X133900000Y-80843512D01*
X133900000Y-79150000D01*
X131706488Y-79150000D01*
X131693566Y-79149153D01*
X131583513Y-79134664D01*
X131558549Y-79127975D01*
X131462043Y-79088001D01*
X131439661Y-79075079D01*
X131356787Y-79011487D01*
X131338513Y-78993213D01*
X131274921Y-78910339D01*
X131261999Y-78887957D01*
X131222025Y-78791451D01*
X131215336Y-78766487D01*
X131200847Y-78656434D01*
X131200000Y-78643512D01*
X131200000Y-76650180D01*
X131218907Y-76591989D01*
X131243354Y-76568299D01*
X131254418Y-76560780D01*
X131344974Y-76499238D01*
X131349328Y-76494086D01*
X131349330Y-76494084D01*
X131404576Y-76428708D01*
X131437916Y-76389256D01*
X131497858Y-76258331D01*
X131520384Y-76116110D01*
X131520500Y-76105000D01*
X131500958Y-75962338D01*
X131498281Y-75956152D01*
X131498280Y-75956148D01*
X131446452Y-75836381D01*
X131446450Y-75836377D01*
X131443771Y-75830187D01*
X131353152Y-75718282D01*
X131241651Y-75639042D01*
X131205171Y-75589921D01*
X131200000Y-75558344D01*
X131200000Y-74150000D01*
X125000000Y-74150000D01*
X125000000Y-75561448D01*
X124981093Y-75619639D01*
X124945948Y-75649655D01*
X124907236Y-75669380D01*
X124801243Y-75766847D01*
X124797686Y-75772584D01*
X124797685Y-75772585D01*
X124728921Y-75883489D01*
X124725364Y-75889226D01*
X124723481Y-75895708D01*
X124702182Y-75969021D01*
X124685191Y-76027503D01*
X124683683Y-76171489D01*
X124685428Y-76178000D01*
X124685428Y-76178003D01*
X124705167Y-76251666D01*
X124720952Y-76310577D01*
X124724388Y-76316387D01*
X124785319Y-76419415D01*
X124794251Y-76434519D01*
X124799120Y-76439188D01*
X124799123Y-76439192D01*
X124856364Y-76494084D01*
X124898180Y-76534184D01*
X124904133Y-76537376D01*
X124947782Y-76560780D01*
X124990131Y-76604941D01*
X125000000Y-76648029D01*
X125000000Y-77543512D01*
X124999153Y-77556434D01*
X124984664Y-77666487D01*
X124977975Y-77691451D01*
X124938001Y-77787957D01*
X124925079Y-77810339D01*
X124861487Y-77893213D01*
X124843213Y-77911487D01*
X124760339Y-77975079D01*
X124737957Y-77988001D01*
X124641451Y-78027975D01*
X124616487Y-78034664D01*
X124506434Y-78049153D01*
X124493512Y-78050000D01*
X122806488Y-78050000D01*
X122793566Y-78049153D01*
X122683513Y-78034664D01*
X122658549Y-78027975D01*
X122562043Y-77988001D01*
X122539661Y-77975079D01*
X122456787Y-77911487D01*
X122438513Y-77893213D01*
X122374921Y-77810339D01*
X122361999Y-77787957D01*
X122322025Y-77691451D01*
X122315336Y-77666487D01*
X122300847Y-77556434D01*
X122300000Y-77543512D01*
X122300000Y-71656488D01*
X122300847Y-71643566D01*
X122315336Y-71533513D01*
X122322025Y-71508549D01*
X122361999Y-71412043D01*
X122374921Y-71389661D01*
X122438513Y-71306787D01*
X122456787Y-71288513D01*
X122539661Y-71224921D01*
X122562043Y-71211999D01*
X122658549Y-71172025D01*
X122683513Y-71165336D01*
X122793566Y-71150847D01*
X122806488Y-71150000D01*
X168093512Y-71150000D01*
X168106434Y-71150847D01*
G37*
G04 #@! TD.AperFunction*
G04 #@! TA.AperFunction,Conductor*
G36*
X163106434Y-107850847D02*
G01*
X163216487Y-107865336D01*
X163241451Y-107872025D01*
X163337957Y-107911999D01*
X163360339Y-107924921D01*
X163443213Y-107988513D01*
X163461487Y-108006787D01*
X163525079Y-108089661D01*
X163538001Y-108112043D01*
X163577975Y-108208549D01*
X163584664Y-108233513D01*
X163599153Y-108343566D01*
X163600000Y-108356488D01*
X163600000Y-112143512D01*
X163599153Y-112156434D01*
X163584664Y-112266487D01*
X163577975Y-112291451D01*
X163538001Y-112387957D01*
X163525079Y-112410339D01*
X163461487Y-112493213D01*
X163443213Y-112511487D01*
X163360339Y-112575079D01*
X163337957Y-112588001D01*
X163241451Y-112627975D01*
X163216487Y-112634664D01*
X163106434Y-112649153D01*
X163093512Y-112650000D01*
X162906488Y-112650000D01*
X162893566Y-112649153D01*
X162783513Y-112634664D01*
X162758549Y-112627975D01*
X162662043Y-112588001D01*
X162639661Y-112575079D01*
X162556787Y-112511487D01*
X162538513Y-112493213D01*
X162474921Y-112410339D01*
X162461999Y-112387957D01*
X162422025Y-112291451D01*
X162415336Y-112266487D01*
X162400847Y-112156434D01*
X162400000Y-112143512D01*
X162400000Y-111988524D01*
X162418907Y-111930333D01*
X162444000Y-111906208D01*
X162452200Y-111900729D01*
X162460310Y-111895310D01*
X162504857Y-111828641D01*
X162520500Y-111750000D01*
X162520500Y-109750000D01*
X162504857Y-109671359D01*
X162460310Y-109604690D01*
X162444000Y-109593792D01*
X162406120Y-109545743D01*
X162400000Y-109511476D01*
X162400000Y-108356488D01*
X162400847Y-108343566D01*
X162415336Y-108233513D01*
X162422025Y-108208549D01*
X162461999Y-108112043D01*
X162474921Y-108089661D01*
X162538513Y-108006787D01*
X162556787Y-107988513D01*
X162639661Y-107924921D01*
X162662043Y-107911999D01*
X162758549Y-107872025D01*
X162783513Y-107865336D01*
X162893566Y-107850847D01*
X162906488Y-107850000D01*
X163093512Y-107850000D01*
X163106434Y-107850847D01*
G37*
G04 #@! TD.AperFunction*
G04 #@! TA.AperFunction,Conductor*
G36*
X119557222Y-85561382D02*
G01*
X119592910Y-85576164D01*
X119625050Y-85597640D01*
X119652360Y-85624950D01*
X119673836Y-85657090D01*
X119688618Y-85692777D01*
X119698098Y-85740439D01*
X119700000Y-85759752D01*
X119700000Y-89500000D01*
X122493512Y-89500000D01*
X122506434Y-89500847D01*
X122616487Y-89515336D01*
X122641451Y-89522025D01*
X122737957Y-89561999D01*
X122760339Y-89574921D01*
X122843213Y-89638513D01*
X122861487Y-89656787D01*
X122925079Y-89739661D01*
X122938001Y-89762043D01*
X122977975Y-89858549D01*
X122984664Y-89883513D01*
X122999153Y-89993566D01*
X123000000Y-90006488D01*
X123000000Y-90993512D01*
X122999153Y-91006434D01*
X122984664Y-91116487D01*
X122977975Y-91141451D01*
X122938001Y-91237957D01*
X122925079Y-91260339D01*
X122861487Y-91343213D01*
X122843213Y-91361487D01*
X122760339Y-91425079D01*
X122737957Y-91438001D01*
X122641451Y-91477975D01*
X122616487Y-91484664D01*
X122506434Y-91499153D01*
X122493512Y-91500000D01*
X116006488Y-91500000D01*
X115993566Y-91499153D01*
X115883513Y-91484664D01*
X115858549Y-91477975D01*
X115762043Y-91438001D01*
X115739661Y-91425079D01*
X115656787Y-91361487D01*
X115638513Y-91343213D01*
X115574921Y-91260339D01*
X115561999Y-91237957D01*
X115522025Y-91141451D01*
X115515336Y-91116487D01*
X115500847Y-91006434D01*
X115500000Y-90993512D01*
X115500000Y-90656488D01*
X115500847Y-90643566D01*
X115515336Y-90533513D01*
X115522025Y-90508549D01*
X115561999Y-90412043D01*
X115574921Y-90389661D01*
X115638513Y-90306787D01*
X115656787Y-90288513D01*
X115739661Y-90224921D01*
X115762043Y-90211999D01*
X115858549Y-90172025D01*
X115883513Y-90165336D01*
X115993566Y-90150847D01*
X116006488Y-90150000D01*
X119200000Y-90150000D01*
X119200000Y-87500000D01*
X117000000Y-87500000D01*
X117000000Y-87874999D01*
X116984099Y-87975392D01*
X116974528Y-88004850D01*
X116935500Y-88081447D01*
X116917294Y-88106506D01*
X116856506Y-88167294D01*
X116831447Y-88185500D01*
X116754850Y-88224528D01*
X116725392Y-88234099D01*
X116632696Y-88248781D01*
X116617209Y-88250000D01*
X116006488Y-88250000D01*
X115993566Y-88249153D01*
X115990741Y-88248781D01*
X115980440Y-88247425D01*
X115883513Y-88234664D01*
X115858549Y-88227975D01*
X115762043Y-88188001D01*
X115739661Y-88175079D01*
X115656787Y-88111487D01*
X115638513Y-88093213D01*
X115574921Y-88010339D01*
X115561999Y-87987957D01*
X115522025Y-87891451D01*
X115515336Y-87866487D01*
X115500847Y-87756434D01*
X115500000Y-87743512D01*
X115500000Y-87506488D01*
X115500847Y-87493566D01*
X115515336Y-87383513D01*
X115522025Y-87358549D01*
X115561999Y-87262043D01*
X115574921Y-87239661D01*
X115638513Y-87156787D01*
X115656787Y-87138513D01*
X115739661Y-87074921D01*
X115762043Y-87061999D01*
X115858549Y-87022025D01*
X115883513Y-87015336D01*
X115993566Y-87000847D01*
X116006488Y-87000000D01*
X119300000Y-87000000D01*
X119300000Y-85759752D01*
X119301902Y-85740439D01*
X119311382Y-85692777D01*
X119326164Y-85657090D01*
X119347640Y-85624950D01*
X119374950Y-85597640D01*
X119407090Y-85576164D01*
X119442778Y-85561382D01*
X119480688Y-85553842D01*
X119519312Y-85553842D01*
X119557222Y-85561382D01*
G37*
G04 #@! TD.AperFunction*
G04 #@! TA.AperFunction,Conductor*
G36*
X170458188Y-97951078D02*
G01*
X170562963Y-97964872D01*
X170594735Y-97973385D01*
X170684674Y-98010639D01*
X170713160Y-98027086D01*
X170790393Y-98086349D01*
X170813651Y-98109607D01*
X170872914Y-98186840D01*
X170889361Y-98215326D01*
X170926615Y-98305265D01*
X170935128Y-98337037D01*
X170948922Y-98441812D01*
X170950000Y-98458258D01*
X170950000Y-101791742D01*
X170948922Y-101808188D01*
X170935128Y-101912963D01*
X170926615Y-101944735D01*
X170889361Y-102034674D01*
X170872914Y-102063160D01*
X170813651Y-102140393D01*
X170790393Y-102163651D01*
X170713160Y-102222914D01*
X170684674Y-102239361D01*
X170594735Y-102276615D01*
X170562963Y-102285128D01*
X170458188Y-102298922D01*
X170441742Y-102300000D01*
X151558258Y-102300000D01*
X151541812Y-102298922D01*
X151437037Y-102285128D01*
X151405265Y-102276615D01*
X151315326Y-102239361D01*
X151286840Y-102222914D01*
X151209607Y-102163651D01*
X151186349Y-102140393D01*
X151127086Y-102063160D01*
X151110639Y-102034674D01*
X151073385Y-101944735D01*
X151064872Y-101912963D01*
X151051078Y-101808188D01*
X151050000Y-101791742D01*
X151050000Y-98458258D01*
X151051078Y-98441812D01*
X151064872Y-98337037D01*
X151073385Y-98305265D01*
X151110639Y-98215326D01*
X151127086Y-98186840D01*
X151186349Y-98109607D01*
X151209607Y-98086349D01*
X151286840Y-98027086D01*
X151315326Y-98010639D01*
X151405265Y-97973385D01*
X151437037Y-97964872D01*
X151541812Y-97951078D01*
X151558258Y-97950000D01*
X170441742Y-97950000D01*
X170458188Y-97951078D01*
G37*
G04 #@! TD.AperFunction*
G04 #@! TA.AperFunction,Conductor*
G36*
X170359976Y-92402717D02*
G01*
X170415209Y-92409739D01*
X170469598Y-92416655D01*
X170494477Y-92423187D01*
X170590777Y-92462444D01*
X170613130Y-92475164D01*
X170696066Y-92537910D01*
X170714390Y-92555965D01*
X170778350Y-92637952D01*
X170791405Y-92660121D01*
X170832083Y-92755828D01*
X170838984Y-92780611D01*
X170854545Y-92890006D01*
X170855526Y-92902860D01*
X170894373Y-96437973D01*
X170893657Y-96450993D01*
X170880185Y-96561951D01*
X170873680Y-96587149D01*
X170834231Y-96684653D01*
X170821388Y-96707281D01*
X170757887Y-96791145D01*
X170739588Y-96809645D01*
X170656439Y-96874054D01*
X170633949Y-96887149D01*
X170536879Y-96927669D01*
X170511755Y-96934450D01*
X170400954Y-96949141D01*
X170387942Y-96950000D01*
X158306488Y-96950000D01*
X158293566Y-96949153D01*
X158183513Y-96934664D01*
X158158549Y-96927975D01*
X158062043Y-96888001D01*
X158039661Y-96875079D01*
X157956787Y-96811487D01*
X157938513Y-96793213D01*
X157874921Y-96710339D01*
X157861999Y-96687957D01*
X157822025Y-96591451D01*
X157815336Y-96566487D01*
X157800847Y-96456434D01*
X157800000Y-96443512D01*
X157800000Y-92954560D01*
X157800843Y-92941669D01*
X157815262Y-92831879D01*
X157821918Y-92806973D01*
X157861704Y-92710658D01*
X157874567Y-92688313D01*
X157937871Y-92605541D01*
X157956066Y-92587276D01*
X158038598Y-92523653D01*
X158060893Y-92510705D01*
X158157052Y-92470551D01*
X158181933Y-92463799D01*
X158242963Y-92455546D01*
X158291674Y-92448959D01*
X158304556Y-92448067D01*
X162126163Y-92433425D01*
X170347111Y-92401927D01*
X170359976Y-92402717D01*
G37*
G04 #@! TD.AperFunction*
G04 #@! TA.AperFunction,Conductor*
G36*
X142806434Y-91650847D02*
G01*
X142916487Y-91665336D01*
X142941451Y-91672025D01*
X143037957Y-91711999D01*
X143060339Y-91724921D01*
X143143213Y-91788513D01*
X143161487Y-91806787D01*
X143225079Y-91889661D01*
X143238001Y-91912043D01*
X143277975Y-92008549D01*
X143284664Y-92033513D01*
X143299153Y-92143566D01*
X143300000Y-92156488D01*
X143300000Y-97143512D01*
X143299153Y-97156434D01*
X143284664Y-97266487D01*
X143277975Y-97291451D01*
X143238001Y-97387957D01*
X143225079Y-97410339D01*
X143161487Y-97493213D01*
X143143213Y-97511487D01*
X143060339Y-97575079D01*
X143037957Y-97588001D01*
X142941451Y-97627975D01*
X142916487Y-97634664D01*
X142806434Y-97649153D01*
X142793512Y-97650000D01*
X138806488Y-97650000D01*
X138793566Y-97649153D01*
X138683513Y-97634664D01*
X138658549Y-97627975D01*
X138562043Y-97588001D01*
X138539661Y-97575079D01*
X138456787Y-97511487D01*
X138438513Y-97493213D01*
X138374921Y-97410339D01*
X138361999Y-97387957D01*
X138322025Y-97291451D01*
X138315336Y-97266487D01*
X138300847Y-97156434D01*
X138300000Y-97143512D01*
X138300000Y-92156488D01*
X138300847Y-92143566D01*
X138315336Y-92033513D01*
X138322025Y-92008549D01*
X138361999Y-91912043D01*
X138374921Y-91889661D01*
X138438513Y-91806787D01*
X138456787Y-91788513D01*
X138539661Y-91724921D01*
X138562043Y-91711999D01*
X138658549Y-91672025D01*
X138683513Y-91665336D01*
X138793566Y-91650847D01*
X138806488Y-91650000D01*
X142793512Y-91650000D01*
X142806434Y-91650847D01*
G37*
G04 #@! TD.AperFunction*
G04 #@! TA.AperFunction,Conductor*
G36*
X140256434Y-81800847D02*
G01*
X140366487Y-81815336D01*
X140391451Y-81822025D01*
X140487957Y-81861999D01*
X140510339Y-81874921D01*
X140593213Y-81938513D01*
X140611487Y-81956787D01*
X140675079Y-82039661D01*
X140688001Y-82062043D01*
X140727975Y-82158549D01*
X140734664Y-82183513D01*
X140749153Y-82293566D01*
X140750000Y-82306488D01*
X140750000Y-86000000D01*
X143993512Y-86000000D01*
X144006434Y-86000847D01*
X144116487Y-86015336D01*
X144141451Y-86022025D01*
X144237957Y-86061999D01*
X144260339Y-86074921D01*
X144343213Y-86138513D01*
X144361487Y-86156787D01*
X144425079Y-86239661D01*
X144438001Y-86262043D01*
X144477975Y-86358549D01*
X144484664Y-86383513D01*
X144499153Y-86493566D01*
X144500000Y-86506488D01*
X144500000Y-90743512D01*
X144499153Y-90756434D01*
X144484664Y-90866487D01*
X144477975Y-90891451D01*
X144438001Y-90987957D01*
X144425079Y-91010339D01*
X144361487Y-91093213D01*
X144343213Y-91111487D01*
X144260339Y-91175079D01*
X144237957Y-91188001D01*
X144141451Y-91227975D01*
X144116487Y-91234664D01*
X144006434Y-91249153D01*
X143993512Y-91250000D01*
X138756488Y-91250000D01*
X138743566Y-91249153D01*
X138633513Y-91234664D01*
X138608549Y-91227975D01*
X138512043Y-91188001D01*
X138489661Y-91175079D01*
X138406787Y-91111487D01*
X138388513Y-91093213D01*
X138324921Y-91010339D01*
X138311999Y-90987957D01*
X138272025Y-90891451D01*
X138265336Y-90866487D01*
X138250847Y-90756434D01*
X138250000Y-90743512D01*
X138250000Y-82306488D01*
X138250847Y-82293566D01*
X138265336Y-82183513D01*
X138272025Y-82158549D01*
X138311999Y-82062043D01*
X138324921Y-82039661D01*
X138388513Y-81956787D01*
X138406787Y-81938513D01*
X138489661Y-81874921D01*
X138512043Y-81861999D01*
X138608549Y-81822025D01*
X138633513Y-81815336D01*
X138743566Y-81800847D01*
X138756488Y-81800000D01*
X140243512Y-81800000D01*
X140256434Y-81800847D01*
G37*
G04 #@! TD.AperFunction*
G04 #@! TA.AperFunction,Conductor*
G36*
X149006434Y-91500847D02*
G01*
X149116487Y-91515336D01*
X149141451Y-91522025D01*
X149237957Y-91561999D01*
X149260339Y-91574921D01*
X149343213Y-91638513D01*
X149361487Y-91656787D01*
X149425079Y-91739661D01*
X149438001Y-91762043D01*
X149477975Y-91858549D01*
X149484664Y-91883513D01*
X149499153Y-91993566D01*
X149500000Y-92006488D01*
X149500000Y-96993512D01*
X149499153Y-97006434D01*
X149484664Y-97116487D01*
X149477975Y-97141451D01*
X149438001Y-97237957D01*
X149425079Y-97260339D01*
X149361487Y-97343213D01*
X149343213Y-97361487D01*
X149260339Y-97425079D01*
X149237957Y-97438001D01*
X149141451Y-97477975D01*
X149116487Y-97484664D01*
X149006434Y-97499153D01*
X148993512Y-97500000D01*
X145006488Y-97500000D01*
X144993566Y-97499153D01*
X144883513Y-97484664D01*
X144858549Y-97477975D01*
X144762043Y-97438001D01*
X144739661Y-97425079D01*
X144656787Y-97361487D01*
X144638513Y-97343213D01*
X144574921Y-97260339D01*
X144561999Y-97237957D01*
X144522025Y-97141451D01*
X144515336Y-97116487D01*
X144500847Y-97006434D01*
X144500000Y-96993512D01*
X144500000Y-92006488D01*
X144500847Y-91993566D01*
X144515336Y-91883513D01*
X144522025Y-91858549D01*
X144561999Y-91762043D01*
X144574921Y-91739661D01*
X144638513Y-91656787D01*
X144656787Y-91638513D01*
X144739661Y-91574921D01*
X144762043Y-91561999D01*
X144858549Y-91522025D01*
X144883513Y-91515336D01*
X144993566Y-91500847D01*
X145006488Y-91500000D01*
X148993512Y-91500000D01*
X149006434Y-91500847D01*
G37*
G04 #@! TD.AperFunction*
G04 #@! TA.AperFunction,Conductor*
G36*
X125256434Y-87100847D02*
G01*
X125366487Y-87115336D01*
X125391451Y-87122025D01*
X125487957Y-87161999D01*
X125510339Y-87174921D01*
X125593213Y-87238513D01*
X125611487Y-87256787D01*
X125675079Y-87339661D01*
X125688001Y-87362043D01*
X125727975Y-87458549D01*
X125734664Y-87483513D01*
X125749153Y-87593566D01*
X125750000Y-87606488D01*
X125750000Y-88543512D01*
X125749153Y-88556434D01*
X125734664Y-88666487D01*
X125727975Y-88691451D01*
X125688001Y-88787957D01*
X125675079Y-88810339D01*
X125611487Y-88893213D01*
X125593213Y-88911487D01*
X125510339Y-88975079D01*
X125487957Y-88988001D01*
X125391451Y-89027975D01*
X125366487Y-89034664D01*
X125256434Y-89049153D01*
X125243512Y-89050000D01*
X120706488Y-89050000D01*
X120693566Y-89049153D01*
X120583513Y-89034664D01*
X120558549Y-89027975D01*
X120462043Y-88988001D01*
X120439661Y-88975079D01*
X120356787Y-88911487D01*
X120338513Y-88893213D01*
X120274921Y-88810339D01*
X120261999Y-88787957D01*
X120222025Y-88691451D01*
X120215336Y-88666487D01*
X120200847Y-88556434D01*
X120200000Y-88543512D01*
X120200000Y-87606488D01*
X120200847Y-87593566D01*
X120215336Y-87483513D01*
X120222025Y-87458549D01*
X120261999Y-87362043D01*
X120274921Y-87339661D01*
X120338513Y-87256787D01*
X120356787Y-87238513D01*
X120439661Y-87174921D01*
X120462043Y-87161999D01*
X120558549Y-87122025D01*
X120583513Y-87115336D01*
X120693566Y-87100847D01*
X120706488Y-87100000D01*
X125243512Y-87100000D01*
X125256434Y-87100847D01*
G37*
G04 #@! TD.AperFunction*
G04 #@! TA.AperFunction,Conductor*
G36*
X130301809Y-74455514D02*
G01*
X130344347Y-74460744D01*
X130412632Y-74469139D01*
X130437793Y-74475672D01*
X130488520Y-74496268D01*
X130535150Y-74515201D01*
X130557740Y-74528056D01*
X130641454Y-74591570D01*
X130659919Y-74609864D01*
X130724209Y-74692975D01*
X130737278Y-74715449D01*
X130777714Y-74812430D01*
X130784482Y-74837530D01*
X130799143Y-74948223D01*
X130800000Y-74961222D01*
X130800000Y-75551256D01*
X130781093Y-75609447D01*
X130745945Y-75639465D01*
X130693255Y-75666312D01*
X130693249Y-75666316D01*
X130687236Y-75669380D01*
X130581243Y-75766847D01*
X130577686Y-75772584D01*
X130577685Y-75772585D01*
X130536229Y-75839446D01*
X130505364Y-75889226D01*
X130503481Y-75895708D01*
X130482182Y-75969021D01*
X130465191Y-76027503D01*
X130463683Y-76171489D01*
X130465428Y-76178000D01*
X130465428Y-76178003D01*
X130485167Y-76251666D01*
X130500952Y-76310577D01*
X130504388Y-76316387D01*
X130565319Y-76419415D01*
X130574251Y-76434519D01*
X130579120Y-76439188D01*
X130579123Y-76439192D01*
X130636364Y-76494084D01*
X130678180Y-76534184D01*
X130684133Y-76537376D01*
X130742282Y-76568555D01*
X130784631Y-76612716D01*
X130794500Y-76655804D01*
X130794500Y-77745000D01*
X130798082Y-77763008D01*
X130798098Y-77763088D01*
X130800000Y-77782402D01*
X130800000Y-78840248D01*
X130798098Y-78859561D01*
X130781006Y-78945491D01*
X130766224Y-78981178D01*
X130753365Y-79000423D01*
X130723072Y-79045759D01*
X130695759Y-79073072D01*
X130631178Y-79116224D01*
X130595492Y-79131006D01*
X130568930Y-79136289D01*
X130519313Y-79146158D01*
X130480687Y-79146158D01*
X130431070Y-79136289D01*
X130404508Y-79131006D01*
X130368822Y-79116224D01*
X130304241Y-79073072D01*
X130276928Y-79045759D01*
X130246635Y-79000423D01*
X130233776Y-78981178D01*
X130218994Y-78945491D01*
X130201902Y-78859561D01*
X130200000Y-78840248D01*
X130200000Y-77782402D01*
X130201902Y-77763088D01*
X130201918Y-77763008D01*
X130205500Y-77745000D01*
X130205500Y-76595000D01*
X130201902Y-76576912D01*
X130200000Y-76557598D01*
X130200000Y-75750000D01*
X126000000Y-75750000D01*
X126000000Y-76557598D01*
X125998098Y-76576912D01*
X125994500Y-76595000D01*
X125994500Y-77745000D01*
X125998082Y-77763008D01*
X125998098Y-77763088D01*
X126000000Y-77782402D01*
X126000000Y-78493512D01*
X125999153Y-78506434D01*
X125984664Y-78616487D01*
X125977975Y-78641451D01*
X125938001Y-78737957D01*
X125925079Y-78760339D01*
X125861487Y-78843213D01*
X125843213Y-78861487D01*
X125760339Y-78925079D01*
X125737957Y-78938001D01*
X125641451Y-78977975D01*
X125616487Y-78984664D01*
X125506434Y-78999153D01*
X125493512Y-79000000D01*
X123000000Y-79000000D01*
X123000000Y-83495962D01*
X122981093Y-83554153D01*
X122976838Y-83559598D01*
X122962741Y-83576398D01*
X122956907Y-83582766D01*
X122068669Y-84471004D01*
X122014152Y-84498781D01*
X121998665Y-84500000D01*
X120256488Y-84500000D01*
X120243566Y-84499153D01*
X120240741Y-84498781D01*
X120230440Y-84497425D01*
X120133513Y-84484664D01*
X120108549Y-84477975D01*
X120012043Y-84438001D01*
X119989661Y-84425079D01*
X119906787Y-84361487D01*
X119888513Y-84343213D01*
X119824921Y-84260339D01*
X119811999Y-84237957D01*
X119772025Y-84141451D01*
X119765336Y-84116487D01*
X119750847Y-84006434D01*
X119750000Y-83993512D01*
X119750000Y-78756488D01*
X119750847Y-78743566D01*
X119765336Y-78633513D01*
X119772025Y-78608549D01*
X119811999Y-78512043D01*
X119824921Y-78489661D01*
X119888513Y-78406787D01*
X119906787Y-78388513D01*
X119989661Y-78324921D01*
X120012043Y-78311999D01*
X120108549Y-78272025D01*
X120133513Y-78265336D01*
X120243566Y-78250847D01*
X120256488Y-78250000D01*
X125450000Y-78250000D01*
X125450000Y-76629792D01*
X125468907Y-76571601D01*
X125493354Y-76547911D01*
X125508856Y-76537376D01*
X125564974Y-76499238D01*
X125569328Y-76494086D01*
X125569330Y-76494084D01*
X125624576Y-76428708D01*
X125657916Y-76389256D01*
X125717858Y-76258331D01*
X125740384Y-76116110D01*
X125740500Y-76105000D01*
X125720958Y-75962338D01*
X125718281Y-75956152D01*
X125718280Y-75956148D01*
X125666452Y-75836381D01*
X125666450Y-75836377D01*
X125663771Y-75830187D01*
X125573152Y-75718282D01*
X125491651Y-75660362D01*
X125455171Y-75611241D01*
X125450000Y-75579664D01*
X125450000Y-75001799D01*
X125450837Y-74988954D01*
X125465155Y-74879538D01*
X125471766Y-74854711D01*
X125511281Y-74758680D01*
X125524057Y-74736391D01*
X125586953Y-74653758D01*
X125605031Y-74635510D01*
X125687076Y-74571842D01*
X125709237Y-74558862D01*
X125804900Y-74518449D01*
X125829661Y-74511607D01*
X125859181Y-74507464D01*
X125938940Y-74496268D01*
X125951776Y-74495311D01*
X130288803Y-74454778D01*
X130301809Y-74455514D01*
G37*
G04 #@! TD.AperFunction*
G04 #@! TA.AperFunction,Conductor*
G36*
X147806434Y-81650847D02*
G01*
X147916487Y-81665336D01*
X147941451Y-81672025D01*
X148037957Y-81711999D01*
X148060339Y-81724921D01*
X148143213Y-81788513D01*
X148161487Y-81806787D01*
X148225079Y-81889661D01*
X148238001Y-81912043D01*
X148277975Y-82008549D01*
X148284664Y-82033513D01*
X148299153Y-82143566D01*
X148300000Y-82156488D01*
X148300000Y-83843512D01*
X148299153Y-83856434D01*
X148284664Y-83966487D01*
X148277975Y-83991451D01*
X148238001Y-84087957D01*
X148225079Y-84110339D01*
X148161487Y-84193213D01*
X148143213Y-84211487D01*
X148060339Y-84275079D01*
X148037957Y-84288001D01*
X147941451Y-84327975D01*
X147916487Y-84334664D01*
X147806434Y-84349153D01*
X147793512Y-84350000D01*
X145806488Y-84350000D01*
X145793566Y-84349153D01*
X145683513Y-84334664D01*
X145658549Y-84327975D01*
X145562043Y-84288001D01*
X145539661Y-84275079D01*
X145456787Y-84211487D01*
X145438513Y-84193213D01*
X145374921Y-84110339D01*
X145361999Y-84087957D01*
X145322025Y-83991451D01*
X145315336Y-83966487D01*
X145300847Y-83856434D01*
X145300000Y-83843512D01*
X145300000Y-82156488D01*
X145300847Y-82143566D01*
X145315336Y-82033513D01*
X145322025Y-82008549D01*
X145361999Y-81912043D01*
X145374921Y-81889661D01*
X145438513Y-81806787D01*
X145456787Y-81788513D01*
X145539661Y-81724921D01*
X145562043Y-81711999D01*
X145658549Y-81672025D01*
X145683513Y-81665336D01*
X145793566Y-81650847D01*
X145806488Y-81650000D01*
X147793512Y-81650000D01*
X147806434Y-81650847D01*
G37*
G04 #@! TD.AperFunction*
G04 #@! TA.AperFunction,Conductor*
G36*
X164506434Y-107850847D02*
G01*
X164616487Y-107865336D01*
X164641451Y-107872025D01*
X164737957Y-107911999D01*
X164760339Y-107924921D01*
X164843213Y-107988513D01*
X164861487Y-108006787D01*
X164925079Y-108089661D01*
X164938001Y-108112043D01*
X164977975Y-108208549D01*
X164984664Y-108233513D01*
X164999153Y-108343566D01*
X165000000Y-108356488D01*
X165000000Y-112143512D01*
X164999153Y-112156434D01*
X164984664Y-112266487D01*
X164977975Y-112291451D01*
X164938001Y-112387957D01*
X164925079Y-112410339D01*
X164861487Y-112493213D01*
X164843213Y-112511487D01*
X164760339Y-112575079D01*
X164737957Y-112588001D01*
X164641451Y-112627975D01*
X164616487Y-112634664D01*
X164506434Y-112649153D01*
X164493512Y-112650000D01*
X164306488Y-112650000D01*
X164293566Y-112649153D01*
X164183513Y-112634664D01*
X164158549Y-112627975D01*
X164062043Y-112588001D01*
X164039661Y-112575079D01*
X163956787Y-112511487D01*
X163938513Y-112493213D01*
X163874921Y-112410339D01*
X163861999Y-112387957D01*
X163822025Y-112291451D01*
X163815336Y-112266487D01*
X163800847Y-112156434D01*
X163800000Y-112143512D01*
X163800000Y-109173438D01*
X163810790Y-109128493D01*
X163855894Y-109039972D01*
X163855894Y-109039971D01*
X163859430Y-109033032D01*
X163875500Y-108931569D01*
X163875500Y-108368431D01*
X163874891Y-108364585D01*
X163860649Y-108274663D01*
X163860649Y-108274662D01*
X163859430Y-108266968D01*
X163855894Y-108260028D01*
X163855892Y-108260022D01*
X163846171Y-108240944D01*
X163836599Y-108180512D01*
X163842916Y-108158113D01*
X163861999Y-108112043D01*
X163874921Y-108089661D01*
X163938513Y-108006787D01*
X163956787Y-107988513D01*
X164039661Y-107924921D01*
X164062043Y-107911999D01*
X164158549Y-107872025D01*
X164183513Y-107865336D01*
X164293566Y-107850847D01*
X164306488Y-107850000D01*
X164493512Y-107850000D01*
X164506434Y-107850847D01*
G37*
G04 #@! TD.AperFunction*
G04 #@! TA.AperFunction,Conductor*
G36*
X170356434Y-87000847D02*
G01*
X170466487Y-87015336D01*
X170491451Y-87022025D01*
X170587957Y-87061999D01*
X170610339Y-87074921D01*
X170693213Y-87138513D01*
X170711487Y-87156787D01*
X170775079Y-87239661D01*
X170788001Y-87262043D01*
X170827975Y-87358549D01*
X170834664Y-87383513D01*
X170849153Y-87493566D01*
X170850000Y-87506488D01*
X170850000Y-90743512D01*
X170849153Y-90756434D01*
X170834664Y-90866487D01*
X170827975Y-90891451D01*
X170788001Y-90987957D01*
X170775079Y-91010339D01*
X170711487Y-91093213D01*
X170693213Y-91111487D01*
X170610339Y-91175079D01*
X170587957Y-91188001D01*
X170491451Y-91227975D01*
X170466487Y-91234664D01*
X170356434Y-91249153D01*
X170343512Y-91250000D01*
X152456488Y-91250000D01*
X152443566Y-91249153D01*
X152333513Y-91234664D01*
X152308549Y-91227975D01*
X152212043Y-91188001D01*
X152189661Y-91175079D01*
X152106787Y-91111487D01*
X152088513Y-91093213D01*
X152024921Y-91010339D01*
X152011999Y-90987957D01*
X151972025Y-90891451D01*
X151965336Y-90866487D01*
X151950847Y-90756434D01*
X151950000Y-90743512D01*
X151950000Y-87506488D01*
X151950847Y-87493566D01*
X151965336Y-87383513D01*
X151972025Y-87358549D01*
X152011999Y-87262043D01*
X152024921Y-87239661D01*
X152088513Y-87156787D01*
X152106787Y-87138513D01*
X152189661Y-87074921D01*
X152212043Y-87061999D01*
X152308549Y-87022025D01*
X152333513Y-87015336D01*
X152443566Y-87000847D01*
X152456488Y-87000000D01*
X170343512Y-87000000D01*
X170356434Y-87000847D01*
G37*
G04 #@! TD.AperFunction*
G04 #@! TA.AperFunction,Conductor*
G36*
X155108188Y-91851078D02*
G01*
X155212963Y-91864872D01*
X155244735Y-91873385D01*
X155334674Y-91910639D01*
X155363160Y-91927086D01*
X155440393Y-91986349D01*
X155463651Y-92009607D01*
X155522914Y-92086840D01*
X155539361Y-92115326D01*
X155576615Y-92205265D01*
X155585128Y-92237037D01*
X155598922Y-92341812D01*
X155600000Y-92358258D01*
X155600000Y-93258731D01*
X155597768Y-93282341D01*
X155596500Y-93288989D01*
X155596500Y-94839579D01*
X155596997Y-94843510D01*
X155599006Y-94859416D01*
X155600000Y-94875208D01*
X155600000Y-95414061D01*
X155599006Y-95429852D01*
X155591579Y-95488642D01*
X155592267Y-95495654D01*
X155599399Y-95568395D01*
X155600000Y-95580691D01*
X155600000Y-96541742D01*
X155598922Y-96558188D01*
X155585128Y-96662963D01*
X155576615Y-96694735D01*
X155539361Y-96784674D01*
X155522914Y-96813160D01*
X155463651Y-96890393D01*
X155440393Y-96913651D01*
X155363160Y-96972914D01*
X155334674Y-96989361D01*
X155244735Y-97026615D01*
X155212963Y-97035128D01*
X155108188Y-97048922D01*
X155091742Y-97050000D01*
X151413141Y-97050000D01*
X151396595Y-97048909D01*
X151394465Y-97048627D01*
X151291189Y-97034946D01*
X151259242Y-97026330D01*
X151168850Y-96988634D01*
X151140246Y-96971997D01*
X151062781Y-96912061D01*
X151039494Y-96888549D01*
X150980312Y-96810519D01*
X150963949Y-96781754D01*
X150927122Y-96691000D01*
X150918814Y-96658968D01*
X150905866Y-96553440D01*
X150904934Y-96536884D01*
X150915080Y-95481648D01*
X150919057Y-95068057D01*
X150931044Y-95015620D01*
X150932651Y-95012206D01*
X150932652Y-95012204D01*
X150936026Y-95005033D01*
X150937511Y-94997250D01*
X150937512Y-94997246D01*
X150962386Y-94866852D01*
X150962386Y-94866849D01*
X150963500Y-94861011D01*
X150963500Y-93310421D01*
X150947655Y-93184994D01*
X150944736Y-93177622D01*
X150942765Y-93169944D01*
X150944175Y-93169582D01*
X150937650Y-93134463D01*
X150945160Y-92353399D01*
X150946382Y-92337064D01*
X150960449Y-92237037D01*
X150961009Y-92233050D01*
X150969723Y-92201541D01*
X151007395Y-92112415D01*
X151023923Y-92084207D01*
X151083258Y-92007773D01*
X151106485Y-91984768D01*
X151183488Y-91926170D01*
X151211850Y-91909916D01*
X151301337Y-91873101D01*
X151332923Y-91864692D01*
X151437075Y-91851065D01*
X151453421Y-91850000D01*
X155091742Y-91850000D01*
X155108188Y-91851078D01*
G37*
G04 #@! TD.AperFunction*
G04 #@! TA.AperFunction,Conductor*
G36*
X152994766Y-81707241D02*
G01*
X153161472Y-81774764D01*
X153165124Y-81775631D01*
X153165125Y-81775631D01*
X153409550Y-81833636D01*
X153409555Y-81833637D01*
X153413201Y-81834502D01*
X153562674Y-81846660D01*
X153667317Y-81855172D01*
X153667321Y-81855172D01*
X153671070Y-81855477D01*
X153747874Y-81850039D01*
X153925395Y-81837470D01*
X153925401Y-81837469D01*
X153929145Y-81837204D01*
X154181486Y-81780105D01*
X154227569Y-81761999D01*
X154367915Y-81706857D01*
X154404118Y-81700000D01*
X157493512Y-81700000D01*
X157506434Y-81700847D01*
X157616487Y-81715336D01*
X157641451Y-81722025D01*
X157737957Y-81761999D01*
X157760339Y-81774921D01*
X157843213Y-81838513D01*
X157861487Y-81856787D01*
X157925079Y-81939661D01*
X157938001Y-81962043D01*
X157977975Y-82058549D01*
X157984664Y-82083513D01*
X157999153Y-82193566D01*
X158000000Y-82206488D01*
X158000000Y-86193512D01*
X157999153Y-86206434D01*
X157984664Y-86316487D01*
X157977975Y-86341451D01*
X157938001Y-86437957D01*
X157925079Y-86460339D01*
X157861487Y-86543213D01*
X157843213Y-86561487D01*
X157760339Y-86625079D01*
X157737957Y-86638001D01*
X157641451Y-86677975D01*
X157616487Y-86684664D01*
X157506434Y-86699153D01*
X157493512Y-86700000D01*
X151500000Y-86700000D01*
X151500000Y-90693512D01*
X151499153Y-90706434D01*
X151484664Y-90816487D01*
X151477975Y-90841451D01*
X151438001Y-90937957D01*
X151425079Y-90960339D01*
X151361487Y-91043213D01*
X151343213Y-91061487D01*
X151260339Y-91125079D01*
X151237957Y-91138001D01*
X151141451Y-91177975D01*
X151116487Y-91184664D01*
X151006434Y-91199153D01*
X150993512Y-91200000D01*
X146256488Y-91200000D01*
X146243566Y-91199153D01*
X146133513Y-91184664D01*
X146108549Y-91177975D01*
X146012043Y-91138001D01*
X145989661Y-91125079D01*
X145906787Y-91061487D01*
X145888513Y-91043213D01*
X145824921Y-90960339D01*
X145811999Y-90937957D01*
X145772025Y-90841451D01*
X145765336Y-90816487D01*
X145750847Y-90706434D01*
X145750000Y-90693512D01*
X145750000Y-85256488D01*
X145750847Y-85243566D01*
X145765336Y-85133513D01*
X145772025Y-85108549D01*
X145811999Y-85012043D01*
X145824921Y-84989661D01*
X145888513Y-84906787D01*
X145906787Y-84888513D01*
X145989661Y-84824921D01*
X146012043Y-84811999D01*
X146108549Y-84772025D01*
X146133513Y-84765336D01*
X146243566Y-84750847D01*
X146256488Y-84750000D01*
X150500000Y-84750000D01*
X150500000Y-82206488D01*
X150500847Y-82193566D01*
X150515336Y-82083513D01*
X150522025Y-82058549D01*
X150561999Y-81962043D01*
X150574921Y-81939661D01*
X150638513Y-81856787D01*
X150656787Y-81838513D01*
X150739661Y-81774921D01*
X150762043Y-81761999D01*
X150858549Y-81722025D01*
X150883513Y-81715336D01*
X150993566Y-81700847D01*
X151006488Y-81700000D01*
X152957600Y-81700000D01*
X152994766Y-81707241D01*
G37*
G04 #@! TD.AperFunction*
G04 #@! TA.AperFunction,Conductor*
G36*
X170456434Y-103250847D02*
G01*
X170566487Y-103265336D01*
X170591451Y-103272025D01*
X170687957Y-103311999D01*
X170710339Y-103324921D01*
X170793213Y-103388513D01*
X170811487Y-103406787D01*
X170875079Y-103489661D01*
X170888001Y-103512043D01*
X170927975Y-103608549D01*
X170934664Y-103633513D01*
X170949153Y-103743566D01*
X170950000Y-103756488D01*
X170950000Y-107143512D01*
X170949153Y-107156434D01*
X170934664Y-107266487D01*
X170927975Y-107291451D01*
X170888001Y-107387957D01*
X170875079Y-107410339D01*
X170811487Y-107493213D01*
X170793213Y-107511487D01*
X170710339Y-107575079D01*
X170687957Y-107588001D01*
X170591451Y-107627975D01*
X170566487Y-107634664D01*
X170456434Y-107649153D01*
X170443512Y-107650000D01*
X160691332Y-107650000D01*
X160633141Y-107631093D01*
X160597177Y-107581593D01*
X160593332Y-107565034D01*
X160586182Y-107515106D01*
X160585182Y-107508123D01*
X160571853Y-107478806D01*
X160528780Y-107384073D01*
X160528780Y-107384072D01*
X160525860Y-107377651D01*
X160432303Y-107269074D01*
X160312033Y-107191118D01*
X160305275Y-107189097D01*
X160305273Y-107189096D01*
X160181479Y-107152074D01*
X160174718Y-107150052D01*
X160088694Y-107149527D01*
X160038448Y-107149220D01*
X160031396Y-107149177D01*
X160024620Y-107151114D01*
X160024617Y-107151114D01*
X159900369Y-107186624D01*
X159900367Y-107186625D01*
X159893589Y-107188562D01*
X159772375Y-107265042D01*
X159677499Y-107372469D01*
X159616588Y-107502206D01*
X159614207Y-107517500D01*
X159606619Y-107566231D01*
X159578984Y-107620820D01*
X159524541Y-107648740D01*
X159508798Y-107650000D01*
X157756488Y-107650000D01*
X157743566Y-107649153D01*
X157633513Y-107634664D01*
X157608551Y-107627976D01*
X157581402Y-107616731D01*
X157534875Y-107576995D01*
X157520591Y-107517500D01*
X157523659Y-107499644D01*
X157527001Y-107487171D01*
X157527001Y-107487169D01*
X157529242Y-107478806D01*
X157519238Y-107364461D01*
X157470730Y-107260433D01*
X157389567Y-107179270D01*
X157307161Y-107140845D01*
X157262413Y-107099117D01*
X157250000Y-107051120D01*
X157250000Y-103756488D01*
X157250847Y-103743566D01*
X157265336Y-103633513D01*
X157272025Y-103608549D01*
X157311999Y-103512043D01*
X157324921Y-103489661D01*
X157388513Y-103406787D01*
X157406787Y-103388513D01*
X157489661Y-103324921D01*
X157512043Y-103311999D01*
X157608549Y-103272025D01*
X157633513Y-103265336D01*
X157743566Y-103250847D01*
X157756488Y-103250000D01*
X170443512Y-103250000D01*
X170456434Y-103250847D01*
G37*
G04 #@! TD.AperFunction*
M02*
