G04 #@! TF.GenerationSoftware,KiCad,Pcbnew,(5.99.0-9218-g05b559c9dc)*
G04 #@! TF.CreationDate,2021-05-17T00:15:44+02:00*
G04 #@! TF.ProjectId,Self_Watering_Plant,53656c66-5f57-4617-9465-72696e675f50,rev?*
G04 #@! TF.SameCoordinates,Original*
G04 #@! TF.FileFunction,Soldermask,Top*
G04 #@! TF.FilePolarity,Negative*
%FSLAX46Y46*%
G04 Gerber Fmt 4.6, Leading zero omitted, Abs format (unit mm)*
G04 Created by KiCad (PCBNEW (5.99.0-9218-g05b559c9dc)) date 2021-05-17 00:15:44*
%MOMM*%
%LPD*%
G01*
G04 APERTURE LIST*
G04 Aperture macros list*
%AMRoundRect*
0 Rectangle with rounded corners*
0 $1 Rounding radius*
0 $2 $3 $4 $5 $6 $7 $8 $9 X,Y pos of 4 corners*
0 Add a 4 corners polygon primitive as box body*
4,1,4,$2,$3,$4,$5,$6,$7,$8,$9,$2,$3,0*
0 Add four circle primitives for the rounded corners*
1,1,$1+$1,$2,$3*
1,1,$1+$1,$4,$5*
1,1,$1+$1,$6,$7*
1,1,$1+$1,$8,$9*
0 Add four rect primitives between the rounded corners*
20,1,$1+$1,$2,$3,$4,$5,0*
20,1,$1+$1,$4,$5,$6,$7,0*
20,1,$1+$1,$6,$7,$8,$9,0*
20,1,$1+$1,$8,$9,$2,$3,0*%
G04 Aperture macros list end*
%ADD10RoundRect,0.051000X0.300000X0.725000X-0.300000X0.725000X-0.300000X-0.725000X0.300000X-0.725000X0*%
%ADD11RoundRect,0.051000X0.150000X0.725000X-0.150000X0.725000X-0.150000X-0.725000X0.150000X-0.725000X0*%
%ADD12O,1.102000X2.202000*%
%ADD13C,0.752000*%
%ADD14O,1.102000X1.702000*%
%ADD15RoundRect,0.175500X-0.613000X-0.175500X0.613000X-0.175500X0.613000X0.175500X-0.613000X0.175500X0*%
%ADD16RoundRect,0.175500X0.613000X0.175500X-0.613000X0.175500X-0.613000X-0.175500X0.613000X-0.175500X0*%
%ADD17RoundRect,0.225500X-0.300500X0.225500X-0.300500X-0.225500X0.300500X-0.225500X0.300500X0.225500X0*%
%ADD18RoundRect,0.175500X-0.175500X0.850500X-0.175500X-0.850500X0.175500X-0.850500X0.175500X0.850500X0*%
%ADD19RoundRect,0.250500X-0.250500X-0.275500X0.250500X-0.275500X0.250500X0.275500X-0.250500X0.275500X0*%
%ADD20RoundRect,0.250500X-0.275500X0.250500X-0.275500X-0.250500X0.275500X-0.250500X0.275500X0.250500X0*%
%ADD21RoundRect,0.250500X0.250500X0.275500X-0.250500X0.275500X-0.250500X-0.275500X0.250500X-0.275500X0*%
%ADD22RoundRect,0.244250X0.281750X-0.244250X0.281750X0.244250X-0.281750X0.244250X-0.281750X-0.244250X0*%
%ADD23RoundRect,0.051000X0.800000X0.750000X-0.800000X0.750000X-0.800000X-0.750000X0.800000X-0.750000X0*%
%ADD24C,1.702000*%
%ADD25C,3.102000*%
%ADD26RoundRect,0.225500X-0.225500X-0.300500X0.225500X-0.300500X0.225500X0.300500X-0.225500X0.300500X0*%
%ADD27RoundRect,0.225500X0.225500X0.300500X-0.225500X0.300500X-0.225500X-0.300500X0.225500X-0.300500X0*%
%ADD28C,2.102000*%
%ADD29RoundRect,0.265000X-0.786000X0.636000X-0.786000X-0.636000X0.786000X-0.636000X0.786000X0.636000X0*%
%ADD30O,2.102000X1.802000*%
%ADD31RoundRect,0.265000X-0.761000X0.636000X-0.761000X-0.636000X0.761000X-0.636000X0.761000X0.636000X0*%
%ADD32O,2.052000X1.802000*%
%ADD33RoundRect,0.225500X0.300500X-0.225500X0.300500X0.225500X-0.300500X0.225500X-0.300500X-0.225500X0*%
%ADD34RoundRect,0.175500X-0.175500X0.538000X-0.175500X-0.538000X0.175500X-0.538000X0.175500X0.538000X0*%
%ADD35RoundRect,0.051000X-0.450000X1.000000X-0.450000X-1.000000X0.450000X-1.000000X0.450000X1.000000X0*%
%ADD36RoundRect,0.051000X-1.000000X-0.450000X1.000000X-0.450000X1.000000X0.450000X-1.000000X0.450000X0*%
%ADD37RoundRect,0.051000X-2.500000X2.500000X-2.500000X-2.500000X2.500000X-2.500000X2.500000X2.500000X0*%
%ADD38RoundRect,0.175500X0.175500X-0.750500X0.175500X0.750500X-0.175500X0.750500X-0.175500X-0.750500X0*%
%ADD39RoundRect,0.272667X0.340833X1.478333X-0.340833X1.478333X-0.340833X-1.478333X0.340833X-1.478333X0*%
%ADD40RoundRect,0.051000X-0.200000X-0.387500X0.200000X-0.387500X0.200000X0.387500X-0.200000X0.387500X0*%
%ADD41RoundRect,0.051000X1.150000X-1.250000X1.150000X1.250000X-1.150000X1.250000X-1.150000X-1.250000X0*%
%ADD42RoundRect,0.051000X-0.325000X-0.200000X0.325000X-0.200000X0.325000X0.200000X-0.325000X0.200000X0*%
%ADD43RoundRect,0.051000X-0.900000X-0.900000X0.900000X-0.900000X0.900000X0.900000X-0.900000X0.900000X0*%
%ADD44C,1.902000*%
%ADD45RoundRect,0.250500X0.275500X-0.250500X0.275500X0.250500X-0.275500X0.250500X-0.275500X-0.250500X0*%
G04 APERTURE END LIST*
D10*
X124850000Y-77545000D03*
X125650000Y-77545000D03*
X130550000Y-77545000D03*
X131350000Y-77545000D03*
X131350000Y-77545000D03*
X130550000Y-77545000D03*
X125650000Y-77545000D03*
X124850000Y-77545000D03*
D11*
X129850000Y-77545000D03*
X129350000Y-77545000D03*
X128850000Y-77545000D03*
X127850000Y-77545000D03*
X127350000Y-77545000D03*
X126850000Y-77545000D03*
X126350000Y-77545000D03*
X128350000Y-77545000D03*
D12*
X123780000Y-76630000D03*
X132420000Y-76630000D03*
D13*
X130990000Y-76100000D03*
D14*
X132420000Y-72450000D03*
D13*
X125210000Y-76100000D03*
D14*
X123780000Y-72450000D03*
D15*
X130662500Y-89575000D03*
X130662500Y-91475000D03*
X132537500Y-90525000D03*
D16*
X128587500Y-91475000D03*
X128587500Y-89575000D03*
X126712500Y-90525000D03*
D17*
X131500000Y-131175000D03*
X131500000Y-132825000D03*
X131500000Y-122675000D03*
X131500000Y-124325000D03*
D18*
X132695000Y-80525000D03*
X131425000Y-80525000D03*
X130155000Y-80525000D03*
X128885000Y-80525000D03*
X127615000Y-80525000D03*
X126345000Y-80525000D03*
X125075000Y-80525000D03*
X123805000Y-80525000D03*
X123805000Y-85475000D03*
X125075000Y-85475000D03*
X126345000Y-85475000D03*
X127615000Y-85475000D03*
X128885000Y-85475000D03*
X130155000Y-85475000D03*
X131425000Y-85475000D03*
X132695000Y-85475000D03*
D19*
X132975000Y-87750000D03*
X134525000Y-87750000D03*
D20*
X134500000Y-84475000D03*
X134500000Y-86025000D03*
D19*
X163225000Y-108650000D03*
X164775000Y-108650000D03*
D21*
X161675000Y-108650000D03*
X160125000Y-108650000D03*
D19*
X133037500Y-93150000D03*
X134587500Y-93150000D03*
D22*
X131500000Y-128750000D03*
X131500000Y-127175000D03*
X131500000Y-120037500D03*
X131500000Y-118462500D03*
D23*
X146500000Y-82860000D03*
D24*
X144000000Y-82860000D03*
X142000000Y-82860000D03*
X139500000Y-82860000D03*
D25*
X136430000Y-80150000D03*
X149570000Y-80150000D03*
D26*
X128175000Y-87925000D03*
X129825000Y-87925000D03*
D27*
X130325000Y-93275000D03*
X128675000Y-93275000D03*
X158625000Y-108650000D03*
X156975000Y-108650000D03*
D17*
X141700000Y-103012500D03*
X141700000Y-104662500D03*
D28*
X167750000Y-95250000D03*
X167750000Y-90250000D03*
X167750000Y-105250000D03*
X167750000Y-100250000D03*
D23*
X163750000Y-82860000D03*
D24*
X161250000Y-82860000D03*
X159250000Y-82860000D03*
X156750000Y-82860000D03*
D25*
X153680000Y-80150000D03*
X166820000Y-80150000D03*
D29*
X123450000Y-120000000D03*
D30*
X123450000Y-122500000D03*
D29*
X123450000Y-128500000D03*
D30*
X123450000Y-131000000D03*
D31*
X123450000Y-109000000D03*
D32*
X123450000Y-111500000D03*
X123450000Y-114000000D03*
D20*
X129250000Y-131250000D03*
X129250000Y-132800000D03*
D33*
X153000000Y-135675000D03*
X153000000Y-134025000D03*
D34*
X120450000Y-86112500D03*
X119500000Y-86112500D03*
X118550000Y-86112500D03*
X118550000Y-88387500D03*
X120450000Y-88387500D03*
D28*
X159500000Y-136250000D03*
X166000000Y-136250000D03*
X166000000Y-131750000D03*
X159500000Y-131750000D03*
D17*
X131500000Y-113425000D03*
X131500000Y-115075000D03*
D35*
X164405000Y-110750000D03*
X163135000Y-110750000D03*
X161865000Y-110750000D03*
X160595000Y-110750000D03*
X159325000Y-110750000D03*
X158055000Y-110750000D03*
X156785000Y-110750000D03*
X155515000Y-110750000D03*
X154245000Y-110750000D03*
X152975000Y-110750000D03*
X151705000Y-110750000D03*
X150435000Y-110750000D03*
X149165000Y-110750000D03*
X147895000Y-110750000D03*
D36*
X146895000Y-113535000D03*
X146895000Y-114805000D03*
X146895000Y-116075000D03*
X146895000Y-117345000D03*
X146895000Y-118615000D03*
X146895000Y-119885000D03*
X146895000Y-121155000D03*
X146895000Y-122425000D03*
X146895000Y-123695000D03*
X146895000Y-124965000D03*
D35*
X147895000Y-127750000D03*
X149165000Y-127750000D03*
X150435000Y-127750000D03*
X151705000Y-127750000D03*
X152975000Y-127750000D03*
X154245000Y-127750000D03*
X155515000Y-127750000D03*
X156785000Y-127750000D03*
X158055000Y-127750000D03*
X159325000Y-127750000D03*
X160595000Y-127750000D03*
X161865000Y-127750000D03*
X163135000Y-127750000D03*
X164405000Y-127750000D03*
D37*
X156905000Y-118250000D03*
D22*
X155800000Y-135637500D03*
X155800000Y-134062500D03*
D20*
X116250000Y-85975000D03*
X116250000Y-87525000D03*
D21*
X142575000Y-117250000D03*
X141025000Y-117250000D03*
X138075000Y-119750000D03*
X136525000Y-119750000D03*
D17*
X118250000Y-76425000D03*
X118250000Y-78075000D03*
D38*
X146345000Y-94075000D03*
X147615000Y-94075000D03*
X148885000Y-94075000D03*
X150155000Y-94075000D03*
X150155000Y-88925000D03*
X148885000Y-88925000D03*
X147615000Y-88925000D03*
X146345000Y-88925000D03*
D33*
X124850000Y-94175000D03*
X124850000Y-92525000D03*
D22*
X147200000Y-135637500D03*
X147200000Y-134062500D03*
D20*
X116250000Y-89225000D03*
X116250000Y-90775000D03*
D39*
X120637500Y-82500000D03*
X116362500Y-82500000D03*
D40*
X138100000Y-103250000D03*
X139100000Y-103250000D03*
X140100000Y-103250000D03*
X140100000Y-101250000D03*
X139100000Y-101250000D03*
X138100000Y-101250000D03*
D41*
X160000000Y-104400000D03*
X160000000Y-100100000D03*
D17*
X129250000Y-127200000D03*
X129250000Y-128850000D03*
D27*
X121575000Y-76500000D03*
X119925000Y-76500000D03*
D20*
X129250000Y-122725000D03*
X129250000Y-124275000D03*
D42*
X140850000Y-118850000D03*
X140850000Y-119500000D03*
X140850000Y-120150000D03*
X142750000Y-120150000D03*
X142750000Y-119500000D03*
X142750000Y-118850000D03*
D43*
X118475000Y-73000000D03*
D44*
X121015000Y-73000000D03*
D41*
X160000000Y-94650000D03*
X160000000Y-90350000D03*
D17*
X129250000Y-107675000D03*
X129250000Y-109325000D03*
D21*
X138075000Y-115000000D03*
X136525000Y-115000000D03*
D17*
X129250000Y-118425000D03*
X129250000Y-120075000D03*
D38*
X152595000Y-104825000D03*
X153865000Y-104825000D03*
X155135000Y-104825000D03*
X156405000Y-104825000D03*
X156405000Y-99675000D03*
X155135000Y-99675000D03*
X153865000Y-99675000D03*
X152595000Y-99675000D03*
D20*
X122250000Y-88725000D03*
X122250000Y-90275000D03*
D33*
X145550000Y-135625000D03*
X145550000Y-133975000D03*
D20*
X129250000Y-113475000D03*
X129250000Y-115025000D03*
D33*
X141700000Y-101562500D03*
X141700000Y-99912500D03*
D42*
X136350000Y-116600000D03*
X136350000Y-117250000D03*
X136350000Y-117900000D03*
X138250000Y-117900000D03*
X138250000Y-117250000D03*
X138250000Y-116600000D03*
D38*
X140095000Y-94075000D03*
X141365000Y-94075000D03*
X142635000Y-94075000D03*
X143905000Y-94075000D03*
X143905000Y-88925000D03*
X142635000Y-88925000D03*
X141365000Y-88925000D03*
X140095000Y-88925000D03*
D45*
X136700000Y-102925000D03*
X136700000Y-101375000D03*
D22*
X131500000Y-109287500D03*
X131500000Y-107712500D03*
D42*
X136350000Y-121350000D03*
X136350000Y-122000000D03*
X136350000Y-122650000D03*
X138250000Y-122650000D03*
X138250000Y-122000000D03*
X138250000Y-121350000D03*
D33*
X123300000Y-94175000D03*
X123300000Y-92525000D03*
D22*
X116250000Y-78037500D03*
X116250000Y-76462500D03*
D38*
X152595000Y-94075000D03*
X153865000Y-94075000D03*
X155135000Y-94075000D03*
X156405000Y-94075000D03*
X156405000Y-88925000D03*
X155135000Y-88925000D03*
X153865000Y-88925000D03*
X152595000Y-88925000D03*
G36*
X137895267Y-122237886D02*
G01*
X137906262Y-122245233D01*
X137925199Y-122249000D01*
X138574801Y-122249000D01*
X138593738Y-122245233D01*
X138604733Y-122237886D01*
X138606729Y-122237755D01*
X138607840Y-122239418D01*
X138607507Y-122240660D01*
X138598291Y-122254452D01*
X138600031Y-122255615D01*
X138600916Y-122257409D01*
X138600455Y-122258560D01*
X138585922Y-122275952D01*
X138577296Y-122344670D01*
X138600082Y-122392288D01*
X138599928Y-122394282D01*
X138599389Y-122394814D01*
X138598291Y-122395548D01*
X138607507Y-122409340D01*
X138607638Y-122411336D01*
X138605975Y-122412447D01*
X138604733Y-122412114D01*
X138593738Y-122404767D01*
X138574801Y-122401000D01*
X137925199Y-122401000D01*
X137906262Y-122404767D01*
X137895267Y-122412114D01*
X137893271Y-122412245D01*
X137892160Y-122410582D01*
X137892493Y-122409340D01*
X137901709Y-122395548D01*
X137899969Y-122394385D01*
X137899084Y-122392591D01*
X137899545Y-122391440D01*
X137914078Y-122374048D01*
X137922704Y-122305330D01*
X137899918Y-122257712D01*
X137900072Y-122255718D01*
X137900611Y-122255186D01*
X137901709Y-122254452D01*
X137892493Y-122240660D01*
X137892362Y-122238664D01*
X137894025Y-122237553D01*
X137895267Y-122237886D01*
G37*
G36*
X135995267Y-122237886D02*
G01*
X136006262Y-122245233D01*
X136025199Y-122249000D01*
X136674801Y-122249000D01*
X136693738Y-122245233D01*
X136704733Y-122237886D01*
X136706729Y-122237755D01*
X136707840Y-122239418D01*
X136707507Y-122240660D01*
X136698291Y-122254452D01*
X136700031Y-122255615D01*
X136700916Y-122257409D01*
X136700455Y-122258560D01*
X136685922Y-122275952D01*
X136677296Y-122344670D01*
X136700082Y-122392288D01*
X136699928Y-122394282D01*
X136699389Y-122394814D01*
X136698291Y-122395548D01*
X136707507Y-122409340D01*
X136707638Y-122411336D01*
X136705975Y-122412447D01*
X136704733Y-122412114D01*
X136693738Y-122404767D01*
X136674801Y-122401000D01*
X136025199Y-122401000D01*
X136006262Y-122404767D01*
X135995267Y-122412114D01*
X135993271Y-122412245D01*
X135992160Y-122410582D01*
X135992493Y-122409340D01*
X136001709Y-122395548D01*
X135999969Y-122394385D01*
X135999084Y-122392591D01*
X135999545Y-122391440D01*
X136014078Y-122374048D01*
X136022704Y-122305330D01*
X135999918Y-122257712D01*
X136000072Y-122255718D01*
X136000611Y-122255186D01*
X136001709Y-122254452D01*
X135992493Y-122240660D01*
X135992362Y-122238664D01*
X135994025Y-122237553D01*
X135995267Y-122237886D01*
G37*
G36*
X135995267Y-121587886D02*
G01*
X136006262Y-121595233D01*
X136025199Y-121599000D01*
X136674801Y-121599000D01*
X136693738Y-121595233D01*
X136704733Y-121587886D01*
X136706729Y-121587755D01*
X136707840Y-121589418D01*
X136707507Y-121590660D01*
X136698291Y-121604452D01*
X136700031Y-121605615D01*
X136700916Y-121607409D01*
X136700455Y-121608560D01*
X136685922Y-121625952D01*
X136677296Y-121694670D01*
X136700082Y-121742288D01*
X136699928Y-121744282D01*
X136699389Y-121744814D01*
X136698291Y-121745548D01*
X136707507Y-121759340D01*
X136707638Y-121761336D01*
X136705975Y-121762447D01*
X136704733Y-121762114D01*
X136693738Y-121754767D01*
X136674801Y-121751000D01*
X136025199Y-121751000D01*
X136006262Y-121754767D01*
X135995267Y-121762114D01*
X135993271Y-121762245D01*
X135992160Y-121760582D01*
X135992493Y-121759340D01*
X136001709Y-121745548D01*
X135999969Y-121744385D01*
X135999084Y-121742591D01*
X135999545Y-121741440D01*
X136014078Y-121724048D01*
X136022704Y-121655330D01*
X135999918Y-121607712D01*
X136000072Y-121605718D01*
X136000611Y-121605186D01*
X136001709Y-121604452D01*
X135992493Y-121590660D01*
X135992362Y-121588664D01*
X135994025Y-121587553D01*
X135995267Y-121587886D01*
G37*
G36*
X137895267Y-121587886D02*
G01*
X137906262Y-121595233D01*
X137925199Y-121599000D01*
X138574801Y-121599000D01*
X138593738Y-121595233D01*
X138604733Y-121587886D01*
X138606729Y-121587755D01*
X138607840Y-121589418D01*
X138607507Y-121590660D01*
X138598291Y-121604452D01*
X138600031Y-121605615D01*
X138600916Y-121607409D01*
X138600455Y-121608560D01*
X138585922Y-121625952D01*
X138577296Y-121694670D01*
X138600082Y-121742288D01*
X138599928Y-121744282D01*
X138599389Y-121744814D01*
X138598291Y-121745548D01*
X138607507Y-121759340D01*
X138607638Y-121761336D01*
X138605975Y-121762447D01*
X138604733Y-121762114D01*
X138593738Y-121754767D01*
X138574801Y-121751000D01*
X137925199Y-121751000D01*
X137906262Y-121754767D01*
X137895267Y-121762114D01*
X137893271Y-121762245D01*
X137892160Y-121760582D01*
X137892493Y-121759340D01*
X137901709Y-121745548D01*
X137899969Y-121744385D01*
X137899084Y-121742591D01*
X137899545Y-121741440D01*
X137914078Y-121724048D01*
X137922704Y-121655330D01*
X137899918Y-121607712D01*
X137900072Y-121605718D01*
X137900611Y-121605186D01*
X137901709Y-121604452D01*
X137892493Y-121590660D01*
X137892362Y-121588664D01*
X137894025Y-121587553D01*
X137895267Y-121587886D01*
G37*
G36*
X140495267Y-119737886D02*
G01*
X140506262Y-119745233D01*
X140525199Y-119749000D01*
X141174801Y-119749000D01*
X141193738Y-119745233D01*
X141204733Y-119737886D01*
X141206729Y-119737755D01*
X141207840Y-119739418D01*
X141207507Y-119740660D01*
X141198291Y-119754452D01*
X141200031Y-119755615D01*
X141200916Y-119757409D01*
X141200455Y-119758560D01*
X141185922Y-119775952D01*
X141177296Y-119844670D01*
X141200082Y-119892288D01*
X141199928Y-119894282D01*
X141199389Y-119894814D01*
X141198291Y-119895548D01*
X141207507Y-119909340D01*
X141207638Y-119911336D01*
X141205975Y-119912447D01*
X141204733Y-119912114D01*
X141193738Y-119904767D01*
X141174801Y-119901000D01*
X140525199Y-119901000D01*
X140506262Y-119904767D01*
X140495267Y-119912114D01*
X140493271Y-119912245D01*
X140492160Y-119910582D01*
X140492493Y-119909340D01*
X140501709Y-119895548D01*
X140499969Y-119894385D01*
X140499084Y-119892591D01*
X140499545Y-119891440D01*
X140514078Y-119874048D01*
X140522704Y-119805330D01*
X140499918Y-119757712D01*
X140500072Y-119755718D01*
X140500611Y-119755186D01*
X140501709Y-119754452D01*
X140492493Y-119740660D01*
X140492362Y-119738664D01*
X140494025Y-119737553D01*
X140495267Y-119737886D01*
G37*
G36*
X142395267Y-119737886D02*
G01*
X142406262Y-119745233D01*
X142425199Y-119749000D01*
X143074801Y-119749000D01*
X143093738Y-119745233D01*
X143104733Y-119737886D01*
X143106729Y-119737755D01*
X143107840Y-119739418D01*
X143107507Y-119740660D01*
X143098291Y-119754452D01*
X143100031Y-119755615D01*
X143100916Y-119757409D01*
X143100455Y-119758560D01*
X143085922Y-119775952D01*
X143077296Y-119844670D01*
X143100082Y-119892288D01*
X143099928Y-119894282D01*
X143099389Y-119894814D01*
X143098291Y-119895548D01*
X143107507Y-119909340D01*
X143107638Y-119911336D01*
X143105975Y-119912447D01*
X143104733Y-119912114D01*
X143093738Y-119904767D01*
X143074801Y-119901000D01*
X142425199Y-119901000D01*
X142406262Y-119904767D01*
X142395267Y-119912114D01*
X142393271Y-119912245D01*
X142392160Y-119910582D01*
X142392493Y-119909340D01*
X142401709Y-119895548D01*
X142399969Y-119894385D01*
X142399084Y-119892591D01*
X142399545Y-119891440D01*
X142414078Y-119874048D01*
X142422704Y-119805330D01*
X142399918Y-119757712D01*
X142400072Y-119755718D01*
X142400611Y-119755186D01*
X142401709Y-119754452D01*
X142392493Y-119740660D01*
X142392362Y-119738664D01*
X142394025Y-119737553D01*
X142395267Y-119737886D01*
G37*
G36*
X142395267Y-119087886D02*
G01*
X142406262Y-119095233D01*
X142425199Y-119099000D01*
X143074801Y-119099000D01*
X143093738Y-119095233D01*
X143104733Y-119087886D01*
X143106729Y-119087755D01*
X143107840Y-119089418D01*
X143107507Y-119090660D01*
X143098291Y-119104452D01*
X143100031Y-119105615D01*
X143100916Y-119107409D01*
X143100455Y-119108560D01*
X143085922Y-119125952D01*
X143077296Y-119194670D01*
X143100082Y-119242288D01*
X143099928Y-119244282D01*
X143099389Y-119244814D01*
X143098291Y-119245548D01*
X143107507Y-119259340D01*
X143107638Y-119261336D01*
X143105975Y-119262447D01*
X143104733Y-119262114D01*
X143093738Y-119254767D01*
X143074801Y-119251000D01*
X142425199Y-119251000D01*
X142406262Y-119254767D01*
X142395267Y-119262114D01*
X142393271Y-119262245D01*
X142392160Y-119260582D01*
X142392493Y-119259340D01*
X142401709Y-119245548D01*
X142399969Y-119244385D01*
X142399084Y-119242591D01*
X142399545Y-119241440D01*
X142414078Y-119224048D01*
X142422704Y-119155330D01*
X142399918Y-119107712D01*
X142400072Y-119105718D01*
X142400611Y-119105186D01*
X142401709Y-119104452D01*
X142392493Y-119090660D01*
X142392362Y-119088664D01*
X142394025Y-119087553D01*
X142395267Y-119087886D01*
G37*
G36*
X140495267Y-119087886D02*
G01*
X140506262Y-119095233D01*
X140525199Y-119099000D01*
X141174801Y-119099000D01*
X141193738Y-119095233D01*
X141204733Y-119087886D01*
X141206729Y-119087755D01*
X141207840Y-119089418D01*
X141207507Y-119090660D01*
X141198291Y-119104452D01*
X141200031Y-119105615D01*
X141200916Y-119107409D01*
X141200455Y-119108560D01*
X141185922Y-119125952D01*
X141177296Y-119194670D01*
X141200082Y-119242288D01*
X141199928Y-119244282D01*
X141199389Y-119244814D01*
X141198291Y-119245548D01*
X141207507Y-119259340D01*
X141207638Y-119261336D01*
X141205975Y-119262447D01*
X141204733Y-119262114D01*
X141193738Y-119254767D01*
X141174801Y-119251000D01*
X140525199Y-119251000D01*
X140506262Y-119254767D01*
X140495267Y-119262114D01*
X140493271Y-119262245D01*
X140492160Y-119260582D01*
X140492493Y-119259340D01*
X140501709Y-119245548D01*
X140499969Y-119244385D01*
X140499084Y-119242591D01*
X140499545Y-119241440D01*
X140514078Y-119224048D01*
X140522704Y-119155330D01*
X140499918Y-119107712D01*
X140500072Y-119105718D01*
X140500611Y-119105186D01*
X140501709Y-119104452D01*
X140492493Y-119090660D01*
X140492362Y-119088664D01*
X140494025Y-119087553D01*
X140495267Y-119087886D01*
G37*
G36*
X137895267Y-117487886D02*
G01*
X137906262Y-117495233D01*
X137925199Y-117499000D01*
X138574801Y-117499000D01*
X138593738Y-117495233D01*
X138604733Y-117487886D01*
X138606729Y-117487755D01*
X138607840Y-117489418D01*
X138607507Y-117490660D01*
X138598291Y-117504452D01*
X138600031Y-117505615D01*
X138600916Y-117507409D01*
X138600455Y-117508560D01*
X138585922Y-117525952D01*
X138577296Y-117594670D01*
X138600082Y-117642288D01*
X138599928Y-117644282D01*
X138599389Y-117644814D01*
X138598291Y-117645548D01*
X138607507Y-117659340D01*
X138607638Y-117661336D01*
X138605975Y-117662447D01*
X138604733Y-117662114D01*
X138593738Y-117654767D01*
X138574801Y-117651000D01*
X137925199Y-117651000D01*
X137906262Y-117654767D01*
X137895267Y-117662114D01*
X137893271Y-117662245D01*
X137892160Y-117660582D01*
X137892493Y-117659340D01*
X137901709Y-117645548D01*
X137899969Y-117644385D01*
X137899084Y-117642591D01*
X137899545Y-117641440D01*
X137914078Y-117624048D01*
X137922704Y-117555330D01*
X137899918Y-117507712D01*
X137900072Y-117505718D01*
X137900611Y-117505186D01*
X137901709Y-117504452D01*
X137892493Y-117490660D01*
X137892362Y-117488664D01*
X137894025Y-117487553D01*
X137895267Y-117487886D01*
G37*
G36*
X135995267Y-117487886D02*
G01*
X136006262Y-117495233D01*
X136025199Y-117499000D01*
X136674801Y-117499000D01*
X136693738Y-117495233D01*
X136704733Y-117487886D01*
X136706729Y-117487755D01*
X136707840Y-117489418D01*
X136707507Y-117490660D01*
X136698291Y-117504452D01*
X136700031Y-117505615D01*
X136700916Y-117507409D01*
X136700455Y-117508560D01*
X136685922Y-117525952D01*
X136677296Y-117594670D01*
X136700082Y-117642288D01*
X136699928Y-117644282D01*
X136699389Y-117644814D01*
X136698291Y-117645548D01*
X136707507Y-117659340D01*
X136707638Y-117661336D01*
X136705975Y-117662447D01*
X136704733Y-117662114D01*
X136693738Y-117654767D01*
X136674801Y-117651000D01*
X136025199Y-117651000D01*
X136006262Y-117654767D01*
X135995267Y-117662114D01*
X135993271Y-117662245D01*
X135992160Y-117660582D01*
X135992493Y-117659340D01*
X136001709Y-117645548D01*
X135999969Y-117644385D01*
X135999084Y-117642591D01*
X135999545Y-117641440D01*
X136014078Y-117624048D01*
X136022704Y-117555330D01*
X135999918Y-117507712D01*
X136000072Y-117505718D01*
X136000611Y-117505186D01*
X136001709Y-117504452D01*
X135992493Y-117490660D01*
X135992362Y-117488664D01*
X135994025Y-117487553D01*
X135995267Y-117487886D01*
G37*
G36*
X137895267Y-116837886D02*
G01*
X137906262Y-116845233D01*
X137925199Y-116849000D01*
X138574801Y-116849000D01*
X138593738Y-116845233D01*
X138604733Y-116837886D01*
X138606729Y-116837755D01*
X138607840Y-116839418D01*
X138607507Y-116840660D01*
X138598291Y-116854452D01*
X138600031Y-116855615D01*
X138600916Y-116857409D01*
X138600455Y-116858560D01*
X138585922Y-116875952D01*
X138577296Y-116944670D01*
X138600082Y-116992288D01*
X138599928Y-116994282D01*
X138599389Y-116994814D01*
X138598291Y-116995548D01*
X138607507Y-117009340D01*
X138607638Y-117011336D01*
X138605975Y-117012447D01*
X138604733Y-117012114D01*
X138593738Y-117004767D01*
X138574801Y-117001000D01*
X137925199Y-117001000D01*
X137906262Y-117004767D01*
X137895267Y-117012114D01*
X137893271Y-117012245D01*
X137892160Y-117010582D01*
X137892493Y-117009340D01*
X137901709Y-116995548D01*
X137899969Y-116994385D01*
X137899084Y-116992591D01*
X137899545Y-116991440D01*
X137914078Y-116974048D01*
X137922704Y-116905330D01*
X137899918Y-116857712D01*
X137900072Y-116855718D01*
X137900611Y-116855186D01*
X137901709Y-116854452D01*
X137892493Y-116840660D01*
X137892362Y-116838664D01*
X137894025Y-116837553D01*
X137895267Y-116837886D01*
G37*
G36*
X135995267Y-116837886D02*
G01*
X136006262Y-116845233D01*
X136025199Y-116849000D01*
X136674801Y-116849000D01*
X136693738Y-116845233D01*
X136704733Y-116837886D01*
X136706729Y-116837755D01*
X136707840Y-116839418D01*
X136707507Y-116840660D01*
X136698291Y-116854452D01*
X136700031Y-116855615D01*
X136700916Y-116857409D01*
X136700455Y-116858560D01*
X136685922Y-116875952D01*
X136677296Y-116944670D01*
X136700082Y-116992288D01*
X136699928Y-116994282D01*
X136699389Y-116994814D01*
X136698291Y-116995548D01*
X136707507Y-117009340D01*
X136707638Y-117011336D01*
X136705975Y-117012447D01*
X136704733Y-117012114D01*
X136693738Y-117004767D01*
X136674801Y-117001000D01*
X136025199Y-117001000D01*
X136006262Y-117004767D01*
X135995267Y-117012114D01*
X135993271Y-117012245D01*
X135992160Y-117010582D01*
X135992493Y-117009340D01*
X136001709Y-116995548D01*
X135999969Y-116994385D01*
X135999084Y-116992591D01*
X135999545Y-116991440D01*
X136014078Y-116974048D01*
X136022704Y-116905330D01*
X135999918Y-116857712D01*
X136000072Y-116855718D01*
X136000611Y-116855186D01*
X136001709Y-116854452D01*
X135992493Y-116840660D01*
X135992362Y-116838664D01*
X135994025Y-116837553D01*
X135995267Y-116837886D01*
G37*
G36*
X119150577Y-85602553D02*
G01*
X119151000Y-85603783D01*
X119151000Y-86614064D01*
X119150000Y-86615796D01*
X119148000Y-86615796D01*
X119147030Y-86614411D01*
X119146516Y-86611496D01*
X119115628Y-86549174D01*
X119056206Y-86513598D01*
X118986982Y-86515795D01*
X118929947Y-86555061D01*
X118902854Y-86621968D01*
X118901277Y-86623198D01*
X118899423Y-86622447D01*
X118899000Y-86621217D01*
X118899000Y-85610936D01*
X118900000Y-85609204D01*
X118902000Y-85609204D01*
X118902970Y-85610589D01*
X118903484Y-85613504D01*
X118934372Y-85675826D01*
X118993794Y-85711402D01*
X119063018Y-85709205D01*
X119120053Y-85669939D01*
X119147146Y-85603032D01*
X119148723Y-85601802D01*
X119150577Y-85602553D01*
G37*
G36*
X120100577Y-85602553D02*
G01*
X120101000Y-85603783D01*
X120101000Y-86614064D01*
X120100000Y-86615796D01*
X120098000Y-86615796D01*
X120097030Y-86614411D01*
X120096516Y-86611496D01*
X120065628Y-86549174D01*
X120006206Y-86513598D01*
X119936982Y-86515795D01*
X119879947Y-86555061D01*
X119852854Y-86621968D01*
X119851277Y-86623198D01*
X119849423Y-86622447D01*
X119849000Y-86621217D01*
X119849000Y-85610936D01*
X119850000Y-85609204D01*
X119852000Y-85609204D01*
X119852970Y-85610589D01*
X119853484Y-85613504D01*
X119884372Y-85675826D01*
X119943794Y-85711402D01*
X120013018Y-85709205D01*
X120070053Y-85669939D01*
X120097146Y-85603032D01*
X120098723Y-85601802D01*
X120100577Y-85602553D01*
G37*
G36*
X129664633Y-76783517D02*
G01*
X129665197Y-76785436D01*
X129664916Y-76786075D01*
X129654767Y-76801263D01*
X129651000Y-76820199D01*
X129651000Y-78269801D01*
X129654767Y-78288738D01*
X129664814Y-78303773D01*
X129664945Y-78305768D01*
X129663282Y-78306880D01*
X129662553Y-78306793D01*
X129602212Y-78287898D01*
X129537310Y-78306955D01*
X129535367Y-78306483D01*
X129534803Y-78304564D01*
X129535084Y-78303925D01*
X129545233Y-78288737D01*
X129549000Y-78269801D01*
X129549000Y-76820199D01*
X129545233Y-76801262D01*
X129535186Y-76786227D01*
X129535055Y-76784232D01*
X129536718Y-76783120D01*
X129537447Y-76783207D01*
X129597788Y-76802102D01*
X129662690Y-76783045D01*
X129664633Y-76783517D01*
G37*
G36*
X128664633Y-76783517D02*
G01*
X128665197Y-76785436D01*
X128664916Y-76786075D01*
X128654767Y-76801263D01*
X128651000Y-76820199D01*
X128651000Y-78269801D01*
X128654767Y-78288738D01*
X128664814Y-78303773D01*
X128664945Y-78305768D01*
X128663282Y-78306880D01*
X128662553Y-78306793D01*
X128602212Y-78287898D01*
X128537310Y-78306955D01*
X128535367Y-78306483D01*
X128534803Y-78304564D01*
X128535084Y-78303925D01*
X128545233Y-78288737D01*
X128549000Y-78269801D01*
X128549000Y-76820199D01*
X128545233Y-76801262D01*
X128535186Y-76786227D01*
X128535055Y-76784232D01*
X128536718Y-76783120D01*
X128537447Y-76783207D01*
X128597788Y-76802102D01*
X128662690Y-76783045D01*
X128664633Y-76783517D01*
G37*
G36*
X128164633Y-76783517D02*
G01*
X128165197Y-76785436D01*
X128164916Y-76786075D01*
X128154767Y-76801263D01*
X128151000Y-76820199D01*
X128151000Y-78269801D01*
X128154767Y-78288738D01*
X128164814Y-78303773D01*
X128164945Y-78305768D01*
X128163282Y-78306880D01*
X128162553Y-78306793D01*
X128102212Y-78287898D01*
X128037310Y-78306955D01*
X128035367Y-78306483D01*
X128034803Y-78304564D01*
X128035084Y-78303925D01*
X128045233Y-78288737D01*
X128049000Y-78269801D01*
X128049000Y-76820199D01*
X128045233Y-76801262D01*
X128035186Y-76786227D01*
X128035055Y-76784232D01*
X128036718Y-76783120D01*
X128037447Y-76783207D01*
X128097788Y-76802102D01*
X128162690Y-76783045D01*
X128164633Y-76783517D01*
G37*
G36*
X131014633Y-76783517D02*
G01*
X131015197Y-76785436D01*
X131014916Y-76786075D01*
X131004767Y-76801263D01*
X131001000Y-76820199D01*
X131001000Y-78269801D01*
X131004767Y-78288738D01*
X131014814Y-78303773D01*
X131014945Y-78305768D01*
X131013282Y-78306880D01*
X131012553Y-78306793D01*
X130952212Y-78287898D01*
X130887310Y-78306955D01*
X130885367Y-78306483D01*
X130884803Y-78304564D01*
X130885084Y-78303925D01*
X130895233Y-78288737D01*
X130899000Y-78269801D01*
X130899000Y-76820199D01*
X130895233Y-76801262D01*
X130885186Y-76786227D01*
X130885055Y-76784232D01*
X130886718Y-76783120D01*
X130887447Y-76783207D01*
X130947788Y-76802102D01*
X131012690Y-76783045D01*
X131014633Y-76783517D01*
G37*
G36*
X127664633Y-76783517D02*
G01*
X127665197Y-76785436D01*
X127664916Y-76786075D01*
X127654767Y-76801263D01*
X127651000Y-76820199D01*
X127651000Y-78269801D01*
X127654767Y-78288738D01*
X127664814Y-78303773D01*
X127664945Y-78305768D01*
X127663282Y-78306880D01*
X127662553Y-78306793D01*
X127602212Y-78287898D01*
X127537310Y-78306955D01*
X127535367Y-78306483D01*
X127534803Y-78304564D01*
X127535084Y-78303925D01*
X127545233Y-78288737D01*
X127549000Y-78269801D01*
X127549000Y-76820199D01*
X127545233Y-76801262D01*
X127535186Y-76786227D01*
X127535055Y-76784232D01*
X127536718Y-76783120D01*
X127537447Y-76783207D01*
X127597788Y-76802102D01*
X127662690Y-76783045D01*
X127664633Y-76783517D01*
G37*
G36*
X127164633Y-76783517D02*
G01*
X127165197Y-76785436D01*
X127164916Y-76786075D01*
X127154767Y-76801263D01*
X127151000Y-76820199D01*
X127151000Y-78269801D01*
X127154767Y-78288738D01*
X127164814Y-78303773D01*
X127164945Y-78305768D01*
X127163282Y-78306880D01*
X127162553Y-78306793D01*
X127102212Y-78287898D01*
X127037310Y-78306955D01*
X127035367Y-78306483D01*
X127034803Y-78304564D01*
X127035084Y-78303925D01*
X127045233Y-78288737D01*
X127049000Y-78269801D01*
X127049000Y-76820199D01*
X127045233Y-76801262D01*
X127035186Y-76786227D01*
X127035055Y-76784232D01*
X127036718Y-76783120D01*
X127037447Y-76783207D01*
X127097788Y-76802102D01*
X127162690Y-76783045D01*
X127164633Y-76783517D01*
G37*
G36*
X129164633Y-76783517D02*
G01*
X129165197Y-76785436D01*
X129164916Y-76786075D01*
X129154767Y-76801263D01*
X129151000Y-76820199D01*
X129151000Y-78269801D01*
X129154767Y-78288738D01*
X129164814Y-78303773D01*
X129164945Y-78305768D01*
X129163282Y-78306880D01*
X129162553Y-78306793D01*
X129102212Y-78287898D01*
X129037310Y-78306955D01*
X129035367Y-78306483D01*
X129034803Y-78304564D01*
X129035084Y-78303925D01*
X129045233Y-78288737D01*
X129049000Y-78269801D01*
X129049000Y-76820199D01*
X129045233Y-76801262D01*
X129035186Y-76786227D01*
X129035055Y-76784232D01*
X129036718Y-76783120D01*
X129037447Y-76783207D01*
X129097788Y-76802102D01*
X129162690Y-76783045D01*
X129164633Y-76783517D01*
G37*
G36*
X126664633Y-76783517D02*
G01*
X126665197Y-76785436D01*
X126664916Y-76786075D01*
X126654767Y-76801263D01*
X126651000Y-76820199D01*
X126651000Y-78269801D01*
X126654767Y-78288738D01*
X126664814Y-78303773D01*
X126664945Y-78305768D01*
X126663282Y-78306880D01*
X126662553Y-78306793D01*
X126602212Y-78287898D01*
X126537310Y-78306955D01*
X126535367Y-78306483D01*
X126534803Y-78304564D01*
X126535084Y-78303925D01*
X126545233Y-78288737D01*
X126549000Y-78269801D01*
X126549000Y-76820199D01*
X126545233Y-76801262D01*
X126535186Y-76786227D01*
X126535055Y-76784232D01*
X126536718Y-76783120D01*
X126537447Y-76783207D01*
X126597788Y-76802102D01*
X126662690Y-76783045D01*
X126664633Y-76783517D01*
G37*
G36*
X125314633Y-76783517D02*
G01*
X125315197Y-76785436D01*
X125314916Y-76786075D01*
X125304767Y-76801263D01*
X125301000Y-76820199D01*
X125301000Y-78269801D01*
X125304767Y-78288738D01*
X125314814Y-78303773D01*
X125314945Y-78305768D01*
X125313282Y-78306880D01*
X125312553Y-78306793D01*
X125252212Y-78287898D01*
X125187310Y-78306955D01*
X125185367Y-78306483D01*
X125184803Y-78304564D01*
X125185084Y-78303925D01*
X125195233Y-78288737D01*
X125199000Y-78269801D01*
X125199000Y-76820199D01*
X125195233Y-76801262D01*
X125185186Y-76786227D01*
X125185055Y-76784232D01*
X125186718Y-76783120D01*
X125187447Y-76783207D01*
X125247788Y-76802102D01*
X125312690Y-76783045D01*
X125314633Y-76783517D01*
G37*
G36*
X130040660Y-76787493D02*
G01*
X130054452Y-76796709D01*
X130055615Y-76794969D01*
X130057409Y-76794084D01*
X130058560Y-76794545D01*
X130075952Y-76809078D01*
X130144670Y-76817704D01*
X130192288Y-76794918D01*
X130194282Y-76795072D01*
X130194814Y-76795611D01*
X130195548Y-76796709D01*
X130209340Y-76787493D01*
X130211336Y-76787362D01*
X130212447Y-76789025D01*
X130212114Y-76790267D01*
X130204767Y-76801262D01*
X130201000Y-76820199D01*
X130201000Y-78269801D01*
X130204767Y-78288738D01*
X130212114Y-78299733D01*
X130212245Y-78301729D01*
X130210582Y-78302840D01*
X130209340Y-78302507D01*
X130195548Y-78293291D01*
X130194385Y-78295031D01*
X130192591Y-78295916D01*
X130191440Y-78295455D01*
X130174048Y-78280922D01*
X130105330Y-78272296D01*
X130057712Y-78295082D01*
X130055718Y-78294928D01*
X130055186Y-78294389D01*
X130054452Y-78293291D01*
X130040660Y-78302507D01*
X130038664Y-78302638D01*
X130037553Y-78300975D01*
X130037886Y-78299733D01*
X130045233Y-78288738D01*
X130049000Y-78269801D01*
X130049000Y-76820199D01*
X130045233Y-76801262D01*
X130037886Y-76790267D01*
X130037755Y-76788271D01*
X130039418Y-76787160D01*
X130040660Y-76787493D01*
G37*
G36*
X125990660Y-76787493D02*
G01*
X126004452Y-76796709D01*
X126005615Y-76794969D01*
X126007409Y-76794084D01*
X126008560Y-76794545D01*
X126025952Y-76809078D01*
X126094670Y-76817704D01*
X126142288Y-76794918D01*
X126144282Y-76795072D01*
X126144814Y-76795611D01*
X126145548Y-76796709D01*
X126159340Y-76787493D01*
X126161336Y-76787362D01*
X126162447Y-76789025D01*
X126162114Y-76790267D01*
X126154767Y-76801262D01*
X126151000Y-76820199D01*
X126151000Y-78269801D01*
X126154767Y-78288738D01*
X126162114Y-78299733D01*
X126162245Y-78301729D01*
X126160582Y-78302840D01*
X126159340Y-78302507D01*
X126145548Y-78293291D01*
X126144385Y-78295031D01*
X126142591Y-78295916D01*
X126141440Y-78295455D01*
X126124048Y-78280922D01*
X126055330Y-78272296D01*
X126007712Y-78295082D01*
X126005718Y-78294928D01*
X126005186Y-78294389D01*
X126004452Y-78293291D01*
X125990660Y-78302507D01*
X125988664Y-78302638D01*
X125987553Y-78300975D01*
X125987886Y-78299733D01*
X125995233Y-78288738D01*
X125999000Y-78269801D01*
X125999000Y-76820199D01*
X125995233Y-76801262D01*
X125987886Y-76790267D01*
X125987755Y-76788271D01*
X125989418Y-76787160D01*
X125990660Y-76787493D01*
G37*
G36*
X124332919Y-76674641D02*
G01*
X124352596Y-76741656D01*
X124404939Y-76787011D01*
X124473558Y-76796877D01*
X124514597Y-76781151D01*
X124516573Y-76781465D01*
X124517288Y-76783333D01*
X124516424Y-76784682D01*
X124515380Y-76785380D01*
X124504767Y-76801262D01*
X124501000Y-76820199D01*
X124501000Y-77501947D01*
X124500000Y-77503679D01*
X124498000Y-77503679D01*
X124497081Y-77502510D01*
X124477404Y-77435495D01*
X124425061Y-77390140D01*
X124356508Y-77380283D01*
X124293352Y-77409126D01*
X124273297Y-77431324D01*
X124235463Y-77485156D01*
X124233649Y-77485998D01*
X124232013Y-77484848D01*
X124232127Y-77482952D01*
X124281519Y-77403291D01*
X124323109Y-77260136D01*
X124329000Y-77179922D01*
X124329000Y-76675204D01*
X124330000Y-76673472D01*
X124332000Y-76673472D01*
X124332919Y-76674641D01*
G37*
G36*
X131870358Y-76673736D02*
G01*
X131871000Y-76675204D01*
X131871000Y-77179868D01*
X131891240Y-77327629D01*
X131942314Y-77445653D01*
X131942084Y-77447639D01*
X131940248Y-77448434D01*
X131938830Y-77447580D01*
X131927528Y-77431136D01*
X131873578Y-77387236D01*
X131804750Y-77379505D01*
X131742671Y-77410211D01*
X131706962Y-77469748D01*
X131702984Y-77500822D01*
X131701772Y-77502413D01*
X131699788Y-77502159D01*
X131699000Y-77500568D01*
X131699000Y-76820199D01*
X131695233Y-76801262D01*
X131684620Y-76785380D01*
X131681577Y-76783346D01*
X131680692Y-76781552D01*
X131681804Y-76779889D01*
X131683286Y-76779774D01*
X131741809Y-76798099D01*
X131808599Y-76779775D01*
X131854925Y-76728201D01*
X131867050Y-76674761D01*
X131868408Y-76673294D01*
X131870358Y-76673736D01*
G37*
M02*
