G04 #@! TF.GenerationSoftware,KiCad,Pcbnew,(5.99.0-9218-g05b559c9dc)*
G04 #@! TF.CreationDate,2021-05-17T00:15:44+02:00*
G04 #@! TF.ProjectId,Self_Watering_Plant,53656c66-5f57-4617-9465-72696e675f50,rev?*
G04 #@! TF.SameCoordinates,Original*
G04 #@! TF.FileFunction,AssemblyDrawing,Bot*
%FSLAX46Y46*%
G04 Gerber Fmt 4.6, Leading zero omitted, Abs format (unit mm)*
G04 Created by KiCad (PCBNEW (5.99.0-9218-g05b559c9dc)) date 2021-05-17 00:15:44*
%MOMM*%
%LPD*%
G01*
G04 APERTURE LIST*
%ADD10C,0.150000*%
G04 APERTURE END LIST*
D10*
X113157142Y-126511904D02*
X113204761Y-126464285D01*
X113252380Y-126321428D01*
X113252380Y-126226190D01*
X113204761Y-126083333D01*
X113109523Y-125988095D01*
X113014285Y-125940476D01*
X112823809Y-125892857D01*
X112680952Y-125892857D01*
X112490476Y-125940476D01*
X112395238Y-125988095D01*
X112300000Y-126083333D01*
X112252380Y-126226190D01*
X112252380Y-126321428D01*
X112300000Y-126464285D01*
X112347619Y-126511904D01*
X113252380Y-127083333D02*
X113204761Y-126988095D01*
X113157142Y-126940476D01*
X113061904Y-126892857D01*
X112776190Y-126892857D01*
X112680952Y-126940476D01*
X112633333Y-126988095D01*
X112585714Y-127083333D01*
X112585714Y-127226190D01*
X112633333Y-127321428D01*
X112680952Y-127369047D01*
X112776190Y-127416666D01*
X113061904Y-127416666D01*
X113157142Y-127369047D01*
X113204761Y-127321428D01*
X113252380Y-127226190D01*
X113252380Y-127083333D01*
X112585714Y-127845238D02*
X113252380Y-127845238D01*
X112680952Y-127845238D02*
X112633333Y-127892857D01*
X112585714Y-127988095D01*
X112585714Y-128130952D01*
X112633333Y-128226190D01*
X112728571Y-128273809D01*
X113252380Y-128273809D01*
X112585714Y-128750000D02*
X113252380Y-128750000D01*
X112680952Y-128750000D02*
X112633333Y-128797619D01*
X112585714Y-128892857D01*
X112585714Y-129035714D01*
X112633333Y-129130952D01*
X112728571Y-129178571D01*
X113252380Y-129178571D01*
X113347619Y-129416666D02*
X113347619Y-130178571D01*
X112252380Y-130607142D02*
X112252380Y-130702380D01*
X112300000Y-130797619D01*
X112347619Y-130845238D01*
X112442857Y-130892857D01*
X112633333Y-130940476D01*
X112871428Y-130940476D01*
X113061904Y-130892857D01*
X113157142Y-130845238D01*
X113204761Y-130797619D01*
X113252380Y-130702380D01*
X113252380Y-130607142D01*
X113204761Y-130511904D01*
X113157142Y-130464285D01*
X113061904Y-130416666D01*
X112871428Y-130369047D01*
X112633333Y-130369047D01*
X112442857Y-130416666D01*
X112347619Y-130464285D01*
X112300000Y-130511904D01*
X112252380Y-130607142D01*
X113252380Y-131892857D02*
X113252380Y-131321428D01*
X113252380Y-131607142D02*
X112252380Y-131607142D01*
X112395238Y-131511904D01*
X112490476Y-131416666D01*
X112538095Y-131321428D01*
X113252380Y-132226190D02*
X112585714Y-132750000D01*
X112585714Y-132226190D02*
X113252380Y-132750000D01*
X112252380Y-133321428D02*
X112252380Y-133416666D01*
X112300000Y-133511904D01*
X112347619Y-133559523D01*
X112442857Y-133607142D01*
X112633333Y-133654761D01*
X112871428Y-133654761D01*
X113061904Y-133607142D01*
X113157142Y-133559523D01*
X113204761Y-133511904D01*
X113252380Y-133416666D01*
X113252380Y-133321428D01*
X113204761Y-133226190D01*
X113157142Y-133178571D01*
X113061904Y-133130952D01*
X112871428Y-133083333D01*
X112633333Y-133083333D01*
X112442857Y-133130952D01*
X112347619Y-133178571D01*
X112300000Y-133226190D01*
X112252380Y-133321428D01*
X112347619Y-134035714D02*
X112300000Y-134083333D01*
X112252380Y-134178571D01*
X112252380Y-134416666D01*
X112300000Y-134511904D01*
X112347619Y-134559523D01*
X112442857Y-134607142D01*
X112538095Y-134607142D01*
X112680952Y-134559523D01*
X113252380Y-133988095D01*
X113252380Y-134607142D01*
M02*
