G04 #@! TF.GenerationSoftware,KiCad,Pcbnew,(5.99.0-9218-g05b559c9dc)*
G04 #@! TF.CreationDate,2021-05-17T00:15:44+02:00*
G04 #@! TF.ProjectId,Self_Watering_Plant,53656c66-5f57-4617-9465-72696e675f50,rev?*
G04 #@! TF.SameCoordinates,Original*
G04 #@! TF.FileFunction,Legend,Top*
G04 #@! TF.FilePolarity,Positive*
%FSLAX46Y46*%
G04 Gerber Fmt 4.6, Leading zero omitted, Abs format (unit mm)*
G04 Created by KiCad (PCBNEW (5.99.0-9218-g05b559c9dc)) date 2021-05-17 00:15:44*
%MOMM*%
%LPD*%
G01*
G04 APERTURE LIST*
%ADD10C,0.200000*%
%ADD11C,0.150000*%
%ADD12C,0.120000*%
%ADD13C,0.010000*%
G04 APERTURE END LIST*
D10*
X146580952Y-136802380D02*
X146771428Y-136802380D01*
X146866666Y-136850000D01*
X146961904Y-136945238D01*
X147009523Y-137135714D01*
X147009523Y-137469047D01*
X146961904Y-137659523D01*
X146866666Y-137754761D01*
X146771428Y-137802380D01*
X146580952Y-137802380D01*
X146485714Y-137754761D01*
X146390476Y-137659523D01*
X146342857Y-137469047D01*
X146342857Y-137135714D01*
X146390476Y-136945238D01*
X146485714Y-136850000D01*
X146580952Y-136802380D01*
X147438095Y-137802380D02*
X147438095Y-136802380D01*
X148009523Y-137802380D01*
X148009523Y-136802380D01*
D11*
X158352380Y-106152380D02*
X158590476Y-107152380D01*
X158780952Y-106438095D01*
X158971428Y-107152380D01*
X159209523Y-106152380D01*
X159590476Y-107152380D02*
X159590476Y-106152380D01*
X159971428Y-106152380D01*
X160066666Y-106200000D01*
X160114285Y-106247619D01*
X160161904Y-106342857D01*
X160161904Y-106485714D01*
X160114285Y-106580952D01*
X160066666Y-106628571D01*
X159971428Y-106676190D01*
X159590476Y-106676190D01*
X160923809Y-106628571D02*
X161066666Y-106676190D01*
X161114285Y-106723809D01*
X161161904Y-106819047D01*
X161161904Y-106961904D01*
X161114285Y-107057142D01*
X161066666Y-107104761D01*
X160971428Y-107152380D01*
X160590476Y-107152380D01*
X160590476Y-106152380D01*
X160923809Y-106152380D01*
X161019047Y-106200000D01*
X161066666Y-106247619D01*
X161114285Y-106342857D01*
X161114285Y-106438095D01*
X161066666Y-106533333D01*
X161019047Y-106580952D01*
X160923809Y-106628571D01*
X160590476Y-106628571D01*
X161590476Y-106771428D02*
X162352380Y-106771428D01*
X161971428Y-107152380D02*
X161971428Y-106390476D01*
D10*
X169052380Y-135802380D02*
X168576190Y-136135714D01*
X169052380Y-136373809D02*
X168052380Y-136373809D01*
X168052380Y-135992857D01*
X168100000Y-135897619D01*
X168147619Y-135850000D01*
X168242857Y-135802380D01*
X168385714Y-135802380D01*
X168480952Y-135850000D01*
X168528571Y-135897619D01*
X168576190Y-135992857D01*
X168576190Y-136373809D01*
X168528571Y-135373809D02*
X168528571Y-135040476D01*
X169052380Y-134897619D02*
X169052380Y-135373809D01*
X168052380Y-135373809D01*
X168052380Y-134897619D01*
X169004761Y-134516666D02*
X169052380Y-134373809D01*
X169052380Y-134135714D01*
X169004761Y-134040476D01*
X168957142Y-133992857D01*
X168861904Y-133945238D01*
X168766666Y-133945238D01*
X168671428Y-133992857D01*
X168623809Y-134040476D01*
X168576190Y-134135714D01*
X168528571Y-134326190D01*
X168480952Y-134421428D01*
X168433333Y-134469047D01*
X168338095Y-134516666D01*
X168242857Y-134516666D01*
X168147619Y-134469047D01*
X168100000Y-134421428D01*
X168052380Y-134326190D01*
X168052380Y-134088095D01*
X168100000Y-133945238D01*
X168528571Y-133516666D02*
X168528571Y-133183333D01*
X169052380Y-133040476D02*
X169052380Y-133516666D01*
X168052380Y-133516666D01*
X168052380Y-133040476D01*
X168052380Y-132754761D02*
X168052380Y-132183333D01*
X169052380Y-132469047D02*
X168052380Y-132469047D01*
X126702380Y-108976190D02*
X126702380Y-108357142D01*
X127083333Y-108690476D01*
X127083333Y-108547619D01*
X127130952Y-108452380D01*
X127178571Y-108404761D01*
X127273809Y-108357142D01*
X127511904Y-108357142D01*
X127607142Y-108404761D01*
X127654761Y-108452380D01*
X127702380Y-108547619D01*
X127702380Y-108833333D01*
X127654761Y-108928571D01*
X127607142Y-108976190D01*
X127607142Y-107928571D02*
X127654761Y-107880952D01*
X127702380Y-107928571D01*
X127654761Y-107976190D01*
X127607142Y-107928571D01*
X127702380Y-107928571D01*
X126702380Y-107547619D02*
X126702380Y-106928571D01*
X127083333Y-107261904D01*
X127083333Y-107119047D01*
X127130952Y-107023809D01*
X127178571Y-106976190D01*
X127273809Y-106928571D01*
X127511904Y-106928571D01*
X127607142Y-106976190D01*
X127654761Y-107023809D01*
X127702380Y-107119047D01*
X127702380Y-107404761D01*
X127654761Y-107500000D01*
X127607142Y-107547619D01*
X126702380Y-106642857D02*
X127702380Y-106309523D01*
X126702380Y-105976190D01*
D11*
X133952380Y-132047619D02*
X132952380Y-132047619D01*
X132952380Y-131809523D01*
X133000000Y-131666666D01*
X133095238Y-131571428D01*
X133190476Y-131523809D01*
X133380952Y-131476190D01*
X133523809Y-131476190D01*
X133714285Y-131523809D01*
X133809523Y-131571428D01*
X133904761Y-131666666D01*
X133952380Y-131809523D01*
X133952380Y-132047619D01*
X133952380Y-130476190D02*
X133476190Y-130809523D01*
X133952380Y-131047619D02*
X132952380Y-131047619D01*
X132952380Y-130666666D01*
X133000000Y-130571428D01*
X133047619Y-130523809D01*
X133142857Y-130476190D01*
X133285714Y-130476190D01*
X133380952Y-130523809D01*
X133428571Y-130571428D01*
X133476190Y-130666666D01*
X133476190Y-131047619D01*
X133476190Y-129857142D02*
X133952380Y-129857142D01*
X132952380Y-130190476D02*
X133476190Y-129857142D01*
X132952380Y-129523809D01*
X134047619Y-129428571D02*
X134047619Y-128666666D01*
X132952380Y-128238095D02*
X132952380Y-128142857D01*
X133000000Y-128047619D01*
X133047619Y-128000000D01*
X133142857Y-127952380D01*
X133333333Y-127904761D01*
X133571428Y-127904761D01*
X133761904Y-127952380D01*
X133857142Y-128000000D01*
X133904761Y-128047619D01*
X133952380Y-128142857D01*
X133952380Y-128238095D01*
X133904761Y-128333333D01*
X133857142Y-128380952D01*
X133761904Y-128428571D01*
X133571428Y-128476190D01*
X133333333Y-128476190D01*
X133142857Y-128428571D01*
X133047619Y-128380952D01*
X133000000Y-128333333D01*
X132952380Y-128238095D01*
X158273809Y-96352380D02*
X158511904Y-97352380D01*
X158702380Y-96638095D01*
X158892857Y-97352380D01*
X159130952Y-96352380D01*
X159511904Y-97352380D02*
X159511904Y-96352380D01*
X159892857Y-96352380D01*
X159988095Y-96400000D01*
X160035714Y-96447619D01*
X160083333Y-96542857D01*
X160083333Y-96685714D01*
X160035714Y-96780952D01*
X159988095Y-96828571D01*
X159892857Y-96876190D01*
X159511904Y-96876190D01*
X160464285Y-97066666D02*
X160940476Y-97066666D01*
X160369047Y-97352380D02*
X160702380Y-96352380D01*
X161035714Y-97352380D01*
X161369047Y-96971428D02*
X162130952Y-96971428D01*
X161750000Y-97352380D02*
X161750000Y-96590476D01*
D10*
X127416666Y-133083333D02*
X127416666Y-132607142D01*
X127702380Y-133178571D02*
X126702380Y-132845238D01*
X127702380Y-132511904D01*
X126702380Y-131988095D02*
X126702380Y-131892857D01*
X126750000Y-131797619D01*
X126797619Y-131750000D01*
X126892857Y-131702380D01*
X127083333Y-131654761D01*
X127321428Y-131654761D01*
X127511904Y-131702380D01*
X127607142Y-131750000D01*
X127654761Y-131797619D01*
X127702380Y-131892857D01*
X127702380Y-131988095D01*
X127654761Y-132083333D01*
X127607142Y-132130952D01*
X127511904Y-132178571D01*
X127321428Y-132226190D01*
X127083333Y-132226190D01*
X126892857Y-132178571D01*
X126797619Y-132130952D01*
X126750000Y-132083333D01*
X126702380Y-131988095D01*
X127321428Y-131226190D02*
X127321428Y-130464285D01*
X117514285Y-135902380D02*
X117514285Y-134902380D01*
X117895238Y-134902380D01*
X117990476Y-134950000D01*
X118038095Y-134997619D01*
X118085714Y-135092857D01*
X118085714Y-135235714D01*
X118038095Y-135330952D01*
X117990476Y-135378571D01*
X117895238Y-135426190D01*
X117514285Y-135426190D01*
X118657142Y-135902380D02*
X118561904Y-135854761D01*
X118514285Y-135759523D01*
X118514285Y-134902380D01*
X119466666Y-135902380D02*
X119466666Y-135378571D01*
X119419047Y-135283333D01*
X119323809Y-135235714D01*
X119133333Y-135235714D01*
X119038095Y-135283333D01*
X119466666Y-135854761D02*
X119371428Y-135902380D01*
X119133333Y-135902380D01*
X119038095Y-135854761D01*
X118990476Y-135759523D01*
X118990476Y-135664285D01*
X119038095Y-135569047D01*
X119133333Y-135521428D01*
X119371428Y-135521428D01*
X119466666Y-135473809D01*
X119942857Y-135235714D02*
X119942857Y-135902380D01*
X119942857Y-135330952D02*
X119990476Y-135283333D01*
X120085714Y-135235714D01*
X120228571Y-135235714D01*
X120323809Y-135283333D01*
X120371428Y-135378571D01*
X120371428Y-135902380D01*
X120704761Y-135235714D02*
X121085714Y-135235714D01*
X120847619Y-134902380D02*
X120847619Y-135759523D01*
X120895238Y-135854761D01*
X120990476Y-135902380D01*
X121085714Y-135902380D01*
X122085714Y-134902380D02*
X122323809Y-135902380D01*
X122514285Y-135188095D01*
X122704761Y-135902380D01*
X122942857Y-134902380D01*
X123752380Y-135902380D02*
X123752380Y-135378571D01*
X123704761Y-135283333D01*
X123609523Y-135235714D01*
X123419047Y-135235714D01*
X123323809Y-135283333D01*
X123752380Y-135854761D02*
X123657142Y-135902380D01*
X123419047Y-135902380D01*
X123323809Y-135854761D01*
X123276190Y-135759523D01*
X123276190Y-135664285D01*
X123323809Y-135569047D01*
X123419047Y-135521428D01*
X123657142Y-135521428D01*
X123752380Y-135473809D01*
X124085714Y-135235714D02*
X124466666Y-135235714D01*
X124228571Y-134902380D02*
X124228571Y-135759523D01*
X124276190Y-135854761D01*
X124371428Y-135902380D01*
X124466666Y-135902380D01*
X125180952Y-135854761D02*
X125085714Y-135902380D01*
X124895238Y-135902380D01*
X124800000Y-135854761D01*
X124752380Y-135759523D01*
X124752380Y-135378571D01*
X124800000Y-135283333D01*
X124895238Y-135235714D01*
X125085714Y-135235714D01*
X125180952Y-135283333D01*
X125228571Y-135378571D01*
X125228571Y-135473809D01*
X124752380Y-135569047D01*
X125657142Y-135902380D02*
X125657142Y-135235714D01*
X125657142Y-135426190D02*
X125704761Y-135330952D01*
X125752380Y-135283333D01*
X125847619Y-135235714D01*
X125942857Y-135235714D01*
X126276190Y-135902380D02*
X126276190Y-135235714D01*
X126276190Y-134902380D02*
X126228571Y-134950000D01*
X126276190Y-134997619D01*
X126323809Y-134950000D01*
X126276190Y-134902380D01*
X126276190Y-134997619D01*
X126752380Y-135235714D02*
X126752380Y-135902380D01*
X126752380Y-135330952D02*
X126800000Y-135283333D01*
X126895238Y-135235714D01*
X127038095Y-135235714D01*
X127133333Y-135283333D01*
X127180952Y-135378571D01*
X127180952Y-135902380D01*
X128085714Y-135235714D02*
X128085714Y-136045238D01*
X128038095Y-136140476D01*
X127990476Y-136188095D01*
X127895238Y-136235714D01*
X127752380Y-136235714D01*
X127657142Y-136188095D01*
X128085714Y-135854761D02*
X127990476Y-135902380D01*
X127800000Y-135902380D01*
X127704761Y-135854761D01*
X127657142Y-135807142D01*
X127609523Y-135711904D01*
X127609523Y-135426190D01*
X127657142Y-135330952D01*
X127704761Y-135283333D01*
X127800000Y-135235714D01*
X127990476Y-135235714D01*
X128085714Y-135283333D01*
X129180952Y-134902380D02*
X129514285Y-135902380D01*
X129847619Y-134902380D01*
X130371428Y-134902380D02*
X130466666Y-134902380D01*
X130561904Y-134950000D01*
X130609523Y-134997619D01*
X130657142Y-135092857D01*
X130704761Y-135283333D01*
X130704761Y-135521428D01*
X130657142Y-135711904D01*
X130609523Y-135807142D01*
X130561904Y-135854761D01*
X130466666Y-135902380D01*
X130371428Y-135902380D01*
X130276190Y-135854761D01*
X130228571Y-135807142D01*
X130180952Y-135711904D01*
X130133333Y-135521428D01*
X130133333Y-135283333D01*
X130180952Y-135092857D01*
X130228571Y-134997619D01*
X130276190Y-134950000D01*
X130371428Y-134902380D01*
X131133333Y-135807142D02*
X131180952Y-135854761D01*
X131133333Y-135902380D01*
X131085714Y-135854761D01*
X131133333Y-135807142D01*
X131133333Y-135902380D01*
X131800000Y-134902380D02*
X131895238Y-134902380D01*
X131990476Y-134950000D01*
X132038095Y-134997619D01*
X132085714Y-135092857D01*
X132133333Y-135283333D01*
X132133333Y-135521428D01*
X132085714Y-135711904D01*
X132038095Y-135807142D01*
X131990476Y-135854761D01*
X131895238Y-135902380D01*
X131800000Y-135902380D01*
X131704761Y-135854761D01*
X131657142Y-135807142D01*
X131609523Y-135711904D01*
X131561904Y-135521428D01*
X131561904Y-135283333D01*
X131609523Y-135092857D01*
X131657142Y-134997619D01*
X131704761Y-134950000D01*
X131800000Y-134902380D01*
X152252380Y-76321428D02*
X152252380Y-76797619D01*
X151252380Y-76797619D01*
X151728571Y-75988095D02*
X151728571Y-75654761D01*
X152252380Y-75511904D02*
X152252380Y-75988095D01*
X151252380Y-75988095D01*
X151252380Y-75511904D01*
X152252380Y-75083333D02*
X151252380Y-75083333D01*
X151252380Y-74845238D01*
X151300000Y-74702380D01*
X151395238Y-74607142D01*
X151490476Y-74559523D01*
X151680952Y-74511904D01*
X151823809Y-74511904D01*
X152014285Y-74559523D01*
X152109523Y-74607142D01*
X152204761Y-74702380D01*
X152252380Y-74845238D01*
X152252380Y-75083333D01*
X151966666Y-74130952D02*
X151966666Y-73654761D01*
X152252380Y-74226190D02*
X151252380Y-73892857D01*
X152252380Y-73559523D01*
X169252380Y-76592857D02*
X169252380Y-77069047D01*
X168252380Y-77069047D01*
X168728571Y-76259523D02*
X168728571Y-75926190D01*
X169252380Y-75783333D02*
X169252380Y-76259523D01*
X168252380Y-76259523D01*
X168252380Y-75783333D01*
X169252380Y-75354761D02*
X168252380Y-75354761D01*
X168252380Y-75116666D01*
X168300000Y-74973809D01*
X168395238Y-74878571D01*
X168490476Y-74830952D01*
X168680952Y-74783333D01*
X168823809Y-74783333D01*
X169014285Y-74830952D01*
X169109523Y-74878571D01*
X169204761Y-74973809D01*
X169252380Y-75116666D01*
X169252380Y-75354761D01*
X168728571Y-74021428D02*
X168776190Y-73878571D01*
X168823809Y-73830952D01*
X168919047Y-73783333D01*
X169061904Y-73783333D01*
X169157142Y-73830952D01*
X169204761Y-73878571D01*
X169252380Y-73973809D01*
X169252380Y-74354761D01*
X168252380Y-74354761D01*
X168252380Y-74021428D01*
X168300000Y-73926190D01*
X168347619Y-73878571D01*
X168442857Y-73830952D01*
X168538095Y-73830952D01*
X168633333Y-73878571D01*
X168680952Y-73926190D01*
X168728571Y-74021428D01*
X168728571Y-74354761D01*
D11*
X158323809Y-87302380D02*
X158561904Y-88302380D01*
X158752380Y-87588095D01*
X158942857Y-88302380D01*
X159180952Y-87302380D01*
X159561904Y-88302380D02*
X159561904Y-87302380D01*
X159942857Y-87302380D01*
X160038095Y-87350000D01*
X160085714Y-87397619D01*
X160133333Y-87492857D01*
X160133333Y-87635714D01*
X160085714Y-87730952D01*
X160038095Y-87778571D01*
X159942857Y-87826190D01*
X159561904Y-87826190D01*
X160514285Y-88016666D02*
X160990476Y-88016666D01*
X160419047Y-88302380D02*
X160752380Y-87302380D01*
X161085714Y-88302380D01*
X161419047Y-87921428D02*
X162180952Y-87921428D01*
D10*
X127416666Y-116083333D02*
X127416666Y-115607142D01*
X127702380Y-116178571D02*
X126702380Y-115845238D01*
X127702380Y-115511904D01*
X126797619Y-115226190D02*
X126750000Y-115178571D01*
X126702380Y-115083333D01*
X126702380Y-114845238D01*
X126750000Y-114750000D01*
X126797619Y-114702380D01*
X126892857Y-114654761D01*
X126988095Y-114654761D01*
X127130952Y-114702380D01*
X127702380Y-115273809D01*
X127702380Y-114654761D01*
X127321428Y-114226190D02*
X127321428Y-113464285D01*
D11*
X133416666Y-113226190D02*
X133416666Y-112750000D01*
X133702380Y-113321428D02*
X132702380Y-112988095D01*
X133702380Y-112654761D01*
X133702380Y-111845238D02*
X133702380Y-112321428D01*
X132702380Y-112321428D01*
X133178571Y-111511904D02*
X133178571Y-111178571D01*
X133702380Y-111035714D02*
X133702380Y-111511904D01*
X132702380Y-111511904D01*
X132702380Y-111035714D01*
X133702380Y-110035714D02*
X133226190Y-110369047D01*
X133702380Y-110607142D02*
X132702380Y-110607142D01*
X132702380Y-110226190D01*
X132750000Y-110130952D01*
X132797619Y-110083333D01*
X132892857Y-110035714D01*
X133035714Y-110035714D01*
X133130952Y-110083333D01*
X133178571Y-110130952D01*
X133226190Y-110226190D01*
X133226190Y-110607142D01*
X132702380Y-109750000D02*
X132702380Y-109178571D01*
X133702380Y-109464285D02*
X132702380Y-109464285D01*
D10*
X127416666Y-128833333D02*
X127416666Y-128357142D01*
X127702380Y-128928571D02*
X126702380Y-128595238D01*
X127702380Y-128261904D01*
X126702380Y-127738095D02*
X126702380Y-127642857D01*
X126750000Y-127547619D01*
X126797619Y-127500000D01*
X126892857Y-127452380D01*
X127083333Y-127404761D01*
X127321428Y-127404761D01*
X127511904Y-127452380D01*
X127607142Y-127500000D01*
X127654761Y-127547619D01*
X127702380Y-127642857D01*
X127702380Y-127738095D01*
X127654761Y-127833333D01*
X127607142Y-127880952D01*
X127511904Y-127928571D01*
X127321428Y-127976190D01*
X127083333Y-127976190D01*
X126892857Y-127928571D01*
X126797619Y-127880952D01*
X126750000Y-127833333D01*
X126702380Y-127738095D01*
X127321428Y-126976190D02*
X127321428Y-126214285D01*
X127702380Y-126595238D02*
X126940476Y-126595238D01*
X117528571Y-137502380D02*
X117528571Y-136502380D01*
X118100000Y-137502380D02*
X117671428Y-136930952D01*
X118100000Y-136502380D02*
X117528571Y-137073809D01*
X118909523Y-137454761D02*
X118814285Y-137502380D01*
X118623809Y-137502380D01*
X118528571Y-137454761D01*
X118480952Y-137359523D01*
X118480952Y-136978571D01*
X118528571Y-136883333D01*
X118623809Y-136835714D01*
X118814285Y-136835714D01*
X118909523Y-136883333D01*
X118957142Y-136978571D01*
X118957142Y-137073809D01*
X118480952Y-137169047D01*
X119290476Y-136835714D02*
X119528571Y-137502380D01*
X119766666Y-136835714D01*
X120147619Y-137502380D02*
X120147619Y-136835714D01*
X120147619Y-136502380D02*
X120100000Y-136550000D01*
X120147619Y-136597619D01*
X120195238Y-136550000D01*
X120147619Y-136502380D01*
X120147619Y-136597619D01*
X120623809Y-136835714D02*
X120623809Y-137502380D01*
X120623809Y-136930952D02*
X120671428Y-136883333D01*
X120766666Y-136835714D01*
X120909523Y-136835714D01*
X121004761Y-136883333D01*
X121052380Y-136978571D01*
X121052380Y-137502380D01*
X122290476Y-137502380D02*
X122290476Y-136502380D01*
X122671428Y-136502380D01*
X122766666Y-136550000D01*
X122814285Y-136597619D01*
X122861904Y-136692857D01*
X122861904Y-136835714D01*
X122814285Y-136930952D01*
X122766666Y-136978571D01*
X122671428Y-137026190D01*
X122290476Y-137026190D01*
X123290476Y-137502380D02*
X123290476Y-136835714D01*
X123290476Y-136502380D02*
X123242857Y-136550000D01*
X123290476Y-136597619D01*
X123338095Y-136550000D01*
X123290476Y-136502380D01*
X123290476Y-136597619D01*
X123766666Y-136835714D02*
X123766666Y-137502380D01*
X123766666Y-136930952D02*
X123814285Y-136883333D01*
X123909523Y-136835714D01*
X124052380Y-136835714D01*
X124147619Y-136883333D01*
X124195238Y-136978571D01*
X124195238Y-137502380D01*
X124528571Y-136835714D02*
X124909523Y-136835714D01*
X124671428Y-136502380D02*
X124671428Y-137359523D01*
X124719047Y-137454761D01*
X124814285Y-137502380D01*
X124909523Y-137502380D01*
X125385714Y-137502380D02*
X125290476Y-137454761D01*
X125242857Y-137407142D01*
X125195238Y-137311904D01*
X125195238Y-137026190D01*
X125242857Y-136930952D01*
X125290476Y-136883333D01*
X125385714Y-136835714D01*
X125528571Y-136835714D01*
X125623809Y-136883333D01*
X125671428Y-136930952D01*
X125719047Y-137026190D01*
X125719047Y-137311904D01*
X125671428Y-137407142D01*
X125623809Y-137454761D01*
X125528571Y-137502380D01*
X125385714Y-137502380D01*
X127416666Y-124333333D02*
X127416666Y-123857142D01*
X127702380Y-124428571D02*
X126702380Y-124095238D01*
X127702380Y-123761904D01*
X127702380Y-122904761D02*
X127702380Y-123476190D01*
X127702380Y-123190476D02*
X126702380Y-123190476D01*
X126845238Y-123285714D01*
X126940476Y-123380952D01*
X126988095Y-123476190D01*
X127321428Y-122476190D02*
X127321428Y-121714285D01*
D11*
X158302380Y-97452380D02*
X158540476Y-98452380D01*
X158730952Y-97738095D01*
X158921428Y-98452380D01*
X159159523Y-97452380D01*
X159540476Y-98452380D02*
X159540476Y-97452380D01*
X159921428Y-97452380D01*
X160016666Y-97500000D01*
X160064285Y-97547619D01*
X160111904Y-97642857D01*
X160111904Y-97785714D01*
X160064285Y-97880952D01*
X160016666Y-97928571D01*
X159921428Y-97976190D01*
X159540476Y-97976190D01*
X160873809Y-97928571D02*
X161016666Y-97976190D01*
X161064285Y-98023809D01*
X161111904Y-98119047D01*
X161111904Y-98261904D01*
X161064285Y-98357142D01*
X161016666Y-98404761D01*
X160921428Y-98452380D01*
X160540476Y-98452380D01*
X160540476Y-97452380D01*
X160873809Y-97452380D01*
X160969047Y-97500000D01*
X161016666Y-97547619D01*
X161064285Y-97642857D01*
X161064285Y-97738095D01*
X161016666Y-97833333D01*
X160969047Y-97880952D01*
X160873809Y-97928571D01*
X160540476Y-97928571D01*
X161540476Y-98071428D02*
X162302380Y-98071428D01*
D10*
X127416666Y-112583333D02*
X127416666Y-112107142D01*
X127702380Y-112678571D02*
X126702380Y-112345238D01*
X127702380Y-112011904D01*
X126797619Y-111726190D02*
X126750000Y-111678571D01*
X126702380Y-111583333D01*
X126702380Y-111345238D01*
X126750000Y-111250000D01*
X126797619Y-111202380D01*
X126892857Y-111154761D01*
X126988095Y-111154761D01*
X127130952Y-111202380D01*
X127702380Y-111773809D01*
X127702380Y-111154761D01*
X127321428Y-110726190D02*
X127321428Y-109964285D01*
X127702380Y-110345238D02*
X126940476Y-110345238D01*
X134252380Y-77245238D02*
X135061904Y-77245238D01*
X135157142Y-77197619D01*
X135204761Y-77150000D01*
X135252380Y-77054761D01*
X135252380Y-76864285D01*
X135204761Y-76769047D01*
X135157142Y-76721428D01*
X135061904Y-76673809D01*
X134252380Y-76673809D01*
X134966666Y-76245238D02*
X134966666Y-75769047D01*
X135252380Y-76340476D02*
X134252380Y-76007142D01*
X135252380Y-75673809D01*
X135252380Y-74769047D02*
X134776190Y-75102380D01*
X135252380Y-75340476D02*
X134252380Y-75340476D01*
X134252380Y-74959523D01*
X134300000Y-74864285D01*
X134347619Y-74816666D01*
X134442857Y-74769047D01*
X134585714Y-74769047D01*
X134680952Y-74816666D01*
X134728571Y-74864285D01*
X134776190Y-74959523D01*
X134776190Y-75340476D01*
X134252380Y-74483333D02*
X134252380Y-73911904D01*
X135252380Y-74197619D02*
X134252380Y-74197619D01*
D11*
X115809523Y-80202380D02*
X115809523Y-79202380D01*
X116047619Y-79202380D01*
X116190476Y-79250000D01*
X116285714Y-79345238D01*
X116333333Y-79440476D01*
X116380952Y-79630952D01*
X116380952Y-79773809D01*
X116333333Y-79964285D01*
X116285714Y-80059523D01*
X116190476Y-80154761D01*
X116047619Y-80202380D01*
X115809523Y-80202380D01*
X116761904Y-79916666D02*
X117238095Y-79916666D01*
X116666666Y-80202380D02*
X117000000Y-79202380D01*
X117333333Y-80202380D01*
X118238095Y-80202380D02*
X117904761Y-79726190D01*
X117666666Y-80202380D02*
X117666666Y-79202380D01*
X118047619Y-79202380D01*
X118142857Y-79250000D01*
X118190476Y-79297619D01*
X118238095Y-79392857D01*
X118238095Y-79535714D01*
X118190476Y-79630952D01*
X118142857Y-79678571D01*
X118047619Y-79726190D01*
X117666666Y-79726190D01*
X118666666Y-80202380D02*
X118666666Y-79202380D01*
X119238095Y-80202380D02*
X118809523Y-79630952D01*
X119238095Y-79202380D02*
X118666666Y-79773809D01*
X133952380Y-123797619D02*
X132952380Y-123797619D01*
X132952380Y-123559523D01*
X133000000Y-123416666D01*
X133095238Y-123321428D01*
X133190476Y-123273809D01*
X133380952Y-123226190D01*
X133523809Y-123226190D01*
X133714285Y-123273809D01*
X133809523Y-123321428D01*
X133904761Y-123416666D01*
X133952380Y-123559523D01*
X133952380Y-123797619D01*
X133952380Y-122226190D02*
X133476190Y-122559523D01*
X133952380Y-122797619D02*
X132952380Y-122797619D01*
X132952380Y-122416666D01*
X133000000Y-122321428D01*
X133047619Y-122273809D01*
X133142857Y-122226190D01*
X133285714Y-122226190D01*
X133380952Y-122273809D01*
X133428571Y-122321428D01*
X133476190Y-122416666D01*
X133476190Y-122797619D01*
X133476190Y-121607142D02*
X133952380Y-121607142D01*
X132952380Y-121940476D02*
X133476190Y-121607142D01*
X132952380Y-121273809D01*
X134047619Y-121178571D02*
X134047619Y-120416666D01*
X133952380Y-119654761D02*
X133952380Y-120226190D01*
X133952380Y-119940476D02*
X132952380Y-119940476D01*
X133095238Y-120035714D01*
X133190476Y-120130952D01*
X133238095Y-120226190D01*
D10*
X127416666Y-120083333D02*
X127416666Y-119607142D01*
X127702380Y-120178571D02*
X126702380Y-119845238D01*
X127702380Y-119511904D01*
X127702380Y-118654761D02*
X127702380Y-119226190D01*
X127702380Y-118940476D02*
X126702380Y-118940476D01*
X126845238Y-119035714D01*
X126940476Y-119130952D01*
X126988095Y-119226190D01*
X127321428Y-118226190D02*
X127321428Y-117464285D01*
X127702380Y-117845238D02*
X126940476Y-117845238D01*
D11*
X127361904Y-79597380D02*
X127361904Y-78597380D01*
X127742857Y-78597380D01*
X127838095Y-78645000D01*
X127885714Y-78692619D01*
X127933333Y-78787857D01*
X127933333Y-78930714D01*
X127885714Y-79025952D01*
X127838095Y-79073571D01*
X127742857Y-79121190D01*
X127361904Y-79121190D01*
X128885714Y-79597380D02*
X128314285Y-79597380D01*
X128600000Y-79597380D02*
X128600000Y-78597380D01*
X128504761Y-78740238D01*
X128409523Y-78835476D01*
X128314285Y-78883095D01*
X146958095Y-108092380D02*
X146958095Y-108901904D01*
X147005714Y-108997142D01*
X147053333Y-109044761D01*
X147148571Y-109092380D01*
X147339047Y-109092380D01*
X147434285Y-109044761D01*
X147481904Y-108997142D01*
X147529523Y-108901904D01*
X147529523Y-108092380D01*
X148529523Y-109092380D02*
X147958095Y-109092380D01*
X148243809Y-109092380D02*
X148243809Y-108092380D01*
X148148571Y-108235238D01*
X148053333Y-108330476D01*
X147958095Y-108378095D01*
D12*
X132800000Y-69600000D02*
X123400000Y-69600000D01*
X123400000Y-75400000D02*
X123400000Y-73400000D01*
X123400000Y-71500000D02*
X123400000Y-69600000D01*
X132800000Y-75400000D02*
X132800000Y-73400000D01*
X132800000Y-71500000D02*
X132800000Y-69600000D01*
X131600000Y-88965000D02*
X129925000Y-88965000D01*
X131600000Y-92085000D02*
X132250000Y-92085000D01*
X131600000Y-88965000D02*
X132250000Y-88965000D01*
X131600000Y-92085000D02*
X130950000Y-92085000D01*
X127650000Y-92085000D02*
X129325000Y-92085000D01*
X127650000Y-88965000D02*
X128300000Y-88965000D01*
X127650000Y-92085000D02*
X127000000Y-92085000D01*
X127650000Y-88965000D02*
X127000000Y-88965000D01*
X130977500Y-131762742D02*
X130977500Y-132237258D01*
X132022500Y-131762742D02*
X132022500Y-132237258D01*
X130977500Y-123262742D02*
X130977500Y-123737258D01*
X132022500Y-123262742D02*
X132022500Y-123737258D01*
X123190000Y-83000000D02*
X123190000Y-81050000D01*
X133310000Y-83000000D02*
X133310000Y-79550000D01*
X123190000Y-83000000D02*
X123190000Y-84950000D01*
X133310000Y-83000000D02*
X133310000Y-84950000D01*
X133609420Y-88260000D02*
X133890580Y-88260000D01*
X133609420Y-87240000D02*
X133890580Y-87240000D01*
X133990000Y-85109420D02*
X133990000Y-85390580D01*
X135010000Y-85109420D02*
X135010000Y-85390580D01*
X163859420Y-108140000D02*
X164140580Y-108140000D01*
X163859420Y-109160000D02*
X164140580Y-109160000D01*
X161040580Y-108140000D02*
X160759420Y-108140000D01*
X161040580Y-109160000D02*
X160759420Y-109160000D01*
X133671920Y-93660000D02*
X133953080Y-93660000D01*
X133671920Y-92640000D02*
X133953080Y-92640000D01*
X130765000Y-127162500D02*
X130765000Y-129447500D01*
X132235000Y-129447500D02*
X132235000Y-127162500D01*
X130765000Y-129447500D02*
X132235000Y-129447500D01*
X130765000Y-120735000D02*
X132235000Y-120735000D01*
X130765000Y-118450000D02*
X130765000Y-120735000D01*
X132235000Y-120735000D02*
X132235000Y-118450000D01*
X149660000Y-85240000D02*
X136340000Y-85240000D01*
X136340000Y-78390000D02*
X136340000Y-70280000D01*
X135690000Y-69760000D02*
X135690000Y-70280000D01*
X135690000Y-70280000D02*
X136340000Y-70280000D01*
X150310000Y-70280000D02*
X150310000Y-69760000D01*
X149660000Y-85240000D02*
X149660000Y-81910000D01*
X147400000Y-85460000D02*
X145600000Y-85460000D01*
X150310000Y-69760000D02*
X135690000Y-69760000D01*
X149660000Y-70280000D02*
X150310000Y-70280000D01*
X136340000Y-85240000D02*
X136340000Y-81910000D01*
X149660000Y-70280000D02*
X149660000Y-78390000D01*
X128762742Y-88447500D02*
X129237258Y-88447500D01*
X128762742Y-87402500D02*
X129237258Y-87402500D01*
X129737258Y-92752500D02*
X129262742Y-92752500D01*
X129737258Y-93797500D02*
X129262742Y-93797500D01*
X158037258Y-108127500D02*
X157562742Y-108127500D01*
X158037258Y-109172500D02*
X157562742Y-109172500D01*
X142222500Y-103600242D02*
X142222500Y-104074758D01*
X141177500Y-103600242D02*
X141177500Y-104074758D01*
X171750000Y-87750000D02*
X162750000Y-87750000D01*
X162750000Y-97750000D02*
X171750000Y-97750000D01*
X162250000Y-95250000D02*
X162750000Y-95750000D01*
X162750000Y-94750000D02*
X162250000Y-95250000D01*
X162750000Y-87750000D02*
X162750000Y-97750000D01*
X171750000Y-97750000D02*
X171750000Y-87750000D01*
X162750000Y-107750000D02*
X171750000Y-107750000D01*
X162750000Y-104750000D02*
X162250000Y-105250000D01*
X162750000Y-97750000D02*
X162750000Y-107750000D01*
X171750000Y-107750000D02*
X171750000Y-97750000D01*
X162250000Y-105250000D02*
X162750000Y-105750000D01*
X171750000Y-97750000D02*
X162750000Y-97750000D01*
X166910000Y-70280000D02*
X167560000Y-70280000D01*
X167560000Y-70280000D02*
X167560000Y-69760000D01*
X166910000Y-85240000D02*
X153590000Y-85240000D01*
X166910000Y-85240000D02*
X166910000Y-81910000D01*
X167560000Y-69760000D02*
X152940000Y-69760000D01*
X152940000Y-69760000D02*
X152940000Y-70280000D01*
X153590000Y-85240000D02*
X153590000Y-81910000D01*
X152940000Y-70280000D02*
X153590000Y-70280000D01*
X164650000Y-85460000D02*
X162850000Y-85460000D01*
X166910000Y-70280000D02*
X166910000Y-78390000D01*
X153590000Y-78390000D02*
X153590000Y-70280000D01*
X114750000Y-120250000D02*
X120250000Y-120250000D01*
X114750000Y-122250000D02*
X114750000Y-122750000D01*
X125860000Y-123640000D02*
X121360000Y-123640000D01*
X124950000Y-120000000D02*
X125550000Y-119700000D01*
X120250000Y-122250000D02*
X114750000Y-122250000D01*
X125860000Y-125060000D02*
X125860000Y-123640000D01*
X121360000Y-123640000D02*
X121360000Y-121250000D01*
X120250000Y-120250000D02*
X120250000Y-119750000D01*
X114140000Y-117440000D02*
X125860000Y-117440000D01*
X114750000Y-119750000D02*
X114750000Y-120250000D01*
X120250000Y-122750000D02*
X120250000Y-122250000D01*
X114750000Y-122750000D02*
X120250000Y-122750000D01*
X114140000Y-125060000D02*
X125860000Y-125060000D01*
X120250000Y-119750000D02*
X114750000Y-119750000D01*
X114140000Y-121250000D02*
X114140000Y-117440000D01*
X121360000Y-118860000D02*
X121360000Y-121250000D01*
X114140000Y-121250000D02*
X114140000Y-125060000D01*
X125860000Y-117440000D02*
X125860000Y-118860000D01*
X125550000Y-120300000D02*
X124950000Y-120000000D01*
X125860000Y-118860000D02*
X121360000Y-118860000D01*
X125550000Y-119700000D02*
X125550000Y-120300000D01*
X114750000Y-131250000D02*
X120250000Y-131250000D01*
X125860000Y-133560000D02*
X125860000Y-132140000D01*
X120250000Y-128750000D02*
X120250000Y-128250000D01*
X114750000Y-128250000D02*
X114750000Y-128750000D01*
X114140000Y-133560000D02*
X125860000Y-133560000D01*
X120250000Y-131250000D02*
X120250000Y-130750000D01*
X121360000Y-132140000D02*
X121360000Y-129750000D01*
X120250000Y-130750000D02*
X114750000Y-130750000D01*
X114750000Y-128750000D02*
X120250000Y-128750000D01*
X114140000Y-129750000D02*
X114140000Y-133560000D01*
X120250000Y-128250000D02*
X114750000Y-128250000D01*
X125860000Y-127360000D02*
X121360000Y-127360000D01*
X114140000Y-129750000D02*
X114140000Y-125940000D01*
X124950000Y-128500000D02*
X125550000Y-128200000D01*
X114140000Y-125940000D02*
X125860000Y-125940000D01*
X125550000Y-128200000D02*
X125550000Y-128800000D01*
X125860000Y-125940000D02*
X125860000Y-127360000D01*
X114750000Y-130750000D02*
X114750000Y-131250000D01*
X121360000Y-127360000D02*
X121360000Y-129750000D01*
X125860000Y-132140000D02*
X121360000Y-132140000D01*
X125550000Y-128800000D02*
X124950000Y-128500000D01*
X114750000Y-109250000D02*
X120250000Y-109250000D01*
X114750000Y-111750000D02*
X120250000Y-111750000D01*
X114750000Y-111250000D02*
X114750000Y-111750000D01*
X125860000Y-106440000D02*
X125860000Y-107860000D01*
X114750000Y-114250000D02*
X120250000Y-114250000D01*
X125860000Y-107860000D02*
X121360000Y-107860000D01*
X120250000Y-111250000D02*
X114750000Y-111250000D01*
X120250000Y-109250000D02*
X120250000Y-108750000D01*
X114140000Y-116560000D02*
X125860000Y-116560000D01*
X120250000Y-111750000D02*
X120250000Y-111250000D01*
X121360000Y-115140000D02*
X121360000Y-111500000D01*
X125860000Y-116560000D02*
X125860000Y-115140000D01*
X120250000Y-113750000D02*
X114750000Y-113750000D01*
X114750000Y-108750000D02*
X114750000Y-109250000D01*
X114140000Y-106440000D02*
X125860000Y-106440000D01*
X120250000Y-114250000D02*
X120250000Y-113750000D01*
X125550000Y-108700000D02*
X125550000Y-109300000D01*
X125550000Y-109300000D02*
X124950000Y-109000000D01*
X114140000Y-111500000D02*
X114140000Y-116560000D01*
X114140000Y-111500000D02*
X114140000Y-106440000D01*
X120250000Y-108750000D02*
X114750000Y-108750000D01*
X124950000Y-109000000D02*
X125550000Y-108700000D01*
X125860000Y-115140000D02*
X121360000Y-115140000D01*
X121360000Y-107860000D02*
X121360000Y-111500000D01*
X114750000Y-113750000D02*
X114750000Y-114250000D01*
X129760000Y-131884420D02*
X129760000Y-132165580D01*
X128740000Y-131884420D02*
X128740000Y-132165580D01*
X152477500Y-135087258D02*
X152477500Y-134612742D01*
X153522500Y-135087258D02*
X153522500Y-134612742D01*
X117940000Y-87250000D02*
X117940000Y-88050000D01*
X121060000Y-87250000D02*
X121060000Y-88050000D01*
X117940000Y-87250000D02*
X117940000Y-86450000D01*
X121060000Y-87250000D02*
X121060000Y-85450000D01*
X160500000Y-137250000D02*
X165000000Y-137250000D01*
X166250000Y-134750000D02*
X166250000Y-133250000D01*
X165000000Y-130750000D02*
X160500000Y-130750000D01*
X159250000Y-133250000D02*
X159250000Y-134750000D01*
X132022500Y-114012742D02*
X132022500Y-114487258D01*
X130977500Y-114012742D02*
X130977500Y-114487258D01*
X146270000Y-128370000D02*
X146270000Y-127370000D01*
X165595000Y-110130000D02*
X165595000Y-109750000D01*
X146270000Y-110130000D02*
X146270000Y-111130000D01*
X147050000Y-110130000D02*
X146270000Y-110130000D01*
X172015000Y-110130000D02*
X172015000Y-128370000D01*
X147050000Y-128370000D02*
X146270000Y-128370000D01*
X172015000Y-128370000D02*
X165595000Y-128370000D01*
X172015000Y-110130000D02*
X165595000Y-110130000D01*
X155065000Y-134050000D02*
X155065000Y-136335000D01*
X156535000Y-136335000D02*
X156535000Y-134050000D01*
X155065000Y-136335000D02*
X156535000Y-136335000D01*
X115740000Y-86609420D02*
X115740000Y-86890580D01*
X116760000Y-86609420D02*
X116760000Y-86890580D01*
X141940580Y-117760000D02*
X141659420Y-117760000D01*
X141940580Y-116740000D02*
X141659420Y-116740000D01*
X137440580Y-120260000D02*
X137159420Y-120260000D01*
X137440580Y-119240000D02*
X137159420Y-119240000D01*
X117727500Y-77012742D02*
X117727500Y-77487258D01*
X118772500Y-77012742D02*
X118772500Y-77487258D01*
X150810000Y-91500000D02*
X150810000Y-93450000D01*
X150810000Y-91500000D02*
X150810000Y-89550000D01*
X145690000Y-91500000D02*
X145690000Y-94950000D01*
X145690000Y-91500000D02*
X145690000Y-89550000D01*
X124327500Y-93587258D02*
X124327500Y-93112742D01*
X125372500Y-93587258D02*
X125372500Y-93112742D01*
X146465000Y-134050000D02*
X146465000Y-136335000D01*
X146465000Y-136335000D02*
X147935000Y-136335000D01*
X147935000Y-136335000D02*
X147935000Y-134050000D01*
G36*
X155500148Y-137170138D02*
G01*
X155571067Y-137185532D01*
X155634423Y-137213747D01*
X155689851Y-137254599D01*
X155712026Y-137276964D01*
X155739477Y-137307350D01*
X155778479Y-137266111D01*
X155828046Y-137223870D01*
X155883772Y-137193840D01*
X155943632Y-137175738D01*
X156005605Y-137169282D01*
X156067668Y-137174187D01*
X156127797Y-137190172D01*
X156183969Y-137216952D01*
X156234162Y-137254245D01*
X156276353Y-137301768D01*
X156299016Y-137338955D01*
X156315341Y-137384034D01*
X156323491Y-137436870D01*
X156323237Y-137492514D01*
X156314349Y-137546018D01*
X156309422Y-137562537D01*
X156296350Y-137596999D01*
X156280608Y-137629332D01*
X156260945Y-137660950D01*
X156236112Y-137693264D01*
X156204859Y-137727690D01*
X156165937Y-137765640D01*
X156118095Y-137808528D01*
X156060084Y-137857768D01*
X156016913Y-137893374D01*
X155928206Y-137968967D01*
X155851753Y-138040527D01*
X155788214Y-138107417D01*
X155762324Y-138137893D01*
X155736165Y-138170034D01*
X155719279Y-138144881D01*
X155699444Y-138119556D01*
X155669513Y-138086967D01*
X155631350Y-138048888D01*
X155586816Y-138007087D01*
X155537773Y-137963338D01*
X155486082Y-137919410D01*
X155459093Y-137897342D01*
X155402447Y-137851206D01*
X155356179Y-137812351D01*
X155318598Y-137779171D01*
X155288018Y-137750061D01*
X155262749Y-137723413D01*
X155241102Y-137697624D01*
X155221836Y-137671720D01*
X155187621Y-137612277D01*
X155164841Y-137548631D01*
X155153950Y-137483552D01*
X155155405Y-137419809D01*
X155169661Y-137360170D01*
X155170324Y-137358388D01*
X155196949Y-137307936D01*
X155235460Y-137263090D01*
X155283349Y-137225281D01*
X155338112Y-137195939D01*
X155397241Y-137176495D01*
X155458230Y-137168378D01*
X155500148Y-137170138D01*
G37*
X116760000Y-89859420D02*
X116760000Y-90140580D01*
X115740000Y-89859420D02*
X115740000Y-90140580D01*
X119886252Y-80790000D02*
X117113748Y-80790000D01*
X119886252Y-84210000D02*
X117113748Y-84210000D01*
X137400000Y-102250000D02*
X137400000Y-102025000D01*
X140800000Y-102475000D02*
X137625000Y-102475000D01*
X140800000Y-102025000D02*
X140800000Y-102475000D01*
X137625000Y-102475000D02*
X137400000Y-102250000D01*
X137400000Y-102025000D02*
X140800000Y-102025000D01*
X157850000Y-105800000D02*
X157850000Y-100100000D01*
X162150000Y-105800000D02*
X162150000Y-100100000D01*
X157850000Y-105800000D02*
X162150000Y-105800000D01*
X128727500Y-127787742D02*
X128727500Y-128262258D01*
X129772500Y-127787742D02*
X129772500Y-128262258D01*
X120987258Y-77022500D02*
X120512742Y-77022500D01*
X120987258Y-75977500D02*
X120512742Y-75977500D01*
G36*
X135075403Y-134608724D02*
G01*
X135066503Y-134617624D01*
X135057603Y-134608724D01*
X135066503Y-134599824D01*
X135075403Y-134608724D01*
G37*
G36*
X137173545Y-133911526D02*
G01*
X137189407Y-133924047D01*
X137193553Y-133943483D01*
X137186042Y-133982271D01*
X137165171Y-134046754D01*
X137133435Y-134130754D01*
X137093327Y-134228093D01*
X137047340Y-134332591D01*
X136997969Y-134438070D01*
X136975353Y-134484127D01*
X136870468Y-134676144D01*
X136763097Y-134835376D01*
X136650728Y-134964640D01*
X136530853Y-135066750D01*
X136400962Y-135144522D01*
X136376194Y-135156212D01*
X136270755Y-135195866D01*
X136152211Y-135227195D01*
X136033225Y-135247729D01*
X135926459Y-135254994D01*
X135881164Y-135252833D01*
X135788047Y-135243250D01*
X135768295Y-135316604D01*
X135753505Y-135375388D01*
X135741458Y-135433971D01*
X135731778Y-135497150D01*
X135724088Y-135569721D01*
X135718011Y-135656480D01*
X135713173Y-135762223D01*
X135709195Y-135891745D01*
X135705703Y-136049843D01*
X135704140Y-136134324D01*
X135694143Y-136698746D01*
X135789713Y-136741122D01*
X135877465Y-136792990D01*
X135955047Y-136862701D01*
X136013030Y-136940721D01*
X136035014Y-136989123D01*
X136055544Y-137051330D01*
X136175942Y-137042715D01*
X136248038Y-137039867D01*
X136301006Y-137045624D01*
X136350836Y-137062766D01*
X136384504Y-137078971D01*
X136442245Y-137112462D01*
X136491986Y-137148251D01*
X136510850Y-137165652D01*
X136542699Y-137205350D01*
X136576467Y-137254503D01*
X136605228Y-137302099D01*
X136622056Y-137337127D01*
X136623899Y-137345409D01*
X136606632Y-137347831D01*
X136556880Y-137350111D01*
X136477760Y-137352209D01*
X136372387Y-137354086D01*
X136243877Y-137355703D01*
X136095345Y-137357018D01*
X135929906Y-137357991D01*
X135750675Y-137358584D01*
X135582691Y-137358759D01*
X135393833Y-137358519D01*
X135216003Y-137357828D01*
X135052314Y-137356728D01*
X134905883Y-137355264D01*
X134779826Y-137353478D01*
X134677258Y-137351414D01*
X134601294Y-137349115D01*
X134555051Y-137346624D01*
X134541415Y-137344290D01*
X134556872Y-137312438D01*
X134597203Y-137275244D01*
X134653351Y-137238131D01*
X134716258Y-137206522D01*
X134776866Y-137185842D01*
X134814512Y-137180763D01*
X134848272Y-137171852D01*
X134865491Y-137138887D01*
X134867746Y-137128823D01*
X134899862Y-137053376D01*
X134959349Y-136989123D01*
X135038425Y-136941626D01*
X135129309Y-136916449D01*
X135168393Y-136913869D01*
X135211849Y-136902210D01*
X135243409Y-136862477D01*
X135243610Y-136862089D01*
X135276472Y-136819028D01*
X135324057Y-136777715D01*
X135335471Y-136770153D01*
X135400608Y-136729896D01*
X135390277Y-136550389D01*
X135372176Y-136379323D01*
X135339062Y-136213513D01*
X135293146Y-136060113D01*
X135236635Y-135926273D01*
X135171739Y-135819148D01*
X135159611Y-135803590D01*
X135118035Y-135752485D01*
X135041880Y-135791337D01*
X134933245Y-135835361D01*
X134803564Y-135870042D01*
X134666834Y-135892307D01*
X134550315Y-135899194D01*
X134363792Y-135884033D01*
X134181688Y-135837750D01*
X134000749Y-135759144D01*
X133817718Y-135647017D01*
X133767133Y-135610554D01*
X133716229Y-135569686D01*
X133651175Y-135512909D01*
X133576153Y-135444350D01*
X133495345Y-135368138D01*
X133412931Y-135288400D01*
X133333094Y-135209264D01*
X133260014Y-135134859D01*
X133197874Y-135069313D01*
X133150855Y-135016752D01*
X133123138Y-134981306D01*
X133117449Y-134969188D01*
X133134243Y-134951992D01*
X133181649Y-134930093D01*
X133255201Y-134904861D01*
X133350433Y-134877664D01*
X133462879Y-134849874D01*
X133588074Y-134822857D01*
X133606937Y-134819102D01*
X133710363Y-134803650D01*
X133833694Y-134792997D01*
X133968437Y-134787137D01*
X134106096Y-134786062D01*
X134238178Y-134789766D01*
X134356187Y-134798241D01*
X134451629Y-134811480D01*
X134488016Y-134819824D01*
X134674151Y-134887970D01*
X134838545Y-134982469D01*
X134979183Y-135101726D01*
X135094054Y-135244145D01*
X135153317Y-135347112D01*
X135181643Y-135408262D01*
X135199827Y-135456012D01*
X135205118Y-135482727D01*
X135203291Y-135485739D01*
X135180674Y-135481425D01*
X135134099Y-135465276D01*
X135071952Y-135440320D01*
X135042945Y-135427818D01*
X134932039Y-135381999D01*
X134811142Y-135337015D01*
X134688326Y-135295433D01*
X134571670Y-135259820D01*
X134469247Y-135232742D01*
X134389133Y-135216766D01*
X134372319Y-135214683D01*
X134265522Y-135204006D01*
X134402184Y-135256178D01*
X134543104Y-135315079D01*
X134670107Y-135380438D01*
X134796351Y-135459620D01*
X134906824Y-135538756D01*
X135033321Y-135638251D01*
X135133497Y-135729367D01*
X135213311Y-135818747D01*
X135278716Y-135913034D01*
X135333750Y-136014891D01*
X135371543Y-136097437D01*
X135406494Y-136181627D01*
X135433034Y-136253748D01*
X135440416Y-136277435D01*
X135457329Y-136331641D01*
X135471772Y-136368745D01*
X135479328Y-136379782D01*
X135482564Y-136363043D01*
X135482794Y-136316756D01*
X135480350Y-136246812D01*
X135475568Y-136159105D01*
X135468780Y-136059529D01*
X135460323Y-135953975D01*
X135450528Y-135848338D01*
X135447544Y-135819096D01*
X135415211Y-135578344D01*
X135370237Y-135348633D01*
X135314213Y-135136053D01*
X135248730Y-134946695D01*
X135180134Y-134795620D01*
X135153266Y-134741832D01*
X135139402Y-134708497D01*
X135140145Y-134699901D01*
X135146830Y-134706622D01*
X135200462Y-134785314D01*
X135256866Y-134892380D01*
X135313427Y-135021005D01*
X135367531Y-135164373D01*
X135416562Y-135315671D01*
X135457907Y-135468081D01*
X135483069Y-135582999D01*
X135503343Y-135696334D01*
X135522912Y-135820681D01*
X135540714Y-135947715D01*
X135555688Y-136069112D01*
X135566774Y-136176546D01*
X135572909Y-136261693D01*
X135573791Y-136294703D01*
X135576659Y-136344177D01*
X135583959Y-136374860D01*
X135589069Y-136379782D01*
X135595876Y-136363132D01*
X135603322Y-136317714D01*
X135610538Y-136250328D01*
X135616652Y-136167773D01*
X135617008Y-136161737D01*
X135636263Y-135910727D01*
X135663295Y-135691475D01*
X135698680Y-135500877D01*
X135742992Y-135335828D01*
X135796185Y-135194631D01*
X135859854Y-135070830D01*
X135943454Y-134937533D01*
X136038526Y-134806722D01*
X136136611Y-134690378D01*
X136192277Y-134633557D01*
X136244237Y-134582607D01*
X136280836Y-134543524D01*
X136298268Y-134520614D01*
X136295252Y-134517042D01*
X136233227Y-134548878D01*
X136153071Y-134602170D01*
X136060825Y-134672238D01*
X135962532Y-134754406D01*
X135864232Y-134843994D01*
X135829382Y-134877777D01*
X135762921Y-134942721D01*
X135705449Y-134997684D01*
X135661655Y-135038270D01*
X135636229Y-135060088D01*
X135632015Y-135062613D01*
X135626069Y-135046599D01*
X135626433Y-135004138D01*
X135632000Y-134943599D01*
X135641663Y-134873352D01*
X135654315Y-134801769D01*
X135668849Y-134737219D01*
X135680078Y-134699159D01*
X135751479Y-134545829D01*
X135854599Y-134406476D01*
X135988059Y-134281967D01*
X136150479Y-134173168D01*
X136340482Y-134080946D01*
X136556688Y-134006168D01*
X136797719Y-133949699D01*
X136899859Y-133932569D01*
X137009123Y-133916985D01*
X137088056Y-133908167D01*
X137141312Y-133906290D01*
X137173545Y-133911526D01*
G37*
X129760000Y-123359420D02*
X129760000Y-123640580D01*
X128740000Y-123359420D02*
X128740000Y-123640580D01*
X141100000Y-120660000D02*
X142500000Y-120660000D01*
X142500000Y-118340000D02*
X140600000Y-118340000D01*
D13*
X141843367Y-137104342D02*
X141844555Y-137196563D01*
X141844555Y-137196563D02*
X141848897Y-137266610D01*
X141848897Y-137266610D02*
X141857558Y-137317381D01*
X141857558Y-137317381D02*
X141871704Y-137351772D01*
X141871704Y-137351772D02*
X141892500Y-137372679D01*
X141892500Y-137372679D02*
X141921110Y-137383000D01*
X141921110Y-137383000D02*
X141956535Y-137385636D01*
X141956535Y-137385636D02*
X141993636Y-137382682D01*
X141993636Y-137382682D02*
X142021818Y-137371889D01*
X142021818Y-137371889D02*
X142042243Y-137350360D01*
X142042243Y-137350360D02*
X142056079Y-137315199D01*
X142056079Y-137315199D02*
X142064491Y-137263510D01*
X142064491Y-137263510D02*
X142068643Y-137192394D01*
X142068643Y-137192394D02*
X142069703Y-137104342D01*
X142069703Y-137104342D02*
X142069703Y-136908614D01*
X142069703Y-136908614D02*
X142208020Y-136908614D01*
X142208020Y-136908614D02*
X142208020Y-137512179D01*
X142208020Y-137512179D02*
X142138862Y-137512179D01*
X142138862Y-137512179D02*
X142097170Y-137510489D01*
X142097170Y-137510489D02*
X142075701Y-137504556D01*
X142075701Y-137504556D02*
X142069703Y-137493293D01*
X142069703Y-137493293D02*
X142066091Y-137483261D01*
X142066091Y-137483261D02*
X142051714Y-137485383D01*
X142051714Y-137485383D02*
X142022736Y-137499580D01*
X142022736Y-137499580D02*
X141956319Y-137521480D01*
X141956319Y-137521480D02*
X141885875Y-137519928D01*
X141885875Y-137519928D02*
X141818377Y-137496147D01*
X141818377Y-137496147D02*
X141786233Y-137477362D01*
X141786233Y-137477362D02*
X141761715Y-137457022D01*
X141761715Y-137457022D02*
X141743804Y-137431573D01*
X141743804Y-137431573D02*
X141731479Y-137397458D01*
X141731479Y-137397458D02*
X141723723Y-137351121D01*
X141723723Y-137351121D02*
X141719516Y-137289007D01*
X141719516Y-137289007D02*
X141717840Y-137207561D01*
X141717840Y-137207561D02*
X141717624Y-137144578D01*
X141717624Y-137144578D02*
X141717624Y-136908614D01*
X141717624Y-136908614D02*
X141843367Y-136908614D01*
X141843367Y-136908614D02*
X141843367Y-137104342D01*
X141843367Y-137104342D02*
X141843367Y-137104342D01*
G36*
X141843367Y-137104342D02*
G01*
X141844555Y-137196563D01*
X141848897Y-137266610D01*
X141857558Y-137317381D01*
X141871704Y-137351772D01*
X141892500Y-137372679D01*
X141921110Y-137383000D01*
X141956535Y-137385636D01*
X141993636Y-137382682D01*
X142021818Y-137371889D01*
X142042243Y-137350360D01*
X142056079Y-137315199D01*
X142064491Y-137263510D01*
X142068643Y-137192394D01*
X142069703Y-137104342D01*
X142069703Y-136908614D01*
X142208020Y-136908614D01*
X142208020Y-137512179D01*
X142138862Y-137512179D01*
X142097170Y-137510489D01*
X142075701Y-137504556D01*
X142069703Y-137493293D01*
X142066091Y-137483261D01*
X142051714Y-137485383D01*
X142022736Y-137499580D01*
X141956319Y-137521480D01*
X141885875Y-137519928D01*
X141818377Y-137496147D01*
X141786233Y-137477362D01*
X141761715Y-137457022D01*
X141743804Y-137431573D01*
X141731479Y-137397458D01*
X141723723Y-137351121D01*
X141719516Y-137289007D01*
X141717840Y-137207561D01*
X141717624Y-137144578D01*
X141717624Y-136908614D01*
X141843367Y-136908614D01*
X141843367Y-137104342D01*
G37*
X141843367Y-137104342D02*
X141844555Y-137196563D01*
X141848897Y-137266610D01*
X141857558Y-137317381D01*
X141871704Y-137351772D01*
X141892500Y-137372679D01*
X141921110Y-137383000D01*
X141956535Y-137385636D01*
X141993636Y-137382682D01*
X142021818Y-137371889D01*
X142042243Y-137350360D01*
X142056079Y-137315199D01*
X142064491Y-137263510D01*
X142068643Y-137192394D01*
X142069703Y-137104342D01*
X142069703Y-136908614D01*
X142208020Y-136908614D01*
X142208020Y-137512179D01*
X142138862Y-137512179D01*
X142097170Y-137510489D01*
X142075701Y-137504556D01*
X142069703Y-137493293D01*
X142066091Y-137483261D01*
X142051714Y-137485383D01*
X142022736Y-137499580D01*
X141956319Y-137521480D01*
X141885875Y-137519928D01*
X141818377Y-137496147D01*
X141786233Y-137477362D01*
X141761715Y-137457022D01*
X141743804Y-137431573D01*
X141731479Y-137397458D01*
X141723723Y-137351121D01*
X141719516Y-137289007D01*
X141717840Y-137207561D01*
X141717624Y-137144578D01*
X141717624Y-136908614D01*
X141843367Y-136908614D01*
X141843367Y-137104342D01*
X143527898Y-136906457D02*
X143560096Y-136914279D01*
X143560096Y-136914279D02*
X143621825Y-136942921D01*
X143621825Y-136942921D02*
X143674610Y-136986667D01*
X143674610Y-136986667D02*
X143711141Y-137039117D01*
X143711141Y-137039117D02*
X143716160Y-137050893D01*
X143716160Y-137050893D02*
X143723045Y-137081740D01*
X143723045Y-137081740D02*
X143727864Y-137127371D01*
X143727864Y-137127371D02*
X143729505Y-137173492D01*
X143729505Y-137173492D02*
X143729505Y-137260693D01*
X143729505Y-137260693D02*
X143547178Y-137260693D01*
X143547178Y-137260693D02*
X143471979Y-137260978D01*
X143471979Y-137260978D02*
X143419003Y-137262704D01*
X143419003Y-137262704D02*
X143385325Y-137267181D01*
X143385325Y-137267181D02*
X143368020Y-137275720D01*
X143368020Y-137275720D02*
X143364163Y-137289630D01*
X143364163Y-137289630D02*
X143370829Y-137310222D01*
X143370829Y-137310222D02*
X143382770Y-137334315D01*
X143382770Y-137334315D02*
X143416080Y-137374525D01*
X143416080Y-137374525D02*
X143462368Y-137394558D01*
X143462368Y-137394558D02*
X143518944Y-137393905D01*
X143518944Y-137393905D02*
X143583031Y-137372101D01*
X143583031Y-137372101D02*
X143638417Y-137345193D01*
X143638417Y-137345193D02*
X143684375Y-137381532D01*
X143684375Y-137381532D02*
X143730333Y-137417872D01*
X143730333Y-137417872D02*
X143687096Y-137457819D01*
X143687096Y-137457819D02*
X143629374Y-137495563D01*
X143629374Y-137495563D02*
X143558386Y-137518320D01*
X143558386Y-137518320D02*
X143482029Y-137524688D01*
X143482029Y-137524688D02*
X143408199Y-137513268D01*
X143408199Y-137513268D02*
X143396287Y-137509393D01*
X143396287Y-137509393D02*
X143331399Y-137475506D01*
X143331399Y-137475506D02*
X143283130Y-137424986D01*
X143283130Y-137424986D02*
X143250465Y-137356325D01*
X143250465Y-137356325D02*
X143232385Y-137268014D01*
X143232385Y-137268014D02*
X143232175Y-137266121D01*
X143232175Y-137266121D02*
X143230556Y-137169878D01*
X143230556Y-137169878D02*
X143237100Y-137135542D01*
X143237100Y-137135542D02*
X143364852Y-137135542D01*
X143364852Y-137135542D02*
X143376584Y-137140822D01*
X143376584Y-137140822D02*
X143408438Y-137144867D01*
X143408438Y-137144867D02*
X143455397Y-137147176D01*
X143455397Y-137147176D02*
X143485154Y-137147525D01*
X143485154Y-137147525D02*
X143540648Y-137147306D01*
X143540648Y-137147306D02*
X143575346Y-137145916D01*
X143575346Y-137145916D02*
X143593601Y-137142251D01*
X143593601Y-137142251D02*
X143599766Y-137135210D01*
X143599766Y-137135210D02*
X143598195Y-137123690D01*
X143598195Y-137123690D02*
X143596878Y-137119233D01*
X143596878Y-137119233D02*
X143574382Y-137077355D01*
X143574382Y-137077355D02*
X143539003Y-137043604D01*
X143539003Y-137043604D02*
X143507780Y-137028773D01*
X143507780Y-137028773D02*
X143466301Y-137029668D01*
X143466301Y-137029668D02*
X143424269Y-137048164D01*
X143424269Y-137048164D02*
X143389012Y-137078786D01*
X143389012Y-137078786D02*
X143367854Y-137116062D01*
X143367854Y-137116062D02*
X143364852Y-137135542D01*
X143364852Y-137135542D02*
X143237100Y-137135542D01*
X143237100Y-137135542D02*
X143246690Y-137085229D01*
X143246690Y-137085229D02*
X143278698Y-137014191D01*
X143278698Y-137014191D02*
X143324701Y-136958779D01*
X143324701Y-136958779D02*
X143382821Y-136921009D01*
X143382821Y-136921009D02*
X143451180Y-136902896D01*
X143451180Y-136902896D02*
X143527898Y-136906457D01*
X143527898Y-136906457D02*
X143527898Y-136906457D01*
G36*
X143278698Y-137014191D02*
G01*
X143324701Y-136958779D01*
X143382821Y-136921009D01*
X143451180Y-136902896D01*
X143527898Y-136906457D01*
X143560096Y-136914279D01*
X143621825Y-136942921D01*
X143674610Y-136986667D01*
X143711141Y-137039117D01*
X143716160Y-137050893D01*
X143723045Y-137081740D01*
X143727864Y-137127371D01*
X143729505Y-137173492D01*
X143729505Y-137260693D01*
X143547178Y-137260693D01*
X143471979Y-137260978D01*
X143419003Y-137262704D01*
X143385325Y-137267181D01*
X143368020Y-137275720D01*
X143364163Y-137289630D01*
X143370829Y-137310222D01*
X143382770Y-137334315D01*
X143416080Y-137374525D01*
X143462368Y-137394558D01*
X143518944Y-137393905D01*
X143583031Y-137372101D01*
X143638417Y-137345193D01*
X143684375Y-137381532D01*
X143730333Y-137417872D01*
X143687096Y-137457819D01*
X143629374Y-137495563D01*
X143558386Y-137518320D01*
X143482029Y-137524688D01*
X143408199Y-137513268D01*
X143396287Y-137509393D01*
X143331399Y-137475506D01*
X143283130Y-137424986D01*
X143250465Y-137356325D01*
X143232385Y-137268014D01*
X143232175Y-137266121D01*
X143230556Y-137169878D01*
X143237100Y-137135542D01*
X143364852Y-137135542D01*
X143376584Y-137140822D01*
X143408438Y-137144867D01*
X143455397Y-137147176D01*
X143485154Y-137147525D01*
X143540648Y-137147306D01*
X143575346Y-137145916D01*
X143593601Y-137142251D01*
X143599766Y-137135210D01*
X143598195Y-137123690D01*
X143596878Y-137119233D01*
X143574382Y-137077355D01*
X143539003Y-137043604D01*
X143507780Y-137028773D01*
X143466301Y-137029668D01*
X143424269Y-137048164D01*
X143389012Y-137078786D01*
X143367854Y-137116062D01*
X143364852Y-137135542D01*
X143237100Y-137135542D01*
X143246690Y-137085229D01*
X143278698Y-137014191D01*
G37*
X143278698Y-137014191D02*
X143324701Y-136958779D01*
X143382821Y-136921009D01*
X143451180Y-136902896D01*
X143527898Y-136906457D01*
X143560096Y-136914279D01*
X143621825Y-136942921D01*
X143674610Y-136986667D01*
X143711141Y-137039117D01*
X143716160Y-137050893D01*
X143723045Y-137081740D01*
X143727864Y-137127371D01*
X143729505Y-137173492D01*
X143729505Y-137260693D01*
X143547178Y-137260693D01*
X143471979Y-137260978D01*
X143419003Y-137262704D01*
X143385325Y-137267181D01*
X143368020Y-137275720D01*
X143364163Y-137289630D01*
X143370829Y-137310222D01*
X143382770Y-137334315D01*
X143416080Y-137374525D01*
X143462368Y-137394558D01*
X143518944Y-137393905D01*
X143583031Y-137372101D01*
X143638417Y-137345193D01*
X143684375Y-137381532D01*
X143730333Y-137417872D01*
X143687096Y-137457819D01*
X143629374Y-137495563D01*
X143558386Y-137518320D01*
X143482029Y-137524688D01*
X143408199Y-137513268D01*
X143396287Y-137509393D01*
X143331399Y-137475506D01*
X143283130Y-137424986D01*
X143250465Y-137356325D01*
X143232385Y-137268014D01*
X143232175Y-137266121D01*
X143230556Y-137169878D01*
X143237100Y-137135542D01*
X143364852Y-137135542D01*
X143376584Y-137140822D01*
X143408438Y-137144867D01*
X143455397Y-137147176D01*
X143485154Y-137147525D01*
X143540648Y-137147306D01*
X143575346Y-137145916D01*
X143593601Y-137142251D01*
X143599766Y-137135210D01*
X143598195Y-137123690D01*
X143596878Y-137119233D01*
X143574382Y-137077355D01*
X143539003Y-137043604D01*
X143507780Y-137028773D01*
X143466301Y-137029668D01*
X143424269Y-137048164D01*
X143389012Y-137078786D01*
X143367854Y-137116062D01*
X143364852Y-137135542D01*
X143237100Y-137135542D01*
X143246690Y-137085229D01*
X143278698Y-137014191D01*
X141226964Y-132740018D02*
X141283812Y-133041570D01*
X141283812Y-133041570D02*
X141703338Y-133214512D01*
X141703338Y-133214512D02*
X141954984Y-133043395D01*
X141954984Y-133043395D02*
X142025458Y-132995750D01*
X142025458Y-132995750D02*
X142089163Y-132953210D01*
X142089163Y-132953210D02*
X142143126Y-132917715D01*
X142143126Y-132917715D02*
X142184373Y-132891210D01*
X142184373Y-132891210D02*
X142209934Y-132875636D01*
X142209934Y-132875636D02*
X142216895Y-132872278D01*
X142216895Y-132872278D02*
X142229435Y-132880914D01*
X142229435Y-132880914D02*
X142256231Y-132904792D01*
X142256231Y-132904792D02*
X142294280Y-132940859D01*
X142294280Y-132940859D02*
X142340579Y-132986067D01*
X142340579Y-132986067D02*
X142392123Y-133037364D01*
X142392123Y-133037364D02*
X142445909Y-133091701D01*
X142445909Y-133091701D02*
X142498935Y-133146028D01*
X142498935Y-133146028D02*
X142548195Y-133197295D01*
X142548195Y-133197295D02*
X142590687Y-133242451D01*
X142590687Y-133242451D02*
X142623407Y-133278446D01*
X142623407Y-133278446D02*
X142643351Y-133302230D01*
X142643351Y-133302230D02*
X142648119Y-133310190D01*
X142648119Y-133310190D02*
X142641257Y-133324865D01*
X142641257Y-133324865D02*
X142622020Y-133357014D01*
X142622020Y-133357014D02*
X142592430Y-133403492D01*
X142592430Y-133403492D02*
X142554510Y-133461156D01*
X142554510Y-133461156D02*
X142510282Y-133526860D01*
X142510282Y-133526860D02*
X142484654Y-133564336D01*
X142484654Y-133564336D02*
X142437941Y-133632768D01*
X142437941Y-133632768D02*
X142396432Y-133694520D01*
X142396432Y-133694520D02*
X142362140Y-133746519D01*
X142362140Y-133746519D02*
X142337080Y-133785692D01*
X142337080Y-133785692D02*
X142323264Y-133808965D01*
X142323264Y-133808965D02*
X142321188Y-133813855D01*
X142321188Y-133813855D02*
X142325895Y-133827755D01*
X142325895Y-133827755D02*
X142338723Y-133860150D01*
X142338723Y-133860150D02*
X142357738Y-133906485D01*
X142357738Y-133906485D02*
X142381003Y-133962206D01*
X142381003Y-133962206D02*
X142406584Y-134022758D01*
X142406584Y-134022758D02*
X142432545Y-134083586D01*
X142432545Y-134083586D02*
X142456950Y-134140136D01*
X142456950Y-134140136D02*
X142477863Y-134187852D01*
X142477863Y-134187852D02*
X142493349Y-134222181D01*
X142493349Y-134222181D02*
X142501472Y-134238568D01*
X142501472Y-134238568D02*
X142501952Y-134239212D01*
X142501952Y-134239212D02*
X142514707Y-134242341D01*
X142514707Y-134242341D02*
X142548677Y-134249321D01*
X142548677Y-134249321D02*
X142600340Y-134259467D01*
X142600340Y-134259467D02*
X142666176Y-134272092D01*
X142666176Y-134272092D02*
X142742664Y-134286509D01*
X142742664Y-134286509D02*
X142787290Y-134294823D01*
X142787290Y-134294823D02*
X142869021Y-134310384D01*
X142869021Y-134310384D02*
X142942843Y-134325192D01*
X142942843Y-134325192D02*
X143005021Y-134338436D01*
X143005021Y-134338436D02*
X143051822Y-134349305D01*
X143051822Y-134349305D02*
X143079509Y-134356989D01*
X143079509Y-134356989D02*
X143085074Y-134359427D01*
X143085074Y-134359427D02*
X143090526Y-134375930D01*
X143090526Y-134375930D02*
X143094924Y-134413200D01*
X143094924Y-134413200D02*
X143098272Y-134466880D01*
X143098272Y-134466880D02*
X143100574Y-134532612D01*
X143100574Y-134532612D02*
X143101832Y-134606037D01*
X143101832Y-134606037D02*
X143102048Y-134682796D01*
X143102048Y-134682796D02*
X143101227Y-134758532D01*
X143101227Y-134758532D02*
X143099371Y-134828886D01*
X143099371Y-134828886D02*
X143096482Y-134889500D01*
X143096482Y-134889500D02*
X143092565Y-134936016D01*
X143092565Y-134936016D02*
X143087622Y-134964075D01*
X143087622Y-134964075D02*
X143084657Y-134969916D01*
X143084657Y-134969916D02*
X143066934Y-134976917D01*
X143066934Y-134976917D02*
X143029381Y-134986927D01*
X143029381Y-134986927D02*
X142976964Y-134998769D01*
X142976964Y-134998769D02*
X142914652Y-135011267D01*
X142914652Y-135011267D02*
X142892900Y-135015310D01*
X142892900Y-135015310D02*
X142788024Y-135034520D01*
X142788024Y-135034520D02*
X142705180Y-135049991D01*
X142705180Y-135049991D02*
X142641630Y-135062337D01*
X142641630Y-135062337D02*
X142594637Y-135072173D01*
X142594637Y-135072173D02*
X142561463Y-135080114D01*
X142561463Y-135080114D02*
X142539371Y-135086776D01*
X142539371Y-135086776D02*
X142525624Y-135092773D01*
X142525624Y-135092773D02*
X142517484Y-135098719D01*
X142517484Y-135098719D02*
X142516345Y-135099894D01*
X142516345Y-135099894D02*
X142504977Y-135118826D01*
X142504977Y-135118826D02*
X142487635Y-135155669D01*
X142487635Y-135155669D02*
X142466050Y-135205913D01*
X142466050Y-135205913D02*
X142441954Y-135265046D01*
X142441954Y-135265046D02*
X142417079Y-135328556D01*
X142417079Y-135328556D02*
X142393157Y-135391932D01*
X142393157Y-135391932D02*
X142371919Y-135450662D01*
X142371919Y-135450662D02*
X142355097Y-135500235D01*
X142355097Y-135500235D02*
X142344422Y-135536139D01*
X142344422Y-135536139D02*
X142341627Y-135553862D01*
X142341627Y-135553862D02*
X142341860Y-135554483D01*
X142341860Y-135554483D02*
X142351331Y-135568970D01*
X142351331Y-135568970D02*
X142372818Y-135600844D01*
X142372818Y-135600844D02*
X142404063Y-135646789D01*
X142404063Y-135646789D02*
X142442807Y-135703485D01*
X142442807Y-135703485D02*
X142486793Y-135767617D01*
X142486793Y-135767617D02*
X142499319Y-135785842D01*
X142499319Y-135785842D02*
X142543984Y-135851914D01*
X142543984Y-135851914D02*
X142583288Y-135912200D01*
X142583288Y-135912200D02*
X142615088Y-135963235D01*
X142615088Y-135963235D02*
X142637245Y-136001560D01*
X142637245Y-136001560D02*
X142647617Y-136023711D01*
X142647617Y-136023711D02*
X142648119Y-136026432D01*
X142648119Y-136026432D02*
X142639405Y-136040736D01*
X142639405Y-136040736D02*
X142615325Y-136069072D01*
X142615325Y-136069072D02*
X142578976Y-136108396D01*
X142578976Y-136108396D02*
X142533453Y-136155661D01*
X142533453Y-136155661D02*
X142481852Y-136207823D01*
X142481852Y-136207823D02*
X142427267Y-136261835D01*
X142427267Y-136261835D02*
X142372794Y-136314653D01*
X142372794Y-136314653D02*
X142321529Y-136363231D01*
X142321529Y-136363231D02*
X142276567Y-136404523D01*
X142276567Y-136404523D02*
X142241004Y-136435485D01*
X142241004Y-136435485D02*
X142217935Y-136453070D01*
X142217935Y-136453070D02*
X142211554Y-136455941D01*
X142211554Y-136455941D02*
X142196699Y-136449178D01*
X142196699Y-136449178D02*
X142166286Y-136430939D01*
X142166286Y-136430939D02*
X142125268Y-136404297D01*
X142125268Y-136404297D02*
X142093709Y-136382852D01*
X142093709Y-136382852D02*
X142036525Y-136343503D01*
X142036525Y-136343503D02*
X141968806Y-136297171D01*
X141968806Y-136297171D02*
X141900880Y-136250913D01*
X141900880Y-136250913D02*
X141864361Y-136226155D01*
X141864361Y-136226155D02*
X141740752Y-136142547D01*
X141740752Y-136142547D02*
X141636991Y-136198650D01*
X141636991Y-136198650D02*
X141589720Y-136223228D01*
X141589720Y-136223228D02*
X141549523Y-136242331D01*
X141549523Y-136242331D02*
X141522326Y-136253227D01*
X141522326Y-136253227D02*
X141515402Y-136254743D01*
X141515402Y-136254743D02*
X141507077Y-136243549D01*
X141507077Y-136243549D02*
X141490654Y-136211917D01*
X141490654Y-136211917D02*
X141467357Y-136162765D01*
X141467357Y-136162765D02*
X141438414Y-136099010D01*
X141438414Y-136099010D02*
X141405050Y-136023571D01*
X141405050Y-136023571D02*
X141368491Y-135939364D01*
X141368491Y-135939364D02*
X141329964Y-135849308D01*
X141329964Y-135849308D02*
X141290694Y-135756321D01*
X141290694Y-135756321D02*
X141251908Y-135663320D01*
X141251908Y-135663320D02*
X141214830Y-135573223D01*
X141214830Y-135573223D02*
X141180689Y-135488948D01*
X141180689Y-135488948D02*
X141150708Y-135413413D01*
X141150708Y-135413413D02*
X141126116Y-135349534D01*
X141126116Y-135349534D02*
X141108136Y-135300231D01*
X141108136Y-135300231D02*
X141097997Y-135268421D01*
X141097997Y-135268421D02*
X141096366Y-135257496D01*
X141096366Y-135257496D02*
X141109291Y-135243561D01*
X141109291Y-135243561D02*
X141137589Y-135220940D01*
X141137589Y-135220940D02*
X141175346Y-135194333D01*
X141175346Y-135194333D02*
X141178515Y-135192228D01*
X141178515Y-135192228D02*
X141276100Y-135114114D01*
X141276100Y-135114114D02*
X141354786Y-135022982D01*
X141354786Y-135022982D02*
X141413891Y-134921745D01*
X141413891Y-134921745D02*
X141452732Y-134813318D01*
X141452732Y-134813318D02*
X141470628Y-134700614D01*
X141470628Y-134700614D02*
X141466897Y-134586548D01*
X141466897Y-134586548D02*
X141440857Y-134474034D01*
X141440857Y-134474034D02*
X141391825Y-134365985D01*
X141391825Y-134365985D02*
X141377400Y-134342345D01*
X141377400Y-134342345D02*
X141302369Y-134246887D01*
X141302369Y-134246887D02*
X141213730Y-134170232D01*
X141213730Y-134170232D02*
X141114549Y-134112780D01*
X141114549Y-134112780D02*
X141007895Y-134074929D01*
X141007895Y-134074929D02*
X140896836Y-134057078D01*
X140896836Y-134057078D02*
X140784439Y-134059625D01*
X140784439Y-134059625D02*
X140673773Y-134082970D01*
X140673773Y-134082970D02*
X140567906Y-134127510D01*
X140567906Y-134127510D02*
X140469905Y-134193645D01*
X140469905Y-134193645D02*
X140439590Y-134220487D01*
X140439590Y-134220487D02*
X140362438Y-134304512D01*
X140362438Y-134304512D02*
X140306218Y-134392966D01*
X140306218Y-134392966D02*
X140267653Y-134492115D01*
X140267653Y-134492115D02*
X140246174Y-134590303D01*
X140246174Y-134590303D02*
X140240872Y-134700697D01*
X140240872Y-134700697D02*
X140258552Y-134811640D01*
X140258552Y-134811640D02*
X140297419Y-134919381D01*
X140297419Y-134919381D02*
X140355677Y-135020169D01*
X140355677Y-135020169D02*
X140431531Y-135110256D01*
X140431531Y-135110256D02*
X140523183Y-135185892D01*
X140523183Y-135185892D02*
X140535228Y-135193864D01*
X140535228Y-135193864D02*
X140573389Y-135219974D01*
X140573389Y-135219974D02*
X140602399Y-135242595D01*
X140602399Y-135242595D02*
X140616268Y-135257039D01*
X140616268Y-135257039D02*
X140616469Y-135257496D01*
X140616469Y-135257496D02*
X140613492Y-135273121D01*
X140613492Y-135273121D02*
X140601689Y-135308582D01*
X140601689Y-135308582D02*
X140582286Y-135360962D01*
X140582286Y-135360962D02*
X140556512Y-135427345D01*
X140556512Y-135427345D02*
X140525591Y-135504814D01*
X140525591Y-135504814D02*
X140490751Y-135590450D01*
X140490751Y-135590450D02*
X140453217Y-135681337D01*
X140453217Y-135681337D02*
X140414217Y-135774559D01*
X140414217Y-135774559D02*
X140374977Y-135867197D01*
X140374977Y-135867197D02*
X140336724Y-135956335D01*
X140336724Y-135956335D02*
X140300683Y-136039055D01*
X140300683Y-136039055D02*
X140268083Y-136112441D01*
X140268083Y-136112441D02*
X140240148Y-136173575D01*
X140240148Y-136173575D02*
X140218105Y-136219541D01*
X140218105Y-136219541D02*
X140203182Y-136247421D01*
X140203182Y-136247421D02*
X140197172Y-136254743D01*
X140197172Y-136254743D02*
X140178809Y-136249041D01*
X140178809Y-136249041D02*
X140144448Y-136233749D01*
X140144448Y-136233749D02*
X140100016Y-136211599D01*
X140100016Y-136211599D02*
X140075583Y-136198650D01*
X140075583Y-136198650D02*
X139971822Y-136142547D01*
X139971822Y-136142547D02*
X139848213Y-136226155D01*
X139848213Y-136226155D02*
X139785114Y-136268987D01*
X139785114Y-136268987D02*
X139716030Y-136316122D01*
X139716030Y-136316122D02*
X139651293Y-136360503D01*
X139651293Y-136360503D02*
X139618866Y-136382852D01*
X139618866Y-136382852D02*
X139573259Y-136413477D01*
X139573259Y-136413477D02*
X139534640Y-136437747D01*
X139534640Y-136437747D02*
X139508048Y-136452587D01*
X139508048Y-136452587D02*
X139499410Y-136455724D01*
X139499410Y-136455724D02*
X139486839Y-136447261D01*
X139486839Y-136447261D02*
X139459016Y-136423636D01*
X139459016Y-136423636D02*
X139418639Y-136387302D01*
X139418639Y-136387302D02*
X139368405Y-136340711D01*
X139368405Y-136340711D02*
X139311012Y-136286317D01*
X139311012Y-136286317D02*
X139274714Y-136251392D01*
X139274714Y-136251392D02*
X139211210Y-136188996D01*
X139211210Y-136188996D02*
X139156327Y-136133188D01*
X139156327Y-136133188D02*
X139112286Y-136086354D01*
X139112286Y-136086354D02*
X139081305Y-136050882D01*
X139081305Y-136050882D02*
X139065602Y-136029161D01*
X139065602Y-136029161D02*
X139064095Y-136024752D01*
X139064095Y-136024752D02*
X139071086Y-136007985D01*
X139071086Y-136007985D02*
X139090406Y-135974082D01*
X139090406Y-135974082D02*
X139119909Y-135926476D01*
X139119909Y-135926476D02*
X139157455Y-135868599D01*
X139157455Y-135868599D02*
X139200900Y-135803884D01*
X139200900Y-135803884D02*
X139213255Y-135785842D01*
X139213255Y-135785842D02*
X139258273Y-135720267D01*
X139258273Y-135720267D02*
X139298660Y-135661228D01*
X139298660Y-135661228D02*
X139332160Y-135612042D01*
X139332160Y-135612042D02*
X139356514Y-135576028D01*
X139356514Y-135576028D02*
X139369464Y-135556502D01*
X139369464Y-135556502D02*
X139370715Y-135554483D01*
X139370715Y-135554483D02*
X139368844Y-135538922D01*
X139368844Y-135538922D02*
X139358913Y-135504709D01*
X139358913Y-135504709D02*
X139342653Y-135456355D01*
X139342653Y-135456355D02*
X139321795Y-135398371D01*
X139321795Y-135398371D02*
X139298073Y-135335270D01*
X139298073Y-135335270D02*
X139273216Y-135271563D01*
X139273216Y-135271563D02*
X139248958Y-135211761D01*
X139248958Y-135211761D02*
X139227029Y-135160376D01*
X139227029Y-135160376D02*
X139209162Y-135121919D01*
X139209162Y-135121919D02*
X139197087Y-135100902D01*
X139197087Y-135100902D02*
X139196229Y-135099894D01*
X139196229Y-135099894D02*
X139188846Y-135093888D01*
X139188846Y-135093888D02*
X139176375Y-135087948D01*
X139176375Y-135087948D02*
X139156080Y-135081460D01*
X139156080Y-135081460D02*
X139125222Y-135073809D01*
X139125222Y-135073809D02*
X139081066Y-135064380D01*
X139081066Y-135064380D02*
X139020874Y-135052559D01*
X139020874Y-135052559D02*
X138941907Y-135037729D01*
X138941907Y-135037729D02*
X138841430Y-135019277D01*
X138841430Y-135019277D02*
X138819675Y-135015310D01*
X138819675Y-135015310D02*
X138755198Y-135002853D01*
X138755198Y-135002853D02*
X138698989Y-134990666D01*
X138698989Y-134990666D02*
X138656013Y-134979926D01*
X138656013Y-134979926D02*
X138631240Y-134971809D01*
X138631240Y-134971809D02*
X138627918Y-134969916D01*
X138627918Y-134969916D02*
X138622444Y-134953138D01*
X138622444Y-134953138D02*
X138617994Y-134915645D01*
X138617994Y-134915645D02*
X138614572Y-134861794D01*
X138614572Y-134861794D02*
X138612181Y-134795944D01*
X138612181Y-134795944D02*
X138610823Y-134722453D01*
X138610823Y-134722453D02*
X138610501Y-134645680D01*
X138610501Y-134645680D02*
X138611219Y-134569983D01*
X138611219Y-134569983D02*
X138612979Y-134499720D01*
X138612979Y-134499720D02*
X138615784Y-134439250D01*
X138615784Y-134439250D02*
X138619638Y-134392930D01*
X138619638Y-134392930D02*
X138624543Y-134365119D01*
X138624543Y-134365119D02*
X138627500Y-134359427D01*
X138627500Y-134359427D02*
X138643963Y-134353686D01*
X138643963Y-134353686D02*
X138681449Y-134344345D01*
X138681449Y-134344345D02*
X138736225Y-134332215D01*
X138736225Y-134332215D02*
X138804555Y-134318107D01*
X138804555Y-134318107D02*
X138882706Y-134302830D01*
X138882706Y-134302830D02*
X138925284Y-134294823D01*
X138925284Y-134294823D02*
X139006071Y-134279721D01*
X139006071Y-134279721D02*
X139078113Y-134266040D01*
X139078113Y-134266040D02*
X139137889Y-134254467D01*
X139137889Y-134254467D02*
X139181879Y-134245687D01*
X139181879Y-134245687D02*
X139206561Y-134240387D01*
X139206561Y-134240387D02*
X139210623Y-134239212D01*
X139210623Y-134239212D02*
X139217489Y-134225965D01*
X139217489Y-134225965D02*
X139232002Y-134194057D01*
X139232002Y-134194057D02*
X139252229Y-134148047D01*
X139252229Y-134148047D02*
X139276234Y-134092492D01*
X139276234Y-134092492D02*
X139302082Y-134031953D01*
X139302082Y-134031953D02*
X139327840Y-133970986D01*
X139327840Y-133970986D02*
X139351573Y-133914151D01*
X139351573Y-133914151D02*
X139371346Y-133866006D01*
X139371346Y-133866006D02*
X139385224Y-133831110D01*
X139385224Y-133831110D02*
X139391274Y-133814021D01*
X139391274Y-133814021D02*
X139391386Y-133813274D01*
X139391386Y-133813274D02*
X139384528Y-133799793D01*
X139384528Y-133799793D02*
X139365302Y-133768770D01*
X139365302Y-133768770D02*
X139335728Y-133723289D01*
X139335728Y-133723289D02*
X139297827Y-133666432D01*
X139297827Y-133666432D02*
X139253620Y-133601283D01*
X139253620Y-133601283D02*
X139227921Y-133563862D01*
X139227921Y-133563862D02*
X139181093Y-133495247D01*
X139181093Y-133495247D02*
X139139501Y-133432952D01*
X139139501Y-133432952D02*
X139105175Y-133380129D01*
X139105175Y-133380129D02*
X139080143Y-133339927D01*
X139080143Y-133339927D02*
X139066435Y-133315500D01*
X139066435Y-133315500D02*
X139064456Y-133310024D01*
X139064456Y-133310024D02*
X139072966Y-133297278D01*
X139072966Y-133297278D02*
X139096493Y-133270063D01*
X139096493Y-133270063D02*
X139132032Y-133231428D01*
X139132032Y-133231428D02*
X139176577Y-133184423D01*
X139176577Y-133184423D02*
X139227123Y-133132095D01*
X139227123Y-133132095D02*
X139280664Y-133077495D01*
X139280664Y-133077495D02*
X139334195Y-133023670D01*
X139334195Y-133023670D02*
X139384711Y-132973670D01*
X139384711Y-132973670D02*
X139429206Y-132930543D01*
X139429206Y-132930543D02*
X139464675Y-132897339D01*
X139464675Y-132897339D02*
X139488113Y-132877106D01*
X139488113Y-132877106D02*
X139495954Y-132872278D01*
X139495954Y-132872278D02*
X139508720Y-132879067D01*
X139508720Y-132879067D02*
X139539256Y-132898142D01*
X139539256Y-132898142D02*
X139584590Y-132927561D01*
X139584590Y-132927561D02*
X139641756Y-132965381D01*
X139641756Y-132965381D02*
X139707784Y-133009661D01*
X139707784Y-133009661D02*
X139757590Y-133043395D01*
X139757590Y-133043395D02*
X140009236Y-133214512D01*
X140009236Y-133214512D02*
X140218999Y-133128041D01*
X140218999Y-133128041D02*
X140428763Y-133041570D01*
X140428763Y-133041570D02*
X140485611Y-132740018D01*
X140485611Y-132740018D02*
X140542460Y-132438466D01*
X140542460Y-132438466D02*
X141170115Y-132438466D01*
X141170115Y-132438466D02*
X141226964Y-132740018D01*
X141226964Y-132740018D02*
X141226964Y-132740018D01*
G36*
X141226964Y-132740018D02*
G01*
X141283812Y-133041570D01*
X141703338Y-133214512D01*
X141954984Y-133043395D01*
X142025458Y-132995750D01*
X142089163Y-132953210D01*
X142143126Y-132917715D01*
X142184373Y-132891210D01*
X142209934Y-132875636D01*
X142216895Y-132872278D01*
X142229435Y-132880914D01*
X142256231Y-132904792D01*
X142294280Y-132940859D01*
X142340579Y-132986067D01*
X142392123Y-133037364D01*
X142445909Y-133091701D01*
X142498935Y-133146028D01*
X142548195Y-133197295D01*
X142590687Y-133242451D01*
X142623407Y-133278446D01*
X142643351Y-133302230D01*
X142648119Y-133310190D01*
X142641257Y-133324865D01*
X142622020Y-133357014D01*
X142592430Y-133403492D01*
X142554510Y-133461156D01*
X142510282Y-133526860D01*
X142484654Y-133564336D01*
X142437941Y-133632768D01*
X142396432Y-133694520D01*
X142362140Y-133746519D01*
X142337080Y-133785692D01*
X142323264Y-133808965D01*
X142321188Y-133813855D01*
X142325895Y-133827755D01*
X142338723Y-133860150D01*
X142357738Y-133906485D01*
X142381003Y-133962206D01*
X142406584Y-134022758D01*
X142432545Y-134083586D01*
X142456950Y-134140136D01*
X142477863Y-134187852D01*
X142493349Y-134222181D01*
X142501472Y-134238568D01*
X142501952Y-134239212D01*
X142514707Y-134242341D01*
X142548677Y-134249321D01*
X142600340Y-134259467D01*
X142666176Y-134272092D01*
X142742664Y-134286509D01*
X142787290Y-134294823D01*
X142869021Y-134310384D01*
X142942843Y-134325192D01*
X143005021Y-134338436D01*
X143051822Y-134349305D01*
X143079509Y-134356989D01*
X143085074Y-134359427D01*
X143090526Y-134375930D01*
X143094924Y-134413200D01*
X143098272Y-134466880D01*
X143100574Y-134532612D01*
X143101832Y-134606037D01*
X143102048Y-134682796D01*
X143101227Y-134758532D01*
X143099371Y-134828886D01*
X143096482Y-134889500D01*
X143092565Y-134936016D01*
X143087622Y-134964075D01*
X143084657Y-134969916D01*
X143066934Y-134976917D01*
X143029381Y-134986927D01*
X142976964Y-134998769D01*
X142914652Y-135011267D01*
X142892900Y-135015310D01*
X142788024Y-135034520D01*
X142705180Y-135049991D01*
X142641630Y-135062337D01*
X142594637Y-135072173D01*
X142561463Y-135080114D01*
X142539371Y-135086776D01*
X142525624Y-135092773D01*
X142517484Y-135098719D01*
X142516345Y-135099894D01*
X142504977Y-135118826D01*
X142487635Y-135155669D01*
X142466050Y-135205913D01*
X142441954Y-135265046D01*
X142417079Y-135328556D01*
X142393157Y-135391932D01*
X142371919Y-135450662D01*
X142355097Y-135500235D01*
X142344422Y-135536139D01*
X142341627Y-135553862D01*
X142341860Y-135554483D01*
X142351331Y-135568970D01*
X142372818Y-135600844D01*
X142404063Y-135646789D01*
X142442807Y-135703485D01*
X142486793Y-135767617D01*
X142499319Y-135785842D01*
X142543984Y-135851914D01*
X142583288Y-135912200D01*
X142615088Y-135963235D01*
X142637245Y-136001560D01*
X142647617Y-136023711D01*
X142648119Y-136026432D01*
X142639405Y-136040736D01*
X142615325Y-136069072D01*
X142578976Y-136108396D01*
X142533453Y-136155661D01*
X142481852Y-136207823D01*
X142427267Y-136261835D01*
X142372794Y-136314653D01*
X142321529Y-136363231D01*
X142276567Y-136404523D01*
X142241004Y-136435485D01*
X142217935Y-136453070D01*
X142211554Y-136455941D01*
X142196699Y-136449178D01*
X142166286Y-136430939D01*
X142125268Y-136404297D01*
X142093709Y-136382852D01*
X142036525Y-136343503D01*
X141968806Y-136297171D01*
X141900880Y-136250913D01*
X141864361Y-136226155D01*
X141740752Y-136142547D01*
X141636991Y-136198650D01*
X141589720Y-136223228D01*
X141549523Y-136242331D01*
X141522326Y-136253227D01*
X141515402Y-136254743D01*
X141507077Y-136243549D01*
X141490654Y-136211917D01*
X141467357Y-136162765D01*
X141438414Y-136099010D01*
X141405050Y-136023571D01*
X141368491Y-135939364D01*
X141329964Y-135849308D01*
X141290694Y-135756321D01*
X141251908Y-135663320D01*
X141214830Y-135573223D01*
X141180689Y-135488948D01*
X141150708Y-135413413D01*
X141126116Y-135349534D01*
X141108136Y-135300231D01*
X141097997Y-135268421D01*
X141096366Y-135257496D01*
X141109291Y-135243561D01*
X141137589Y-135220940D01*
X141175346Y-135194333D01*
X141178515Y-135192228D01*
X141276100Y-135114114D01*
X141354786Y-135022982D01*
X141413891Y-134921745D01*
X141452732Y-134813318D01*
X141470628Y-134700614D01*
X141466897Y-134586548D01*
X141440857Y-134474034D01*
X141391825Y-134365985D01*
X141377400Y-134342345D01*
X141302369Y-134246887D01*
X141213730Y-134170232D01*
X141114549Y-134112780D01*
X141007895Y-134074929D01*
X140896836Y-134057078D01*
X140784439Y-134059625D01*
X140673773Y-134082970D01*
X140567906Y-134127510D01*
X140469905Y-134193645D01*
X140439590Y-134220487D01*
X140362438Y-134304512D01*
X140306218Y-134392966D01*
X140267653Y-134492115D01*
X140246174Y-134590303D01*
X140240872Y-134700697D01*
X140258552Y-134811640D01*
X140297419Y-134919381D01*
X140355677Y-135020169D01*
X140431531Y-135110256D01*
X140523183Y-135185892D01*
X140535228Y-135193864D01*
X140573389Y-135219974D01*
X140602399Y-135242595D01*
X140616268Y-135257039D01*
X140616469Y-135257496D01*
X140613492Y-135273121D01*
X140601689Y-135308582D01*
X140582286Y-135360962D01*
X140556512Y-135427345D01*
X140525591Y-135504814D01*
X140490751Y-135590450D01*
X140453217Y-135681337D01*
X140414217Y-135774559D01*
X140374977Y-135867197D01*
X140336724Y-135956335D01*
X140300683Y-136039055D01*
X140268083Y-136112441D01*
X140240148Y-136173575D01*
X140218105Y-136219541D01*
X140203182Y-136247421D01*
X140197172Y-136254743D01*
X140178809Y-136249041D01*
X140144448Y-136233749D01*
X140100016Y-136211599D01*
X140075583Y-136198650D01*
X139971822Y-136142547D01*
X139848213Y-136226155D01*
X139785114Y-136268987D01*
X139716030Y-136316122D01*
X139651293Y-136360503D01*
X139618866Y-136382852D01*
X139573259Y-136413477D01*
X139534640Y-136437747D01*
X139508048Y-136452587D01*
X139499410Y-136455724D01*
X139486839Y-136447261D01*
X139459016Y-136423636D01*
X139418639Y-136387302D01*
X139368405Y-136340711D01*
X139311012Y-136286317D01*
X139274714Y-136251392D01*
X139211210Y-136188996D01*
X139156327Y-136133188D01*
X139112286Y-136086354D01*
X139081305Y-136050882D01*
X139065602Y-136029161D01*
X139064095Y-136024752D01*
X139071086Y-136007985D01*
X139090406Y-135974082D01*
X139119909Y-135926476D01*
X139157455Y-135868599D01*
X139200900Y-135803884D01*
X139213255Y-135785842D01*
X139258273Y-135720267D01*
X139298660Y-135661228D01*
X139332160Y-135612042D01*
X139356514Y-135576028D01*
X139369464Y-135556502D01*
X139370715Y-135554483D01*
X139368844Y-135538922D01*
X139358913Y-135504709D01*
X139342653Y-135456355D01*
X139321795Y-135398371D01*
X139298073Y-135335270D01*
X139273216Y-135271563D01*
X139248958Y-135211761D01*
X139227029Y-135160376D01*
X139209162Y-135121919D01*
X139197087Y-135100902D01*
X139196229Y-135099894D01*
X139188846Y-135093888D01*
X139176375Y-135087948D01*
X139156080Y-135081460D01*
X139125222Y-135073809D01*
X139081066Y-135064380D01*
X139020874Y-135052559D01*
X138941907Y-135037729D01*
X138841430Y-135019277D01*
X138819675Y-135015310D01*
X138755198Y-135002853D01*
X138698989Y-134990666D01*
X138656013Y-134979926D01*
X138631240Y-134971809D01*
X138627918Y-134969916D01*
X138622444Y-134953138D01*
X138617994Y-134915645D01*
X138614572Y-134861794D01*
X138612181Y-134795944D01*
X138610823Y-134722453D01*
X138610501Y-134645680D01*
X138611219Y-134569983D01*
X138612979Y-134499720D01*
X138615784Y-134439250D01*
X138619638Y-134392930D01*
X138624543Y-134365119D01*
X138627500Y-134359427D01*
X138643963Y-134353686D01*
X138681449Y-134344345D01*
X138736225Y-134332215D01*
X138804555Y-134318107D01*
X138882706Y-134302830D01*
X138925284Y-134294823D01*
X139006071Y-134279721D01*
X139078113Y-134266040D01*
X139137889Y-134254467D01*
X139181879Y-134245687D01*
X139206561Y-134240387D01*
X139210623Y-134239212D01*
X139217489Y-134225965D01*
X139232002Y-134194057D01*
X139252229Y-134148047D01*
X139276234Y-134092492D01*
X139302082Y-134031953D01*
X139327840Y-133970986D01*
X139351573Y-133914151D01*
X139371346Y-133866006D01*
X139385224Y-133831110D01*
X139391274Y-133814021D01*
X139391386Y-133813274D01*
X139384528Y-133799793D01*
X139365302Y-133768770D01*
X139335728Y-133723289D01*
X139297827Y-133666432D01*
X139253620Y-133601283D01*
X139227921Y-133563862D01*
X139181093Y-133495247D01*
X139139501Y-133432952D01*
X139105175Y-133380129D01*
X139080143Y-133339927D01*
X139066435Y-133315500D01*
X139064456Y-133310024D01*
X139072966Y-133297278D01*
X139096493Y-133270063D01*
X139132032Y-133231428D01*
X139176577Y-133184423D01*
X139227123Y-133132095D01*
X139280664Y-133077495D01*
X139334195Y-133023670D01*
X139384711Y-132973670D01*
X139429206Y-132930543D01*
X139464675Y-132897339D01*
X139488113Y-132877106D01*
X139495954Y-132872278D01*
X139508720Y-132879067D01*
X139539256Y-132898142D01*
X139584590Y-132927561D01*
X139641756Y-132965381D01*
X139707784Y-133009661D01*
X139757590Y-133043395D01*
X140009236Y-133214512D01*
X140218999Y-133128041D01*
X140428763Y-133041570D01*
X140485611Y-132740018D01*
X140542460Y-132438466D01*
X141170115Y-132438466D01*
X141226964Y-132740018D01*
G37*
X141226964Y-132740018D02*
X141283812Y-133041570D01*
X141703338Y-133214512D01*
X141954984Y-133043395D01*
X142025458Y-132995750D01*
X142089163Y-132953210D01*
X142143126Y-132917715D01*
X142184373Y-132891210D01*
X142209934Y-132875636D01*
X142216895Y-132872278D01*
X142229435Y-132880914D01*
X142256231Y-132904792D01*
X142294280Y-132940859D01*
X142340579Y-132986067D01*
X142392123Y-133037364D01*
X142445909Y-133091701D01*
X142498935Y-133146028D01*
X142548195Y-133197295D01*
X142590687Y-133242451D01*
X142623407Y-133278446D01*
X142643351Y-133302230D01*
X142648119Y-133310190D01*
X142641257Y-133324865D01*
X142622020Y-133357014D01*
X142592430Y-133403492D01*
X142554510Y-133461156D01*
X142510282Y-133526860D01*
X142484654Y-133564336D01*
X142437941Y-133632768D01*
X142396432Y-133694520D01*
X142362140Y-133746519D01*
X142337080Y-133785692D01*
X142323264Y-133808965D01*
X142321188Y-133813855D01*
X142325895Y-133827755D01*
X142338723Y-133860150D01*
X142357738Y-133906485D01*
X142381003Y-133962206D01*
X142406584Y-134022758D01*
X142432545Y-134083586D01*
X142456950Y-134140136D01*
X142477863Y-134187852D01*
X142493349Y-134222181D01*
X142501472Y-134238568D01*
X142501952Y-134239212D01*
X142514707Y-134242341D01*
X142548677Y-134249321D01*
X142600340Y-134259467D01*
X142666176Y-134272092D01*
X142742664Y-134286509D01*
X142787290Y-134294823D01*
X142869021Y-134310384D01*
X142942843Y-134325192D01*
X143005021Y-134338436D01*
X143051822Y-134349305D01*
X143079509Y-134356989D01*
X143085074Y-134359427D01*
X143090526Y-134375930D01*
X143094924Y-134413200D01*
X143098272Y-134466880D01*
X143100574Y-134532612D01*
X143101832Y-134606037D01*
X143102048Y-134682796D01*
X143101227Y-134758532D01*
X143099371Y-134828886D01*
X143096482Y-134889500D01*
X143092565Y-134936016D01*
X143087622Y-134964075D01*
X143084657Y-134969916D01*
X143066934Y-134976917D01*
X143029381Y-134986927D01*
X142976964Y-134998769D01*
X142914652Y-135011267D01*
X142892900Y-135015310D01*
X142788024Y-135034520D01*
X142705180Y-135049991D01*
X142641630Y-135062337D01*
X142594637Y-135072173D01*
X142561463Y-135080114D01*
X142539371Y-135086776D01*
X142525624Y-135092773D01*
X142517484Y-135098719D01*
X142516345Y-135099894D01*
X142504977Y-135118826D01*
X142487635Y-135155669D01*
X142466050Y-135205913D01*
X142441954Y-135265046D01*
X142417079Y-135328556D01*
X142393157Y-135391932D01*
X142371919Y-135450662D01*
X142355097Y-135500235D01*
X142344422Y-135536139D01*
X142341627Y-135553862D01*
X142341860Y-135554483D01*
X142351331Y-135568970D01*
X142372818Y-135600844D01*
X142404063Y-135646789D01*
X142442807Y-135703485D01*
X142486793Y-135767617D01*
X142499319Y-135785842D01*
X142543984Y-135851914D01*
X142583288Y-135912200D01*
X142615088Y-135963235D01*
X142637245Y-136001560D01*
X142647617Y-136023711D01*
X142648119Y-136026432D01*
X142639405Y-136040736D01*
X142615325Y-136069072D01*
X142578976Y-136108396D01*
X142533453Y-136155661D01*
X142481852Y-136207823D01*
X142427267Y-136261835D01*
X142372794Y-136314653D01*
X142321529Y-136363231D01*
X142276567Y-136404523D01*
X142241004Y-136435485D01*
X142217935Y-136453070D01*
X142211554Y-136455941D01*
X142196699Y-136449178D01*
X142166286Y-136430939D01*
X142125268Y-136404297D01*
X142093709Y-136382852D01*
X142036525Y-136343503D01*
X141968806Y-136297171D01*
X141900880Y-136250913D01*
X141864361Y-136226155D01*
X141740752Y-136142547D01*
X141636991Y-136198650D01*
X141589720Y-136223228D01*
X141549523Y-136242331D01*
X141522326Y-136253227D01*
X141515402Y-136254743D01*
X141507077Y-136243549D01*
X141490654Y-136211917D01*
X141467357Y-136162765D01*
X141438414Y-136099010D01*
X141405050Y-136023571D01*
X141368491Y-135939364D01*
X141329964Y-135849308D01*
X141290694Y-135756321D01*
X141251908Y-135663320D01*
X141214830Y-135573223D01*
X141180689Y-135488948D01*
X141150708Y-135413413D01*
X141126116Y-135349534D01*
X141108136Y-135300231D01*
X141097997Y-135268421D01*
X141096366Y-135257496D01*
X141109291Y-135243561D01*
X141137589Y-135220940D01*
X141175346Y-135194333D01*
X141178515Y-135192228D01*
X141276100Y-135114114D01*
X141354786Y-135022982D01*
X141413891Y-134921745D01*
X141452732Y-134813318D01*
X141470628Y-134700614D01*
X141466897Y-134586548D01*
X141440857Y-134474034D01*
X141391825Y-134365985D01*
X141377400Y-134342345D01*
X141302369Y-134246887D01*
X141213730Y-134170232D01*
X141114549Y-134112780D01*
X141007895Y-134074929D01*
X140896836Y-134057078D01*
X140784439Y-134059625D01*
X140673773Y-134082970D01*
X140567906Y-134127510D01*
X140469905Y-134193645D01*
X140439590Y-134220487D01*
X140362438Y-134304512D01*
X140306218Y-134392966D01*
X140267653Y-134492115D01*
X140246174Y-134590303D01*
X140240872Y-134700697D01*
X140258552Y-134811640D01*
X140297419Y-134919381D01*
X140355677Y-135020169D01*
X140431531Y-135110256D01*
X140523183Y-135185892D01*
X140535228Y-135193864D01*
X140573389Y-135219974D01*
X140602399Y-135242595D01*
X140616268Y-135257039D01*
X140616469Y-135257496D01*
X140613492Y-135273121D01*
X140601689Y-135308582D01*
X140582286Y-135360962D01*
X140556512Y-135427345D01*
X140525591Y-135504814D01*
X140490751Y-135590450D01*
X140453217Y-135681337D01*
X140414217Y-135774559D01*
X140374977Y-135867197D01*
X140336724Y-135956335D01*
X140300683Y-136039055D01*
X140268083Y-136112441D01*
X140240148Y-136173575D01*
X140218105Y-136219541D01*
X140203182Y-136247421D01*
X140197172Y-136254743D01*
X140178809Y-136249041D01*
X140144448Y-136233749D01*
X140100016Y-136211599D01*
X140075583Y-136198650D01*
X139971822Y-136142547D01*
X139848213Y-136226155D01*
X139785114Y-136268987D01*
X139716030Y-136316122D01*
X139651293Y-136360503D01*
X139618866Y-136382852D01*
X139573259Y-136413477D01*
X139534640Y-136437747D01*
X139508048Y-136452587D01*
X139499410Y-136455724D01*
X139486839Y-136447261D01*
X139459016Y-136423636D01*
X139418639Y-136387302D01*
X139368405Y-136340711D01*
X139311012Y-136286317D01*
X139274714Y-136251392D01*
X139211210Y-136188996D01*
X139156327Y-136133188D01*
X139112286Y-136086354D01*
X139081305Y-136050882D01*
X139065602Y-136029161D01*
X139064095Y-136024752D01*
X139071086Y-136007985D01*
X139090406Y-135974082D01*
X139119909Y-135926476D01*
X139157455Y-135868599D01*
X139200900Y-135803884D01*
X139213255Y-135785842D01*
X139258273Y-135720267D01*
X139298660Y-135661228D01*
X139332160Y-135612042D01*
X139356514Y-135576028D01*
X139369464Y-135556502D01*
X139370715Y-135554483D01*
X139368844Y-135538922D01*
X139358913Y-135504709D01*
X139342653Y-135456355D01*
X139321795Y-135398371D01*
X139298073Y-135335270D01*
X139273216Y-135271563D01*
X139248958Y-135211761D01*
X139227029Y-135160376D01*
X139209162Y-135121919D01*
X139197087Y-135100902D01*
X139196229Y-135099894D01*
X139188846Y-135093888D01*
X139176375Y-135087948D01*
X139156080Y-135081460D01*
X139125222Y-135073809D01*
X139081066Y-135064380D01*
X139020874Y-135052559D01*
X138941907Y-135037729D01*
X138841430Y-135019277D01*
X138819675Y-135015310D01*
X138755198Y-135002853D01*
X138698989Y-134990666D01*
X138656013Y-134979926D01*
X138631240Y-134971809D01*
X138627918Y-134969916D01*
X138622444Y-134953138D01*
X138617994Y-134915645D01*
X138614572Y-134861794D01*
X138612181Y-134795944D01*
X138610823Y-134722453D01*
X138610501Y-134645680D01*
X138611219Y-134569983D01*
X138612979Y-134499720D01*
X138615784Y-134439250D01*
X138619638Y-134392930D01*
X138624543Y-134365119D01*
X138627500Y-134359427D01*
X138643963Y-134353686D01*
X138681449Y-134344345D01*
X138736225Y-134332215D01*
X138804555Y-134318107D01*
X138882706Y-134302830D01*
X138925284Y-134294823D01*
X139006071Y-134279721D01*
X139078113Y-134266040D01*
X139137889Y-134254467D01*
X139181879Y-134245687D01*
X139206561Y-134240387D01*
X139210623Y-134239212D01*
X139217489Y-134225965D01*
X139232002Y-134194057D01*
X139252229Y-134148047D01*
X139276234Y-134092492D01*
X139302082Y-134031953D01*
X139327840Y-133970986D01*
X139351573Y-133914151D01*
X139371346Y-133866006D01*
X139385224Y-133831110D01*
X139391274Y-133814021D01*
X139391386Y-133813274D01*
X139384528Y-133799793D01*
X139365302Y-133768770D01*
X139335728Y-133723289D01*
X139297827Y-133666432D01*
X139253620Y-133601283D01*
X139227921Y-133563862D01*
X139181093Y-133495247D01*
X139139501Y-133432952D01*
X139105175Y-133380129D01*
X139080143Y-133339927D01*
X139066435Y-133315500D01*
X139064456Y-133310024D01*
X139072966Y-133297278D01*
X139096493Y-133270063D01*
X139132032Y-133231428D01*
X139176577Y-133184423D01*
X139227123Y-133132095D01*
X139280664Y-133077495D01*
X139334195Y-133023670D01*
X139384711Y-132973670D01*
X139429206Y-132930543D01*
X139464675Y-132897339D01*
X139488113Y-132877106D01*
X139495954Y-132872278D01*
X139508720Y-132879067D01*
X139539256Y-132898142D01*
X139584590Y-132927561D01*
X139641756Y-132965381D01*
X139707784Y-133009661D01*
X139757590Y-133043395D01*
X140009236Y-133214512D01*
X140218999Y-133128041D01*
X140428763Y-133041570D01*
X140485611Y-132740018D01*
X140542460Y-132438466D01*
X141170115Y-132438466D01*
X141226964Y-132740018D01*
X140864017Y-136906452D02*
X140911634Y-136915482D01*
X140911634Y-136915482D02*
X140961034Y-136934370D01*
X140961034Y-136934370D02*
X140966312Y-136936777D01*
X140966312Y-136936777D02*
X141003774Y-136956476D01*
X141003774Y-136956476D02*
X141029717Y-136974781D01*
X141029717Y-136974781D02*
X141038103Y-136986508D01*
X141038103Y-136986508D02*
X141030117Y-137005632D01*
X141030117Y-137005632D02*
X141010720Y-137033850D01*
X141010720Y-137033850D02*
X141002110Y-137044384D01*
X141002110Y-137044384D02*
X140966628Y-137085847D01*
X140966628Y-137085847D02*
X140920885Y-137058858D01*
X140920885Y-137058858D02*
X140877350Y-137040878D01*
X140877350Y-137040878D02*
X140827050Y-137031267D01*
X140827050Y-137031267D02*
X140778812Y-137030660D01*
X140778812Y-137030660D02*
X140741467Y-137039691D01*
X140741467Y-137039691D02*
X140732505Y-137045327D01*
X140732505Y-137045327D02*
X140715437Y-137071171D01*
X140715437Y-137071171D02*
X140713363Y-137100941D01*
X140713363Y-137100941D02*
X140726134Y-137124197D01*
X140726134Y-137124197D02*
X140733688Y-137128708D01*
X140733688Y-137128708D02*
X140756325Y-137134309D01*
X140756325Y-137134309D02*
X140796115Y-137140892D01*
X140796115Y-137140892D02*
X140845166Y-137147183D01*
X140845166Y-137147183D02*
X140854215Y-137148170D01*
X140854215Y-137148170D02*
X140932996Y-137161798D01*
X140932996Y-137161798D02*
X140990136Y-137184946D01*
X140990136Y-137184946D02*
X141028030Y-137219752D01*
X141028030Y-137219752D02*
X141049079Y-137268354D01*
X141049079Y-137268354D02*
X141055635Y-137327718D01*
X141055635Y-137327718D02*
X141046577Y-137395198D01*
X141046577Y-137395198D02*
X141017164Y-137448188D01*
X141017164Y-137448188D02*
X140967278Y-137486783D01*
X140967278Y-137486783D02*
X140896800Y-137511081D01*
X140896800Y-137511081D02*
X140818565Y-137520667D01*
X140818565Y-137520667D02*
X140754766Y-137520552D01*
X140754766Y-137520552D02*
X140703016Y-137511845D01*
X140703016Y-137511845D02*
X140667673Y-137499825D01*
X140667673Y-137499825D02*
X140623017Y-137478880D01*
X140623017Y-137478880D02*
X140581747Y-137454574D01*
X140581747Y-137454574D02*
X140567079Y-137443876D01*
X140567079Y-137443876D02*
X140529357Y-137413084D01*
X140529357Y-137413084D02*
X140574852Y-137367049D01*
X140574852Y-137367049D02*
X140620347Y-137321013D01*
X140620347Y-137321013D02*
X140672072Y-137355243D01*
X140672072Y-137355243D02*
X140723952Y-137380952D01*
X140723952Y-137380952D02*
X140779351Y-137394399D01*
X140779351Y-137394399D02*
X140832605Y-137395818D01*
X140832605Y-137395818D02*
X140878049Y-137385443D01*
X140878049Y-137385443D02*
X140910016Y-137363507D01*
X140910016Y-137363507D02*
X140920338Y-137344998D01*
X140920338Y-137344998D02*
X140918789Y-137315314D01*
X140918789Y-137315314D02*
X140893140Y-137292615D01*
X140893140Y-137292615D02*
X140843460Y-137276940D01*
X140843460Y-137276940D02*
X140789031Y-137269695D01*
X140789031Y-137269695D02*
X140705264Y-137255873D01*
X140705264Y-137255873D02*
X140643033Y-137229796D01*
X140643033Y-137229796D02*
X140601507Y-137190699D01*
X140601507Y-137190699D02*
X140579853Y-137137820D01*
X140579853Y-137137820D02*
X140576853Y-137075126D01*
X140576853Y-137075126D02*
X140591671Y-137009642D01*
X140591671Y-137009642D02*
X140625454Y-136960144D01*
X140625454Y-136960144D02*
X140678505Y-136926408D01*
X140678505Y-136926408D02*
X140751126Y-136908207D01*
X140751126Y-136908207D02*
X140804928Y-136904639D01*
X140804928Y-136904639D02*
X140864017Y-136906452D01*
X140864017Y-136906452D02*
X140864017Y-136906452D01*
G36*
X140864017Y-136906452D02*
G01*
X140911634Y-136915482D01*
X140961034Y-136934370D01*
X140966312Y-136936777D01*
X141003774Y-136956476D01*
X141029717Y-136974781D01*
X141038103Y-136986508D01*
X141030117Y-137005632D01*
X141010720Y-137033850D01*
X141002110Y-137044384D01*
X140966628Y-137085847D01*
X140920885Y-137058858D01*
X140877350Y-137040878D01*
X140827050Y-137031267D01*
X140778812Y-137030660D01*
X140741467Y-137039691D01*
X140732505Y-137045327D01*
X140715437Y-137071171D01*
X140713363Y-137100941D01*
X140726134Y-137124197D01*
X140733688Y-137128708D01*
X140756325Y-137134309D01*
X140796115Y-137140892D01*
X140845166Y-137147183D01*
X140854215Y-137148170D01*
X140932996Y-137161798D01*
X140990136Y-137184946D01*
X141028030Y-137219752D01*
X141049079Y-137268354D01*
X141055635Y-137327718D01*
X141046577Y-137395198D01*
X141017164Y-137448188D01*
X140967278Y-137486783D01*
X140896800Y-137511081D01*
X140818565Y-137520667D01*
X140754766Y-137520552D01*
X140703016Y-137511845D01*
X140667673Y-137499825D01*
X140623017Y-137478880D01*
X140581747Y-137454574D01*
X140567079Y-137443876D01*
X140529357Y-137413084D01*
X140574852Y-137367049D01*
X140620347Y-137321013D01*
X140672072Y-137355243D01*
X140723952Y-137380952D01*
X140779351Y-137394399D01*
X140832605Y-137395818D01*
X140878049Y-137385443D01*
X140910016Y-137363507D01*
X140920338Y-137344998D01*
X140918789Y-137315314D01*
X140893140Y-137292615D01*
X140843460Y-137276940D01*
X140789031Y-137269695D01*
X140705264Y-137255873D01*
X140643033Y-137229796D01*
X140601507Y-137190699D01*
X140579853Y-137137820D01*
X140576853Y-137075126D01*
X140591671Y-137009642D01*
X140625454Y-136960144D01*
X140678505Y-136926408D01*
X140751126Y-136908207D01*
X140804928Y-136904639D01*
X140864017Y-136906452D01*
G37*
X140864017Y-136906452D02*
X140911634Y-136915482D01*
X140961034Y-136934370D01*
X140966312Y-136936777D01*
X141003774Y-136956476D01*
X141029717Y-136974781D01*
X141038103Y-136986508D01*
X141030117Y-137005632D01*
X141010720Y-137033850D01*
X141002110Y-137044384D01*
X140966628Y-137085847D01*
X140920885Y-137058858D01*
X140877350Y-137040878D01*
X140827050Y-137031267D01*
X140778812Y-137030660D01*
X140741467Y-137039691D01*
X140732505Y-137045327D01*
X140715437Y-137071171D01*
X140713363Y-137100941D01*
X140726134Y-137124197D01*
X140733688Y-137128708D01*
X140756325Y-137134309D01*
X140796115Y-137140892D01*
X140845166Y-137147183D01*
X140854215Y-137148170D01*
X140932996Y-137161798D01*
X140990136Y-137184946D01*
X141028030Y-137219752D01*
X141049079Y-137268354D01*
X141055635Y-137327718D01*
X141046577Y-137395198D01*
X141017164Y-137448188D01*
X140967278Y-137486783D01*
X140896800Y-137511081D01*
X140818565Y-137520667D01*
X140754766Y-137520552D01*
X140703016Y-137511845D01*
X140667673Y-137499825D01*
X140623017Y-137478880D01*
X140581747Y-137454574D01*
X140567079Y-137443876D01*
X140529357Y-137413084D01*
X140574852Y-137367049D01*
X140620347Y-137321013D01*
X140672072Y-137355243D01*
X140723952Y-137380952D01*
X140779351Y-137394399D01*
X140832605Y-137395818D01*
X140878049Y-137385443D01*
X140910016Y-137363507D01*
X140920338Y-137344998D01*
X140918789Y-137315314D01*
X140893140Y-137292615D01*
X140843460Y-137276940D01*
X140789031Y-137269695D01*
X140705264Y-137255873D01*
X140643033Y-137229796D01*
X140601507Y-137190699D01*
X140579853Y-137137820D01*
X140576853Y-137075126D01*
X140591671Y-137009642D01*
X140625454Y-136960144D01*
X140678505Y-136926408D01*
X140751126Y-136908207D01*
X140804928Y-136904639D01*
X140864017Y-136906452D01*
X140648812Y-138467822D02*
X140579654Y-138467822D01*
X140579654Y-138467822D02*
X140539512Y-138466645D01*
X140539512Y-138466645D02*
X140518606Y-138461772D01*
X140518606Y-138461772D02*
X140511078Y-138451186D01*
X140511078Y-138451186D02*
X140510495Y-138444029D01*
X140510495Y-138444029D02*
X140509226Y-138429676D01*
X140509226Y-138429676D02*
X140501221Y-138426923D01*
X140501221Y-138426923D02*
X140480185Y-138435771D01*
X140480185Y-138435771D02*
X140463827Y-138444029D01*
X140463827Y-138444029D02*
X140401023Y-138463597D01*
X140401023Y-138463597D02*
X140332752Y-138464729D01*
X140332752Y-138464729D02*
X140277248Y-138450135D01*
X140277248Y-138450135D02*
X140225562Y-138414877D01*
X140225562Y-138414877D02*
X140186162Y-138362835D01*
X140186162Y-138362835D02*
X140164587Y-138301450D01*
X140164587Y-138301450D02*
X140164038Y-138298018D01*
X140164038Y-138298018D02*
X140160833Y-138260571D01*
X140160833Y-138260571D02*
X140159239Y-138206813D01*
X140159239Y-138206813D02*
X140159367Y-138166155D01*
X140159367Y-138166155D02*
X140296721Y-138166155D01*
X140296721Y-138166155D02*
X140299903Y-138220194D01*
X140299903Y-138220194D02*
X140307141Y-138264735D01*
X140307141Y-138264735D02*
X140316940Y-138289888D01*
X140316940Y-138289888D02*
X140354011Y-138324260D01*
X140354011Y-138324260D02*
X140398026Y-138336582D01*
X140398026Y-138336582D02*
X140443416Y-138326618D01*
X140443416Y-138326618D02*
X140482203Y-138296895D01*
X140482203Y-138296895D02*
X140496892Y-138276905D01*
X140496892Y-138276905D02*
X140505481Y-138253050D01*
X140505481Y-138253050D02*
X140509504Y-138218230D01*
X140509504Y-138218230D02*
X140510495Y-138165930D01*
X140510495Y-138165930D02*
X140508722Y-138114139D01*
X140508722Y-138114139D02*
X140504037Y-138068634D01*
X140504037Y-138068634D02*
X140497397Y-138038181D01*
X140497397Y-138038181D02*
X140496290Y-138035452D01*
X140496290Y-138035452D02*
X140469509Y-138003000D01*
X140469509Y-138003000D02*
X140430421Y-137985183D01*
X140430421Y-137985183D02*
X140386685Y-137982306D01*
X140386685Y-137982306D02*
X140345962Y-137994674D01*
X140345962Y-137994674D02*
X140315913Y-138022593D01*
X140315913Y-138022593D02*
X140312796Y-138028148D01*
X140312796Y-138028148D02*
X140303039Y-138062022D01*
X140303039Y-138062022D02*
X140297723Y-138110728D01*
X140297723Y-138110728D02*
X140296721Y-138166155D01*
X140296721Y-138166155D02*
X140159367Y-138166155D01*
X140159367Y-138166155D02*
X140159432Y-138145540D01*
X140159432Y-138145540D02*
X140160336Y-138112563D01*
X140160336Y-138112563D02*
X140166486Y-138030981D01*
X140166486Y-138030981D02*
X140179267Y-137969730D01*
X140179267Y-137969730D02*
X140200529Y-137924449D01*
X140200529Y-137924449D02*
X140232122Y-137890779D01*
X140232122Y-137890779D02*
X140262793Y-137871014D01*
X140262793Y-137871014D02*
X140305646Y-137857120D01*
X140305646Y-137857120D02*
X140358944Y-137852354D01*
X140358944Y-137852354D02*
X140413520Y-137856236D01*
X140413520Y-137856236D02*
X140460208Y-137868282D01*
X140460208Y-137868282D02*
X140484876Y-137882693D01*
X140484876Y-137882693D02*
X140510495Y-137905878D01*
X140510495Y-137905878D02*
X140510495Y-137612773D01*
X140510495Y-137612773D02*
X140648812Y-137612773D01*
X140648812Y-137612773D02*
X140648812Y-138467822D01*
X140648812Y-138467822D02*
X140648812Y-138467822D01*
G36*
X140160336Y-138112563D02*
G01*
X140166486Y-138030981D01*
X140179267Y-137969730D01*
X140200529Y-137924449D01*
X140232122Y-137890779D01*
X140262793Y-137871014D01*
X140305646Y-137857120D01*
X140358944Y-137852354D01*
X140413520Y-137856236D01*
X140460208Y-137868282D01*
X140484876Y-137882693D01*
X140510495Y-137905878D01*
X140510495Y-137612773D01*
X140648812Y-137612773D01*
X140648812Y-138467822D01*
X140579654Y-138467822D01*
X140539512Y-138466645D01*
X140518606Y-138461772D01*
X140511078Y-138451186D01*
X140510495Y-138444029D01*
X140509226Y-138429676D01*
X140501221Y-138426923D01*
X140480185Y-138435771D01*
X140463827Y-138444029D01*
X140401023Y-138463597D01*
X140332752Y-138464729D01*
X140277248Y-138450135D01*
X140225562Y-138414877D01*
X140186162Y-138362835D01*
X140164587Y-138301450D01*
X140164038Y-138298018D01*
X140160833Y-138260571D01*
X140159239Y-138206813D01*
X140159367Y-138166155D01*
X140296721Y-138166155D01*
X140299903Y-138220194D01*
X140307141Y-138264735D01*
X140316940Y-138289888D01*
X140354011Y-138324260D01*
X140398026Y-138336582D01*
X140443416Y-138326618D01*
X140482203Y-138296895D01*
X140496892Y-138276905D01*
X140505481Y-138253050D01*
X140509504Y-138218230D01*
X140510495Y-138165930D01*
X140508722Y-138114139D01*
X140504037Y-138068634D01*
X140497397Y-138038181D01*
X140496290Y-138035452D01*
X140469509Y-138003000D01*
X140430421Y-137985183D01*
X140386685Y-137982306D01*
X140345962Y-137994674D01*
X140315913Y-138022593D01*
X140312796Y-138028148D01*
X140303039Y-138062022D01*
X140297723Y-138110728D01*
X140296721Y-138166155D01*
X140159367Y-138166155D01*
X140159432Y-138145540D01*
X140160336Y-138112563D01*
G37*
X140160336Y-138112563D02*
X140166486Y-138030981D01*
X140179267Y-137969730D01*
X140200529Y-137924449D01*
X140232122Y-137890779D01*
X140262793Y-137871014D01*
X140305646Y-137857120D01*
X140358944Y-137852354D01*
X140413520Y-137856236D01*
X140460208Y-137868282D01*
X140484876Y-137882693D01*
X140510495Y-137905878D01*
X140510495Y-137612773D01*
X140648812Y-137612773D01*
X140648812Y-138467822D01*
X140579654Y-138467822D01*
X140539512Y-138466645D01*
X140518606Y-138461772D01*
X140511078Y-138451186D01*
X140510495Y-138444029D01*
X140509226Y-138429676D01*
X140501221Y-138426923D01*
X140480185Y-138435771D01*
X140463827Y-138444029D01*
X140401023Y-138463597D01*
X140332752Y-138464729D01*
X140277248Y-138450135D01*
X140225562Y-138414877D01*
X140186162Y-138362835D01*
X140164587Y-138301450D01*
X140164038Y-138298018D01*
X140160833Y-138260571D01*
X140159239Y-138206813D01*
X140159367Y-138166155D01*
X140296721Y-138166155D01*
X140299903Y-138220194D01*
X140307141Y-138264735D01*
X140316940Y-138289888D01*
X140354011Y-138324260D01*
X140398026Y-138336582D01*
X140443416Y-138326618D01*
X140482203Y-138296895D01*
X140496892Y-138276905D01*
X140505481Y-138253050D01*
X140509504Y-138218230D01*
X140510495Y-138165930D01*
X140508722Y-138114139D01*
X140504037Y-138068634D01*
X140497397Y-138038181D01*
X140496290Y-138035452D01*
X140469509Y-138003000D01*
X140430421Y-137985183D01*
X140386685Y-137982306D01*
X140345962Y-137994674D01*
X140315913Y-138022593D01*
X140312796Y-138028148D01*
X140303039Y-138062022D01*
X140297723Y-138110728D01*
X140296721Y-138166155D01*
X140159367Y-138166155D01*
X140159432Y-138145540D01*
X140160336Y-138112563D01*
X139856644Y-137853020D02*
X139875461Y-137858660D01*
X139875461Y-137858660D02*
X139881527Y-137871053D01*
X139881527Y-137871053D02*
X139881782Y-137876647D01*
X139881782Y-137876647D02*
X139882871Y-137892230D01*
X139882871Y-137892230D02*
X139890368Y-137894676D01*
X139890368Y-137894676D02*
X139910619Y-137883993D01*
X139910619Y-137883993D02*
X139922649Y-137876694D01*
X139922649Y-137876694D02*
X139960600Y-137861063D01*
X139960600Y-137861063D02*
X140005928Y-137853334D01*
X140005928Y-137853334D02*
X140053456Y-137852740D01*
X140053456Y-137852740D02*
X140098005Y-137858513D01*
X140098005Y-137858513D02*
X140134398Y-137869884D01*
X140134398Y-137869884D02*
X140157457Y-137886088D01*
X140157457Y-137886088D02*
X140162004Y-137906355D01*
X140162004Y-137906355D02*
X140159709Y-137911843D01*
X140159709Y-137911843D02*
X140142980Y-137934626D01*
X140142980Y-137934626D02*
X140117037Y-137962647D01*
X140117037Y-137962647D02*
X140112345Y-137967177D01*
X140112345Y-137967177D02*
X140087617Y-137988005D01*
X140087617Y-137988005D02*
X140066282Y-137994735D01*
X140066282Y-137994735D02*
X140036445Y-137990038D01*
X140036445Y-137990038D02*
X140024492Y-137986917D01*
X140024492Y-137986917D02*
X139987295Y-137979421D01*
X139987295Y-137979421D02*
X139961141Y-137982792D01*
X139961141Y-137982792D02*
X139939054Y-137994681D01*
X139939054Y-137994681D02*
X139918822Y-138010635D01*
X139918822Y-138010635D02*
X139903921Y-138030700D01*
X139903921Y-138030700D02*
X139893566Y-138058702D01*
X139893566Y-138058702D02*
X139886971Y-138098467D01*
X139886971Y-138098467D02*
X139883351Y-138153823D01*
X139883351Y-138153823D02*
X139881922Y-138228594D01*
X139881922Y-138228594D02*
X139881782Y-138273740D01*
X139881782Y-138273740D02*
X139881782Y-138467822D01*
X139881782Y-138467822D02*
X139756040Y-138467822D01*
X139756040Y-138467822D02*
X139756040Y-137851683D01*
X139756040Y-137851683D02*
X139818911Y-137851683D01*
X139818911Y-137851683D02*
X139856644Y-137853020D01*
X139856644Y-137853020D02*
X139856644Y-137853020D01*
G36*
X139856644Y-137853020D02*
G01*
X139875461Y-137858660D01*
X139881527Y-137871053D01*
X139881782Y-137876647D01*
X139882871Y-137892230D01*
X139890368Y-137894676D01*
X139910619Y-137883993D01*
X139922649Y-137876694D01*
X139960600Y-137861063D01*
X140005928Y-137853334D01*
X140053456Y-137852740D01*
X140098005Y-137858513D01*
X140134398Y-137869884D01*
X140157457Y-137886088D01*
X140162004Y-137906355D01*
X140159709Y-137911843D01*
X140142980Y-137934626D01*
X140117037Y-137962647D01*
X140112345Y-137967177D01*
X140087617Y-137988005D01*
X140066282Y-137994735D01*
X140036445Y-137990038D01*
X140024492Y-137986917D01*
X139987295Y-137979421D01*
X139961141Y-137982792D01*
X139939054Y-137994681D01*
X139918822Y-138010635D01*
X139903921Y-138030700D01*
X139893566Y-138058702D01*
X139886971Y-138098467D01*
X139883351Y-138153823D01*
X139881922Y-138228594D01*
X139881782Y-138273740D01*
X139881782Y-138467822D01*
X139756040Y-138467822D01*
X139756040Y-137851683D01*
X139818911Y-137851683D01*
X139856644Y-137853020D01*
G37*
X139856644Y-137853020D02*
X139875461Y-137858660D01*
X139881527Y-137871053D01*
X139881782Y-137876647D01*
X139882871Y-137892230D01*
X139890368Y-137894676D01*
X139910619Y-137883993D01*
X139922649Y-137876694D01*
X139960600Y-137861063D01*
X140005928Y-137853334D01*
X140053456Y-137852740D01*
X140098005Y-137858513D01*
X140134398Y-137869884D01*
X140157457Y-137886088D01*
X140162004Y-137906355D01*
X140159709Y-137911843D01*
X140142980Y-137934626D01*
X140117037Y-137962647D01*
X140112345Y-137967177D01*
X140087617Y-137988005D01*
X140066282Y-137994735D01*
X140036445Y-137990038D01*
X140024492Y-137986917D01*
X139987295Y-137979421D01*
X139961141Y-137982792D01*
X139939054Y-137994681D01*
X139918822Y-138010635D01*
X139903921Y-138030700D01*
X139893566Y-138058702D01*
X139886971Y-138098467D01*
X139883351Y-138153823D01*
X139881922Y-138228594D01*
X139881782Y-138273740D01*
X139881782Y-138467822D01*
X139756040Y-138467822D01*
X139756040Y-137851683D01*
X139818911Y-137851683D01*
X139856644Y-137853020D01*
X142485255Y-137851486D02*
X142533595Y-137861015D01*
X142533595Y-137861015D02*
X142561114Y-137875125D01*
X142561114Y-137875125D02*
X142590064Y-137898568D01*
X142590064Y-137898568D02*
X142548876Y-137950571D01*
X142548876Y-137950571D02*
X142523482Y-137982064D01*
X142523482Y-137982064D02*
X142506238Y-137997428D01*
X142506238Y-137997428D02*
X142489102Y-137999776D01*
X142489102Y-137999776D02*
X142464027Y-137992217D01*
X142464027Y-137992217D02*
X142452257Y-137987941D01*
X142452257Y-137987941D02*
X142404270Y-137981631D01*
X142404270Y-137981631D02*
X142360324Y-137995156D01*
X142360324Y-137995156D02*
X142328060Y-138025710D01*
X142328060Y-138025710D02*
X142322819Y-138035452D01*
X142322819Y-138035452D02*
X142317112Y-138061258D01*
X142317112Y-138061258D02*
X142312706Y-138108817D01*
X142312706Y-138108817D02*
X142309811Y-138174758D01*
X142309811Y-138174758D02*
X142308631Y-138255710D01*
X142308631Y-138255710D02*
X142308614Y-138267226D01*
X142308614Y-138267226D02*
X142308614Y-138467822D01*
X142308614Y-138467822D02*
X142170297Y-138467822D01*
X142170297Y-138467822D02*
X142170297Y-137851683D01*
X142170297Y-137851683D02*
X142239456Y-137851683D01*
X142239456Y-137851683D02*
X142279333Y-137852725D01*
X142279333Y-137852725D02*
X142300107Y-137857358D01*
X142300107Y-137857358D02*
X142307789Y-137867849D01*
X142307789Y-137867849D02*
X142308614Y-137877745D01*
X142308614Y-137877745D02*
X142308614Y-137903806D01*
X142308614Y-137903806D02*
X142341745Y-137877745D01*
X142341745Y-137877745D02*
X142379735Y-137859965D01*
X142379735Y-137859965D02*
X142430770Y-137851174D01*
X142430770Y-137851174D02*
X142485255Y-137851486D01*
X142485255Y-137851486D02*
X142485255Y-137851486D01*
G36*
X142485255Y-137851486D02*
G01*
X142533595Y-137861015D01*
X142561114Y-137875125D01*
X142590064Y-137898568D01*
X142548876Y-137950571D01*
X142523482Y-137982064D01*
X142506238Y-137997428D01*
X142489102Y-137999776D01*
X142464027Y-137992217D01*
X142452257Y-137987941D01*
X142404270Y-137981631D01*
X142360324Y-137995156D01*
X142328060Y-138025710D01*
X142322819Y-138035452D01*
X142317112Y-138061258D01*
X142312706Y-138108817D01*
X142309811Y-138174758D01*
X142308631Y-138255710D01*
X142308614Y-138267226D01*
X142308614Y-138467822D01*
X142170297Y-138467822D01*
X142170297Y-137851683D01*
X142239456Y-137851683D01*
X142279333Y-137852725D01*
X142300107Y-137857358D01*
X142307789Y-137867849D01*
X142308614Y-137877745D01*
X142308614Y-137903806D01*
X142341745Y-137877745D01*
X142379735Y-137859965D01*
X142430770Y-137851174D01*
X142485255Y-137851486D01*
G37*
X142485255Y-137851486D02*
X142533595Y-137861015D01*
X142561114Y-137875125D01*
X142590064Y-137898568D01*
X142548876Y-137950571D01*
X142523482Y-137982064D01*
X142506238Y-137997428D01*
X142489102Y-137999776D01*
X142464027Y-137992217D01*
X142452257Y-137987941D01*
X142404270Y-137981631D01*
X142360324Y-137995156D01*
X142328060Y-138025710D01*
X142322819Y-138035452D01*
X142317112Y-138061258D01*
X142312706Y-138108817D01*
X142309811Y-138174758D01*
X142308631Y-138255710D01*
X142308614Y-138267226D01*
X142308614Y-138467822D01*
X142170297Y-138467822D01*
X142170297Y-137851683D01*
X142239456Y-137851683D01*
X142279333Y-137852725D01*
X142300107Y-137857358D01*
X142307789Y-137867849D01*
X142308614Y-137877745D01*
X142308614Y-137903806D01*
X142341745Y-137877745D01*
X142379735Y-137859965D01*
X142430770Y-137851174D01*
X142485255Y-137851486D01*
X141131524Y-137854237D02*
X141181255Y-137857971D01*
X141181255Y-137857971D02*
X141311291Y-138247773D01*
X141311291Y-138247773D02*
X141331678Y-138178614D01*
X141331678Y-138178614D02*
X141343946Y-138135874D01*
X141343946Y-138135874D02*
X141360085Y-138078115D01*
X141360085Y-138078115D02*
X141377512Y-138014625D01*
X141377512Y-138014625D02*
X141386726Y-137980570D01*
X141386726Y-137980570D02*
X141421388Y-137851683D01*
X141421388Y-137851683D02*
X141564391Y-137851683D01*
X141564391Y-137851683D02*
X141521646Y-137986857D01*
X141521646Y-137986857D02*
X141500596Y-138053342D01*
X141500596Y-138053342D02*
X141475167Y-138133539D01*
X141475167Y-138133539D02*
X141448610Y-138217193D01*
X141448610Y-138217193D02*
X141424902Y-138291782D01*
X141424902Y-138291782D02*
X141370902Y-138461535D01*
X141370902Y-138461535D02*
X141312598Y-138465328D01*
X141312598Y-138465328D02*
X141254295Y-138469122D01*
X141254295Y-138469122D02*
X141222679Y-138364734D01*
X141222679Y-138364734D02*
X141203182Y-138299889D01*
X141203182Y-138299889D02*
X141181904Y-138228400D01*
X141181904Y-138228400D02*
X141163308Y-138165263D01*
X141163308Y-138165263D02*
X141162574Y-138162750D01*
X141162574Y-138162750D02*
X141148684Y-138119969D01*
X141148684Y-138119969D02*
X141136429Y-138090779D01*
X141136429Y-138090779D02*
X141127846Y-138079741D01*
X141127846Y-138079741D02*
X141126082Y-138081018D01*
X141126082Y-138081018D02*
X141119891Y-138098130D01*
X141119891Y-138098130D02*
X141108128Y-138134787D01*
X141108128Y-138134787D02*
X141092225Y-138186378D01*
X141092225Y-138186378D02*
X141073614Y-138248294D01*
X141073614Y-138248294D02*
X141063543Y-138282352D01*
X141063543Y-138282352D02*
X141009007Y-138467822D01*
X141009007Y-138467822D02*
X140893264Y-138467822D01*
X140893264Y-138467822D02*
X140800737Y-138175471D01*
X140800737Y-138175471D02*
X140774744Y-138093462D01*
X140774744Y-138093462D02*
X140751066Y-138018987D01*
X140751066Y-138018987D02*
X140730820Y-137955544D01*
X140730820Y-137955544D02*
X140715126Y-137906632D01*
X140715126Y-137906632D02*
X140705102Y-137875749D01*
X140705102Y-137875749D02*
X140702055Y-137866726D01*
X140702055Y-137866726D02*
X140704467Y-137857487D01*
X140704467Y-137857487D02*
X140723408Y-137853441D01*
X140723408Y-137853441D02*
X140762823Y-137853846D01*
X140762823Y-137853846D02*
X140768993Y-137854152D01*
X140768993Y-137854152D02*
X140842086Y-137857971D01*
X140842086Y-137857971D02*
X140889957Y-138034010D01*
X140889957Y-138034010D02*
X140907553Y-138098211D01*
X140907553Y-138098211D02*
X140923277Y-138154649D01*
X140923277Y-138154649D02*
X140935746Y-138198422D01*
X140935746Y-138198422D02*
X140943574Y-138224630D01*
X140943574Y-138224630D02*
X140945020Y-138228903D01*
X140945020Y-138228903D02*
X140951014Y-138223990D01*
X140951014Y-138223990D02*
X140963101Y-138198532D01*
X140963101Y-138198532D02*
X140979893Y-138155997D01*
X140979893Y-138155997D02*
X141000003Y-138099850D01*
X141000003Y-138099850D02*
X141017003Y-138049130D01*
X141017003Y-138049130D02*
X141081794Y-137850504D01*
X141081794Y-137850504D02*
X141131524Y-137854237D01*
X141131524Y-137854237D02*
X141131524Y-137854237D01*
G36*
X141131524Y-137854237D02*
G01*
X141181255Y-137857971D01*
X141311291Y-138247773D01*
X141331678Y-138178614D01*
X141343946Y-138135874D01*
X141360085Y-138078115D01*
X141377512Y-138014625D01*
X141386726Y-137980570D01*
X141421388Y-137851683D01*
X141564391Y-137851683D01*
X141521646Y-137986857D01*
X141500596Y-138053342D01*
X141475167Y-138133539D01*
X141448610Y-138217193D01*
X141424902Y-138291782D01*
X141370902Y-138461535D01*
X141312598Y-138465328D01*
X141254295Y-138469122D01*
X141222679Y-138364734D01*
X141203182Y-138299889D01*
X141181904Y-138228400D01*
X141163308Y-138165263D01*
X141162574Y-138162750D01*
X141148684Y-138119969D01*
X141136429Y-138090779D01*
X141127846Y-138079741D01*
X141126082Y-138081018D01*
X141119891Y-138098130D01*
X141108128Y-138134787D01*
X141092225Y-138186378D01*
X141073614Y-138248294D01*
X141063543Y-138282352D01*
X141009007Y-138467822D01*
X140893264Y-138467822D01*
X140800737Y-138175471D01*
X140774744Y-138093462D01*
X140751066Y-138018987D01*
X140730820Y-137955544D01*
X140715126Y-137906632D01*
X140705102Y-137875749D01*
X140702055Y-137866726D01*
X140704467Y-137857487D01*
X140723408Y-137853441D01*
X140762823Y-137853846D01*
X140768993Y-137854152D01*
X140842086Y-137857971D01*
X140889957Y-138034010D01*
X140907553Y-138098211D01*
X140923277Y-138154649D01*
X140935746Y-138198422D01*
X140943574Y-138224630D01*
X140945020Y-138228903D01*
X140951014Y-138223990D01*
X140963101Y-138198532D01*
X140979893Y-138155997D01*
X141000003Y-138099850D01*
X141017003Y-138049130D01*
X141081794Y-137850504D01*
X141131524Y-137854237D01*
G37*
X141131524Y-137854237D02*
X141181255Y-137857971D01*
X141311291Y-138247773D01*
X141331678Y-138178614D01*
X141343946Y-138135874D01*
X141360085Y-138078115D01*
X141377512Y-138014625D01*
X141386726Y-137980570D01*
X141421388Y-137851683D01*
X141564391Y-137851683D01*
X141521646Y-137986857D01*
X141500596Y-138053342D01*
X141475167Y-138133539D01*
X141448610Y-138217193D01*
X141424902Y-138291782D01*
X141370902Y-138461535D01*
X141312598Y-138465328D01*
X141254295Y-138469122D01*
X141222679Y-138364734D01*
X141203182Y-138299889D01*
X141181904Y-138228400D01*
X141163308Y-138165263D01*
X141162574Y-138162750D01*
X141148684Y-138119969D01*
X141136429Y-138090779D01*
X141127846Y-138079741D01*
X141126082Y-138081018D01*
X141119891Y-138098130D01*
X141108128Y-138134787D01*
X141092225Y-138186378D01*
X141073614Y-138248294D01*
X141063543Y-138282352D01*
X141009007Y-138467822D01*
X140893264Y-138467822D01*
X140800737Y-138175471D01*
X140774744Y-138093462D01*
X140751066Y-138018987D01*
X140730820Y-137955544D01*
X140715126Y-137906632D01*
X140705102Y-137875749D01*
X140702055Y-137866726D01*
X140704467Y-137857487D01*
X140723408Y-137853441D01*
X140762823Y-137853846D01*
X140768993Y-137854152D01*
X140842086Y-137857971D01*
X140889957Y-138034010D01*
X140907553Y-138098211D01*
X140923277Y-138154649D01*
X140935746Y-138198422D01*
X140943574Y-138224630D01*
X140945020Y-138228903D01*
X140951014Y-138223990D01*
X140963101Y-138198532D01*
X140979893Y-138155997D01*
X141000003Y-138099850D01*
X141017003Y-138049130D01*
X141081794Y-137850504D01*
X141131524Y-137854237D01*
X143067226Y-136913880D02*
X143140080Y-136944830D01*
X143140080Y-136944830D02*
X143163027Y-136959895D01*
X143163027Y-136959895D02*
X143192354Y-136983048D01*
X143192354Y-136983048D02*
X143210764Y-137001253D01*
X143210764Y-137001253D02*
X143213961Y-137007183D01*
X143213961Y-137007183D02*
X143204935Y-137020340D01*
X143204935Y-137020340D02*
X143181837Y-137042667D01*
X143181837Y-137042667D02*
X143163344Y-137058250D01*
X143163344Y-137058250D02*
X143112728Y-137098926D01*
X143112728Y-137098926D02*
X143072760Y-137065295D01*
X143072760Y-137065295D02*
X143041874Y-137043584D01*
X143041874Y-137043584D02*
X143011759Y-137036090D01*
X143011759Y-137036090D02*
X142977292Y-137037920D01*
X142977292Y-137037920D02*
X142922561Y-137051528D01*
X142922561Y-137051528D02*
X142884886Y-137079772D01*
X142884886Y-137079772D02*
X142861991Y-137125433D01*
X142861991Y-137125433D02*
X142851597Y-137191289D01*
X142851597Y-137191289D02*
X142851595Y-137191331D01*
X142851595Y-137191331D02*
X142852494Y-137264939D01*
X142852494Y-137264939D02*
X142866463Y-137318946D01*
X142866463Y-137318946D02*
X142894328Y-137355716D01*
X142894328Y-137355716D02*
X142913325Y-137368168D01*
X142913325Y-137368168D02*
X142963776Y-137383673D01*
X142963776Y-137383673D02*
X143017663Y-137383683D01*
X143017663Y-137383683D02*
X143064546Y-137368638D01*
X143064546Y-137368638D02*
X143075644Y-137361287D01*
X143075644Y-137361287D02*
X143103476Y-137342511D01*
X143103476Y-137342511D02*
X143125236Y-137339434D01*
X143125236Y-137339434D02*
X143148704Y-137353409D01*
X143148704Y-137353409D02*
X143174649Y-137378510D01*
X143174649Y-137378510D02*
X143215716Y-137420880D01*
X143215716Y-137420880D02*
X143170121Y-137458464D01*
X143170121Y-137458464D02*
X143099674Y-137500882D01*
X143099674Y-137500882D02*
X143020233Y-137521785D01*
X143020233Y-137521785D02*
X142937215Y-137520272D01*
X142937215Y-137520272D02*
X142882694Y-137506411D01*
X142882694Y-137506411D02*
X142818970Y-137472135D01*
X142818970Y-137472135D02*
X142768005Y-137418212D01*
X142768005Y-137418212D02*
X142744851Y-137380149D01*
X142744851Y-137380149D02*
X142726099Y-137325536D01*
X142726099Y-137325536D02*
X142716715Y-137256369D01*
X142716715Y-137256369D02*
X142716643Y-137181407D01*
X142716643Y-137181407D02*
X142725824Y-137109409D01*
X142725824Y-137109409D02*
X142744199Y-137049137D01*
X142744199Y-137049137D02*
X142747093Y-137042958D01*
X142747093Y-137042958D02*
X142789952Y-136982351D01*
X142789952Y-136982351D02*
X142847979Y-136938224D01*
X142847979Y-136938224D02*
X142916591Y-136911493D01*
X142916591Y-136911493D02*
X142991201Y-136903073D01*
X142991201Y-136903073D02*
X143067226Y-136913880D01*
X143067226Y-136913880D02*
X143067226Y-136913880D01*
G36*
X143067226Y-136913880D02*
G01*
X143140080Y-136944830D01*
X143163027Y-136959895D01*
X143192354Y-136983048D01*
X143210764Y-137001253D01*
X143213961Y-137007183D01*
X143204935Y-137020340D01*
X143181837Y-137042667D01*
X143163344Y-137058250D01*
X143112728Y-137098926D01*
X143072760Y-137065295D01*
X143041874Y-137043584D01*
X143011759Y-137036090D01*
X142977292Y-137037920D01*
X142922561Y-137051528D01*
X142884886Y-137079772D01*
X142861991Y-137125433D01*
X142851597Y-137191289D01*
X142851595Y-137191331D01*
X142852494Y-137264939D01*
X142866463Y-137318946D01*
X142894328Y-137355716D01*
X142913325Y-137368168D01*
X142963776Y-137383673D01*
X143017663Y-137383683D01*
X143064546Y-137368638D01*
X143075644Y-137361287D01*
X143103476Y-137342511D01*
X143125236Y-137339434D01*
X143148704Y-137353409D01*
X143174649Y-137378510D01*
X143215716Y-137420880D01*
X143170121Y-137458464D01*
X143099674Y-137500882D01*
X143020233Y-137521785D01*
X142937215Y-137520272D01*
X142882694Y-137506411D01*
X142818970Y-137472135D01*
X142768005Y-137418212D01*
X142744851Y-137380149D01*
X142726099Y-137325536D01*
X142716715Y-137256369D01*
X142716643Y-137181407D01*
X142725824Y-137109409D01*
X142744199Y-137049137D01*
X142747093Y-137042958D01*
X142789952Y-136982351D01*
X142847979Y-136938224D01*
X142916591Y-136911493D01*
X142991201Y-136903073D01*
X143067226Y-136913880D01*
G37*
X143067226Y-136913880D02*
X143140080Y-136944830D01*
X143163027Y-136959895D01*
X143192354Y-136983048D01*
X143210764Y-137001253D01*
X143213961Y-137007183D01*
X143204935Y-137020340D01*
X143181837Y-137042667D01*
X143163344Y-137058250D01*
X143112728Y-137098926D01*
X143072760Y-137065295D01*
X143041874Y-137043584D01*
X143011759Y-137036090D01*
X142977292Y-137037920D01*
X142922561Y-137051528D01*
X142884886Y-137079772D01*
X142861991Y-137125433D01*
X142851597Y-137191289D01*
X142851595Y-137191331D01*
X142852494Y-137264939D01*
X142866463Y-137318946D01*
X142894328Y-137355716D01*
X142913325Y-137368168D01*
X142963776Y-137383673D01*
X143017663Y-137383683D01*
X143064546Y-137368638D01*
X143075644Y-137361287D01*
X143103476Y-137342511D01*
X143125236Y-137339434D01*
X143148704Y-137353409D01*
X143174649Y-137378510D01*
X143215716Y-137420880D01*
X143170121Y-137458464D01*
X143099674Y-137500882D01*
X143020233Y-137521785D01*
X142937215Y-137520272D01*
X142882694Y-137506411D01*
X142818970Y-137472135D01*
X142768005Y-137418212D01*
X142744851Y-137380149D01*
X142726099Y-137325536D01*
X142716715Y-137256369D01*
X142716643Y-137181407D01*
X142725824Y-137109409D01*
X142744199Y-137049137D01*
X142747093Y-137042958D01*
X142789952Y-136982351D01*
X142847979Y-136938224D01*
X142916591Y-136911493D01*
X142991201Y-136903073D01*
X143067226Y-136913880D01*
X138941241Y-136919184D02*
X138967753Y-136932282D01*
X138967753Y-136932282D02*
X139000447Y-136955106D01*
X139000447Y-136955106D02*
X139024275Y-136979996D01*
X139024275Y-136979996D02*
X139040594Y-137011249D01*
X139040594Y-137011249D02*
X139050760Y-137053166D01*
X139050760Y-137053166D02*
X139056128Y-137110044D01*
X139056128Y-137110044D02*
X139058056Y-137186184D01*
X139058056Y-137186184D02*
X139058169Y-137218917D01*
X139058169Y-137218917D02*
X139057839Y-137290656D01*
X139057839Y-137290656D02*
X139056473Y-137341927D01*
X139056473Y-137341927D02*
X139053500Y-137377404D01*
X139053500Y-137377404D02*
X139048351Y-137401763D01*
X139048351Y-137401763D02*
X139040457Y-137419680D01*
X139040457Y-137419680D02*
X139032243Y-137431902D01*
X139032243Y-137431902D02*
X138979813Y-137483905D01*
X138979813Y-137483905D02*
X138918070Y-137515184D01*
X138918070Y-137515184D02*
X138851464Y-137524592D01*
X138851464Y-137524592D02*
X138784442Y-137510980D01*
X138784442Y-137510980D02*
X138763208Y-137501354D01*
X138763208Y-137501354D02*
X138712376Y-137474859D01*
X138712376Y-137474859D02*
X138712376Y-137890052D01*
X138712376Y-137890052D02*
X138749475Y-137870868D01*
X138749475Y-137870868D02*
X138798357Y-137856025D01*
X138798357Y-137856025D02*
X138858439Y-137852222D01*
X138858439Y-137852222D02*
X138918436Y-137859243D01*
X138918436Y-137859243D02*
X138963744Y-137875013D01*
X138963744Y-137875013D02*
X139001325Y-137905047D01*
X139001325Y-137905047D02*
X139033436Y-137948024D01*
X139033436Y-137948024D02*
X139035850Y-137952436D01*
X139035850Y-137952436D02*
X139046033Y-137973221D01*
X139046033Y-137973221D02*
X139053470Y-137994170D01*
X139053470Y-137994170D02*
X139058589Y-138019548D01*
X139058589Y-138019548D02*
X139061819Y-138053618D01*
X139061819Y-138053618D02*
X139063587Y-138100641D01*
X139063587Y-138100641D02*
X139064323Y-138164882D01*
X139064323Y-138164882D02*
X139064456Y-138237176D01*
X139064456Y-138237176D02*
X139064456Y-138467822D01*
X139064456Y-138467822D02*
X138926139Y-138467822D01*
X138926139Y-138467822D02*
X138926139Y-138042533D01*
X138926139Y-138042533D02*
X138887451Y-138009979D01*
X138887451Y-138009979D02*
X138847262Y-137983940D01*
X138847262Y-137983940D02*
X138809203Y-137979205D01*
X138809203Y-137979205D02*
X138770934Y-137991389D01*
X138770934Y-137991389D02*
X138750538Y-138003320D01*
X138750538Y-138003320D02*
X138735358Y-138020313D01*
X138735358Y-138020313D02*
X138724562Y-138045995D01*
X138724562Y-138045995D02*
X138717317Y-138083991D01*
X138717317Y-138083991D02*
X138712792Y-138137926D01*
X138712792Y-138137926D02*
X138710156Y-138211425D01*
X138710156Y-138211425D02*
X138709228Y-138260347D01*
X138709228Y-138260347D02*
X138706089Y-138461535D01*
X138706089Y-138461535D02*
X138640074Y-138465336D01*
X138640074Y-138465336D02*
X138574060Y-138469136D01*
X138574060Y-138469136D02*
X138574060Y-137220650D01*
X138574060Y-137220650D02*
X138712376Y-137220650D01*
X138712376Y-137220650D02*
X138715903Y-137290254D01*
X138715903Y-137290254D02*
X138727785Y-137338569D01*
X138727785Y-137338569D02*
X138749980Y-137368631D01*
X138749980Y-137368631D02*
X138784441Y-137383471D01*
X138784441Y-137383471D02*
X138819258Y-137386436D01*
X138819258Y-137386436D02*
X138858671Y-137383028D01*
X138858671Y-137383028D02*
X138884829Y-137369617D01*
X138884829Y-137369617D02*
X138901186Y-137351896D01*
X138901186Y-137351896D02*
X138914063Y-137332835D01*
X138914063Y-137332835D02*
X138921728Y-137311601D01*
X138921728Y-137311601D02*
X138925139Y-137281849D01*
X138925139Y-137281849D02*
X138925251Y-137237236D01*
X138925251Y-137237236D02*
X138924103Y-137199880D01*
X138924103Y-137199880D02*
X138921468Y-137143604D01*
X138921468Y-137143604D02*
X138917544Y-137106658D01*
X138917544Y-137106658D02*
X138910937Y-137083223D01*
X138910937Y-137083223D02*
X138900251Y-137067480D01*
X138900251Y-137067480D02*
X138890167Y-137058380D01*
X138890167Y-137058380D02*
X138848030Y-137038537D01*
X138848030Y-137038537D02*
X138798160Y-137035332D01*
X138798160Y-137035332D02*
X138769524Y-137042168D01*
X138769524Y-137042168D02*
X138741172Y-137066464D01*
X138741172Y-137066464D02*
X138722391Y-137113728D01*
X138722391Y-137113728D02*
X138713288Y-137183624D01*
X138713288Y-137183624D02*
X138712376Y-137220650D01*
X138712376Y-137220650D02*
X138574060Y-137220650D01*
X138574060Y-137220650D02*
X138574060Y-136908614D01*
X138574060Y-136908614D02*
X138643218Y-136908614D01*
X138643218Y-136908614D02*
X138684740Y-136910256D01*
X138684740Y-136910256D02*
X138706162Y-136916087D01*
X138706162Y-136916087D02*
X138712374Y-136927461D01*
X138712374Y-136927461D02*
X138712376Y-136927798D01*
X138712376Y-136927798D02*
X138715258Y-136938938D01*
X138715258Y-136938938D02*
X138727970Y-136937673D01*
X138727970Y-136937673D02*
X138753243Y-136925433D01*
X138753243Y-136925433D02*
X138812131Y-136906707D01*
X138812131Y-136906707D02*
X138878385Y-136904739D01*
X138878385Y-136904739D02*
X138941241Y-136919184D01*
X138941241Y-136919184D02*
X138941241Y-136919184D01*
G36*
X138643218Y-136908614D02*
G01*
X138684740Y-136910256D01*
X138706162Y-136916087D01*
X138712374Y-136927461D01*
X138712376Y-136927798D01*
X138715258Y-136938938D01*
X138727970Y-136937673D01*
X138753243Y-136925433D01*
X138812131Y-136906707D01*
X138878385Y-136904739D01*
X138941241Y-136919184D01*
X138967753Y-136932282D01*
X139000447Y-136955106D01*
X139024275Y-136979996D01*
X139040594Y-137011249D01*
X139050760Y-137053166D01*
X139056128Y-137110044D01*
X139058056Y-137186184D01*
X139058169Y-137218917D01*
X139057839Y-137290656D01*
X139056473Y-137341927D01*
X139053500Y-137377404D01*
X139048351Y-137401763D01*
X139040457Y-137419680D01*
X139032243Y-137431902D01*
X138979813Y-137483905D01*
X138918070Y-137515184D01*
X138851464Y-137524592D01*
X138784442Y-137510980D01*
X138763208Y-137501354D01*
X138712376Y-137474859D01*
X138712376Y-137890052D01*
X138749475Y-137870868D01*
X138798357Y-137856025D01*
X138858439Y-137852222D01*
X138918436Y-137859243D01*
X138963744Y-137875013D01*
X139001325Y-137905047D01*
X139033436Y-137948024D01*
X139035850Y-137952436D01*
X139046033Y-137973221D01*
X139053470Y-137994170D01*
X139058589Y-138019548D01*
X139061819Y-138053618D01*
X139063587Y-138100641D01*
X139064323Y-138164882D01*
X139064456Y-138237176D01*
X139064456Y-138467822D01*
X138926139Y-138467822D01*
X138926139Y-138042533D01*
X138887451Y-138009979D01*
X138847262Y-137983940D01*
X138809203Y-137979205D01*
X138770934Y-137991389D01*
X138750538Y-138003320D01*
X138735358Y-138020313D01*
X138724562Y-138045995D01*
X138717317Y-138083991D01*
X138712792Y-138137926D01*
X138710156Y-138211425D01*
X138709228Y-138260347D01*
X138706089Y-138461535D01*
X138640074Y-138465336D01*
X138574060Y-138469136D01*
X138574060Y-137220650D01*
X138712376Y-137220650D01*
X138715903Y-137290254D01*
X138727785Y-137338569D01*
X138749980Y-137368631D01*
X138784441Y-137383471D01*
X138819258Y-137386436D01*
X138858671Y-137383028D01*
X138884829Y-137369617D01*
X138901186Y-137351896D01*
X138914063Y-137332835D01*
X138921728Y-137311601D01*
X138925139Y-137281849D01*
X138925251Y-137237236D01*
X138924103Y-137199880D01*
X138921468Y-137143604D01*
X138917544Y-137106658D01*
X138910937Y-137083223D01*
X138900251Y-137067480D01*
X138890167Y-137058380D01*
X138848030Y-137038537D01*
X138798160Y-137035332D01*
X138769524Y-137042168D01*
X138741172Y-137066464D01*
X138722391Y-137113728D01*
X138713288Y-137183624D01*
X138712376Y-137220650D01*
X138574060Y-137220650D01*
X138574060Y-136908614D01*
X138643218Y-136908614D01*
G37*
X138643218Y-136908614D02*
X138684740Y-136910256D01*
X138706162Y-136916087D01*
X138712374Y-136927461D01*
X138712376Y-136927798D01*
X138715258Y-136938938D01*
X138727970Y-136937673D01*
X138753243Y-136925433D01*
X138812131Y-136906707D01*
X138878385Y-136904739D01*
X138941241Y-136919184D01*
X138967753Y-136932282D01*
X139000447Y-136955106D01*
X139024275Y-136979996D01*
X139040594Y-137011249D01*
X139050760Y-137053166D01*
X139056128Y-137110044D01*
X139058056Y-137186184D01*
X139058169Y-137218917D01*
X139057839Y-137290656D01*
X139056473Y-137341927D01*
X139053500Y-137377404D01*
X139048351Y-137401763D01*
X139040457Y-137419680D01*
X139032243Y-137431902D01*
X138979813Y-137483905D01*
X138918070Y-137515184D01*
X138851464Y-137524592D01*
X138784442Y-137510980D01*
X138763208Y-137501354D01*
X138712376Y-137474859D01*
X138712376Y-137890052D01*
X138749475Y-137870868D01*
X138798357Y-137856025D01*
X138858439Y-137852222D01*
X138918436Y-137859243D01*
X138963744Y-137875013D01*
X139001325Y-137905047D01*
X139033436Y-137948024D01*
X139035850Y-137952436D01*
X139046033Y-137973221D01*
X139053470Y-137994170D01*
X139058589Y-138019548D01*
X139061819Y-138053618D01*
X139063587Y-138100641D01*
X139064323Y-138164882D01*
X139064456Y-138237176D01*
X139064456Y-138467822D01*
X138926139Y-138467822D01*
X138926139Y-138042533D01*
X138887451Y-138009979D01*
X138847262Y-137983940D01*
X138809203Y-137979205D01*
X138770934Y-137991389D01*
X138750538Y-138003320D01*
X138735358Y-138020313D01*
X138724562Y-138045995D01*
X138717317Y-138083991D01*
X138712792Y-138137926D01*
X138710156Y-138211425D01*
X138709228Y-138260347D01*
X138706089Y-138461535D01*
X138640074Y-138465336D01*
X138574060Y-138469136D01*
X138574060Y-137220650D01*
X138712376Y-137220650D01*
X138715903Y-137290254D01*
X138727785Y-137338569D01*
X138749980Y-137368631D01*
X138784441Y-137383471D01*
X138819258Y-137386436D01*
X138858671Y-137383028D01*
X138884829Y-137369617D01*
X138901186Y-137351896D01*
X138914063Y-137332835D01*
X138921728Y-137311601D01*
X138925139Y-137281849D01*
X138925251Y-137237236D01*
X138924103Y-137199880D01*
X138921468Y-137143604D01*
X138917544Y-137106658D01*
X138910937Y-137083223D01*
X138900251Y-137067480D01*
X138890167Y-137058380D01*
X138848030Y-137038537D01*
X138798160Y-137035332D01*
X138769524Y-137042168D01*
X138741172Y-137066464D01*
X138722391Y-137113728D01*
X138713288Y-137183624D01*
X138712376Y-137220650D01*
X138574060Y-137220650D01*
X138574060Y-136908614D01*
X138643218Y-136908614D01*
X142649460Y-136908030D02*
X142692711Y-136921245D01*
X142692711Y-136921245D02*
X142720558Y-136937941D01*
X142720558Y-136937941D02*
X142729629Y-136951145D01*
X142729629Y-136951145D02*
X142727132Y-136966797D01*
X142727132Y-136966797D02*
X142710931Y-136991385D01*
X142710931Y-136991385D02*
X142697232Y-137008800D01*
X142697232Y-137008800D02*
X142668992Y-137040283D01*
X142668992Y-137040283D02*
X142647775Y-137053529D01*
X142647775Y-137053529D02*
X142629688Y-137052664D01*
X142629688Y-137052664D02*
X142576035Y-137039010D01*
X142576035Y-137039010D02*
X142536630Y-137039630D01*
X142536630Y-137039630D02*
X142504632Y-137055104D01*
X142504632Y-137055104D02*
X142493890Y-137064161D01*
X142493890Y-137064161D02*
X142459505Y-137096027D01*
X142459505Y-137096027D02*
X142459505Y-137512179D01*
X142459505Y-137512179D02*
X142321188Y-137512179D01*
X142321188Y-137512179D02*
X142321188Y-136908614D01*
X142321188Y-136908614D02*
X142390347Y-136908614D01*
X142390347Y-136908614D02*
X142431869Y-136910256D01*
X142431869Y-136910256D02*
X142453291Y-136916087D01*
X142453291Y-136916087D02*
X142459502Y-136927461D01*
X142459502Y-136927461D02*
X142459505Y-136927798D01*
X142459505Y-136927798D02*
X142462439Y-136939713D01*
X142462439Y-136939713D02*
X142475704Y-136938159D01*
X142475704Y-136938159D02*
X142494084Y-136929563D01*
X142494084Y-136929563D02*
X142532046Y-136913568D01*
X142532046Y-136913568D02*
X142562872Y-136903945D01*
X142562872Y-136903945D02*
X142602536Y-136901478D01*
X142602536Y-136901478D02*
X142649460Y-136908030D01*
X142649460Y-136908030D02*
X142649460Y-136908030D01*
G36*
X142649460Y-136908030D02*
G01*
X142692711Y-136921245D01*
X142720558Y-136937941D01*
X142729629Y-136951145D01*
X142727132Y-136966797D01*
X142710931Y-136991385D01*
X142697232Y-137008800D01*
X142668992Y-137040283D01*
X142647775Y-137053529D01*
X142629688Y-137052664D01*
X142576035Y-137039010D01*
X142536630Y-137039630D01*
X142504632Y-137055104D01*
X142493890Y-137064161D01*
X142459505Y-137096027D01*
X142459505Y-137512179D01*
X142321188Y-137512179D01*
X142321188Y-136908614D01*
X142390347Y-136908614D01*
X142431869Y-136910256D01*
X142453291Y-136916087D01*
X142459502Y-136927461D01*
X142459505Y-136927798D01*
X142462439Y-136939713D01*
X142475704Y-136938159D01*
X142494084Y-136929563D01*
X142532046Y-136913568D01*
X142562872Y-136903945D01*
X142602536Y-136901478D01*
X142649460Y-136908030D01*
G37*
X142649460Y-136908030D02*
X142692711Y-136921245D01*
X142720558Y-136937941D01*
X142729629Y-136951145D01*
X142727132Y-136966797D01*
X142710931Y-136991385D01*
X142697232Y-137008800D01*
X142668992Y-137040283D01*
X142647775Y-137053529D01*
X142629688Y-137052664D01*
X142576035Y-137039010D01*
X142536630Y-137039630D01*
X142504632Y-137055104D01*
X142493890Y-137064161D01*
X142459505Y-137096027D01*
X142459505Y-137512179D01*
X142321188Y-137512179D01*
X142321188Y-136908614D01*
X142390347Y-136908614D01*
X142431869Y-136910256D01*
X142453291Y-136916087D01*
X142459502Y-136927461D01*
X142459505Y-136927798D01*
X142462439Y-136939713D01*
X142475704Y-136938159D01*
X142494084Y-136929563D01*
X142532046Y-136913568D01*
X142562872Y-136903945D01*
X142602536Y-136901478D01*
X142649460Y-136908030D01*
X142882581Y-137854970D02*
X142942685Y-137870597D01*
X142942685Y-137870597D02*
X142993021Y-137902848D01*
X142993021Y-137902848D02*
X143017393Y-137926940D01*
X143017393Y-137926940D02*
X143057345Y-137983895D01*
X143057345Y-137983895D02*
X143080242Y-138049965D01*
X143080242Y-138049965D02*
X143088108Y-138131182D01*
X143088108Y-138131182D02*
X143088148Y-138137748D01*
X143088148Y-138137748D02*
X143088218Y-138203763D01*
X143088218Y-138203763D02*
X142708264Y-138203763D01*
X142708264Y-138203763D02*
X142716363Y-138238342D01*
X142716363Y-138238342D02*
X142730987Y-138269659D01*
X142730987Y-138269659D02*
X142756581Y-138302291D01*
X142756581Y-138302291D02*
X142761935Y-138307500D01*
X142761935Y-138307500D02*
X142807943Y-138335694D01*
X142807943Y-138335694D02*
X142860410Y-138340475D01*
X142860410Y-138340475D02*
X142920803Y-138321926D01*
X142920803Y-138321926D02*
X142931040Y-138316931D01*
X142931040Y-138316931D02*
X142962439Y-138301745D01*
X142962439Y-138301745D02*
X142983470Y-138293094D01*
X142983470Y-138293094D02*
X142987139Y-138292293D01*
X142987139Y-138292293D02*
X142999948Y-138300063D01*
X142999948Y-138300063D02*
X143024378Y-138319072D01*
X143024378Y-138319072D02*
X143036779Y-138329460D01*
X143036779Y-138329460D02*
X143062476Y-138353321D01*
X143062476Y-138353321D02*
X143070915Y-138369077D01*
X143070915Y-138369077D02*
X143065058Y-138383571D01*
X143065058Y-138383571D02*
X143061928Y-138387534D01*
X143061928Y-138387534D02*
X143040725Y-138404879D01*
X143040725Y-138404879D02*
X143005738Y-138425959D01*
X143005738Y-138425959D02*
X142981337Y-138438265D01*
X142981337Y-138438265D02*
X142912072Y-138459946D01*
X142912072Y-138459946D02*
X142835388Y-138466971D01*
X142835388Y-138466971D02*
X142762765Y-138458647D01*
X142762765Y-138458647D02*
X142742426Y-138452686D01*
X142742426Y-138452686D02*
X142679476Y-138418952D01*
X142679476Y-138418952D02*
X142632815Y-138367045D01*
X142632815Y-138367045D02*
X142602173Y-138296459D01*
X142602173Y-138296459D02*
X142587282Y-138206692D01*
X142587282Y-138206692D02*
X142585647Y-138159753D01*
X142585647Y-138159753D02*
X142590421Y-138091413D01*
X142590421Y-138091413D02*
X142710990Y-138091413D01*
X142710990Y-138091413D02*
X142722652Y-138096465D01*
X142722652Y-138096465D02*
X142753998Y-138100429D01*
X142753998Y-138100429D02*
X142799571Y-138102768D01*
X142799571Y-138102768D02*
X142830446Y-138103169D01*
X142830446Y-138103169D02*
X142885981Y-138102783D01*
X142885981Y-138102783D02*
X142921033Y-138100975D01*
X142921033Y-138100975D02*
X142940262Y-138096773D01*
X142940262Y-138096773D02*
X142948330Y-138089203D01*
X142948330Y-138089203D02*
X142949901Y-138078218D01*
X142949901Y-138078218D02*
X142939121Y-138044381D01*
X142939121Y-138044381D02*
X142911980Y-138010940D01*
X142911980Y-138010940D02*
X142876277Y-137985272D01*
X142876277Y-137985272D02*
X142840560Y-137974772D01*
X142840560Y-137974772D02*
X142792048Y-137984086D01*
X142792048Y-137984086D02*
X142750053Y-138011013D01*
X142750053Y-138011013D02*
X142720936Y-138049827D01*
X142720936Y-138049827D02*
X142710990Y-138091413D01*
X142710990Y-138091413D02*
X142590421Y-138091413D01*
X142590421Y-138091413D02*
X142592599Y-138060236D01*
X142592599Y-138060236D02*
X142614055Y-137980949D01*
X142614055Y-137980949D02*
X142650470Y-137921263D01*
X142650470Y-137921263D02*
X142702297Y-137880549D01*
X142702297Y-137880549D02*
X142769990Y-137858179D01*
X142769990Y-137858179D02*
X142806662Y-137853871D01*
X142806662Y-137853871D02*
X142882581Y-137854970D01*
X142882581Y-137854970D02*
X142882581Y-137854970D01*
G36*
X142614055Y-137980949D02*
G01*
X142650470Y-137921263D01*
X142702297Y-137880549D01*
X142769990Y-137858179D01*
X142806662Y-137853871D01*
X142882581Y-137854970D01*
X142942685Y-137870597D01*
X142993021Y-137902848D01*
X143017393Y-137926940D01*
X143057345Y-137983895D01*
X143080242Y-138049965D01*
X143088108Y-138131182D01*
X143088148Y-138137748D01*
X143088218Y-138203763D01*
X142708264Y-138203763D01*
X142716363Y-138238342D01*
X142730987Y-138269659D01*
X142756581Y-138302291D01*
X142761935Y-138307500D01*
X142807943Y-138335694D01*
X142860410Y-138340475D01*
X142920803Y-138321926D01*
X142931040Y-138316931D01*
X142962439Y-138301745D01*
X142983470Y-138293094D01*
X142987139Y-138292293D01*
X142999948Y-138300063D01*
X143024378Y-138319072D01*
X143036779Y-138329460D01*
X143062476Y-138353321D01*
X143070915Y-138369077D01*
X143065058Y-138383571D01*
X143061928Y-138387534D01*
X143040725Y-138404879D01*
X143005738Y-138425959D01*
X142981337Y-138438265D01*
X142912072Y-138459946D01*
X142835388Y-138466971D01*
X142762765Y-138458647D01*
X142742426Y-138452686D01*
X142679476Y-138418952D01*
X142632815Y-138367045D01*
X142602173Y-138296459D01*
X142587282Y-138206692D01*
X142585647Y-138159753D01*
X142590421Y-138091413D01*
X142710990Y-138091413D01*
X142722652Y-138096465D01*
X142753998Y-138100429D01*
X142799571Y-138102768D01*
X142830446Y-138103169D01*
X142885981Y-138102783D01*
X142921033Y-138100975D01*
X142940262Y-138096773D01*
X142948330Y-138089203D01*
X142949901Y-138078218D01*
X142939121Y-138044381D01*
X142911980Y-138010940D01*
X142876277Y-137985272D01*
X142840560Y-137974772D01*
X142792048Y-137984086D01*
X142750053Y-138011013D01*
X142720936Y-138049827D01*
X142710990Y-138091413D01*
X142590421Y-138091413D01*
X142592599Y-138060236D01*
X142614055Y-137980949D01*
G37*
X142614055Y-137980949D02*
X142650470Y-137921263D01*
X142702297Y-137880549D01*
X142769990Y-137858179D01*
X142806662Y-137853871D01*
X142882581Y-137854970D01*
X142942685Y-137870597D01*
X142993021Y-137902848D01*
X143017393Y-137926940D01*
X143057345Y-137983895D01*
X143080242Y-138049965D01*
X143088108Y-138131182D01*
X143088148Y-138137748D01*
X143088218Y-138203763D01*
X142708264Y-138203763D01*
X142716363Y-138238342D01*
X142730987Y-138269659D01*
X142756581Y-138302291D01*
X142761935Y-138307500D01*
X142807943Y-138335694D01*
X142860410Y-138340475D01*
X142920803Y-138321926D01*
X142931040Y-138316931D01*
X142962439Y-138301745D01*
X142983470Y-138293094D01*
X142987139Y-138292293D01*
X142999948Y-138300063D01*
X143024378Y-138319072D01*
X143036779Y-138329460D01*
X143062476Y-138353321D01*
X143070915Y-138369077D01*
X143065058Y-138383571D01*
X143061928Y-138387534D01*
X143040725Y-138404879D01*
X143005738Y-138425959D01*
X142981337Y-138438265D01*
X142912072Y-138459946D01*
X142835388Y-138466971D01*
X142762765Y-138458647D01*
X142742426Y-138452686D01*
X142679476Y-138418952D01*
X142632815Y-138367045D01*
X142602173Y-138296459D01*
X142587282Y-138206692D01*
X142585647Y-138159753D01*
X142590421Y-138091413D01*
X142710990Y-138091413D01*
X142722652Y-138096465D01*
X142753998Y-138100429D01*
X142799571Y-138102768D01*
X142830446Y-138103169D01*
X142885981Y-138102783D01*
X142921033Y-138100975D01*
X142940262Y-138096773D01*
X142948330Y-138089203D01*
X142949901Y-138078218D01*
X142939121Y-138044381D01*
X142911980Y-138010940D01*
X142876277Y-137985272D01*
X142840560Y-137974772D01*
X142792048Y-137984086D01*
X142750053Y-138011013D01*
X142720936Y-138049827D01*
X142710990Y-138091413D01*
X142590421Y-138091413D01*
X142592599Y-138060236D01*
X142614055Y-137980949D01*
X140095988Y-136919002D02*
X140127283Y-136933950D01*
X140127283Y-136933950D02*
X140157591Y-136955541D01*
X140157591Y-136955541D02*
X140180682Y-136980391D01*
X140180682Y-136980391D02*
X140197500Y-137012087D01*
X140197500Y-137012087D02*
X140208994Y-137054214D01*
X140208994Y-137054214D02*
X140216109Y-137110358D01*
X140216109Y-137110358D02*
X140219793Y-137184106D01*
X140219793Y-137184106D02*
X140220992Y-137279044D01*
X140220992Y-137279044D02*
X140221011Y-137288985D01*
X140221011Y-137288985D02*
X140221287Y-137512179D01*
X140221287Y-137512179D02*
X140082970Y-137512179D01*
X140082970Y-137512179D02*
X140082970Y-137306418D01*
X140082970Y-137306418D02*
X140082872Y-137230189D01*
X140082872Y-137230189D02*
X140082191Y-137174939D01*
X140082191Y-137174939D02*
X140080349Y-137136501D01*
X140080349Y-137136501D02*
X140076767Y-137110706D01*
X140076767Y-137110706D02*
X140070868Y-137093384D01*
X140070868Y-137093384D02*
X140062073Y-137080368D01*
X140062073Y-137080368D02*
X140049820Y-137067507D01*
X140049820Y-137067507D02*
X140006953Y-137039873D01*
X140006953Y-137039873D02*
X139960157Y-137034745D01*
X139960157Y-137034745D02*
X139915576Y-137052217D01*
X139915576Y-137052217D02*
X139900072Y-137065221D01*
X139900072Y-137065221D02*
X139888690Y-137077447D01*
X139888690Y-137077447D02*
X139880519Y-137090540D01*
X139880519Y-137090540D02*
X139875026Y-137108615D01*
X139875026Y-137108615D02*
X139871680Y-137135787D01*
X139871680Y-137135787D02*
X139869949Y-137176170D01*
X139869949Y-137176170D02*
X139869303Y-137233879D01*
X139869303Y-137233879D02*
X139869208Y-137304132D01*
X139869208Y-137304132D02*
X139869208Y-137512179D01*
X139869208Y-137512179D02*
X139730891Y-137512179D01*
X139730891Y-137512179D02*
X139730891Y-136908614D01*
X139730891Y-136908614D02*
X139800050Y-136908614D01*
X139800050Y-136908614D02*
X139841572Y-136910256D01*
X139841572Y-136910256D02*
X139862994Y-136916087D01*
X139862994Y-136916087D02*
X139869205Y-136927461D01*
X139869205Y-136927461D02*
X139869208Y-136927798D01*
X139869208Y-136927798D02*
X139872090Y-136938938D01*
X139872090Y-136938938D02*
X139884801Y-136937674D01*
X139884801Y-136937674D02*
X139910074Y-136925434D01*
X139910074Y-136925434D02*
X139967395Y-136907424D01*
X139967395Y-136907424D02*
X140032963Y-136905421D01*
X140032963Y-136905421D02*
X140095988Y-136919002D01*
X140095988Y-136919002D02*
X140095988Y-136919002D01*
G36*
X140095988Y-136919002D02*
G01*
X140127283Y-136933950D01*
X140157591Y-136955541D01*
X140180682Y-136980391D01*
X140197500Y-137012087D01*
X140208994Y-137054214D01*
X140216109Y-137110358D01*
X140219793Y-137184106D01*
X140220992Y-137279044D01*
X140221011Y-137288985D01*
X140221287Y-137512179D01*
X140082970Y-137512179D01*
X140082970Y-137306418D01*
X140082872Y-137230189D01*
X140082191Y-137174939D01*
X140080349Y-137136501D01*
X140076767Y-137110706D01*
X140070868Y-137093384D01*
X140062073Y-137080368D01*
X140049820Y-137067507D01*
X140006953Y-137039873D01*
X139960157Y-137034745D01*
X139915576Y-137052217D01*
X139900072Y-137065221D01*
X139888690Y-137077447D01*
X139880519Y-137090540D01*
X139875026Y-137108615D01*
X139871680Y-137135787D01*
X139869949Y-137176170D01*
X139869303Y-137233879D01*
X139869208Y-137304132D01*
X139869208Y-137512179D01*
X139730891Y-137512179D01*
X139730891Y-136908614D01*
X139800050Y-136908614D01*
X139841572Y-136910256D01*
X139862994Y-136916087D01*
X139869205Y-136927461D01*
X139869208Y-136927798D01*
X139872090Y-136938938D01*
X139884801Y-136937674D01*
X139910074Y-136925434D01*
X139967395Y-136907424D01*
X140032963Y-136905421D01*
X140095988Y-136919002D01*
G37*
X140095988Y-136919002D02*
X140127283Y-136933950D01*
X140157591Y-136955541D01*
X140180682Y-136980391D01*
X140197500Y-137012087D01*
X140208994Y-137054214D01*
X140216109Y-137110358D01*
X140219793Y-137184106D01*
X140220992Y-137279044D01*
X140221011Y-137288985D01*
X140221287Y-137512179D01*
X140082970Y-137512179D01*
X140082970Y-137306418D01*
X140082872Y-137230189D01*
X140082191Y-137174939D01*
X140080349Y-137136501D01*
X140076767Y-137110706D01*
X140070868Y-137093384D01*
X140062073Y-137080368D01*
X140049820Y-137067507D01*
X140006953Y-137039873D01*
X139960157Y-137034745D01*
X139915576Y-137052217D01*
X139900072Y-137065221D01*
X139888690Y-137077447D01*
X139880519Y-137090540D01*
X139875026Y-137108615D01*
X139871680Y-137135787D01*
X139869949Y-137176170D01*
X139869303Y-137233879D01*
X139869208Y-137304132D01*
X139869208Y-137512179D01*
X139730891Y-137512179D01*
X139730891Y-136908614D01*
X139800050Y-136908614D01*
X139841572Y-136910256D01*
X139862994Y-136916087D01*
X139869205Y-136927461D01*
X139869208Y-136927798D01*
X139872090Y-136938938D01*
X139884801Y-136937674D01*
X139910074Y-136925434D01*
X139967395Y-136907424D01*
X140032963Y-136905421D01*
X140095988Y-136919002D01*
X141460762Y-136916055D02*
X141524363Y-136950692D01*
X141524363Y-136950692D02*
X141574123Y-137005372D01*
X141574123Y-137005372D02*
X141597568Y-137049842D01*
X141597568Y-137049842D02*
X141607634Y-137089121D01*
X141607634Y-137089121D02*
X141614156Y-137145116D01*
X141614156Y-137145116D02*
X141616951Y-137209621D01*
X141616951Y-137209621D02*
X141615836Y-137274429D01*
X141615836Y-137274429D02*
X141610626Y-137331334D01*
X141610626Y-137331334D02*
X141604541Y-137361727D01*
X141604541Y-137361727D02*
X141584014Y-137403306D01*
X141584014Y-137403306D02*
X141548463Y-137447468D01*
X141548463Y-137447468D02*
X141505619Y-137486087D01*
X141505619Y-137486087D02*
X141463211Y-137511034D01*
X141463211Y-137511034D02*
X141462177Y-137511430D01*
X141462177Y-137511430D02*
X141409553Y-137522331D01*
X141409553Y-137522331D02*
X141347188Y-137522601D01*
X141347188Y-137522601D02*
X141287924Y-137512676D01*
X141287924Y-137512676D02*
X141265040Y-137504722D01*
X141265040Y-137504722D02*
X141206102Y-137471300D01*
X141206102Y-137471300D02*
X141163890Y-137427511D01*
X141163890Y-137427511D02*
X141136156Y-137369538D01*
X141136156Y-137369538D02*
X141120651Y-137293565D01*
X141120651Y-137293565D02*
X141117143Y-137253771D01*
X141117143Y-137253771D02*
X141117590Y-137203766D01*
X141117590Y-137203766D02*
X141252376Y-137203766D01*
X141252376Y-137203766D02*
X141256917Y-137276732D01*
X141256917Y-137276732D02*
X141269986Y-137332334D01*
X141269986Y-137332334D02*
X141290756Y-137367861D01*
X141290756Y-137367861D02*
X141305552Y-137378020D01*
X141305552Y-137378020D02*
X141343464Y-137385104D01*
X141343464Y-137385104D02*
X141388527Y-137383007D01*
X141388527Y-137383007D02*
X141427487Y-137372812D01*
X141427487Y-137372812D02*
X141437704Y-137367204D01*
X141437704Y-137367204D02*
X141464659Y-137334538D01*
X141464659Y-137334538D02*
X141482451Y-137284545D01*
X141482451Y-137284545D02*
X141490024Y-137223705D01*
X141490024Y-137223705D02*
X141486325Y-137158497D01*
X141486325Y-137158497D02*
X141478057Y-137119253D01*
X141478057Y-137119253D02*
X141454320Y-137073805D01*
X141454320Y-137073805D02*
X141416849Y-137045396D01*
X141416849Y-137045396D02*
X141371720Y-137035573D01*
X141371720Y-137035573D02*
X141325011Y-137045887D01*
X141325011Y-137045887D02*
X141289132Y-137071112D01*
X141289132Y-137071112D02*
X141270277Y-137091925D01*
X141270277Y-137091925D02*
X141259272Y-137112439D01*
X141259272Y-137112439D02*
X141254026Y-137140203D01*
X141254026Y-137140203D02*
X141252449Y-137182762D01*
X141252449Y-137182762D02*
X141252376Y-137203766D01*
X141252376Y-137203766D02*
X141117590Y-137203766D01*
X141117590Y-137203766D02*
X141118094Y-137147580D01*
X141118094Y-137147580D02*
X141135388Y-137060501D01*
X141135388Y-137060501D02*
X141169029Y-136992530D01*
X141169029Y-136992530D02*
X141219018Y-136943664D01*
X141219018Y-136943664D02*
X141285356Y-136913899D01*
X141285356Y-136913899D02*
X141299601Y-136910448D01*
X141299601Y-136910448D02*
X141385210Y-136902345D01*
X141385210Y-136902345D02*
X141460762Y-136916055D01*
X141460762Y-136916055D02*
X141460762Y-136916055D01*
G36*
X141135388Y-137060501D02*
G01*
X141169029Y-136992530D01*
X141219018Y-136943664D01*
X141285356Y-136913899D01*
X141299601Y-136910448D01*
X141385210Y-136902345D01*
X141460762Y-136916055D01*
X141524363Y-136950692D01*
X141574123Y-137005372D01*
X141597568Y-137049842D01*
X141607634Y-137089121D01*
X141614156Y-137145116D01*
X141616951Y-137209621D01*
X141615836Y-137274429D01*
X141610626Y-137331334D01*
X141604541Y-137361727D01*
X141584014Y-137403306D01*
X141548463Y-137447468D01*
X141505619Y-137486087D01*
X141463211Y-137511034D01*
X141462177Y-137511430D01*
X141409553Y-137522331D01*
X141347188Y-137522601D01*
X141287924Y-137512676D01*
X141265040Y-137504722D01*
X141206102Y-137471300D01*
X141163890Y-137427511D01*
X141136156Y-137369538D01*
X141120651Y-137293565D01*
X141117143Y-137253771D01*
X141117590Y-137203766D01*
X141252376Y-137203766D01*
X141256917Y-137276732D01*
X141269986Y-137332334D01*
X141290756Y-137367861D01*
X141305552Y-137378020D01*
X141343464Y-137385104D01*
X141388527Y-137383007D01*
X141427487Y-137372812D01*
X141437704Y-137367204D01*
X141464659Y-137334538D01*
X141482451Y-137284545D01*
X141490024Y-137223705D01*
X141486325Y-137158497D01*
X141478057Y-137119253D01*
X141454320Y-137073805D01*
X141416849Y-137045396D01*
X141371720Y-137035573D01*
X141325011Y-137045887D01*
X141289132Y-137071112D01*
X141270277Y-137091925D01*
X141259272Y-137112439D01*
X141254026Y-137140203D01*
X141252449Y-137182762D01*
X141252376Y-137203766D01*
X141117590Y-137203766D01*
X141118094Y-137147580D01*
X141135388Y-137060501D01*
G37*
X141135388Y-137060501D02*
X141169029Y-136992530D01*
X141219018Y-136943664D01*
X141285356Y-136913899D01*
X141299601Y-136910448D01*
X141385210Y-136902345D01*
X141460762Y-136916055D01*
X141524363Y-136950692D01*
X141574123Y-137005372D01*
X141597568Y-137049842D01*
X141607634Y-137089121D01*
X141614156Y-137145116D01*
X141616951Y-137209621D01*
X141615836Y-137274429D01*
X141610626Y-137331334D01*
X141604541Y-137361727D01*
X141584014Y-137403306D01*
X141548463Y-137447468D01*
X141505619Y-137486087D01*
X141463211Y-137511034D01*
X141462177Y-137511430D01*
X141409553Y-137522331D01*
X141347188Y-137522601D01*
X141287924Y-137512676D01*
X141265040Y-137504722D01*
X141206102Y-137471300D01*
X141163890Y-137427511D01*
X141136156Y-137369538D01*
X141120651Y-137293565D01*
X141117143Y-137253771D01*
X141117590Y-137203766D01*
X141252376Y-137203766D01*
X141256917Y-137276732D01*
X141269986Y-137332334D01*
X141290756Y-137367861D01*
X141305552Y-137378020D01*
X141343464Y-137385104D01*
X141388527Y-137383007D01*
X141427487Y-137372812D01*
X141437704Y-137367204D01*
X141464659Y-137334538D01*
X141482451Y-137284545D01*
X141490024Y-137223705D01*
X141486325Y-137158497D01*
X141478057Y-137119253D01*
X141454320Y-137073805D01*
X141416849Y-137045396D01*
X141371720Y-137035573D01*
X141325011Y-137045887D01*
X141289132Y-137071112D01*
X141270277Y-137091925D01*
X141259272Y-137112439D01*
X141254026Y-137140203D01*
X141252449Y-137182762D01*
X141252376Y-137203766D01*
X141117590Y-137203766D01*
X141118094Y-137147580D01*
X141135388Y-137060501D01*
X138311739Y-136915148D02*
X138377521Y-136944231D01*
X138377521Y-136944231D02*
X138427460Y-136992793D01*
X138427460Y-136992793D02*
X138461626Y-137060908D01*
X138461626Y-137060908D02*
X138480093Y-137148651D01*
X138480093Y-137148651D02*
X138481417Y-137162351D01*
X138481417Y-137162351D02*
X138482454Y-137258939D01*
X138482454Y-137258939D02*
X138469007Y-137343602D01*
X138469007Y-137343602D02*
X138441892Y-137412221D01*
X138441892Y-137412221D02*
X138427373Y-137434294D01*
X138427373Y-137434294D02*
X138376799Y-137481011D01*
X138376799Y-137481011D02*
X138312391Y-137511268D01*
X138312391Y-137511268D02*
X138240334Y-137523824D01*
X138240334Y-137523824D02*
X138166815Y-137517439D01*
X138166815Y-137517439D02*
X138110928Y-137497772D01*
X138110928Y-137497772D02*
X138062868Y-137464629D01*
X138062868Y-137464629D02*
X138023588Y-137421175D01*
X138023588Y-137421175D02*
X138022908Y-137420158D01*
X138022908Y-137420158D02*
X138006956Y-137393338D01*
X138006956Y-137393338D02*
X137996590Y-137366368D01*
X137996590Y-137366368D02*
X137990312Y-137332332D01*
X137990312Y-137332332D02*
X137986627Y-137284310D01*
X137986627Y-137284310D02*
X137985003Y-137244931D01*
X137985003Y-137244931D02*
X137984328Y-137209219D01*
X137984328Y-137209219D02*
X138110045Y-137209219D01*
X138110045Y-137209219D02*
X138111274Y-137244770D01*
X138111274Y-137244770D02*
X138115734Y-137292094D01*
X138115734Y-137292094D02*
X138123603Y-137322465D01*
X138123603Y-137322465D02*
X138137793Y-137344072D01*
X138137793Y-137344072D02*
X138151083Y-137356694D01*
X138151083Y-137356694D02*
X138198198Y-137383122D01*
X138198198Y-137383122D02*
X138247495Y-137386653D01*
X138247495Y-137386653D02*
X138293407Y-137367639D01*
X138293407Y-137367639D02*
X138316362Y-137346331D01*
X138316362Y-137346331D02*
X138332904Y-137324859D01*
X138332904Y-137324859D02*
X138342579Y-137304313D01*
X138342579Y-137304313D02*
X138346826Y-137277574D01*
X138346826Y-137277574D02*
X138347080Y-137237523D01*
X138347080Y-137237523D02*
X138345772Y-137200638D01*
X138345772Y-137200638D02*
X138342957Y-137147947D01*
X138342957Y-137147947D02*
X138338495Y-137113772D01*
X138338495Y-137113772D02*
X138330452Y-137091480D01*
X138330452Y-137091480D02*
X138316897Y-137074442D01*
X138316897Y-137074442D02*
X138306155Y-137064703D01*
X138306155Y-137064703D02*
X138261223Y-137039123D01*
X138261223Y-137039123D02*
X138212751Y-137037847D01*
X138212751Y-137037847D02*
X138172106Y-137052999D01*
X138172106Y-137052999D02*
X138137433Y-137084642D01*
X138137433Y-137084642D02*
X138116776Y-137136620D01*
X138116776Y-137136620D02*
X138110045Y-137209219D01*
X138110045Y-137209219D02*
X137984328Y-137209219D01*
X137984328Y-137209219D02*
X137983521Y-137166621D01*
X137983521Y-137166621D02*
X137986052Y-137108056D01*
X137986052Y-137108056D02*
X137993638Y-137064007D01*
X137993638Y-137064007D02*
X138007319Y-137029248D01*
X138007319Y-137029248D02*
X138028135Y-136998551D01*
X138028135Y-136998551D02*
X138035853Y-136989436D01*
X138035853Y-136989436D02*
X138084111Y-136944021D01*
X138084111Y-136944021D02*
X138135872Y-136917493D01*
X138135872Y-136917493D02*
X138199172Y-136906379D01*
X138199172Y-136906379D02*
X138230039Y-136905471D01*
X138230039Y-136905471D02*
X138311739Y-136915148D01*
X138311739Y-136915148D02*
X138311739Y-136915148D01*
G36*
X137986052Y-137108056D02*
G01*
X137993638Y-137064007D01*
X138007319Y-137029248D01*
X138028135Y-136998551D01*
X138035853Y-136989436D01*
X138084111Y-136944021D01*
X138135872Y-136917493D01*
X138199172Y-136906379D01*
X138230039Y-136905471D01*
X138311739Y-136915148D01*
X138377521Y-136944231D01*
X138427460Y-136992793D01*
X138461626Y-137060908D01*
X138480093Y-137148651D01*
X138481417Y-137162351D01*
X138482454Y-137258939D01*
X138469007Y-137343602D01*
X138441892Y-137412221D01*
X138427373Y-137434294D01*
X138376799Y-137481011D01*
X138312391Y-137511268D01*
X138240334Y-137523824D01*
X138166815Y-137517439D01*
X138110928Y-137497772D01*
X138062868Y-137464629D01*
X138023588Y-137421175D01*
X138022908Y-137420158D01*
X138006956Y-137393338D01*
X137996590Y-137366368D01*
X137990312Y-137332332D01*
X137986627Y-137284310D01*
X137985003Y-137244931D01*
X137984328Y-137209219D01*
X138110045Y-137209219D01*
X138111274Y-137244770D01*
X138115734Y-137292094D01*
X138123603Y-137322465D01*
X138137793Y-137344072D01*
X138151083Y-137356694D01*
X138198198Y-137383122D01*
X138247495Y-137386653D01*
X138293407Y-137367639D01*
X138316362Y-137346331D01*
X138332904Y-137324859D01*
X138342579Y-137304313D01*
X138346826Y-137277574D01*
X138347080Y-137237523D01*
X138345772Y-137200638D01*
X138342957Y-137147947D01*
X138338495Y-137113772D01*
X138330452Y-137091480D01*
X138316897Y-137074442D01*
X138306155Y-137064703D01*
X138261223Y-137039123D01*
X138212751Y-137037847D01*
X138172106Y-137052999D01*
X138137433Y-137084642D01*
X138116776Y-137136620D01*
X138110045Y-137209219D01*
X137984328Y-137209219D01*
X137983521Y-137166621D01*
X137986052Y-137108056D01*
G37*
X137986052Y-137108056D02*
X137993638Y-137064007D01*
X138007319Y-137029248D01*
X138028135Y-136998551D01*
X138035853Y-136989436D01*
X138084111Y-136944021D01*
X138135872Y-136917493D01*
X138199172Y-136906379D01*
X138230039Y-136905471D01*
X138311739Y-136915148D01*
X138377521Y-136944231D01*
X138427460Y-136992793D01*
X138461626Y-137060908D01*
X138480093Y-137148651D01*
X138481417Y-137162351D01*
X138482454Y-137258939D01*
X138469007Y-137343602D01*
X138441892Y-137412221D01*
X138427373Y-137434294D01*
X138376799Y-137481011D01*
X138312391Y-137511268D01*
X138240334Y-137523824D01*
X138166815Y-137517439D01*
X138110928Y-137497772D01*
X138062868Y-137464629D01*
X138023588Y-137421175D01*
X138022908Y-137420158D01*
X138006956Y-137393338D01*
X137996590Y-137366368D01*
X137990312Y-137332332D01*
X137986627Y-137284310D01*
X137985003Y-137244931D01*
X137984328Y-137209219D01*
X138110045Y-137209219D01*
X138111274Y-137244770D01*
X138115734Y-137292094D01*
X138123603Y-137322465D01*
X138137793Y-137344072D01*
X138151083Y-137356694D01*
X138198198Y-137383122D01*
X138247495Y-137386653D01*
X138293407Y-137367639D01*
X138316362Y-137346331D01*
X138332904Y-137324859D01*
X138342579Y-137304313D01*
X138346826Y-137277574D01*
X138347080Y-137237523D01*
X138345772Y-137200638D01*
X138342957Y-137147947D01*
X138338495Y-137113772D01*
X138330452Y-137091480D01*
X138316897Y-137074442D01*
X138306155Y-137064703D01*
X138261223Y-137039123D01*
X138212751Y-137037847D01*
X138172106Y-137052999D01*
X138137433Y-137084642D01*
X138116776Y-137136620D01*
X138110045Y-137209219D01*
X137984328Y-137209219D01*
X137983521Y-137166621D01*
X137986052Y-137108056D01*
X139493301Y-136922614D02*
X139505832Y-136928514D01*
X139505832Y-136928514D02*
X139549201Y-136960283D01*
X139549201Y-136960283D02*
X139590210Y-137006646D01*
X139590210Y-137006646D02*
X139620832Y-137057696D01*
X139620832Y-137057696D02*
X139629541Y-137081166D01*
X139629541Y-137081166D02*
X139637488Y-137123091D01*
X139637488Y-137123091D02*
X139642226Y-137173757D01*
X139642226Y-137173757D02*
X139642801Y-137194679D01*
X139642801Y-137194679D02*
X139642871Y-137260693D01*
X139642871Y-137260693D02*
X139262917Y-137260693D01*
X139262917Y-137260693D02*
X139271017Y-137295273D01*
X139271017Y-137295273D02*
X139290896Y-137336170D01*
X139290896Y-137336170D02*
X139325653Y-137371514D01*
X139325653Y-137371514D02*
X139367002Y-137394282D01*
X139367002Y-137394282D02*
X139393351Y-137399010D01*
X139393351Y-137399010D02*
X139429084Y-137393273D01*
X139429084Y-137393273D02*
X139471718Y-137378882D01*
X139471718Y-137378882D02*
X139486201Y-137372262D01*
X139486201Y-137372262D02*
X139539760Y-137345513D01*
X139539760Y-137345513D02*
X139585467Y-137380376D01*
X139585467Y-137380376D02*
X139611842Y-137403955D01*
X139611842Y-137403955D02*
X139625876Y-137423417D01*
X139625876Y-137423417D02*
X139626586Y-137429129D01*
X139626586Y-137429129D02*
X139614049Y-137442973D01*
X139614049Y-137442973D02*
X139586572Y-137464012D01*
X139586572Y-137464012D02*
X139561634Y-137480425D01*
X139561634Y-137480425D02*
X139494336Y-137509930D01*
X139494336Y-137509930D02*
X139418890Y-137523284D01*
X139418890Y-137523284D02*
X139344112Y-137519812D01*
X139344112Y-137519812D02*
X139284505Y-137501663D01*
X139284505Y-137501663D02*
X139223059Y-137462784D01*
X139223059Y-137462784D02*
X139179392Y-137411595D01*
X139179392Y-137411595D02*
X139152074Y-137345367D01*
X139152074Y-137345367D02*
X139139678Y-137261371D01*
X139139678Y-137261371D02*
X139138579Y-137222936D01*
X139138579Y-137222936D02*
X139142978Y-137134861D01*
X139142978Y-137134861D02*
X139143518Y-137132299D01*
X139143518Y-137132299D02*
X139269418Y-137132299D01*
X139269418Y-137132299D02*
X139272885Y-137140558D01*
X139272885Y-137140558D02*
X139287137Y-137145113D01*
X139287137Y-137145113D02*
X139316530Y-137147065D01*
X139316530Y-137147065D02*
X139365425Y-137147517D01*
X139365425Y-137147517D02*
X139384252Y-137147525D01*
X139384252Y-137147525D02*
X139441533Y-137146843D01*
X139441533Y-137146843D02*
X139477859Y-137144364D01*
X139477859Y-137144364D02*
X139497396Y-137139443D01*
X139497396Y-137139443D02*
X139504310Y-137131434D01*
X139504310Y-137131434D02*
X139504555Y-137128862D01*
X139504555Y-137128862D02*
X139496664Y-137108423D01*
X139496664Y-137108423D02*
X139476915Y-137079789D01*
X139476915Y-137079789D02*
X139468425Y-137069763D01*
X139468425Y-137069763D02*
X139436906Y-137041408D01*
X139436906Y-137041408D02*
X139404051Y-137030259D01*
X139404051Y-137030259D02*
X139386349Y-137029327D01*
X139386349Y-137029327D02*
X139338461Y-137040981D01*
X139338461Y-137040981D02*
X139298301Y-137072285D01*
X139298301Y-137072285D02*
X139272827Y-137117752D01*
X139272827Y-137117752D02*
X139272375Y-137119233D01*
X139272375Y-137119233D02*
X139269418Y-137132299D01*
X139269418Y-137132299D02*
X139143518Y-137132299D01*
X139143518Y-137132299D02*
X139157608Y-137065510D01*
X139157608Y-137065510D02*
X139183962Y-137010025D01*
X139183962Y-137010025D02*
X139216193Y-136970639D01*
X139216193Y-136970639D02*
X139275783Y-136927931D01*
X139275783Y-136927931D02*
X139345832Y-136905109D01*
X139345832Y-136905109D02*
X139420339Y-136903046D01*
X139420339Y-136903046D02*
X139493301Y-136922614D01*
X139493301Y-136922614D02*
X139493301Y-136922614D01*
G36*
X139183962Y-137010025D02*
G01*
X139216193Y-136970639D01*
X139275783Y-136927931D01*
X139345832Y-136905109D01*
X139420339Y-136903046D01*
X139493301Y-136922614D01*
X139505832Y-136928514D01*
X139549201Y-136960283D01*
X139590210Y-137006646D01*
X139620832Y-137057696D01*
X139629541Y-137081166D01*
X139637488Y-137123091D01*
X139642226Y-137173757D01*
X139642801Y-137194679D01*
X139642871Y-137260693D01*
X139262917Y-137260693D01*
X139271017Y-137295273D01*
X139290896Y-137336170D01*
X139325653Y-137371514D01*
X139367002Y-137394282D01*
X139393351Y-137399010D01*
X139429084Y-137393273D01*
X139471718Y-137378882D01*
X139486201Y-137372262D01*
X139539760Y-137345513D01*
X139585467Y-137380376D01*
X139611842Y-137403955D01*
X139625876Y-137423417D01*
X139626586Y-137429129D01*
X139614049Y-137442973D01*
X139586572Y-137464012D01*
X139561634Y-137480425D01*
X139494336Y-137509930D01*
X139418890Y-137523284D01*
X139344112Y-137519812D01*
X139284505Y-137501663D01*
X139223059Y-137462784D01*
X139179392Y-137411595D01*
X139152074Y-137345367D01*
X139139678Y-137261371D01*
X139138579Y-137222936D01*
X139142978Y-137134861D01*
X139143518Y-137132299D01*
X139269418Y-137132299D01*
X139272885Y-137140558D01*
X139287137Y-137145113D01*
X139316530Y-137147065D01*
X139365425Y-137147517D01*
X139384252Y-137147525D01*
X139441533Y-137146843D01*
X139477859Y-137144364D01*
X139497396Y-137139443D01*
X139504310Y-137131434D01*
X139504555Y-137128862D01*
X139496664Y-137108423D01*
X139476915Y-137079789D01*
X139468425Y-137069763D01*
X139436906Y-137041408D01*
X139404051Y-137030259D01*
X139386349Y-137029327D01*
X139338461Y-137040981D01*
X139298301Y-137072285D01*
X139272827Y-137117752D01*
X139272375Y-137119233D01*
X139269418Y-137132299D01*
X139143518Y-137132299D01*
X139157608Y-137065510D01*
X139183962Y-137010025D01*
G37*
X139183962Y-137010025D02*
X139216193Y-136970639D01*
X139275783Y-136927931D01*
X139345832Y-136905109D01*
X139420339Y-136903046D01*
X139493301Y-136922614D01*
X139505832Y-136928514D01*
X139549201Y-136960283D01*
X139590210Y-137006646D01*
X139620832Y-137057696D01*
X139629541Y-137081166D01*
X139637488Y-137123091D01*
X139642226Y-137173757D01*
X139642801Y-137194679D01*
X139642871Y-137260693D01*
X139262917Y-137260693D01*
X139271017Y-137295273D01*
X139290896Y-137336170D01*
X139325653Y-137371514D01*
X139367002Y-137394282D01*
X139393351Y-137399010D01*
X139429084Y-137393273D01*
X139471718Y-137378882D01*
X139486201Y-137372262D01*
X139539760Y-137345513D01*
X139585467Y-137380376D01*
X139611842Y-137403955D01*
X139625876Y-137423417D01*
X139626586Y-137429129D01*
X139614049Y-137442973D01*
X139586572Y-137464012D01*
X139561634Y-137480425D01*
X139494336Y-137509930D01*
X139418890Y-137523284D01*
X139344112Y-137519812D01*
X139284505Y-137501663D01*
X139223059Y-137462784D01*
X139179392Y-137411595D01*
X139152074Y-137345367D01*
X139139678Y-137261371D01*
X139138579Y-137222936D01*
X139142978Y-137134861D01*
X139143518Y-137132299D01*
X139269418Y-137132299D01*
X139272885Y-137140558D01*
X139287137Y-137145113D01*
X139316530Y-137147065D01*
X139365425Y-137147517D01*
X139384252Y-137147525D01*
X139441533Y-137146843D01*
X139477859Y-137144364D01*
X139497396Y-137139443D01*
X139504310Y-137131434D01*
X139504555Y-137128862D01*
X139496664Y-137108423D01*
X139476915Y-137079789D01*
X139468425Y-137069763D01*
X139436906Y-137041408D01*
X139404051Y-137030259D01*
X139386349Y-137029327D01*
X139338461Y-137040981D01*
X139298301Y-137072285D01*
X139272827Y-137117752D01*
X139272375Y-137119233D01*
X139269418Y-137132299D01*
X139143518Y-137132299D01*
X139157608Y-137065510D01*
X139183962Y-137010025D01*
X141888411Y-137855417D02*
X141941411Y-137868290D01*
X141941411Y-137868290D02*
X141956731Y-137875110D01*
X141956731Y-137875110D02*
X141986428Y-137892974D01*
X141986428Y-137892974D02*
X142009220Y-137913093D01*
X142009220Y-137913093D02*
X142026083Y-137938962D01*
X142026083Y-137938962D02*
X142037998Y-137974073D01*
X142037998Y-137974073D02*
X142045942Y-138021920D01*
X142045942Y-138021920D02*
X142050894Y-138085996D01*
X142050894Y-138085996D02*
X142053831Y-138169794D01*
X142053831Y-138169794D02*
X142054947Y-138225768D01*
X142054947Y-138225768D02*
X142059052Y-138467822D01*
X142059052Y-138467822D02*
X141988932Y-138467822D01*
X141988932Y-138467822D02*
X141946393Y-138466038D01*
X141946393Y-138466038D02*
X141924476Y-138459942D01*
X141924476Y-138459942D02*
X141918812Y-138449706D01*
X141918812Y-138449706D02*
X141915821Y-138438637D01*
X141915821Y-138438637D02*
X141902451Y-138440754D01*
X141902451Y-138440754D02*
X141884233Y-138449629D01*
X141884233Y-138449629D02*
X141838624Y-138463233D01*
X141838624Y-138463233D02*
X141780007Y-138466899D01*
X141780007Y-138466899D02*
X141718354Y-138460903D01*
X141718354Y-138460903D02*
X141663638Y-138445521D01*
X141663638Y-138445521D02*
X141658730Y-138443386D01*
X141658730Y-138443386D02*
X141608723Y-138408255D01*
X141608723Y-138408255D02*
X141575756Y-138359419D01*
X141575756Y-138359419D02*
X141560587Y-138302333D01*
X141560587Y-138302333D02*
X141561746Y-138281824D01*
X141561746Y-138281824D02*
X141685508Y-138281824D01*
X141685508Y-138281824D02*
X141696413Y-138309425D01*
X141696413Y-138309425D02*
X141728745Y-138329204D01*
X141728745Y-138329204D02*
X141780910Y-138339819D01*
X141780910Y-138339819D02*
X141808787Y-138341228D01*
X141808787Y-138341228D02*
X141855247Y-138337620D01*
X141855247Y-138337620D02*
X141886129Y-138323597D01*
X141886129Y-138323597D02*
X141893664Y-138316931D01*
X141893664Y-138316931D02*
X141914076Y-138280666D01*
X141914076Y-138280666D02*
X141918812Y-138247773D01*
X141918812Y-138247773D02*
X141918812Y-138203763D01*
X141918812Y-138203763D02*
X141857513Y-138203763D01*
X141857513Y-138203763D02*
X141786256Y-138207395D01*
X141786256Y-138207395D02*
X141736276Y-138218818D01*
X141736276Y-138218818D02*
X141704696Y-138238824D01*
X141704696Y-138238824D02*
X141697626Y-138247743D01*
X141697626Y-138247743D02*
X141685508Y-138281824D01*
X141685508Y-138281824D02*
X141561746Y-138281824D01*
X141561746Y-138281824D02*
X141563971Y-138242456D01*
X141563971Y-138242456D02*
X141586663Y-138185244D01*
X141586663Y-138185244D02*
X141617624Y-138146580D01*
X141617624Y-138146580D02*
X141636376Y-138129864D01*
X141636376Y-138129864D02*
X141654733Y-138118878D01*
X141654733Y-138118878D02*
X141678619Y-138112180D01*
X141678619Y-138112180D02*
X141713957Y-138108326D01*
X141713957Y-138108326D02*
X141766669Y-138105873D01*
X141766669Y-138105873D02*
X141787577Y-138105168D01*
X141787577Y-138105168D02*
X141918812Y-138100879D01*
X141918812Y-138100879D02*
X141918620Y-138061158D01*
X141918620Y-138061158D02*
X141913537Y-138019405D01*
X141913537Y-138019405D02*
X141895162Y-137994158D01*
X141895162Y-137994158D02*
X141858039Y-137978030D01*
X141858039Y-137978030D02*
X141857043Y-137977742D01*
X141857043Y-137977742D02*
X141804410Y-137971400D01*
X141804410Y-137971400D02*
X141752906Y-137979684D01*
X141752906Y-137979684D02*
X141714630Y-137999827D01*
X141714630Y-137999827D02*
X141699272Y-138009773D01*
X141699272Y-138009773D02*
X141682730Y-138008397D01*
X141682730Y-138008397D02*
X141657275Y-137993987D01*
X141657275Y-137993987D02*
X141642328Y-137983817D01*
X141642328Y-137983817D02*
X141613091Y-137962088D01*
X141613091Y-137962088D02*
X141594980Y-137945800D01*
X141594980Y-137945800D02*
X141592074Y-137941137D01*
X141592074Y-137941137D02*
X141604040Y-137917005D01*
X141604040Y-137917005D02*
X141639396Y-137888185D01*
X141639396Y-137888185D02*
X141654753Y-137878461D01*
X141654753Y-137878461D02*
X141698901Y-137861714D01*
X141698901Y-137861714D02*
X141758398Y-137852227D01*
X141758398Y-137852227D02*
X141824487Y-137850095D01*
X141824487Y-137850095D02*
X141888411Y-137855417D01*
X141888411Y-137855417D02*
X141888411Y-137855417D01*
G36*
X141586663Y-138185244D02*
G01*
X141617624Y-138146580D01*
X141636376Y-138129864D01*
X141654733Y-138118878D01*
X141678619Y-138112180D01*
X141713957Y-138108326D01*
X141766669Y-138105873D01*
X141787577Y-138105168D01*
X141918812Y-138100879D01*
X141918620Y-138061158D01*
X141913537Y-138019405D01*
X141895162Y-137994158D01*
X141858039Y-137978030D01*
X141857043Y-137977742D01*
X141804410Y-137971400D01*
X141752906Y-137979684D01*
X141714630Y-137999827D01*
X141699272Y-138009773D01*
X141682730Y-138008397D01*
X141657275Y-137993987D01*
X141642328Y-137983817D01*
X141613091Y-137962088D01*
X141594980Y-137945800D01*
X141592074Y-137941137D01*
X141604040Y-137917005D01*
X141639396Y-137888185D01*
X141654753Y-137878461D01*
X141698901Y-137861714D01*
X141758398Y-137852227D01*
X141824487Y-137850095D01*
X141888411Y-137855417D01*
X141941411Y-137868290D01*
X141956731Y-137875110D01*
X141986428Y-137892974D01*
X142009220Y-137913093D01*
X142026083Y-137938962D01*
X142037998Y-137974073D01*
X142045942Y-138021920D01*
X142050894Y-138085996D01*
X142053831Y-138169794D01*
X142054947Y-138225768D01*
X142059052Y-138467822D01*
X141988932Y-138467822D01*
X141946393Y-138466038D01*
X141924476Y-138459942D01*
X141918812Y-138449706D01*
X141915821Y-138438637D01*
X141902451Y-138440754D01*
X141884233Y-138449629D01*
X141838624Y-138463233D01*
X141780007Y-138466899D01*
X141718354Y-138460903D01*
X141663638Y-138445521D01*
X141658730Y-138443386D01*
X141608723Y-138408255D01*
X141575756Y-138359419D01*
X141560587Y-138302333D01*
X141561746Y-138281824D01*
X141685508Y-138281824D01*
X141696413Y-138309425D01*
X141728745Y-138329204D01*
X141780910Y-138339819D01*
X141808787Y-138341228D01*
X141855247Y-138337620D01*
X141886129Y-138323597D01*
X141893664Y-138316931D01*
X141914076Y-138280666D01*
X141918812Y-138247773D01*
X141918812Y-138203763D01*
X141857513Y-138203763D01*
X141786256Y-138207395D01*
X141736276Y-138218818D01*
X141704696Y-138238824D01*
X141697626Y-138247743D01*
X141685508Y-138281824D01*
X141561746Y-138281824D01*
X141563971Y-138242456D01*
X141586663Y-138185244D01*
G37*
X141586663Y-138185244D02*
X141617624Y-138146580D01*
X141636376Y-138129864D01*
X141654733Y-138118878D01*
X141678619Y-138112180D01*
X141713957Y-138108326D01*
X141766669Y-138105873D01*
X141787577Y-138105168D01*
X141918812Y-138100879D01*
X141918620Y-138061158D01*
X141913537Y-138019405D01*
X141895162Y-137994158D01*
X141858039Y-137978030D01*
X141857043Y-137977742D01*
X141804410Y-137971400D01*
X141752906Y-137979684D01*
X141714630Y-137999827D01*
X141699272Y-138009773D01*
X141682730Y-138008397D01*
X141657275Y-137993987D01*
X141642328Y-137983817D01*
X141613091Y-137962088D01*
X141594980Y-137945800D01*
X141592074Y-137941137D01*
X141604040Y-137917005D01*
X141639396Y-137888185D01*
X141654753Y-137878461D01*
X141698901Y-137861714D01*
X141758398Y-137852227D01*
X141824487Y-137850095D01*
X141888411Y-137855417D01*
X141941411Y-137868290D01*
X141956731Y-137875110D01*
X141986428Y-137892974D01*
X142009220Y-137913093D01*
X142026083Y-137938962D01*
X142037998Y-137974073D01*
X142045942Y-138021920D01*
X142050894Y-138085996D01*
X142053831Y-138169794D01*
X142054947Y-138225768D01*
X142059052Y-138467822D01*
X141988932Y-138467822D01*
X141946393Y-138466038D01*
X141924476Y-138459942D01*
X141918812Y-138449706D01*
X141915821Y-138438637D01*
X141902451Y-138440754D01*
X141884233Y-138449629D01*
X141838624Y-138463233D01*
X141780007Y-138466899D01*
X141718354Y-138460903D01*
X141663638Y-138445521D01*
X141658730Y-138443386D01*
X141608723Y-138408255D01*
X141575756Y-138359419D01*
X141560587Y-138302333D01*
X141561746Y-138281824D01*
X141685508Y-138281824D01*
X141696413Y-138309425D01*
X141728745Y-138329204D01*
X141780910Y-138339819D01*
X141808787Y-138341228D01*
X141855247Y-138337620D01*
X141886129Y-138323597D01*
X141893664Y-138316931D01*
X141914076Y-138280666D01*
X141918812Y-138247773D01*
X141918812Y-138203763D01*
X141857513Y-138203763D01*
X141786256Y-138207395D01*
X141736276Y-138218818D01*
X141704696Y-138238824D01*
X141697626Y-138247743D01*
X141685508Y-138281824D01*
X141561746Y-138281824D01*
X141563971Y-138242456D01*
X141586663Y-138185244D01*
X139465790Y-137856555D02*
X139524945Y-137872339D01*
X139524945Y-137872339D02*
X139569977Y-137900948D01*
X139569977Y-137900948D02*
X139601754Y-137938419D01*
X139601754Y-137938419D02*
X139611634Y-137954411D01*
X139611634Y-137954411D02*
X139618927Y-137971163D01*
X139618927Y-137971163D02*
X139624026Y-137992592D01*
X139624026Y-137992592D02*
X139627321Y-138022616D01*
X139627321Y-138022616D02*
X139629203Y-138065154D01*
X139629203Y-138065154D02*
X139630063Y-138124122D01*
X139630063Y-138124122D02*
X139630293Y-138203440D01*
X139630293Y-138203440D02*
X139630297Y-138224484D01*
X139630297Y-138224484D02*
X139630297Y-138467822D01*
X139630297Y-138467822D02*
X139569941Y-138467822D01*
X139569941Y-138467822D02*
X139531443Y-138465126D01*
X139531443Y-138465126D02*
X139502977Y-138458295D01*
X139502977Y-138458295D02*
X139495845Y-138454083D01*
X139495845Y-138454083D02*
X139476348Y-138446813D01*
X139476348Y-138446813D02*
X139456434Y-138454083D01*
X139456434Y-138454083D02*
X139423647Y-138463160D01*
X139423647Y-138463160D02*
X139376022Y-138466813D01*
X139376022Y-138466813D02*
X139323236Y-138465228D01*
X139323236Y-138465228D02*
X139274964Y-138458589D01*
X139274964Y-138458589D02*
X139246782Y-138450072D01*
X139246782Y-138450072D02*
X139192247Y-138415063D01*
X139192247Y-138415063D02*
X139158165Y-138366479D01*
X139158165Y-138366479D02*
X139142843Y-138301882D01*
X139142843Y-138301882D02*
X139142701Y-138300223D01*
X139142701Y-138300223D02*
X139144045Y-138271566D01*
X139144045Y-138271566D02*
X139265644Y-138271566D01*
X139265644Y-138271566D02*
X139276274Y-138304161D01*
X139276274Y-138304161D02*
X139293590Y-138322505D01*
X139293590Y-138322505D02*
X139328348Y-138336379D01*
X139328348Y-138336379D02*
X139374227Y-138341917D01*
X139374227Y-138341917D02*
X139421012Y-138339191D01*
X139421012Y-138339191D02*
X139458486Y-138328274D01*
X139458486Y-138328274D02*
X139468985Y-138321269D01*
X139468985Y-138321269D02*
X139487332Y-138288904D01*
X139487332Y-138288904D02*
X139491980Y-138252111D01*
X139491980Y-138252111D02*
X139491980Y-138203763D01*
X139491980Y-138203763D02*
X139422418Y-138203763D01*
X139422418Y-138203763D02*
X139356333Y-138208850D01*
X139356333Y-138208850D02*
X139306236Y-138223263D01*
X139306236Y-138223263D02*
X139275071Y-138245729D01*
X139275071Y-138245729D02*
X139265644Y-138271566D01*
X139265644Y-138271566D02*
X139144045Y-138271566D01*
X139144045Y-138271566D02*
X139146013Y-138229647D01*
X139146013Y-138229647D02*
X139169290Y-138173845D01*
X139169290Y-138173845D02*
X139213052Y-138131647D01*
X139213052Y-138131647D02*
X139219101Y-138127808D01*
X139219101Y-138127808D02*
X139245093Y-138115309D01*
X139245093Y-138115309D02*
X139277265Y-138107740D01*
X139277265Y-138107740D02*
X139322240Y-138104061D01*
X139322240Y-138104061D02*
X139375669Y-138103216D01*
X139375669Y-138103216D02*
X139491980Y-138103169D01*
X139491980Y-138103169D02*
X139491980Y-138054411D01*
X139491980Y-138054411D02*
X139487047Y-138016581D01*
X139487047Y-138016581D02*
X139474457Y-137991236D01*
X139474457Y-137991236D02*
X139472983Y-137989887D01*
X139472983Y-137989887D02*
X139444966Y-137978800D01*
X139444966Y-137978800D02*
X139402674Y-137974503D01*
X139402674Y-137974503D02*
X139355936Y-137976615D01*
X139355936Y-137976615D02*
X139314582Y-137984756D01*
X139314582Y-137984756D02*
X139290043Y-137996965D01*
X139290043Y-137996965D02*
X139276747Y-138006746D01*
X139276747Y-138006746D02*
X139262706Y-138008613D01*
X139262706Y-138008613D02*
X139243329Y-138000600D01*
X139243329Y-138000600D02*
X139214024Y-137980739D01*
X139214024Y-137980739D02*
X139170197Y-137947063D01*
X139170197Y-137947063D02*
X139166175Y-137943909D01*
X139166175Y-137943909D02*
X139168236Y-137932236D01*
X139168236Y-137932236D02*
X139185432Y-137912822D01*
X139185432Y-137912822D02*
X139211567Y-137891248D01*
X139211567Y-137891248D02*
X139240448Y-137873096D01*
X139240448Y-137873096D02*
X139249522Y-137868809D01*
X139249522Y-137868809D02*
X139282620Y-137860256D01*
X139282620Y-137860256D02*
X139331120Y-137854155D01*
X139331120Y-137854155D02*
X139385305Y-137851708D01*
X139385305Y-137851708D02*
X139387839Y-137851703D01*
X139387839Y-137851703D02*
X139465790Y-137856555D01*
X139465790Y-137856555D02*
X139465790Y-137856555D01*
G36*
X139169290Y-138173845D02*
G01*
X139213052Y-138131647D01*
X139219101Y-138127808D01*
X139245093Y-138115309D01*
X139277265Y-138107740D01*
X139322240Y-138104061D01*
X139375669Y-138103216D01*
X139491980Y-138103169D01*
X139491980Y-138054411D01*
X139487047Y-138016581D01*
X139474457Y-137991236D01*
X139472983Y-137989887D01*
X139444966Y-137978800D01*
X139402674Y-137974503D01*
X139355936Y-137976615D01*
X139314582Y-137984756D01*
X139290043Y-137996965D01*
X139276747Y-138006746D01*
X139262706Y-138008613D01*
X139243329Y-138000600D01*
X139214024Y-137980739D01*
X139170197Y-137947063D01*
X139166175Y-137943909D01*
X139168236Y-137932236D01*
X139185432Y-137912822D01*
X139211567Y-137891248D01*
X139240448Y-137873096D01*
X139249522Y-137868809D01*
X139282620Y-137860256D01*
X139331120Y-137854155D01*
X139385305Y-137851708D01*
X139387839Y-137851703D01*
X139465790Y-137856555D01*
X139524945Y-137872339D01*
X139569977Y-137900948D01*
X139601754Y-137938419D01*
X139611634Y-137954411D01*
X139618927Y-137971163D01*
X139624026Y-137992592D01*
X139627321Y-138022616D01*
X139629203Y-138065154D01*
X139630063Y-138124122D01*
X139630293Y-138203440D01*
X139630297Y-138224484D01*
X139630297Y-138467822D01*
X139569941Y-138467822D01*
X139531443Y-138465126D01*
X139502977Y-138458295D01*
X139495845Y-138454083D01*
X139476348Y-138446813D01*
X139456434Y-138454083D01*
X139423647Y-138463160D01*
X139376022Y-138466813D01*
X139323236Y-138465228D01*
X139274964Y-138458589D01*
X139246782Y-138450072D01*
X139192247Y-138415063D01*
X139158165Y-138366479D01*
X139142843Y-138301882D01*
X139142701Y-138300223D01*
X139144045Y-138271566D01*
X139265644Y-138271566D01*
X139276274Y-138304161D01*
X139293590Y-138322505D01*
X139328348Y-138336379D01*
X139374227Y-138341917D01*
X139421012Y-138339191D01*
X139458486Y-138328274D01*
X139468985Y-138321269D01*
X139487332Y-138288904D01*
X139491980Y-138252111D01*
X139491980Y-138203763D01*
X139422418Y-138203763D01*
X139356333Y-138208850D01*
X139306236Y-138223263D01*
X139275071Y-138245729D01*
X139265644Y-138271566D01*
X139144045Y-138271566D01*
X139146013Y-138229647D01*
X139169290Y-138173845D01*
G37*
X139169290Y-138173845D02*
X139213052Y-138131647D01*
X139219101Y-138127808D01*
X139245093Y-138115309D01*
X139277265Y-138107740D01*
X139322240Y-138104061D01*
X139375669Y-138103216D01*
X139491980Y-138103169D01*
X139491980Y-138054411D01*
X139487047Y-138016581D01*
X139474457Y-137991236D01*
X139472983Y-137989887D01*
X139444966Y-137978800D01*
X139402674Y-137974503D01*
X139355936Y-137976615D01*
X139314582Y-137984756D01*
X139290043Y-137996965D01*
X139276747Y-138006746D01*
X139262706Y-138008613D01*
X139243329Y-138000600D01*
X139214024Y-137980739D01*
X139170197Y-137947063D01*
X139166175Y-137943909D01*
X139168236Y-137932236D01*
X139185432Y-137912822D01*
X139211567Y-137891248D01*
X139240448Y-137873096D01*
X139249522Y-137868809D01*
X139282620Y-137860256D01*
X139331120Y-137854155D01*
X139385305Y-137851708D01*
X139387839Y-137851703D01*
X139465790Y-137856555D01*
X139524945Y-137872339D01*
X139569977Y-137900948D01*
X139601754Y-137938419D01*
X139611634Y-137954411D01*
X139618927Y-137971163D01*
X139624026Y-137992592D01*
X139627321Y-138022616D01*
X139629203Y-138065154D01*
X139630063Y-138124122D01*
X139630293Y-138203440D01*
X139630297Y-138224484D01*
X139630297Y-138467822D01*
X139569941Y-138467822D01*
X139531443Y-138465126D01*
X139502977Y-138458295D01*
X139495845Y-138454083D01*
X139476348Y-138446813D01*
X139456434Y-138454083D01*
X139423647Y-138463160D01*
X139376022Y-138466813D01*
X139323236Y-138465228D01*
X139274964Y-138458589D01*
X139246782Y-138450072D01*
X139192247Y-138415063D01*
X139158165Y-138366479D01*
X139142843Y-138301882D01*
X139142701Y-138300223D01*
X139144045Y-138271566D01*
X139265644Y-138271566D01*
X139276274Y-138304161D01*
X139293590Y-138322505D01*
X139328348Y-138336379D01*
X139374227Y-138341917D01*
X139421012Y-138339191D01*
X139458486Y-138328274D01*
X139468985Y-138321269D01*
X139487332Y-138288904D01*
X139491980Y-138252111D01*
X139491980Y-138203763D01*
X139422418Y-138203763D01*
X139356333Y-138208850D01*
X139306236Y-138223263D01*
X139275071Y-138245729D01*
X139265644Y-138271566D01*
X139144045Y-138271566D01*
X139146013Y-138229647D01*
X139169290Y-138173845D01*
D12*
X118185000Y-71764000D02*
X118185000Y-71920000D01*
X118185000Y-74080000D02*
X118185000Y-74236000D01*
X121417335Y-74078608D02*
G75*
G02*
X118185000Y-74235516I-1672335J1078608D01*
G01*
X120786130Y-74079837D02*
G75*
G02*
X118704039Y-74080000I-1041130J1079837D01*
G01*
X120786130Y-71920163D02*
G75*
G03*
X118704039Y-71920000I-1041130J-1079837D01*
G01*
X121417335Y-71921392D02*
G75*
G03*
X118185000Y-71764484I-1672335J-1078608D01*
G01*
X162150000Y-96050000D02*
X162150000Y-90350000D01*
X157850000Y-96050000D02*
X157850000Y-90350000D01*
X157850000Y-96050000D02*
X162150000Y-96050000D01*
X128727500Y-108262742D02*
X128727500Y-108737258D01*
X129772500Y-108262742D02*
X129772500Y-108737258D01*
X137440580Y-114490000D02*
X137159420Y-114490000D01*
X137440580Y-115510000D02*
X137159420Y-115510000D01*
X129772500Y-119012742D02*
X129772500Y-119487258D01*
X128727500Y-119012742D02*
X128727500Y-119487258D01*
X157060000Y-102250000D02*
X157060000Y-100300000D01*
X151940000Y-102250000D02*
X151940000Y-100300000D01*
X157060000Y-102250000D02*
X157060000Y-104200000D01*
X151940000Y-102250000D02*
X151940000Y-105700000D01*
X122760000Y-89359420D02*
X122760000Y-89640580D01*
X121740000Y-89359420D02*
X121740000Y-89640580D01*
X146072500Y-135037258D02*
X146072500Y-134562742D01*
X145027500Y-135037258D02*
X145027500Y-134562742D01*
X129760000Y-114109420D02*
X129760000Y-114390580D01*
X128740000Y-114109420D02*
X128740000Y-114390580D01*
X141177500Y-100974758D02*
X141177500Y-100500242D01*
X142222500Y-100974758D02*
X142222500Y-100500242D01*
X138000000Y-116090000D02*
X136100000Y-116090000D01*
X136600000Y-118410000D02*
X138000000Y-118410000D01*
X139440000Y-91500000D02*
X139440000Y-89550000D01*
X144560000Y-91500000D02*
X144560000Y-93450000D01*
X144560000Y-91500000D02*
X144560000Y-89550000D01*
X139440000Y-91500000D02*
X139440000Y-94950000D01*
X136190000Y-102290580D02*
X136190000Y-102009420D01*
X137210000Y-102290580D02*
X137210000Y-102009420D01*
X130765000Y-107700000D02*
X130765000Y-109985000D01*
X132235000Y-109985000D02*
X132235000Y-107700000D01*
X130765000Y-109985000D02*
X132235000Y-109985000D01*
X136600000Y-123160000D02*
X138000000Y-123160000D01*
X138000000Y-120840000D02*
X136100000Y-120840000D01*
X122777500Y-93587258D02*
X122777500Y-93112742D01*
X123822500Y-93587258D02*
X123822500Y-93112742D01*
X115515000Y-76450000D02*
X115515000Y-78735000D01*
X115515000Y-78735000D02*
X116985000Y-78735000D01*
X116985000Y-78735000D02*
X116985000Y-76450000D01*
X157060000Y-91500000D02*
X157060000Y-93450000D01*
X157060000Y-91500000D02*
X157060000Y-89550000D01*
X151940000Y-91500000D02*
X151940000Y-89550000D01*
X151940000Y-91500000D02*
X151940000Y-94950000D01*
M02*
